<svg width="28" height="28" viewBox="0 0 28 28" fill="none" xmlns="http://www.w3.org/2000/svg">
<path d="M11.9375 5.75H14.8057C15.1702 5.75006 15.5198 5.89487 15.7776 6.15262L21.8474 12.2224C22.1051 12.4802 22.2499 12.8298 22.25 13.1943V21.5625C22.25 22.1095 22.0327 22.6341 21.6459 23.0209C21.2591 23.4077 20.7345 23.625 20.1875 23.625H11.25C10.703 23.625 10.1784 23.4077 9.79159 23.0209C9.4048 22.6341 9.1875 22.1095 9.1875 21.5625V16.0625" stroke="#53536E" stroke-width="1.375" stroke-linecap="round" stroke-linejoin="round"/>
<path d="M15.375 6.09375V11.25C15.375 11.6147 15.5199 11.9644 15.7777 12.2223C16.0356 12.4801 16.3853 12.625 16.75 12.625H21.9062" stroke="#53536E" stroke-width="1.375" stroke-linecap="round" stroke-linejoin="round"/>
<path d="M9.875 6.4375V12.9688C9.87679 13.1047 9.85134 13.2396 9.80015 13.3655C9.74896 13.4914 9.67306 13.6058 9.57694 13.7019C9.48082 13.7981 9.36643 13.874 9.2405 13.9251C9.11457 13.9763 8.97967 14.0018 8.84375 14C8.32812 14 7.8125 13.609 7.8125 12.9688V6.78125C7.8125 5.46684 8.52449 4.375 9.875 4.375C11.2255 4.375 11.9375 5.44062 11.9375 6.75461V12.7165C11.9375 14.5642 10.7421 16.0625 8.84375 16.0625C6.94539 16.0625 5.75 14.5646 5.75 12.7165V9.1875" stroke="#53536E" stroke-width="1.375" stroke-miterlimit="10" stroke-linecap="round"/>
</svg>
