<svg width="38" height="38" viewBox="0 0 38 38" fill="none" xmlns="http://www.w3.org/2000/svg">
<path d="M20.2929 12.2929C20.6834 11.9024 21.3166 11.9024 21.7071 12.2929C22.0976 12.6834 22.0976 13.3166 21.7071 13.7071L20.2929 12.2929ZM15 19L14.2929 19.7071C13.9024 19.3166 13.9024 18.6834 14.2929 18.2929L15 19ZM21.7071 24.2929C22.0976 24.6834 22.0976 25.3166 21.7071 25.7071C21.3166 26.0976 20.6834 26.0976 20.2929 25.7071L21.7071 24.2929ZM21.7071 13.7071L15.7071 19.7071L14.2929 18.2929L20.2929 12.2929L21.7071 13.7071ZM15.7071 18.2929L21.7071 24.2929L20.2929 25.7071L14.2929 19.7071L15.7071 18.2929Z" fill="#FF9400"/>
</svg>
