<svg width="38" height="38" viewBox="0 0 38 38" fill="none" xmlns="http://www.w3.org/2000/svg">
<path d="M17.7071 12.2929C17.3166 11.9024 16.6834 11.9024 16.2929 12.2929C15.9024 12.6834 15.9024 13.3166 16.2929 13.7071L17.7071 12.2929ZM23 19L23.7071 19.7071C24.0976 19.3166 24.0976 18.6834 23.7071 18.2929L23 19ZM16.2929 24.2929C15.9024 24.6834 15.9024 25.3166 16.2929 25.7071C16.6834 26.0976 17.3166 26.0976 17.7071 25.7071L16.2929 24.2929ZM16.2929 13.7071L22.2929 19.7071L23.7071 18.2929L17.7071 12.2929L16.2929 13.7071ZM22.2929 18.2929L16.2929 24.2929L17.7071 25.7071L23.7071 19.7071L22.2929 18.2929Z" fill="#FF9400"/>
</svg>
