<svg width="22" height="22" viewBox="0 0 22 22" fill="none" xmlns="http://www.w3.org/2000/svg">
<path d="M5.5 13.7501H19.25M19.25 17.4167H5.5M13.75 10.0834H19.25M19.25 6.41675H13.75M8.25 8.25008H9.16667C9.34797 8.25008 9.52519 8.30384 9.67594 8.40457C9.82668 8.50529 9.94418 8.64846 10.0136 8.81595C10.0829 8.98345 10.1011 9.16776 10.0657 9.34558C10.0304 9.5234 9.94305 9.68673 9.81485 9.81493C9.68665 9.94313 9.52332 10.0304 9.3455 10.0658C9.16768 10.1012 8.98337 10.083 8.81587 10.0136C8.64837 9.94426 8.50521 9.82677 8.40449 9.67602C8.30376 9.52528 8.25 9.34805 8.25 9.16675V6.87508C8.25 6.38885 8.44315 5.92254 8.78697 5.57872C9.13079 5.2349 9.5971 5.04175 10.0833 5.04175M2.75 8.25008H3.66667C3.84797 8.25008 4.02519 8.30384 4.17594 8.40457C4.32668 8.50529 4.44418 8.64846 4.51356 8.81595C4.58294 8.98345 4.60109 9.16776 4.56572 9.34558C4.53035 9.5234 4.44305 9.68673 4.31485 9.81493C4.18665 9.94313 4.02332 10.0304 3.8455 10.0658C3.66768 10.1012 3.48337 10.083 3.31587 10.0136C3.14837 9.94426 3.00521 9.82677 2.90449 9.67602C2.80376 9.52528 2.75 9.34805 2.75 9.16675V6.87508C2.75 6.38885 2.94315 5.92254 3.28697 5.57872C3.63079 5.2349 4.0971 5.04175 4.58333 5.04175" stroke="#53536E" stroke-width="1.83333" stroke-linecap="round" stroke-linejoin="round"/>
</svg>
