<svg width="171" height="28" viewBox="0 0 171 28" fill="none" xmlns="http://www.w3.org/2000/svg">
<g clip-path="url(#clip0_7313_5315)">
<path d="M67.073 2.56786C67.073 1.14823 68.2357 0 69.667 0C71.1031 0 72.2704 1.14823 72.2704 2.56786C72.2704 3.98565 71.1031 5.1351 69.667 5.1351C68.2357 5.1351 67.073 3.98565 67.073 2.56786Z" fill="#273B7D"/>
<path d="M108.079 19.6478C108.079 18.2276 109.241 17.0781 110.673 17.0781C112.108 17.0781 113.275 18.2276 113.275 19.6478C113.275 21.0644 112.108 22.2151 110.673 22.2151C109.241 22.2151 108.079 21.0644 108.079 19.6478Z" fill="#499FDD"/>
<path d="M24.4187 18.5375C22.1804 18.5375 20.6249 16.7856 20.6249 14.2823C20.6249 11.7795 22.1804 10.0289 24.4187 10.0289C26.6699 10.0289 28.2425 11.7795 28.2425 14.2823C28.2425 16.8252 26.7026 18.5375 24.4187 18.5375ZM24.4187 6.28906C19.6832 6.28906 16.2466 9.65161 16.2466 14.2823C16.2466 18.9129 19.6832 22.2749 24.4187 22.2749C29.1719 22.2749 32.6229 18.9129 32.6229 14.2823C32.6229 9.65161 29.1719 6.28906 24.4187 6.28906Z" fill="#273B7D"/>
<path d="M62.0395 14.6826C61.8554 14.3413 61.6444 14.0522 61.4196 13.8228L61.2764 13.6731L61.427 13.5307C61.6444 13.305 61.8666 13.0372 62.0809 12.7269L66.2598 6.60484H61.1868L58.047 11.3937C57.8692 11.6505 57.5103 11.7801 56.9732 11.7801H56.2575V2.72627C56.2575 0.915387 55.1127 0.668945 53.876 0.668945H51.7588L51.7624 22.04H56.2575V15.6295H56.6787C57.1911 15.6295 57.54 15.6879 57.7 15.9623L60.1798 20.5747C60.8724 21.8264 61.5627 22.04 62.8614 22.04H66.3062L63.7406 17.8578L62.0395 14.6826Z" fill="#273B7D"/>
<path d="M83.8618 6.25488C81.5753 6.25488 80.1164 7.25585 79.2988 8.10228L79.0259 8.37428L78.9296 8.00433C78.6894 7.09765 77.8798 6.59867 76.6616 6.59867H74.647L74.6596 22.0338H79.1241V14.9199C79.1241 14.2244 79.2159 13.6207 79.4025 13.0701C79.8995 11.4034 81.2857 10.3671 83.0184 10.3671C84.412 10.3671 84.9566 11.0918 84.9566 12.9648V19.6875C84.9566 21.286 85.7068 22.0338 87.3301 22.0338H89.4548L89.4475 12.2169C89.4475 8.31648 87.5172 6.25488 83.863 6.25488" fill="#273B7D"/>
<path d="M69.7265 6.60547H67.6104L67.6248 18.5399H67.6235V22.0376H69.8822C69.9106 22.0376 69.9334 22.0406 69.9619 22.0406L71.014 22.0376H72.0612V22.0315H72.0684L72.0775 8.94881C72.0775 7.37036 71.3117 6.60549 69.728 6.60549" fill="#273B7D"/>
<path d="M41.9551 18.5375C39.717 18.5375 38.1585 16.7856 38.1585 14.2823C38.1585 11.7795 39.717 10.0289 41.9551 10.0289C44.2016 10.0289 45.7786 11.7795 45.7786 14.2823C45.7786 16.8252 44.2393 18.5375 41.9551 18.5375ZM41.9551 6.28906C37.215 6.28906 33.7776 9.65161 33.7776 14.2823C33.7776 18.9129 37.215 22.2749 41.9551 22.2749C46.7035 22.2749 50.16 18.9129 50.16 14.2823C50.16 9.65161 46.7035 6.28906 41.9551 6.28906Z" fill="#273B7D"/>
<path d="M137.654 18.5375C135.416 18.5375 133.857 16.7856 133.857 14.2823C133.857 11.7795 135.416 10.0289 137.654 10.0289C139.9 10.0289 141.478 11.7795 141.478 14.2823C141.478 16.8252 139.938 18.5375 137.654 18.5375ZM137.654 6.28906C132.914 6.28906 129.477 9.65161 129.477 14.2823C129.477 18.9129 132.914 22.2749 137.654 22.2749C142.402 22.2749 145.858 18.9129 145.858 14.2823C145.858 9.65161 142.402 6.28906 137.654 6.28906Z" fill="#499FDD"/>
<path d="M98.8614 17.8588C96.4205 17.8588 95.5517 15.7601 95.5517 13.7934C95.5517 12.9269 95.774 10.1029 98.6268 10.1029C100.044 10.1029 101.934 10.5033 101.934 13.9389C101.934 17.1791 100.262 17.8588 98.8614 17.8588ZM104.252 6.56449C103.405 6.56449 102.753 6.89734 102.426 7.50523L102.303 7.74132L102.096 7.56426C101.375 6.94967 100.083 6.2207 97.9846 6.2207C93.8099 6.2207 90.9993 9.31065 90.9993 13.9091C90.9993 18.502 93.9074 21.7118 98.0686 21.7118C99.4899 21.7118 100.613 21.385 101.503 20.7206L101.848 20.4656V20.8946C101.848 22.9562 100.495 24.0935 98.0427 24.0935C96.8509 24.0935 95.766 23.8075 95.0406 23.5482C94.0933 23.2665 93.5382 23.4996 93.1541 24.4361L92.7998 25.3001L92.2984 26.5621L92.609 26.7252C94.1786 27.5461 96.2218 28.0359 98.0686 28.0359C101.871 28.0359 106.31 26.118 106.31 20.7206L106.327 6.56449H104.253" fill="#273B7D"/>
<path d="M7.79168 18.3611L4.15737 18.3575V14.0755C4.15737 13.1603 4.51737 12.6845 5.31319 12.5749H7.79168C9.56069 12.5749 10.7037 13.6745 10.7049 15.4531C10.7037 17.2786 9.58911 18.3598 7.79168 18.3611ZM4.15737 6.80994V5.683C4.15737 4.69663 4.58089 4.22748 5.51028 4.16723H7.36997C8.96487 4.16723 9.92014 5.10798 9.92014 6.68155C9.92014 7.88151 9.26622 9.28166 7.42861 9.28166H4.15737V6.80994ZM12.4332 11.0834L11.7762 10.7195L12.3498 10.2364C13.0167 9.6711 14.1349 8.40056 14.1349 6.2051C14.1349 2.84618 11.491 0.678105 7.39893 0.678105H2.72917V0.676758H2.19742C0.984231 0.720582 0.0135743 1.69294 0 2.89595V21.962H2.14312C2.14855 21.9634 2.15036 21.962 2.15217 21.9634L7.49124 21.962C12.0401 21.962 14.9761 19.5219 14.9761 15.7425C14.9761 13.7077 14.0272 11.968 12.4323 11.0833" fill="#273B7D"/>
<path d="M165.802 6.30566C163.949 6.30566 162.159 7.1606 161.009 8.59421L160.685 8.99825L160.432 8.54614C159.605 7.06019 158.182 6.30566 156.203 6.30566C154.127 6.30566 152.736 7.44658 152.089 8.12506L151.666 8.57657L151.503 7.98267C151.267 7.12774 150.495 6.65675 149.325 6.65675H147.448L147.43 22.0323H151.694V15.2451C151.694 14.6506 151.769 14.0622 151.92 13.447C152.327 11.8071 153.446 10.0431 155.326 10.2195C156.485 10.329 157.051 11.212 157.051 12.9176V22.0323H161.345V15.2451C161.345 14.5021 161.416 13.9459 161.586 13.388C161.931 11.8223 163.099 10.2171 164.913 10.2171C166.226 10.2171 166.711 10.9497 166.711 12.9176V19.7845C166.711 21.338 167.414 22.0323 168.99 22.0323H170.996L171 12.2166C171 8.29545 169.248 6.30566 165.801 6.30566" fill="#499FDD"/>
<path d="M127.008 16.694C126.996 16.7092 125.161 18.6156 122.746 18.6156C120.545 18.6156 118.321 17.2848 118.321 14.3142C118.321 11.7493 120.045 9.9567 122.513 9.9567C123.314 9.9567 124.226 10.2397 124.368 10.7155L124.389 10.7958C124.718 11.8747 125.713 11.9325 125.908 11.9325L128.244 11.9349V9.92258C128.244 7.26832 124.818 6.30566 122.513 6.30566C117.583 6.30566 114.006 9.6883 114.006 14.3463C114.006 19.0026 117.544 22.3803 122.423 22.3803C126.655 22.3803 128.957 19.6385 128.979 19.6111L129.102 19.4626L127.252 16.4384L127.008 16.694Z" fill="#499FDD"/>
</g>
<defs>
<clipPath id="clip0_7313_5315">
<rect width="171" height="28" fill="white"/>
</clipPath>
</defs>
</svg>
