<svg width="24" height="24" viewBox="0 0 24 24" fill="none" xmlns="http://www.w3.org/2000/svg">
<g clip-path="url(#clip0_7313_5257)">
<path fill-rule="evenodd" clip-rule="evenodd" d="M20 7.07193C20 5.37648 18.6532 4 16.995 4H7.00493C5.34681 4 4 5.37648 4 7.07193V16.9279C4 18.6229 5.34681 19.9999 7.00495 19.9999H16.9951C18.6532 19.9999 20 18.6229 20 16.9279L20 7.07193Z" fill="#0C3B7C"/>
<path fill-rule="evenodd" clip-rule="evenodd" d="M4.00049 13.9404H11.9915V20.0004H4.00049L4.00049 13.9404Z" fill="#0C3B7C"/>
<path d="M11.2716 14.5903L9.98295 14.589V13.0135C9.98295 12.6768 10.1107 12.5016 10.3924 12.4616H11.2716C11.8987 12.4616 12.3043 12.8658 12.3043 13.5201C12.3043 14.192 11.9089 14.5897 11.2716 14.5903ZM9.98295 10.3407V9.92598C9.98295 9.56309 10.1331 9.39051 10.4624 9.3682H11.1221C11.6875 9.3682 12.0264 9.71402 12.0264 10.2935C12.0264 10.7344 11.794 11.2496 11.1426 11.2496H9.98295V10.3407ZM12.9171 11.913L12.6842 11.7791L12.8876 11.6013C13.1244 11.3933 13.5211 10.9254 13.5211 10.1182C13.5211 8.88194 12.5834 8.08464 11.1324 8.08464H9.47659V8.08398H9.2879C8.85791 8.10039 8.51328 8.45803 8.50879 8.90032V15.9152H11.1651C12.7779 15.9152 13.8188 15.0175 13.8188 13.627C13.8188 12.8783 13.4826 12.2385 12.9171 11.913Z" fill="white"/>
<path d="M14.5107 14.946C14.5107 14.4101 14.9334 13.9766 15.4542 13.9766C15.9763 13.9766 16.401 14.4101 16.401 14.946C16.401 15.4812 15.9763 15.9154 15.4542 15.9154C14.9334 15.9154 14.5107 15.4812 14.5107 14.946Z" fill="#00BAFC"/>
</g>
<defs>
<clipPath id="clip0_7313_5257">
<rect width="16" height="16" fill="white" transform="translate(4 4)"/>
</clipPath>
</defs>
</svg>
