<svg width="26" height="26" viewBox="0 0 26 26" fill="none" xmlns="http://www.w3.org/2000/svg"><path d="M24.248 12.216a1.231 1.231 0 0 0-1-.704 4.35 4.35 0 0 1-2.77-1.394 5.252 5.252 0 0 1-1.045-5.193 1.303 1.303 0 0 0-.243-1.256 1.182 1.182 0 0 0-1.105-.4l-.015.002a6.44 6.44 0 0 0-5.054 6.037 5.983 5.983 0 0 0-2.047-.37 6.135 6.135 0 0 0-5.81 4.26A4.87 4.87 0 0 0 6.5 22.75h8.938A4.856 4.856 0 0 0 20 16.18a6.098 6.098 0 0 0 4.17-2.728 1.249 1.249 0 0 0 .078-1.235Zm-8.81 8.91H6.5a3.244 3.244 0 0 1-.547-6.444l.539-.09.118-.534a4.466 4.466 0 0 1 8.718 0l.117.533.54.092a3.244 3.244 0 0 1-.548 6.442Zm3.627-6.502h-.017a4.84 4.84 0 0 0-2.27-1.426 6.1 6.1 0 0 0-2.113-2.987c-.008-.082-.03-.16-.034-.244a4.938 4.938 0 0 1 3.08-4.915 6.873 6.873 0 0 0 1.576 6.171 6.012 6.012 0 0 0 3.17 1.81 4.41 4.41 0 0 1-3.392 1.591Z" fill="#53536E"/></svg>