<svg width="16" height="18" viewBox="0 0 16 18" fill="none" xmlns="http://www.w3.org/2000/svg">
<path d="M8.0001 6.32319C9.20262 12.5227 6.4875 16.9137 6.4875 16.9137H8.75641C10.1783 12.1887 9.51271 8.84048 9.13456 7.13785L8.0001 6.32319ZM10.7682 4.82423C10.8967 4.9953 11.0253 5.17453 11.1236 5.3619C11.7399 6.41125 12.0263 7.64635 11.9405 8.88457C11.8547 10.1228 11.4012 11.2984 10.6472 12.2376C10.9739 11.3844 11.1066 10.4594 11.0343 9.53971C10.9619 8.62004 10.6866 7.73231 10.2312 6.95048C10.1707 6.84457 10.1026 6.75496 10.0421 6.6572C9.60725 6.00339 9.05094 5.4541 8.40851 5.04418C7.31948 5.41858 6.36916 6.15623 5.69485 7.15054C5.02055 8.14486 4.65718 9.34434 4.65725 10.5757C4.65725 11.1785 4.74044 11.7569 4.8917 12.2946C4.23594 11.3121 3.88401 10.132 3.88582 8.92194C3.88582 7.0075 4.748 5.31302 6.07153 4.25397C4.97489 4.16436 3.81019 4.42505 2.79674 5.10121C2.32784 5.43522 1.91943 5.81811 1.57153 6.24987C1.9875 5.16638 2.70599 4.19694 3.68918 3.52892C4.82363 2.76315 6.10935 2.51061 7.34968 2.70612C7.0396 2.24992 6.66145 1.81815 6.20767 1.43526C5.76901 1.09311 5.29254 0.816123 4.79338 0.620605C5.88246 0.653192 6.97153 1.02793 7.90178 1.78556C8.37825 2.16845 8.75641 2.6328 9.05893 3.1216C9.13456 3.1216 9.20262 3.11345 9.27825 3.11345C11.6984 3.11345 13.748 4.83237 14.4287 7.20302C14.0031 6.55673 13.4585 6.01191 12.8286 5.60261C12.1988 5.19332 11.4974 4.92833 10.7682 4.82423V4.82423Z" fill="#53536E"/>
</svg>
