<svg width="42" height="42" viewBox="0 0 42 42" fill="none" xmlns="http://www.w3.org/2000/svg"><path d="M30.789 26.666a.948.948 0 0 0-.5-.682l-4.013-2.365-.033-.019a1.193 1.193 0 0 0-.542-.126c-.337 0-.658.128-.88.351l-1.185 1.185a.694.694 0 0 1-.266.12c-.014 0-1.379-.099-3.891-2.611-2.508-2.508-2.615-3.877-2.616-3.877a.633.633 0 0 1 .12-.285l1.01-1.01c.356-.357.463-.948.252-1.407l-2.232-4.197a.922.922 0 0 0-.826-.54.951.951 0 0 0-.672.288L11.76 14.24a2.11 2.11 0 0 0-.541 1.091c-.024.177-.513 4.394 5.27 10.177 4.908 4.908 8.735 5.29 9.792 5.29.13.001.258-.005.386-.02a2.11 2.11 0 0 0 1.09-.54l2.75-2.75a.948.948 0 0 0 .281-.82Z" fill="#53536E"/></svg>