<svg width="37" height="37" viewBox="0 0 37 37" fill="none" xmlns="http://www.w3.org/2000/svg">
<path d="M18.5 37C28.7173 37 37 28.7173 37 18.5C37 8.28273 28.7173 0 18.5 0C8.28273 0 0 8.28273 0 18.5C0 28.7173 8.28273 37 18.5 37Z" fill="url(#paint0_linear_4302_2535)"/>
<path d="M12.5225 19.8519L14.7173 25.927C14.7173 25.927 14.9917 26.4954 15.2856 26.4954C15.5794 26.4954 19.9499 21.9487 19.9499 21.9487L24.81 12.5615L12.6008 18.2837L12.5225 19.8519Z" fill="#C8DAEA"/>
<path d="M15.4326 21.4102L15.0113 25.8881C15.0113 25.8881 14.8349 27.2602 16.2067 25.8881C17.5785 24.516 18.8915 23.458 18.8915 23.458" fill="#A9C6D8"/>
<path d="M12.5627 20.0694L8.04777 18.5984C8.04777 18.5984 7.50819 18.3795 7.68193 17.8831C7.7177 17.7807 7.78985 17.6936 8.00568 17.5439C9.00607 16.8466 26.522 10.5509 26.522 10.5509C26.522 10.5509 27.0166 10.3842 27.3083 10.4951C27.3804 10.5174 27.4454 10.5585 27.4964 10.6142C27.5475 10.6698 27.5828 10.7381 27.5989 10.8119C27.6304 10.9423 27.6436 11.0764 27.638 11.2104C27.6366 11.3263 27.6226 11.4338 27.612 11.6023C27.5053 13.3236 24.3128 26.17 24.3128 26.17C24.3128 26.17 24.1218 26.9217 23.4375 26.9474C23.2693 26.9529 23.1017 26.9244 22.9448 26.8637C22.7879 26.803 22.6448 26.7113 22.524 26.5941C21.1811 25.4389 16.5394 22.3195 15.5138 21.6335C15.4906 21.6177 15.4711 21.5972 15.4566 21.5732C15.4421 21.5493 15.4329 21.5225 15.4296 21.4947C15.4152 21.4224 15.4939 21.3328 15.4939 21.3328C15.4939 21.3328 23.5762 14.1487 23.7913 13.3945C23.8079 13.3361 23.745 13.3072 23.6605 13.3328C23.1237 13.5303 13.8179 19.407 12.7909 20.0556C12.7169 20.0779 12.6388 20.0827 12.5627 20.0694V20.0694Z" fill="white"/>
<defs>
<linearGradient id="paint0_linear_4302_2535" x1="18.5" y1="37" x2="18.5" y2="0" gradientUnits="userSpaceOnUse">
<stop stop-color="#1D93D2"/>
<stop offset="1" stop-color="#38B0E3"/>
</linearGradient>
</defs>
</svg>
