<svg width="176" height="38" viewBox="0 0 176 38" fill="none" xmlns="http://www.w3.org/2000/svg">
<g clip-path="url(#clip0_7313_5329)">
<path d="M175.011 25.3918C174.465 25.3918 174.021 25.8418 174.021 26.3959C174.021 26.95 174.465 27.4 175.011 27.4C175.557 27.4 176 26.95 176 26.3959C176 25.8418 175.557 25.3918 175.011 25.3918ZM175.011 27.2408C174.551 27.2408 174.178 26.8607 174.178 26.3959C174.178 25.9288 174.553 25.551 175.011 25.551C175.471 25.551 175.845 25.931 175.845 26.3959C175.845 26.8608 175.471 27.2408 175.011 27.2408ZM175.333 26.2239C175.333 26.0414 175.205 25.9331 175.017 25.9331H174.701V26.8481H174.856V26.5169H175.025L175.188 26.8481H175.356L175.176 26.483C175.272 26.4384 175.333 26.3491 175.333 26.2239ZM175.011 26.3747H174.858V26.0711H175.011C175.115 26.0711 175.178 26.1242 175.178 26.2219C175.178 26.3216 175.113 26.3747 175.011 26.3747ZM55.8055 15.2294V12.8008H52.1369V27.2493H55.8055V18.5858C55.8055 17.0169 56.7969 16.2463 58.3426 16.2463H60.3505V12.8008H58.6354C57.2926 12.8008 56.1255 13.5119 55.8055 15.2294ZM63.787 7.08594C62.532 7.08594 61.5699 8.09221 61.5699 9.36595C61.5699 10.61 62.532 11.6162 63.787 11.6162C65.0419 11.6162 66.004 10.61 66.004 9.36595C66.004 8.09216 65.0419 7.08594 63.787 7.08594ZM61.9568 27.2493H65.6171V12.8008H61.9568V27.2493ZM83.0524 20.025C83.0524 24.1498 79.7582 27.4935 75.6943 27.4935C74.0544 27.4935 72.5673 26.9479 71.3751 26.0265V31.4909H67.7149V12.8008H71.3751V14.0235C72.5673 13.1022 74.0544 12.5566 75.6943 12.5566C79.7582 12.5566 83.0524 15.9002 83.0524 20.025ZM79.3692 20.025C79.3692 17.7854 77.5788 15.9681 75.3722 15.9681C73.1655 15.9681 71.3752 17.7854 71.3752 20.025C71.3752 22.2647 73.1656 24.0819 75.3722 24.0819C77.5788 24.0819 79.3692 22.2669 79.3692 20.025ZM146.67 18.7577L144.534 18.1633C143.129 17.7917 142.583 17.3544 142.583 16.6008C142.583 15.8663 143.353 15.3525 144.453 15.3525C145.501 15.3525 146.323 16.0488 146.323 16.9404V17.0232H149.696V16.9404C149.696 14.3186 147.59 12.5566 144.453 12.5566C141.347 12.5566 139.09 14.3165 139.09 16.7429C139.09 18.6302 140.322 20.0526 142.472 20.6427L144.518 21.2096C146.072 21.6469 146.649 22.1309 146.649 22.9992C146.649 23.9142 145.814 24.5298 144.572 24.5298C143.277 24.5298 142.405 23.6976 142.405 22.4621V22.3793H138.824V22.4621C138.824 25.4257 141.175 27.4976 144.543 27.4976C147.787 27.4976 150.142 25.4745 150.142 22.6892C150.142 21.3221 149.54 19.5347 146.67 18.7577ZM96.037 12.8008H99.6972V27.2493H96.037V26.0264C94.8448 26.9478 93.3576 27.4934 91.7179 27.4934C87.654 27.4934 84.3597 24.1498 84.3597 20.025C84.3597 15.9001 87.654 12.5566 91.7179 12.5566C93.3576 12.5566 94.8448 13.1022 96.037 14.0235V12.8008ZM96.037 20.025C96.037 17.7833 94.2466 15.9681 92.0399 15.9681C89.8333 15.9681 88.043 17.7854 88.043 20.025C88.043 22.2647 89.8333 24.0819 92.0399 24.0819C94.2486 24.0819 96.037 22.2669 96.037 20.025ZM112.914 7.65911H116.574V27.2514H112.914V26.0286C111.722 26.95 110.235 27.4955 108.595 27.4955C104.531 27.4955 101.237 24.1519 101.237 20.0271C101.237 15.9023 104.531 12.5587 108.595 12.5587C110.235 12.5587 111.722 13.1043 112.914 14.0256V7.65911ZM112.914 20.025C112.914 17.7854 111.124 15.9681 108.917 15.9681C106.71 15.9681 104.92 17.7854 104.92 20.025C104.92 22.2647 106.708 24.0819 108.917 24.0819C111.124 24.0819 112.914 22.2669 112.914 20.025ZM133.568 27.2493H137.228V12.8008H133.568V27.2493ZM135.398 7.08594C134.143 7.08594 133.181 8.09221 133.181 9.36595C133.181 10.61 134.143 11.6162 135.398 11.6162C136.653 11.6162 137.615 10.61 137.615 9.36595C137.615 8.09216 136.653 7.08594 135.398 7.08594ZM165.963 20.025C165.963 24.1498 162.668 27.4935 158.604 27.4935C154.54 27.4935 151.246 24.1499 151.246 20.025C151.246 15.9002 154.54 12.5566 158.604 12.5566C162.668 12.5566 165.963 15.9002 165.963 20.025ZM162.601 20.025C162.601 17.7854 160.811 15.9681 158.604 15.9681C156.398 15.9681 154.607 17.7854 154.607 20.025C154.607 22.2647 156.396 24.0819 158.604 24.0819C160.811 24.0819 162.601 22.2669 162.601 20.025ZM53.9314 7.65911H39.8906V10.973H45.0882V27.2493H48.7359V10.973H53.9335V7.65911H53.9314ZM124.938 23.2922L121.682 12.8008H117.837L122.721 27.2493H127.126L132.039 12.8008H128.195L124.938 23.2922ZM171.325 15.2294V12.8008H167.657V27.2493H171.325V18.5858C171.325 17.0169 172.317 16.2463 173.862 16.2463H175.87V12.8008H174.155C172.812 12.8008 171.648 13.5119 171.325 15.2294Z" fill="black"/>
<path d="M18.7199 38C29.0584 38 37.4395 29.4934 37.4395 19C37.4395 8.50659 29.0584 0 18.7199 0C8.3813 0 0.000244141 8.50659 0.000244141 19C0.000244141 29.4934 8.3813 38 18.7199 38Z" fill="#34E0A1"/>
<path d="M30.2818 15.2936L32.5407 12.7992H27.5314C25.0236 11.0605 21.995 10.0479 18.7195 10.0479C15.4483 10.0479 12.4281 11.0626 9.92446 12.7992H4.90259L7.16149 15.2936C5.77689 16.5758 4.90888 18.4228 4.90888 20.4735C4.90888 24.3435 8.00027 27.4812 11.8132 27.4812C13.6245 27.4812 15.2748 26.7722 16.5067 25.613L18.7196 28.0586L20.9325 25.6152C22.1644 26.7743 23.8126 27.4812 25.6239 27.4812C29.4368 27.4812 32.5324 24.3435 32.5324 20.4735C32.5344 18.4206 31.6665 16.5737 30.2818 15.2936ZM11.8153 25.216C9.23423 25.216 7.14271 23.0932 7.14271 20.4735C7.14271 17.8538 9.23428 15.7309 11.8153 15.7309C14.3963 15.7309 16.4878 17.8538 16.4878 20.4735C16.4878 23.0932 14.3963 25.216 11.8153 25.216ZM18.7216 20.3355C18.7216 17.2148 16.4858 14.5357 13.5345 13.3914C15.1304 12.7142 16.8811 12.3385 18.7195 12.3385C20.558 12.3385 22.3107 12.7142 23.9067 13.3914C20.9576 14.5378 18.7216 17.2148 18.7216 20.3355ZM25.626 25.216C23.0449 25.216 20.9534 23.0932 20.9534 20.4735C20.9534 17.8538 23.0449 15.7309 25.626 15.7309C28.207 15.7309 30.2985 17.8538 30.2985 20.4735C30.2985 23.0932 28.207 25.216 25.626 25.216ZM25.626 17.9854C24.2727 17.9854 23.1767 19.0978 23.1767 20.4714C23.1767 21.8449 24.2727 22.9573 25.626 22.9573C26.9792 22.9573 28.0752 21.8449 28.0752 20.4714C28.0752 19.0999 26.9792 17.9854 25.626 17.9854ZM14.2645 20.4735C14.2645 21.847 13.1685 22.9594 11.8153 22.9594C10.462 22.9594 9.36604 21.847 9.36604 20.4735C9.36604 19.0999 10.462 17.9875 11.8153 17.9875C13.1685 17.9854 14.2645 19.0999 14.2645 20.4735Z" fill="black"/>
</g>
<defs>
<clipPath id="clip0_7313_5329">
<rect width="176" height="38" fill="white"/>
</clipPath>
</defs>
</svg>
