<svg width="24" height="24" viewBox="0 0 24 24" fill="none" xmlns="http://www.w3.org/2000/svg">
<path d="M21 12C21 16.975 16.975 21 12 21C7.025 21 3 16.975 3 12C3 7.025 7.025 3 12 3C16.975 3 21 7.025 21 12Z" fill="#34E0A1"/>
<path d="M17.8642 10.3294L19 9.22353H16.4642C15.1962 8.44706 13.6642 8 12 8C10.3358 8 8.80377 8.44706 7.53585 9.22353H5L6.13585 10.3294C5.42264 10.8941 5 11.7176 5 12.6353C5 14.3529 6.55849 15.7412 8.48679 15.7412C9.41132 15.7412 10.2302 15.4353 10.8642 14.9176L12 16L13.1094 14.9176C13.7434 15.4353 14.5623 15.7412 15.4868 15.7412C17.4151 15.7412 18.9736 14.3529 18.9736 12.6353C19 11.7176 18.5509 10.8941 17.8642 10.3294ZM8.51321 14.7294C7.19245 14.7294 6.13585 13.7882 6.13585 12.6118C6.13585 11.4353 7.19245 10.4941 8.51321 10.4941C9.83396 10.4941 10.8906 11.4353 10.8906 12.6118C10.8642 13.7882 9.80755 14.7294 8.51321 14.7294ZM12 12.5647C12 11.1765 10.8642 9.97647 9.38491 9.48235C10.2038 9.17647 11.0755 9.01176 12 9.01176C12.9245 9.01176 13.8226 9.17647 14.6151 9.48235C13.1358 10 12 11.1765 12 12.5647ZM15.4868 14.7294C14.166 14.7294 13.1094 13.7882 13.1094 12.6118C13.1094 11.4353 14.166 10.4941 15.4868 10.4941C16.8075 10.4941 17.8642 11.4353 17.8642 12.6118C17.8642 13.7882 16.8075 14.7294 15.4868 14.7294ZM15.4868 11.5294C14.8 11.5294 14.2453 12.0235 14.2453 12.6353C14.2453 13.2471 14.8 13.7412 15.4868 13.7412C16.1736 13.7412 16.7283 13.2471 16.7283 12.6353C16.7283 12.0235 16.1736 11.5294 15.4868 11.5294ZM9.75472 12.6353C9.75472 13.2471 9.2 13.7412 8.51321 13.7412C7.82641 13.7412 7.2717 13.2471 7.2717 12.6353C7.2717 12.0235 7.82641 11.5294 8.51321 11.5294C9.2 11.5294 9.75472 12.0235 9.75472 12.6353Z" fill="black"/>
</svg>
