<svg width="42" height="42" viewBox="0 0 42 42" fill="none" xmlns="http://www.w3.org/2000/svg"><path d="M21 8C13.82 8 8 13.82 8 21s5.82 13 13 13 13-5.82 13-13S28.18 8 21 8Zm0 24.05a11.052 11.052 0 1 1 .001-22.103A11.052 11.052 0 0 1 21 32.05Zm0-10.4c-3.95 0-7.15 2.246-7.15 4.55s3.2 4.55 7.15 4.55 7.15-2.246 7.15-4.55-3.2-4.55-7.15-4.55Zm0-.65a3.9 3.9 0 1 0 0-7.8 3.9 3.9 0 0 0 0 7.8Z" fill="#53536E"/><rect x="26" y="10" width="10" height="10" rx="5" fill="#F6F6F6"/><path d="M32.933 12a2.162 2.162 0 0 0-1.55.655l-.32.329-.322-.33a2.162 2.162 0 0 0-3.1 0 2.275 2.275 0 0 0 0 3.166l3.423 3.492 3.42-3.492a2.275 2.275 0 0 0 0-3.165 2.164 2.164 0 0 0-1.55-.655Z" fill="url(#a)"/><defs><linearGradient id="a" x1="27.102" y1="5.268" x2="38.632" y2="7.505" gradientUnits="userSpaceOnUse"><stop offset=".241" stop-color="#FF9400"/><stop offset="1" stop-color="#FF1821"/></linearGradient></defs></svg>