<svg width="35" height="37" viewBox="0 0 35 37" fill="none" xmlns="http://www.w3.org/2000/svg">
<g clip-path="url(#clip0_7325_4694)">
<path d="M31.0827 3.61853C30.1619 2.79318 26.4786 0.0743725 18.1912 0.0258224C18.1912 0.0258224 8.44986 -0.556785 3.70035 3.81273C1.03481 6.48298 0.113987 10.3185 0.017058 15.1249C-0.0798708 19.9314 -0.225251 28.9132 8.44987 31.3892V35.1276C8.44987 35.1276 8.4014 36.6326 9.37069 36.9239C10.5823 37.3123 11.2608 36.1471 12.4239 34.9334C13.054 34.2537 13.9263 33.2827 14.5564 32.5059C20.469 32.9914 25.0247 31.8747 25.5578 31.6805C26.7694 31.2921 33.5059 30.4182 34.6206 21.4364C35.7838 12.1148 34.136 6.24024 31.0827 3.61853Z" fill="#F6F6F8"/>
<path d="M31.0827 3.61853C30.1619 2.79318 26.4786 0.0743725 18.1912 0.0258224C18.1912 0.0258224 8.44986 -0.556785 3.70035 3.81273C1.03481 6.48298 0.113987 10.3185 0.017058 15.1249C-0.0798708 19.9314 -0.225251 28.9132 8.44987 31.3892V35.1276C8.44987 35.1276 8.4014 36.6326 9.37069 36.9239C10.5823 37.3123 11.2608 36.1471 12.4239 34.9334C13.054 34.2537 13.9263 33.2827 14.5564 32.5059C20.469 32.9914 25.0247 31.8747 25.5578 31.6805C26.7694 31.2921 33.5059 30.4182 34.6206 21.4364C35.7838 12.1148 34.136 6.24024 31.0827 3.61853V3.61853ZM32.1005 20.7082C31.1797 28.2335 25.7032 28.7189 24.6854 29.0102C24.2493 29.1559 20.2752 30.1269 15.2349 29.8356C15.2349 29.8356 11.5031 34.3508 10.2915 35.5645C10.0977 35.7587 9.90379 35.8073 9.7584 35.8073C9.56454 35.7587 9.51608 35.516 9.51608 35.1761C9.51608 34.6906 9.56454 28.9617 9.56454 28.9617C2.24643 26.9226 2.6826 19.2517 2.73107 15.222C2.82799 11.1923 3.55497 7.93949 5.78433 5.70618C9.80687 2.06492 18.0943 2.59897 18.0943 2.59897C25.0731 2.64752 28.4172 4.73518 29.1926 5.46343C31.7128 7.69674 33.0213 12.9887 32.1005 20.7082V20.7082Z" fill="#665CA7"/>
<path d="M21.584 14.9307C21.4871 13.0857 20.5662 12.1147 18.7729 12.0176" stroke="#665CA7" stroke-linecap="round" stroke-linejoin="round"/>
<path d="M24.007 15.7078C24.0554 14.0085 23.5223 12.5519 22.5045 11.4352C21.4383 10.27 19.9843 9.63882 18.1426 9.49316" stroke="#665CA7" stroke-linecap="round" stroke-linejoin="round"/>
<path d="M26.4303 16.679C26.4303 13.7173 25.5094 11.3868 23.7646 9.68751C22.0198 7.98819 19.8389 7.11426 17.2217 7.11426" stroke="#665CA7" stroke-linecap="round" stroke-linejoin="round"/>
<path d="M18.8698 21.1934C18.8698 21.1934 19.5483 21.2419 19.8876 20.805L20.5661 19.9311C20.9053 19.4941 21.6808 19.2028 22.5047 19.6398C22.9408 19.8825 23.7163 20.368 24.2009 20.7564C24.734 21.1448 25.8002 22.0187 25.8002 22.0187C26.3333 22.4557 26.4303 23.0868 26.091 23.7665C25.7518 24.3977 25.2671 24.9803 24.6371 25.5143C24.1524 25.9513 23.6678 26.1455 23.1832 26.2426H22.9893C22.7954 26.2426 22.5531 26.194 22.3593 26.1455C21.6323 25.9513 20.4207 25.4172 18.3367 24.3006C17.0282 23.5723 15.9135 22.7955 14.9927 22.0673C14.508 21.6789 13.9749 21.2419 13.4903 20.7079L13.2964 20.5137C12.7633 19.9796 12.3271 19.4941 11.9394 19.0086C11.2125 18.0862 10.437 16.9695 9.71006 15.6587C8.59538 13.6195 8.06228 12.4058 7.86842 11.629C7.81995 11.4348 7.77148 11.2406 7.77148 10.9978V10.8036C7.81995 10.3181 8.06227 9.83263 8.49845 9.34713C9.03156 8.76453 9.61313 8.27903 10.2432 7.89063C10.9217 7.55078 11.5517 7.64788 11.9879 8.18193C11.9879 8.18193 12.8603 9.25004 13.248 9.7841C13.5872 10.2696 14.0719 11.0464 14.3626 11.4834C14.7988 12.2602 14.508 13.0855 14.1203 13.4254L13.248 14.1051C12.8118 14.4449 12.8602 15.1246 12.8602 15.1246C12.8602 15.1246 14.0719 19.9311 18.8698 21.1934V21.1934Z" fill="#665CA7"/>
</g>
<defs>
<clipPath id="clip0_7325_4694">
<rect width="35" height="37" fill="white"/>
</clipPath>
</defs>
</svg>
