<svg width="14" height="14" viewBox="0 0 14 14" fill="none" xmlns="http://www.w3.org/2000/svg">
<g clip-path="url(#clip0_262_4)">
<path d="M7.87499 0.436371C7.39433 0.436371 6.99956 0.831128 6.99956 1.31179C6.99956 1.48858 7.05385 1.65344 7.14525 1.79158C5.9659 1.92776 4.96443 2.39587 4.22716 3.13314C3.56711 3.79319 3.1219 4.66488 2.93816 5.68638H12.8114C12.6277 4.66488 12.1824 3.79319 11.5224 3.13314C10.785 2.39579 9.78373 1.9277 8.6043 1.79158C8.6957 1.65344 8.74999 1.48858 8.74999 1.31179C8.74999 0.831136 8.35565 0.436371 7.87499 0.436371ZM2.40538 6.12386C2.28458 6.1243 2.18703 6.22267 2.18749 6.34347C2.18749 6.94561 2.67865 7.43678 3.28081 7.43678H12.4687C13.0709 7.43678 13.5621 6.94561 13.5621 6.34347C13.5625 6.22266 13.465 6.12434 13.3442 6.12386H2.40538ZM3.91015 7.87386C3.69672 8.02949 3.51467 8.20738 3.34575 8.37631L2.69036 9.03169L4.96886 11.3102L5.40465 10.8727C5.61424 10.6631 5.79657 10.4997 6.3446 10.4997H9.40795C9.91756 10.4997 10.238 10.1961 10.4363 9.99771L11.5702 8.86549C11.8379 8.59786 11.8817 8.1913 11.7091 7.87386C11.1997 7.87389 10.699 7.87381 10.1924 7.87386L9.31566 8.7493C9.02923 8.7492 8.87506 8.74952 8.67351 8.74973C8.49247 9.25844 8.00675 9.62474 7.43706 9.62474H5.90624C5.84906 9.62348 5.79466 9.59985 5.75467 9.55897C5.71468 9.51808 5.69228 9.46318 5.69228 9.40599C5.69228 9.3488 5.71468 9.29387 5.75467 9.25299C5.79466 9.2121 5.84906 9.1885 5.90624 9.18724H7.43706C7.92558 9.18723 8.31249 8.80033 8.31249 8.31179C8.31246 8.30959 8.31246 8.30739 8.31249 8.30518C8.30993 8.14363 8.26451 7.99985 8.19072 7.87409C6.62123 7.87423 5.47623 7.87407 3.91015 7.87386ZM1.97045 8.96805C1.91464 8.96783 1.85848 8.98855 1.81536 9.03171L0.502433 10.3446C0.416466 10.4302 0.416466 10.5693 0.502433 10.6548L3.34575 13.4986C3.43128 13.5845 3.57041 13.5845 3.65594 13.4986L4.96715 12.1856C5.05198 12.1003 5.05198 11.9625 4.96715 11.8772L2.12383 9.03171C2.08183 8.98971 2.02629 8.9683 1.97045 8.96805Z" fill="#53536E"/>
</g>
<defs>
<clipPath id="clip0_262_4">
<rect width="14" height="14" fill="white"/>
</clipPath>
</defs>
</svg>
