<svg width="14" height="14" viewBox="0 0 14 14" fill="none" xmlns="http://www.w3.org/2000/svg">
<g clip-path="url(#clip0_263_275)">
<path d="M9.07599 7.02408C8.73906 7.02408 8.46494 7.2982 8.46494 7.6351C8.46494 7.972 8.73906 8.24612 9.07599 8.24612C9.41292 8.24612 9.68701 7.972 9.68701 7.6351C9.68701 7.2982 9.41292 7.02408 9.07599 7.02408Z" fill="#53536E"/>
<path d="M9.076 6.20379C9.26035 6.20379 9.41036 6.05381 9.41036 5.86945C9.41036 5.6851 9.26038 5.5351 9.076 5.5351C8.89162 5.5351 8.74164 5.68508 8.74164 5.86945C8.74164 6.05383 8.89165 6.20379 9.076 6.20379Z" fill="#53536E"/>
<path d="M7 2.05078C4.27098 2.05078 2.05078 4.27098 2.05078 7C2.05078 9.72902 4.27098 11.9492 7 11.9492C9.72902 11.9492 11.9492 9.72902 11.9492 7C11.9492 4.27098 9.72902 2.05078 7 2.05078ZM5.41316 7.41016H4.77416V8.04915H3.95385V7.41016H3.31486V6.58984H3.95385V5.95085H4.77416V6.58984H5.41316V7.41016ZM6.98329 9.06645H6.16298V5.53509H5.40818V4.71477H6.98329V9.06645ZM9.07599 9.06645C8.28674 9.06645 7.64463 8.42436 7.64463 7.63511C7.64463 7.20158 7.83863 6.81275 8.14406 6.55006C8.00417 6.35906 7.92132 6.12377 7.92132 5.86942C7.92132 5.23275 8.43929 4.71475 9.07599 4.71475C9.71269 4.71475 10.2307 5.23272 10.2307 5.86942C10.2307 6.12377 10.1478 6.35906 10.0079 6.55006C10.3134 6.81275 10.5074 7.20158 10.5074 7.63511C10.5074 8.42436 9.86524 9.06645 9.07599 9.06645Z" fill="#53536E"/>
<path d="M11.9498 2.05026C10.6276 0.728137 8.86977 0 7 0C5.13023 0 3.37239 0.728137 2.05023 2.05026C0.728137 3.37239 0 5.13023 0 7C0 8.86977 0.728137 10.6276 2.05023 11.9497C3.37239 13.2719 5.13023 14 7 14C8.86977 14 10.6276 13.2719 11.9498 11.9497C13.2719 10.6276 14 8.86977 14 7C14 5.13023 13.2719 3.37239 11.9498 2.05026ZM7 12.7695C3.81866 12.7695 1.23047 10.1813 1.23047 7C1.23047 3.81866 3.81866 1.23047 7 1.23047C10.1813 1.23047 12.7695 3.81866 12.7695 7C12.7695 10.1813 10.1813 12.7695 7 12.7695Z" fill="#53536E"/>
</g>
<defs>
<clipPath id="clip0_263_275">
<rect width="14" height="14" fill="white"/>
</clipPath>
</defs>
</svg>
