<svg width="14" height="14" viewBox="0 0 14 14" fill="none" xmlns="http://www.w3.org/2000/svg">
<path d="M11.242 11.2653H9.84433C9.863 11.179 9.86067 11.088 9.83733 10.9993L9.37533 9.20967C9.128 8.24834 8.26933 7.57867 7.301 7.54367L7.80733 5.72833C9.74867 5.327 10.2597 3.43467 10.3903 2.625C10.416 2.457 10.3693 2.28433 10.2573 2.15367C10.1453 2.02533 9.98433 1.95067 9.814 1.95067C9.55267 1.95067 9.32867 2.11634 9.254 2.366C9.149 2.723 8.827 3.59567 8.113 3.983C7.959 4.067 7.77 4.11134 7.567 4.11134H5.61633C5.53 4.11134 3.56067 4.12534 2.576 6.24867C2.49433 6.426 2.50833 6.62667 2.611 6.79234C2.716 6.95567 2.89333 7.05134 3.087 7.05134C3.283 7.05134 3.46033 6.95334 3.563 6.79C3.724 6.53334 4.14867 5.978 4.91867 5.79367L2.96333 12.0447C2.905 12.2313 2.93767 12.4273 3.05433 12.586C3.16867 12.7423 3.34833 12.8333 3.542 12.8333C3.76833 12.8333 3.97367 12.7073 4.07867 12.509L5.75633 9.32634L7.119 9.254C7.67667 9.226 8.17367 9.576 8.33933 10.1033L8.69867 11.2653H7.82833C7.7 11.2653 7.595 11.368 7.595 11.4987V12.6C7.595 12.7283 7.7 12.8333 7.82833 12.8333H11.242C11.3703 12.8333 11.4753 12.7283 11.4753 12.6V11.4987C11.4753 11.368 11.3703 11.2653 11.242 11.2653Z" fill="#53536E"/>
<path d="M6.91833 3.77534C7.637 3.77534 8.22266 3.18967 8.22266 2.47101C8.22266 1.75234 7.637 1.16667 6.91833 1.16667C6.19733 1.16667 5.61166 1.75234 5.61166 2.47101C5.61166 3.18967 6.19733 3.77534 6.91833 3.77534Z" fill="#53536E"/>
</svg>
