<svg width="14" height="14" viewBox="0 0 14 14" fill="none" xmlns="http://www.w3.org/2000/svg">
<g clip-path="url(#clip0_280_388)">
<path d="M10.9603 11.2949C13.0621 9.10167 12.988 5.61993 10.7947 3.51818C8.60153 1.41643 5.11979 1.49058 3.01804 3.68377C0.979315 5.81124 0.979315 9.16741 3.01804 11.2949L1.58898 13.2C1.4233 13.4209 1.46806 13.7343 1.68897 13.9C1.90988 14.0656 2.22331 14.0209 2.38899 13.8L3.77405 11.9529C5.69013 13.349 8.28822 13.349 10.2043 11.9529L11.5893 13.8C11.755 14.0209 12.0684 14.0657 12.2894 13.9C12.5103 13.7343 12.5551 13.4209 12.3893 13.2L10.9603 11.2949ZM7.48923 7.49974C7.48923 7.60794 7.45413 7.71321 7.38924 7.79975L5.88918 9.79984C5.7235 10.0208 5.41007 10.0655 5.18917 9.89983C4.96826 9.73412 4.92346 9.42072 5.08917 9.19982L6.48924 7.33324V4.49963C6.48924 4.22347 6.7131 3.9996 6.98926 3.9996C7.26543 3.9996 7.48929 4.22347 7.48929 4.49963V7.49974H7.48923Z" fill="#53536E"/>
<path d="M4.25658 0.731985C3.26801 -0.231977 1.68519 -0.212025 0.721198 0.776547C-0.225536 1.74745 -0.225653 3.29608 0.720964 4.26713C0.916235 4.46235 1.23274 4.46235 1.42798 4.26713L4.25658 1.43903C4.45179 1.24376 4.45179 0.927255 4.25658 0.731985Z" fill="#53536E"/>
<path d="M13.2569 0.731987C12.2806 -0.244016 10.6981 -0.244016 9.7218 0.731987C9.52658 0.927258 9.52658 1.24376 9.7218 1.43901L12.5499 4.26711C12.7452 4.46232 13.0617 4.46232 13.2569 4.26711C14.2329 3.29084 14.2329 1.70828 13.2569 0.731987Z" fill="#53536E"/>
</g>
<defs>
<clipPath id="clip0_280_388">
<rect width="14" height="14" fill="white"/>
</clipPath>
</defs>
</svg>
