<svg width="14" height="14" viewBox="0 0 14 14" fill="none" xmlns="http://www.w3.org/2000/svg">
<g clip-path="url(#clip0_264_720)">
<path d="M9.23223 5.75031C9.18378 5.60211 9.05559 5.49397 8.90099 5.47154L7.84156 5.31773L7.36772 4.35764C7.22993 4.07726 6.77012 4.07726 6.63231 4.35764L6.15847 5.31773L5.09903 5.47154C4.94443 5.49397 4.81624 5.60211 4.76779 5.75031C4.71972 5.89893 4.75978 6.06192 4.87153 6.17089L5.63858 6.9183L5.45754 7.97374C5.4311 8.12755 5.4944 8.28297 5.62056 8.37468C5.74755 8.46722 5.91456 8.47963 6.05276 8.40594L7 7.90763L7.9473 8.40591C8.08519 8.47851 8.2524 8.46694 8.37949 8.37466C8.50566 8.28295 8.56896 8.12752 8.54251 7.97372L8.36147 6.91827L9.12852 6.17086C9.24024 6.06192 9.2803 5.8989 9.23223 5.75031Z" fill="#53536E"/>
<path d="M12.7695 10.6914H11.1016C10.5675 10.6914 10.1165 11.0353 9.94664 11.5117H8.97523C8.80534 11.0353 8.35434 10.6914 7.82031 10.6914H6.17969C5.64566 10.6914 5.19466 11.0353 5.02477 11.5117H4.05336C3.88347 11.0353 3.43246 10.6914 2.89844 10.6914H1.23047C0.551961 10.6914 0 11.2434 0 11.9219V13.5898C0 13.8166 0.183449 14 0.410156 14H3.71875C3.94546 14 4.12891 13.8166 4.12891 13.5898V12.332H4.94922V13.5898C4.94922 13.8166 5.13267 14 5.35938 14H8.64062C8.86733 14 9.05078 13.8166 9.05078 13.5898V12.332H9.87109V13.5898C9.87109 13.8166 10.0545 14 10.2812 14H13.5898C13.8166 14 14 13.8166 14 13.5898V11.9219C14 11.2434 13.448 10.6914 12.7695 10.6914Z" fill="#53536E"/>
<path d="M0.216699 9.82264C0.349672 9.89354 0.511902 9.88592 0.637684 9.80222C1.24731 9.39605 2.06131 9.39605 2.67094 9.80222C2.79811 9.88698 2.96037 9.89319 3.09192 9.82264C3.22528 9.75133 3.30859 9.61234 3.30859 9.46094V8.64063C3.30859 8.00912 3.09725 7.42979 2.75034 6.95518C2.03558 7.24642 1.22842 7.41016 0.410156 7.41016H0V9.46094C0 9.61234 0.0833164 9.75133 0.216699 9.82264Z" fill="#53536E"/>
<path d="M2.48828 1.76559V0H0.410156C0.183449 0 0 0.183449 0 0.410156C0 0.531973 0 6.19114 0 6.10485C1.49343 5.22014 2.48828 3.6103 2.48828 1.76559Z" fill="#53536E"/>
<path d="M11.2497 6.95518C10.9027 7.42979 10.6914 8.00912 10.6914 8.64063V9.46094C10.6914 9.61234 10.7747 9.75133 10.9081 9.82264C11.0396 9.89319 11.2019 9.88698 11.3291 9.80222C11.9387 9.39605 12.7527 9.39605 13.3623 9.80222C13.4881 9.88594 13.6503 9.89354 13.7833 9.82264C13.9167 9.75133 14 9.61234 14 9.46094V7.41016H13.5898C12.7716 7.41016 11.9644 7.24642 11.2497 6.95518Z" fill="#53536E"/>
<path d="M13.5898 0H11.5117V1.76559C11.5117 3.61028 12.5066 5.22014 14 6.10482C14 6.19114 14 0.531945 14 0.410129C14 0.183449 13.8166 0 13.5898 0Z" fill="#53536E"/>
<path d="M3.30859 0V1.76559C3.30859 3.7537 2.32091 5.50938 0.803986 6.56986C3.56013 6.36694 5.76953 4.03752 5.76953 1.23047V0.820312H8.23047V1.23047C8.23047 4.03752 10.4399 6.36694 13.196 6.56986C11.6791 5.50938 10.6914 3.7537 10.6914 1.76559V0C10.5316 0 3.18872 0 3.30859 0Z" fill="#53536E"/>
</g>
<defs>
<clipPath id="clip0_264_720">
<rect width="14" height="14" fill="white"/>
</clipPath>
</defs>
</svg>
