<svg width="14" height="14" viewBox="0 0 14 14" fill="none" xmlns="http://www.w3.org/2000/svg">
<g clip-path="url(#clip0_264_445)">
<path d="M4.73322 1.64588C4.73322 1.52609 4.68099 1.41231 4.58991 1.33435L3.14826 0.0986631C2.99484 -0.0328877 2.7681 -0.0328877 2.61438 0.0986631L1.17303 1.33435C1.08222 1.41231 1.02972 1.52609 1.02972 1.64588V2.06244H4.73322V1.64588Z" fill="#53536E"/>
<path d="M5.76294 3.29318C5.76294 3.06672 5.57914 2.88292 5.35268 2.88292H3.29156V6.17453H3.7068V7.00144H2.05628V6.17453H2.47108V2.88292H0.410266C0.183805 2.88292 0 3.06672 0 3.29318V5.76427C0 5.991 0.183805 6.17453 0.410266 6.17453H1.23577V13.5897C1.23577 13.8163 1.41944 14 1.64604 14C1.87264 14 2.0563 13.8163 2.0563 13.5897V12.7643H3.70688V13.5897C3.70688 13.8163 3.89055 14 4.11715 14C4.34372 14 4.52741 13.8163 4.52741 13.5897V6.17453H5.35276C5.57711 6.17453 5.76302 5.99363 5.76302 5.7629H9.88468V3.29483C5.56279 3.29483 5.76294 3.29592 5.76294 3.29318ZM3.70686 11.9438H2.05628V11.1169H3.70686V11.9438ZM3.70686 10.2963H2.05628V9.46937H3.70686V10.2963ZM3.70686 8.6489H2.05628V7.82194H3.70686V8.6489Z" fill="#53536E"/>
<path d="M5.58545 10.2965H8.1375C8.27998 10.0487 8.54749 9.8813 8.85325 9.8813H9.88462V7.4135H8.85325C7.17612 7.4135 5.78812 8.6735 5.58545 10.2965Z" fill="#53536E"/>
<path d="M8.13668 11.117H5.58545C5.78812 12.74 7.17614 14 8.85325 14H9.88462V11.5322H8.85325C8.54686 11.5321 8.27862 11.3651 8.13668 11.117Z" fill="#53536E"/>
<path d="M13.9746 6.99831H11.4225C11.2803 7.2461 11.0126 7.41349 10.7068 7.41349C10.704 7.41349 10.7051 9.88129 10.7051 9.88129C12.381 9.88129 13.7718 8.62444 13.9746 6.99831Z" fill="#53536E"/>
<path d="M11.4225 6.1778H13.9746C13.7722 4.55484 12.3836 3.29482 10.7068 3.29482C10.704 3.29482 10.7051 3.1715 10.7051 5.76289C11.0147 5.76289 11.2808 5.93141 11.4225 6.1778Z" fill="#53536E"/>
<path d="M13.5897 11.5322H10.7051V14H13.5898C13.8162 14 14 13.8161 14 13.5897V11.9424C14 11.7152 13.8155 11.5322 13.5897 11.5322Z" fill="#53536E"/>
</g>
<defs>
<clipPath id="clip0_264_445">
<rect width="14" height="14" fill="white"/>
</clipPath>
</defs>
</svg>
