<svg width="14" height="14" viewBox="0 0 14 14" fill="none" xmlns="http://www.w3.org/2000/svg">
<path d="M12.3019 0H1.69812C1.40821 0 1.17323 0.234981 1.17323 0.524886V13.4751C1.17323 13.765 1.40821 14 1.69812 14H12.3019C12.5918 14 12.8268 13.765 12.8268 13.4751V0.524886C12.8268 0.23501 12.5918 0 12.3019 0ZM3.08848 1.82031C3.08848 1.71675 3.17242 1.63281 3.27598 1.63281H10.724C10.8275 1.63281 10.9115 1.71675 10.9115 1.82031V6.21815C10.9115 6.32171 10.8275 6.40565 10.724 6.40565H3.27598C3.17242 6.40565 3.08848 6.32171 3.08848 6.21815V1.82031ZM5.99655 12.1407C5.99655 12.2443 5.91261 12.3282 5.80905 12.3282H3.74421C3.64065 12.3282 3.55671 12.2443 3.55671 12.1407V8.93841C3.55671 8.83482 3.64065 8.75091 3.74421 8.75091H5.80905C5.91261 8.75091 5.99655 8.83482 5.99655 8.93841V12.1407ZM6.71171 8.63552C6.71171 8.73908 6.62777 8.82302 6.52421 8.82302H6.29647C6.19291 8.82302 6.10897 8.73908 6.10897 8.63552V8.53606H3.45119V8.63552C3.45119 8.73908 3.36725 8.82302 3.26369 8.82302H3.0322C2.92864 8.82302 2.8447 8.73908 2.8447 8.63552V8.11929C2.8447 8.01573 2.92864 7.93179 3.0322 7.93179H6.52421C6.62777 7.93179 6.71171 8.01573 6.71171 8.11929V8.63552ZM8.16022 12.2807C8.16022 12.3524 8.10207 12.4105 8.03042 12.4105H7.27055C7.19889 12.4105 7.14074 12.3524 7.14074 12.2807V11.5209C7.14074 11.4492 7.19889 11.3911 7.27055 11.3911H8.03042C8.10207 11.3911 8.16022 11.4492 8.16022 11.5209V12.2807ZM8.16022 10.7831C8.16022 10.8548 8.10207 10.9129 8.03042 10.9129H7.27055C7.19889 10.9129 7.14074 10.8548 7.14074 10.7831V10.0233C7.14074 9.9516 7.19889 9.89345 7.27055 9.89345H8.03042C8.10207 9.89345 8.16022 9.9516 8.16022 10.0233V10.7831ZM8.16022 9.28555C8.16022 9.3572 8.10207 9.41535 8.03042 9.41535H7.27055C7.19889 9.41535 7.14074 9.3572 7.14074 9.28555V8.52574C7.14074 8.45405 7.19889 8.39593 7.27055 8.39593H8.03042C8.10207 8.39593 8.16022 8.45405 8.16022 8.52574V9.28555ZM9.65775 12.2807C9.65775 12.3524 9.59962 12.4105 9.52794 12.4105H8.7681C8.69642 12.4105 8.63829 12.3524 8.63829 12.2807V11.5209C8.63829 11.4492 8.69642 11.3911 8.7681 11.3911H9.52794C9.59962 11.3911 9.65775 11.4492 9.65775 11.5209V12.2807ZM9.65775 10.7831C9.65775 10.8548 9.59962 10.9129 9.52794 10.9129H8.7681C8.69642 10.9129 8.63829 10.8548 8.63829 10.7831V10.0233C8.63829 9.9516 8.69642 9.89345 8.7681 9.89345H9.52794C9.59962 9.89345 9.65775 9.9516 9.65775 10.0233V10.7831ZM9.65775 9.28555C9.65775 9.3572 9.59962 9.41535 9.52794 9.41535H8.7681C8.69642 9.41535 8.63829 9.3572 8.63829 9.28555V8.52574C8.63829 8.45405 8.69642 8.39593 8.7681 8.39593H9.52794C9.59962 8.39593 9.65775 8.45405 9.65775 8.52574V9.28555ZM11.1553 12.2807C11.1553 12.3524 11.0972 12.4105 11.0255 12.4105H10.2657C10.194 12.4105 10.1358 12.3524 10.1358 12.2807V11.5209C10.1358 11.4492 10.194 11.3911 10.2657 11.3911H11.0255C11.0972 11.3911 11.1553 11.4492 11.1553 11.5209V12.2807ZM11.1553 10.7831C11.1553 10.8548 11.0972 10.9129 11.0255 10.9129H10.2657C10.194 10.9129 10.1358 10.8548 10.1358 10.7831V10.0233C10.1358 9.9516 10.194 9.89345 10.2657 9.89345H11.0255C11.0972 9.89345 11.1553 9.9516 11.1553 10.0233V10.7831ZM11.1553 9.28555C11.1553 9.3572 11.0972 9.41535 11.0255 9.41535H10.2657C10.194 9.41535 10.1358 9.3572 10.1358 9.28555V8.52574C10.1358 8.45405 10.194 8.39593 10.2657 8.39593H11.0255C11.0972 8.39593 11.1553 8.45405 11.1553 8.52574V9.28555Z" fill="#53536E"/>
<path d="M3.85576 5.13994H4.20122C4.25767 5.13994 4.30715 5.1023 4.32223 5.04792L4.46364 4.5383H5.09127L5.24523 5.05052C5.26121 5.1036 5.31007 5.13997 5.36549 5.13997H5.7329C5.77282 5.13997 5.81035 5.12102 5.83401 5.08888C5.85769 5.05678 5.86467 5.01533 5.85287 4.97719L5.18589 2.82633C5.16959 2.77377 5.12098 2.73795 5.06595 2.73795H4.51305C4.45784 2.73795 4.40909 2.77403 4.39293 2.82685L3.73553 4.97771C3.7239 5.01579 3.731 5.05712 3.75468 5.08912C3.77848 5.12105 3.81595 5.13994 3.85576 5.13994ZM4.68512 3.62352C4.70822 3.54151 4.73003 3.44465 4.75126 3.35038C4.75729 3.3235 4.76323 3.29725 4.76909 3.27172C4.79805 3.38837 4.83021 3.51622 4.86229 3.62309L4.99761 4.08382H4.55635L4.68512 3.62352Z" fill="#53536E"/>
<path d="M5.77296 3.24102H6.27688V5.01434C6.27688 5.08369 6.3331 5.13994 6.40245 5.13994H6.74133C6.81071 5.13994 6.86693 5.08372 6.86693 5.01434V3.24102H7.38126C7.4506 3.24102 7.50685 3.1848 7.50685 3.11542V2.86348C7.50685 2.79411 7.45066 2.73788 7.38126 2.73788H5.77294C5.70359 2.73788 5.64734 2.79411 5.64734 2.86348V3.11542C5.64737 3.1848 5.70362 3.24102 5.77296 3.24102Z" fill="#53536E"/>
<path d="M7.76177 5.13994H8.05698C8.12405 5.13994 8.17926 5.08724 8.18243 5.02023L8.21976 4.22355C8.23115 4.03192 8.23961 3.81088 8.24771 3.59713C8.24936 3.55406 8.25097 3.51111 8.25264 3.46844C8.30015 3.69682 8.36007 3.94391 8.42367 4.17249L8.65462 5.00952C8.66965 5.06401 8.71915 5.10172 8.77565 5.10172H9.04488C9.09983 5.10172 9.14841 5.06598 9.16476 5.0135L9.4285 4.16762C9.50558 3.93339 9.58162 3.6757 9.64436 3.4372C9.6473 3.72529 9.65627 3.99864 9.66429 4.21498L9.69548 5.01922C9.6981 5.08663 9.75349 5.13994 9.82096 5.13994H10.1442C10.1787 5.13994 10.2117 5.12575 10.2354 5.10068C10.2592 5.07561 10.2715 5.04189 10.2696 5.00745L10.1516 2.85659C10.1479 2.78998 10.0929 2.73788 10.0262 2.73788H9.49595C9.44134 2.73788 9.39308 2.7731 9.37635 2.82503L9.14786 3.53586C9.14754 3.53689 9.14725 3.53793 9.14691 3.53897C9.07372 3.78866 9.00273 4.06348 8.94977 4.27706C8.90682 4.06692 8.84944 3.83035 8.77211 3.54289C8.77188 3.54197 8.77159 3.54108 8.77136 3.54018L8.56248 2.82811C8.54682 2.77463 8.49772 2.73785 8.44196 2.73785H7.89896C7.8327 2.73785 7.77784 2.78934 7.7736 2.85546L7.6364 5.00632C7.63415 5.04097 7.64641 5.07495 7.67015 5.10024C7.69389 5.12557 7.72704 5.13994 7.76177 5.13994Z" fill="#53536E"/>
</svg>
