<svg width="14" height="14" viewBox="0 0 14 14" fill="none" xmlns="http://www.w3.org/2000/svg">
<g clip-path="url(#clip0_264_534)">
<path d="M8.23047 4.91071V4.0601H4.99068C5.07864 4.84211 5.40409 5.54728 5.90366 6.10397C6.50194 5.44058 7.3249 5.0118 8.23047 4.91071Z" fill="#53536E"/>
<path d="M9.05078 0V1.56816C9.71625 1.47189 10.3225 1.14185 10.7706 0.645449C10.2741 0.292387 9.68625 0.0715039 9.05078 0Z" fill="#53536E"/>
<path d="M8.23047 0C7.595 0.0715039 7.00711 0.292387 6.51068 0.645477C6.95874 1.14185 7.565 1.47189 8.23047 1.56816V0Z" fill="#53536E"/>
<path d="M8.23047 2.39174C7.33051 2.29076 6.50582 1.86116 5.90426 1.19518C5.40428 1.75198 5.0787 2.45744 4.99068 3.2398H8.23047V2.39174Z" fill="#53536E"/>
<path d="M8.23048 5.73103C7.56085 5.82731 6.95579 6.15907 6.50998 6.65388C7.0066 7.00728 7.59471 7.2284 8.23048 7.29991V5.73103Z" fill="#53536E"/>
<path d="M11.377 1.19518C10.7754 1.86119 9.95077 2.29076 9.05078 2.39174V3.23978H12.2906C12.2026 2.45744 11.877 1.75198 11.377 1.19518Z" fill="#53536E"/>
<path d="M12.2906 4.0601H9.05078V4.9129C9.96051 5.01424 10.7802 5.44493 11.3761 6.10577C11.8766 5.54881 12.2025 4.8429 12.2906 4.0601Z" fill="#53536E"/>
<path d="M9.05078 5.73322V7.2999C9.68579 7.22845 10.2733 7.0079 10.7695 6.65527C10.3257 6.16235 9.7233 5.82966 9.05078 5.73322Z" fill="#53536E"/>
<path d="M13.1523 9.02344H4.12891V9.43359H2.48828V0H0.847656V14H2.48828V10.2539H4.12891V10.6641H5.03024L5.77916 14L6.58025 13.8222L6.23541 12.3047H7.41016V14H8.23047V12.3047H9.05078V14H9.87109V12.3047H11.0458L10.701 13.8222L11.5021 14L12.251 10.6641H13.1523V9.02344ZM6.05311 11.4844L5.87081 10.6641H7.41016V11.4844H6.05311ZM8.23047 11.4844V10.6641H9.05078V11.4844H8.23047ZM11.2281 11.4844H9.87109V10.6641H11.4104L11.2281 11.4844Z" fill="#53536E"/>
</g>
<defs>
<clipPath id="clip0_264_534">
<rect width="14" height="14" fill="white"/>
</clipPath>
</defs>
</svg>
