<svg width="14" height="14" viewBox="0 0 14 14" fill="none" xmlns="http://www.w3.org/2000/svg">
<g clip-path="url(#clip0_264_855)">
<path d="M12.5476 11.9796C12.281 11.7577 11.8302 11.7584 11.5636 11.9798C11.1313 12.3398 10.4519 12.3398 10.0196 11.9798C9.83601 11.8272 9.56722 11.7874 9.32941 11.8449L10.1434 13.125H13.125V12.2341C12.9148 12.2017 12.7131 12.1176 12.5476 11.9796Z" fill="#53536E"/>
<path d="M11.5636 9.35482C11.1313 9.71478 10.4519 9.71478 10.0196 9.35482C9.75296 9.13316 9.30265 9.13316 9.03605 9.35482C8.70482 9.63058 8.22943 9.69315 7.83038 9.54641C7.9459 9.69699 8.0577 9.85296 8.16553 10.0146L8.45451 10.4691C8.56501 10.4435 8.67072 10.4036 8.75577 10.3329C9.18814 9.97299 9.86747 9.97299 10.2998 10.3329C10.5664 10.5546 11.0168 10.5546 11.2834 10.3329C11.7166 9.97214 12.3946 9.97257 12.8279 10.3329C12.9118 10.4028 13.016 10.4427 13.125 10.4686V9.60911C12.9148 9.57675 12.7131 9.49258 12.5476 9.35461C12.281 9.13273 11.8302 9.13337 11.5636 9.35482Z" fill="#53536E"/>
<path d="M10.2998 11.6454C10.5664 11.8671 11.0168 11.8671 11.2834 11.6454C11.7166 11.2846 12.3946 11.2851 12.8279 11.6454C12.9118 11.7153 13.016 11.7552 13.125 11.7811V10.9216C12.9148 10.8892 12.7131 10.8051 12.5476 10.6671C12.281 10.4452 11.8302 10.4459 11.5636 10.6673C11.1313 11.0273 10.4519 11.0273 10.0196 10.6673C9.75297 10.4457 9.30265 10.4457 9.03605 10.6673C8.93597 10.7506 8.82178 10.8125 8.70135 10.8573L9.08366 11.4585C9.48487 11.3066 9.96563 11.3672 10.2998 11.6454Z" fill="#53536E"/>
<path d="M6.30426 8.04262C6.59802 8.25867 6.87674 8.49851 7.14014 8.76167C7.36952 8.78696 7.59219 8.8707 7.77225 9.02042C8.03885 9.24208 8.48917 9.24208 8.75577 9.02042C9.18814 8.66049 9.86747 8.66049 10.2998 9.02042C10.5664 9.24208 11.0168 9.24208 11.2834 9.02042C11.7166 8.65964 12.3946 8.66007 12.8279 9.02042C12.9118 9.09033 13.016 9.13022 13.125 9.15607V8.52223C13.125 8.39229 13.0673 8.26898 12.9678 8.18569C12.4739 7.77164 11.6373 7.77164 11.1434 8.18569C10.9648 8.33512 10.6188 8.33469 10.4402 8.18569C9.94672 7.77164 9.10975 7.77121 8.61542 8.18569C8.43683 8.33469 8.09076 8.33469 7.91217 8.18569C7.48461 7.82723 6.80128 7.78045 6.30426 8.04262Z" fill="#53536E"/>
<path d="M9.62501 13.125L7.80152 10.2573C6.91327 8.92515 5.77904 8.01156 4.37501 7.49788V4.45562C4.88316 4.6368 5.25001 5.1179 5.25001 5.6875C5.25001 5.92911 5.4459 6.125 5.68751 6.125C5.92911 6.125 6.12501 5.92911 6.12501 5.6875C6.12501 4.78793 5.5784 4.01454 4.80049 3.67891C4.92151 3.60534 5.04867 3.54727 5.18378 3.52072C5.49311 3.45941 5.79987 3.53226 6.07288 3.72922L6.30659 3.89777C6.5029 4.03919 6.77634 3.99475 6.91733 3.79886C7.05875 3.60297 7.01432 3.32953 6.81843 3.18811L6.58472 3.01956C6.1171 2.68225 5.56083 2.55643 5.01502 2.66196C4.82837 2.6987 4.65288 2.76994 4.48379 2.85625C4.62412 2.43998 4.89569 2.07447 5.27222 1.82349L5.49268 1.67651C5.6937 1.54257 5.74796 1.27084 5.61402 1.06983C5.47986 0.868593 5.20835 0.814119 5.00733 0.948488L4.78687 1.09546C4.13631 1.52906 3.70268 2.2 3.55771 2.95155C3.34155 2.81529 3.10937 2.71104 2.85999 2.66196C2.31418 2.55557 1.75834 2.68183 1.29029 3.01956L1.05658 3.18811C0.860692 3.32953 0.816259 3.60297 0.957677 3.79886C1.0991 3.99475 1.37253 4.03919 1.56843 3.89777L1.80213 3.72922C2.07535 3.53226 2.38254 3.45941 2.69123 3.52072C2.82634 3.54727 2.9535 3.60534 3.07452 3.67891C2.29661 4.01454 1.75001 4.78793 1.75001 5.6875C1.75001 5.92911 1.9459 6.125 2.18751 6.125C2.42911 6.125 2.62501 5.92911 2.62501 5.6875C2.62501 5.1179 2.99185 4.6368 3.50001 4.45562V7.23822C2.70263 7.05211 1.83112 6.97297 0.875027 7.00818L0.875005 13.125H9.62501Z" fill="#53536E"/>
</g>
<defs>
<clipPath id="clip0_264_855">
<rect width="14" height="14" fill="white"/>
</clipPath>
</defs>
</svg>
