<svg width="14" height="14" viewBox="0 0 14 14" fill="none" xmlns="http://www.w3.org/2000/svg">
<g clip-path="url(#clip0_280_176)">
<path d="M1.51756 6.46434C1.29956 6.46434 1.09181 6.4198 0.902863 6.33905V12.3594H5.8007V12.3504C5.8007 11.0849 6.83122 10.0551 8.09811 10.0551H9.41884C10.1123 10.0551 10.7906 9.86618 11.3804 9.50879L11.7039 9.31268L11.6952 9.29549C12.1037 8.98819 12.4488 8.59929 12.7044 8.15527C13.0079 7.62805 13.1807 7.02596 13.2042 6.41371L13.2046 6.3399C13.0161 6.42001 12.8088 6.46434 12.5918 6.46434H1.51756Z" fill="#53536E"/>
<path d="M5.91042 13.1797H0.765625C0.539078 13.1797 0.355469 13.3633 0.355469 13.5898C0.355469 13.8164 0.539078 14 0.765625 14H5.91042C6.13696 14 6.32057 13.8164 6.32057 13.5898C6.32057 13.3633 6.13696 13.1797 5.91042 13.1797Z" fill="#53536E"/>
<path d="M12.8652 4.14001H5.27756V3.42908C5.27756 2.65224 4.6714 2.01468 3.90727 1.96352V0.868271C3.90727 0.841782 3.92896 0.820312 3.95555 0.820312H7.41496C7.64151 0.820312 7.82512 0.636703 7.82512 0.410156C7.82512 0.183609 7.64151 0 7.41496 0H3.95555C3.47661 0 3.08685 0.389542 3.08685 0.868271V1.95988H2.86372C2.45026 1.95988 2.11391 2.29623 2.11391 2.70981V4.14001H1.10742C0.692139 4.14001 0.355469 4.47668 0.355469 4.89197C0.355469 5.30725 0.692139 5.64392 1.10742 5.64392H12.8652C13.2805 5.64392 13.6172 5.30725 13.6172 4.89197C13.6172 4.47668 13.2805 4.14001 12.8652 4.14001Z" fill="#53536E"/>
</g>
<defs>
<clipPath id="clip0_280_176">
<rect width="14" height="14" fill="white"/>
</clipPath>
</defs>
</svg>
