<svg width="14" height="14" viewBox="0 0 14 14" fill="none" xmlns="http://www.w3.org/2000/svg">
<path d="M9.04168 3.35418C9.68335 3.35418 10.2084 2.82918 10.2084 2.1875C10.2084 1.54583 9.68335 1.02083 9.04168 1.02083C8.4 1.02083 7.875 1.54583 7.875 2.1875C7.875 2.82918 8.4 3.35418 9.04168 3.35418Z" fill="#53536E"/>
<path d="M2.91668 7.14583C1.3125 7.14583 0 8.45833 0 10.0625C0 11.6667 1.3125 12.9792 2.91668 12.9792C4.52085 12.9792 5.83335 11.6667 5.83335 10.0625C5.83335 8.45833 4.52082 7.14583 2.91668 7.14583ZM2.91668 12.1042C1.77918 12.1042 0.875 11.2 0.875 10.0625C0.875 8.925 1.77918 8.02083 2.91668 8.02083C4.05418 8.02083 4.95835 8.925 4.95835 10.0625C4.95835 11.2 4.05418 12.1042 2.91668 12.1042Z" fill="#53536E"/>
<path d="M11.0542 6.53332V5.36665C10.1792 5.36665 9.44999 5.04582 8.92499 4.52082L7.78749 3.4125C7.61249 3.20832 7.32082 3.0625 6.99999 3.0625C6.67917 3.0625 6.38749 3.17918 6.18332 3.4125L4.57914 5.01668C4.37497 5.22085 4.22914 5.5125 4.22914 5.83335C4.22914 6.1542 4.37497 6.44585 4.57914 6.67918L6.41664 8.3125V11.2292H7.58332V7.58332L6.29999 6.3L7.67082 4.9L8.10832 5.3375C8.83749 6.09582 9.85832 6.53332 11.0542 6.53332Z" fill="#53536E"/>
<path d="M11.0833 7.14583C9.47914 7.14583 8.16664 8.45833 8.16664 10.0625C8.16664 11.6667 9.47914 12.9792 11.0833 12.9792C12.6875 12.9792 14 11.6667 14 10.0625C14 8.45833 12.6875 7.14583 11.0833 7.14583ZM11.0833 12.1042C9.94582 12.1042 9.04164 11.2 9.04164 10.0625C9.04164 8.925 9.94582 8.02083 11.0833 8.02083C12.2208 8.02083 13.125 8.925 13.125 10.0625C13.125 11.2 12.2208 12.1042 11.0833 12.1042Z" fill="#53536E"/>
</svg>
