<svg width="14" height="14" viewBox="0 0 14 14" fill="none" xmlns="http://www.w3.org/2000/svg">
<g clip-path="url(#clip0_264_496)">
<path d="M8.28082 8.51537C8.7617 8.51537 9.15152 8.12554 9.15152 7.64467C9.15152 7.1638 8.7617 6.77397 8.28082 6.77397C7.79995 6.77397 7.41013 7.1638 7.41013 7.64467C7.41013 8.12554 7.79995 8.51537 8.28082 8.51537Z" fill="#53536E"/>
<path d="M7 10.7341C7.48088 10.7341 7.8707 10.3443 7.8707 9.86344C7.8707 9.38256 7.48088 8.99274 7 8.99274C6.51913 8.99274 6.1293 9.38256 6.1293 9.86344C6.1293 10.3443 6.51913 10.7341 7 10.7341Z" fill="#53536E"/>
<path d="M7 6.29673C7.48088 6.29673 7.8707 5.9069 7.8707 5.42603C7.8707 4.94515 7.48088 4.55533 7 4.55533C6.51913 4.55533 6.1293 4.94515 6.1293 5.42603C6.1293 5.9069 6.51913 6.29673 7 6.29673Z" fill="#53536E"/>
<path d="M5.71915 8.51537C6.20002 8.51537 6.58985 8.12554 6.58985 7.64467C6.58985 7.1638 6.20002 6.77397 5.71915 6.77397C5.23827 6.77397 4.84845 7.1638 4.84845 7.64467C4.84845 8.12554 5.23827 8.51537 5.71915 8.51537Z" fill="#53536E"/>
<path d="M4.43833 10.7341C4.9192 10.7341 5.30902 10.3443 5.30902 9.86344C5.30902 9.38256 4.9192 8.99274 4.43833 8.99274C3.95745 8.99274 3.56763 9.38256 3.56763 9.86344C3.56763 10.3443 3.95745 10.7341 4.43833 10.7341Z" fill="#53536E"/>
<path d="M13.7684 10.6957L8.42356 1.62642C8.12337 1.1171 7.59122 0.813004 7.00001 0.813004C6.40879 0.813004 5.87664 1.1171 5.57646 1.62642L0.231631 10.6957C-0.0732293 11.213 -0.0773853 11.8331 0.220503 12.3544C0.518419 12.8757 1.05473 13.187 1.65518 13.187H12.3448C12.9453 13.187 13.4816 12.8757 13.7795 12.3544C14.0774 11.8331 14.0732 11.213 13.7684 10.6957ZM9.56166 11.5544C9.05007 11.5544 8.59116 11.3257 8.28083 10.9656C7.9705 11.3257 7.5116 11.5544 7.00001 11.5544C6.48841 11.5544 6.02951 11.3257 5.71918 10.9656C5.40885 11.3257 4.94995 11.5544 4.43835 11.5544C3.50595 11.5544 2.7474 10.7958 2.7474 9.86343C2.7474 9.03878 3.34094 8.35053 4.12319 8.20239C4.06194 8.02765 4.02826 7.84006 4.02826 7.64467C4.02826 6.82002 4.62179 6.13177 5.40398 5.98363C5.34277 5.80892 5.30908 5.62138 5.30908 5.42605C5.30908 4.49364 6.06765 3.7351 7.00003 3.7351C7.93241 3.7351 8.69098 4.49367 8.69098 5.42605C8.69098 5.62141 8.6573 5.80895 8.59608 5.98363C9.3783 6.13177 9.97181 6.82002 9.97181 7.64467C9.97181 7.84006 9.9381 8.02765 9.87688 8.20239C10.6591 8.35053 11.2527 9.03878 11.2527 9.86343C11.2526 10.7958 10.4941 11.5544 9.56166 11.5544Z" fill="#53536E"/>
<path d="M9.56165 10.7341C10.0425 10.7341 10.4323 10.3443 10.4323 9.86344C10.4323 9.38256 10.0425 8.99274 9.56165 8.99274C9.08077 8.99274 8.69095 9.38256 8.69095 9.86344C8.69095 10.3443 9.08077 10.7341 9.56165 10.7341Z" fill="#53536E"/>
</g>
<defs>
<clipPath id="clip0_264_496">
<rect width="14" height="14" fill="white"/>
</clipPath>
</defs>
</svg>
