<svg width="14" height="14" viewBox="0 0 14 14" fill="none" xmlns="http://www.w3.org/2000/svg">
<g clip-path="url(#clip0_280_3)">
<path d="M11.1016 3.00781H2.89844C2.29439 3.00781 1.80469 3.49751 1.80469 4.10156V10.3158C1.80469 10.6911 1.99708 11.0401 2.31437 11.2406L6.41594 13.831C6.77272 14.0564 7.22728 14.0564 7.58404 13.831L11.6856 11.2406C12.0029 11.0401 12.1953 10.6911 12.1953 10.3158V4.10156C12.1953 3.49751 11.7056 3.00781 11.1016 3.00781ZM9.5255 7.85403L9.02215 8.34466C8.85973 8.50298 8.7856 8.73111 8.82396 8.95464L8.94277 9.64742C9.03932 10.2104 8.44843 10.6397 7.94284 10.3739L7.32069 10.0468C7.1199 9.94129 6.88007 9.94129 6.67929 10.0468L6.05713 10.3739C5.55155 10.6397 4.96065 10.2104 5.0572 9.64742L5.17601 8.95464C5.21434 8.73108 5.14024 8.50298 4.97782 8.34466L4.47448 7.85403C4.06544 7.45533 4.29116 6.76066 4.85641 6.67852L5.55201 6.57746C5.77648 6.54484 5.97054 6.40385 6.07091 6.20044L6.382 5.57014C6.6348 5.05791 7.3652 5.05791 7.618 5.57014L7.92909 6.20047C8.02946 6.40388 8.22352 6.54484 8.44799 6.57746L9.14359 6.67852C9.70884 6.76069 9.93453 7.45533 9.5255 7.85403Z" fill="#53536E"/>
<path d="M11.1016 2.1875H2.89844C2.29439 2.1875 1.80469 1.6978 1.80469 1.09375C1.80469 0.489699 2.29439 0 2.89844 0H11.1016C11.7056 0 12.1953 0.489699 12.1953 1.09375C12.1953 1.6978 11.7056 2.1875 11.1016 2.1875Z" fill="#53536E"/>
</g>
<defs>
<clipPath id="clip0_280_3">
<rect width="14" height="14" fill="white"/>
</clipPath>
</defs>
</svg>
