<svg width="14" height="14" viewBox="0 0 14 14" fill="none" xmlns="http://www.w3.org/2000/svg">
<path d="M6.99997 4.25643L7.4568 3.57141H6.54315L6.99997 4.25643Z" fill="#53536E"/>
<path d="M1 8.28572C1 8.87741 1.47974 9.35714 2.07143 9.35714H3.35714C3.71216 9.35714 4 9.64499 4 10V13H4.85714V9.14286C4.85714 8.55117 4.37741 8.07143 3.78571 8.07143H2.92857C2.57356 8.07143 2.28571 7.78359 2.28571 7.42857V5.07143C2.28571 4.95309 2.38166 4.85714 2.5 4.85714C2.61834 4.85714 2.71429 4.95309 2.71429 5.07143V7.42857C2.71429 7.54691 2.81023 7.64286 2.92857 7.64286H5.5V6.78571H3.57143V4.64286C3.57143 4.28784 3.28359 4 2.92857 4H2.07143C1.47974 4 1 4.47974 1 5.07143V8.28572Z" fill="#53536E"/>
<path d="M13 8.28572V5.07143C13 4.47974 12.5203 4 11.9286 4H11.0714C10.7164 4 10.4286 4.28784 10.4286 4.64286V6.78571H8.5V7.64286H11.0714C11.1898 7.64286 11.2857 7.54691 11.2857 7.42857V5.07143C11.2857 4.95309 11.3817 4.85714 11.5 4.85714C11.6183 4.85714 11.7143 4.95309 11.7143 5.07143V7.42857C11.7143 7.78359 11.4264 8.07143 11.0714 8.07143H10.2143C9.62259 8.07143 9.14286 8.55117 9.14286 9.14286V13H10V10C10 9.64499 10.2878 9.35714 10.6429 9.35714H11.9286C12.5203 9.35714 13 8.87741 13 8.28572Z" fill="#53536E"/>
<path d="M5.07141 6.35716H5.92855V7.64287H8.07141V6.35716H8.92855V4.64287C8.92678 4.09429 8.51013 3.6361 7.96427 3.58232L6.99998 5.02854L6.0357 3.5817C5.48952 3.63548 5.07288 4.09408 5.07141 4.64287V6.35716Z" fill="#53536E"/>
<path d="M1.42856 9.71069H1.85713V13.4286H1.42856V9.71069Z" fill="#53536E"/>
<path d="M12.1429 9.71069H12.5714V13.4286H12.1429V9.71069Z" fill="#53536E"/>
<path d="M7.21427 9.35715H6.7857V13H5.92856V13.4286H8.07142V13H7.21427V9.35715Z" fill="#53536E"/>
<path d="M12.1429 2.49999C12.1429 3.09168 11.6631 3.57142 11.0714 3.57142C10.4797 3.57142 10 3.09168 10 2.49999C10 1.90829 10.4797 1.42856 11.0714 1.42856C11.6631 1.42856 12.1429 1.90829 12.1429 2.49999Z" fill="#53536E"/>
<path d="M8.73143 8.92858C8.7783 8.60276 8.93128 8.30153 9.16659 8.07144H4.83337C5.06869 8.30153 5.22166 8.60276 5.26854 8.92858H8.73143Z" fill="#53536E"/>
<path d="M8.07142 2.07143C8.07142 2.66312 7.59168 3.14286 6.99999 3.14286C6.40829 3.14286 5.92856 2.66312 5.92856 2.07143C5.92856 1.47974 6.40829 1 6.99999 1C7.59168 1 8.07142 1.47974 8.07142 2.07143Z" fill="#53536E"/>
<path d="M3.99997 2.49999C3.99997 3.09168 3.52024 3.57142 2.92855 3.57142C2.33685 3.57142 1.85712 3.09168 1.85712 2.49999C1.85712 1.90829 2.33685 1.42856 2.92855 1.42856C3.52024 1.42856 3.99997 1.90829 3.99997 2.49999Z" fill="#53536E"/>
</svg>
