<svg width="14" height="14" viewBox="0 0 14 14" fill="none" xmlns="http://www.w3.org/2000/svg">
<path d="M1.45798 12.1194V12.4651C1.45802 12.6562 1.61295 12.8112 1.8041 12.8113H11.5722C11.7633 12.8112 11.9183 12.6563 11.9183 12.4651V12.1194H1.45798Z" fill="#53536E"/>
<path d="M10.9069 6.22415C10.7517 6.22384 10.6259 6.22658 10.6082 6.22698C10.6082 6.22698 10.6077 6.22697 10.6077 6.22698C10.6063 6.22697 10.6049 6.22697 10.6035 6.22698H2.76434C2.57365 6.227 2.41888 6.38123 2.41817 6.57192C2.41391 7.72137 2.46753 8.58844 2.73363 9.34715C2.99974 10.1059 3.48458 10.7285 4.25661 11.3499C4.3181 11.3994 4.39466 11.4264 4.47359 11.4264H8.8785C8.96252 11.4264 9.04366 11.3958 9.10681 11.3404C9.78811 10.7429 10.2469 10.2526 10.5344 9.69317C10.6046 9.7015 10.6728 9.70253 10.7373 9.69494C10.8634 9.68008 10.9519 9.64792 11.0654 9.6168C11.6974 9.44346 12.3097 8.96776 12.464 8.26767C12.586 7.7139 12.5711 7.24291 12.3743 6.86908C12.1807 6.50109 11.7954 6.28317 11.3738 6.24717C11.221 6.22213 11.0677 6.22447 10.9069 6.22415ZM10.9555 6.91762C11.0721 6.91983 11.1929 6.92181 11.3049 6.93423C11.5602 6.95243 11.6757 7.02802 11.7617 7.19138C11.8477 7.35473 11.8885 7.66159 11.7878 8.11871C11.709 8.47631 11.2948 8.83599 10.8823 8.94912C10.8484 8.9584 10.8289 8.96368 10.8029 8.9708C10.9422 8.41163 10.9668 7.76843 10.9555 6.91762Z" fill="#53536E"/>
<path d="M6.09684 1.18842C5.90284 1.21028 5.74852 1.3557 5.6096 1.48196C5.20505 1.87738 5.09709 2.52219 5.32446 3.03614C5.49416 3.43283 5.74101 3.8064 5.79445 4.2439C5.86142 4.68714 5.64306 5.12649 5.41706 5.48854C5.33741 5.62098 5.53454 5.74067 5.73168 5.56093C6.20538 5.08568 6.55265 4.47099 6.40283 3.82667C6.31643 3.37583 6.048 2.99698 5.82104 2.60856C5.65033 2.33157 5.62559 1.94817 5.83981 1.68673C5.93114 1.52483 6.16195 1.4828 6.2175 1.30411C6.22333 1.23709 6.15831 1.18982 6.09684 1.18842ZM7.94856 2.3149C7.72958 2.3602 7.55857 2.53927 7.43517 2.71699C7.20388 3.06263 7.2305 3.52261 7.42636 3.87743C7.61868 4.2283 7.79137 4.64312 7.66579 5.04599C7.62232 5.20394 7.53015 5.32939 7.42864 5.46829C7.30379 5.64031 7.53311 5.70785 7.69665 5.60011C8.16137 5.30164 8.37114 4.68466 8.2026 4.16178C8.11652 3.82062 7.87492 3.5524 7.73952 3.23423C7.64263 2.99303 7.76967 2.71492 7.99105 2.59372C8.14528 2.52648 8.11892 2.30331 7.94856 2.3149Z" fill="#53536E"/>
</svg>
