<svg width="14" height="14" viewBox="0 0 14 14" fill="none" xmlns="http://www.w3.org/2000/svg">
<g clip-path="url(#clip0_264_701)">
<path d="M7 0C3.14021 0 0 3.14021 0 7C0 10.8598 3.14021 14 6.99994 14C10.8597 14 13.9999 10.8598 13.9999 7C13.9999 3.14021 10.8598 0 7 0ZM6.43697 0.544995H7.52286V1.63088H6.43697V0.544995ZM11.8887 7C11.8887 9.69566 9.6956 11.8887 7 11.8887C4.3044 11.8887 2.11139 9.6956 2.11139 7C2.11139 4.3044 4.30446 2.11133 7 2.11133C9.6956 2.11133 11.8887 4.3044 11.8887 7ZM2.81957 2.05173L3.58741 2.81957L2.81957 3.58741L2.05173 2.81957L2.81957 2.05173ZM1.6108 7.54294H0.524907V6.45706H1.6108V7.54294ZM2.81957 11.9483L2.05173 11.1805L2.81957 10.4126L3.58741 11.1805L2.81957 11.9483ZM7.52286 13.455H6.43697V12.3691H7.52286V13.455ZM11.1804 11.9483L10.4126 11.1805L11.1804 10.4126L11.9483 11.1805L11.1804 11.9483ZM11.1804 3.58741L10.4126 2.81957L11.1804 2.05173L11.9483 2.81957L11.1804 3.58741ZM12.349 7.54294V6.45706H13.4349V7.54294H12.349Z" fill="#53536E"/>
<path d="M3.0163 7C3.0163 9.19663 4.80337 10.9838 7 10.9838C9.19663 10.9838 10.9838 9.19663 10.9838 7C10.9838 4.80337 9.19663 3.01624 7 3.01624C4.80337 3.01624 3.0163 4.80337 3.0163 7ZM8.90489 6.66229C9.09281 6.9679 9.15338 7.23974 9.15338 7.56267C9.15338 8.3608 8.59016 8.7899 7.94985 8.7899C7.51308 8.7899 7.26435 8.58353 7.12868 8.41183L7.36021 9.2321H6.63243L6.85883 8.43066C6.71894 8.59716 6.47401 8.80595 6.05316 8.80595C5.41285 8.80595 4.84656 8.36888 4.84656 7.57069C4.84656 7.2477 4.90562 6.96784 5.09348 6.66223C5.38643 6.18558 7.00422 4.81362 7.00422 4.81362C7.00422 4.81362 8.61194 6.18564 8.90489 6.66229Z" fill="#53536E"/>
</g>
<defs>
<clipPath id="clip0_264_701">
<rect width="14" height="14" fill="white"/>
</clipPath>
</defs>
</svg>
