<svg width="14" height="14" viewBox="0 0 14 14" fill="none" xmlns="http://www.w3.org/2000/svg">
<path d="M7.39647 8.67708V11.1318C7.39649 11.1928 7.40859 11.2532 7.43209 11.3096C7.45558 11.3659 7.49 11.417 7.53336 11.46C7.57672 11.5029 7.62816 11.5368 7.68471 11.5598C7.74125 11.5828 7.80179 11.5943 7.86282 11.5938C7.98936 11.5908 8.10957 11.5378 8.19704 11.4463L9.27589 10.3441L8.70263 10.0002C8.63784 9.96129 8.58423 9.9063 8.54701 9.84056C8.50978 9.77482 8.49022 9.70055 8.49022 9.625V8.75C8.49022 8.69077 8.50224 8.63215 8.52557 8.5777C8.5489 8.52325 8.58304 8.47411 8.62592 8.43325C8.6688 8.39239 8.71954 8.36066 8.77505 8.33999C8.83056 8.31932 8.88969 8.31013 8.94886 8.313C9.18418 8.32407 9.36522 8.52677 9.36522 8.76236V9.3773L10.1427 9.84375H11.5666L12.0829 9.22414L11.0091 8.95568C10.9145 8.93202 10.8304 8.8774 10.7704 8.8005C10.7103 8.72359 10.6777 8.62882 10.6777 8.53125V7.875C10.6777 7.81577 10.6897 7.75715 10.7131 7.7027C10.7364 7.64825 10.7705 7.59911 10.8134 7.55825C10.8563 7.51739 10.907 7.48566 10.9626 7.46499C11.0181 7.44432 11.0772 7.43513 11.1364 7.438C11.3717 7.44907 11.5527 7.65177 11.5527 7.88736V8.18965L12.4277 8.4084V7.44986C12.4277 7.21427 12.6088 7.01157 12.8441 7.0005C12.9032 6.99763 12.9624 7.00682 13.0179 7.02749C13.0734 7.04816 13.1241 7.07989 13.167 7.12075C13.2099 7.16161 13.244 7.21075 13.2674 7.2652C13.2907 7.31965 13.3027 7.37827 13.3027 7.4375V8.96875C13.3027 9.0711 13.2668 9.17021 13.2013 9.24884L12.1076 10.5613C12.0665 10.6106 12.0151 10.6502 11.957 10.6775C11.899 10.7047 11.8356 10.7188 11.7715 10.7188H10.1833L8.26578 12.6875H10.0215V13.125H3.89647V12.6875H5.65216L3.73462 10.7188H2.14647C2.08233 10.7188 2.01898 10.7047 1.9609 10.6775C1.90281 10.6502 1.85142 10.6106 1.81036 10.5613L0.716611 9.24884C0.651094 9.17021 0.615217 9.0711 0.615221 8.96875V7.4375C0.615218 7.37827 0.627244 7.31965 0.65057 7.2652C0.673896 7.21075 0.708036 7.16161 0.75092 7.12075C0.793804 7.07989 0.84454 7.04816 0.900051 7.02749C0.955562 7.00682 1.01469 6.99763 1.07386 7.0005C1.30918 7.01157 1.49022 7.21427 1.49022 7.44986V8.81035L2.35138 9.84375H3.45897V9.55971L2.67984 8.58594C2.61775 8.50833 2.58394 8.41189 2.58397 8.3125V7.65625C2.58397 7.59702 2.59599 7.5384 2.61932 7.48395C2.64265 7.4295 2.67679 7.38036 2.71967 7.3395C2.76255 7.29864 2.81329 7.26691 2.8688 7.24624C2.92431 7.22557 2.98344 7.21638 3.04261 7.21925C3.27793 7.23032 3.45897 7.43302 3.45897 7.66861V8.15905L4.11522 8.96875L4.55272 8.67254V8.53125C4.55272 8.47202 4.56474 8.4134 4.58807 8.35895C4.6114 8.3045 4.64554 8.25536 4.68842 8.2145C4.7313 8.17364 4.78204 8.14191 4.83755 8.12124C4.89306 8.10057 4.95219 8.09138 5.01136 8.09425C5.24668 8.10532 5.42772 8.30805 5.42772 8.54361V8.96875C5.42772 9.05619 5.40151 9.14162 5.35249 9.21402C5.30347 9.28642 5.23388 9.34247 5.1527 9.37494L4.33397 9.70244V10.08L5.72932 11.4594C5.79459 11.5239 5.87748 11.5677 5.96757 11.5852C6.05766 11.6027 6.15091 11.5932 6.2356 11.5578C6.32028 11.5225 6.39261 11.4628 6.44348 11.3864C6.49435 11.3101 6.52148 11.2203 6.52147 11.1286V8.65668L5.62274 7.21875H4.33397C4.26837 7.21877 4.2036 7.20403 4.14447 7.17563C4.08533 7.14724 4.03334 7.1059 3.99234 7.05469L3.2703 6.15199L1.76325 6.34036C1.70524 6.34763 1.64637 6.34319 1.5901 6.32731C1.53384 6.31142 1.48134 6.28442 1.4357 6.24789L0.77942 5.6875C0.734554 5.65162 0.697196 5.60724 0.66948 5.55692C0.641763 5.50659 0.62423 5.4513 0.617882 5.39419C0.611535 5.33709 0.616496 5.2793 0.632484 5.22411C0.648471 5.16893 0.675172 5.11744 0.71106 5.07257C0.78354 4.98197 0.889041 4.92387 1.00436 4.91105C1.11967 4.89823 1.23536 4.93174 1.32597 5.00421L1.83795 5.44918L2.62892 5.3503L1.64061 4.11494C1.60361 4.06868 1.57638 4.0154 1.56058 3.95831C1.54478 3.90122 1.54074 3.84151 1.5487 3.78282C1.55666 3.72412 1.57646 3.66765 1.6069 3.61683C1.63733 3.56601 1.67777 3.5219 1.72576 3.48718C1.91646 3.34882 2.18445 3.39402 2.33159 3.57799L4.54424 6.34375H5.42772V4.8125H4.55272C4.4861 4.8125 4.42036 4.79728 4.36051 4.76801C4.30067 4.73874 4.2483 4.69619 4.2074 4.6436L2.94472 3.0202C2.90835 2.97344 2.88185 2.91979 2.86683 2.86248C2.85182 2.80518 2.8486 2.74542 2.85736 2.68684C2.86613 2.62825 2.8867 2.57206 2.91784 2.52166C2.94897 2.47126 2.99001 2.42771 3.03848 2.39365C3.23103 2.25794 3.49837 2.3068 3.64299 2.49274L4.76669 3.9375H5.16629L4.50659 2.09041C4.46757 1.98113 4.47355 1.86083 4.52323 1.75597C4.5729 1.65111 4.6622 1.57028 4.77147 1.53125C4.88074 1.49223 5.00104 1.49821 5.1059 1.54788C5.21076 1.59755 5.29159 1.68684 5.33062 1.7961L5.66988 2.746L6.08397 2.41473V1.53125C6.08397 1.47202 6.09599 1.4134 6.11932 1.35895C6.14265 1.3045 6.17679 1.25536 6.21967 1.2145C6.26255 1.17364 6.31329 1.14191 6.3688 1.12124C6.42431 1.10057 6.48344 1.09138 6.54261 1.09425C6.77793 1.10532 6.95897 1.30805 6.95897 1.54361V2.625C6.95899 2.69061 6.94425 2.75537 6.91585 2.81451C6.88745 2.87364 6.84612 2.92564 6.79491 2.96664L5.98113 3.61758L6.27724 4.44664C6.2941 4.49386 6.30272 4.54362 6.30272 4.59375V6.65577L6.99178 7.75833L7.83397 6.63543V5.03125L7.015 4.34875C6.92586 4.27447 6.86988 4.16782 6.85938 4.05227C6.84887 3.93671 6.8847 3.82171 6.95898 3.73258C7.03327 3.64344 7.13992 3.58746 7.25547 3.57695C7.37103 3.56645 7.48602 3.60228 7.57516 3.67656L7.83397 3.89225V1.53125C7.83397 1.47202 7.84599 1.4134 7.86932 1.35895C7.89265 1.3045 7.92679 1.25536 7.96967 1.2145C8.01255 1.17364 8.06329 1.14191 8.1188 1.12124C8.17431 1.10057 8.23344 1.09138 8.29261 1.09425C8.52793 1.10532 8.70897 1.30802 8.70897 1.54361V3.5H9.10778L9.86405 2.13872C9.89282 2.08694 9.9318 2.04154 9.97864 2.00528C10.0255 1.96901 10.0792 1.94263 10.1365 1.92774C10.1938 1.91285 10.2536 1.90976 10.3122 1.91865C10.3707 1.92754 10.4269 1.94824 10.4772 1.97947C10.6775 2.10342 10.7374 2.36852 10.623 2.57447L9.74765 4.14996C9.70976 4.21817 9.65432 4.275 9.58708 4.31456C9.51984 4.35413 9.44324 4.375 9.36522 4.375H8.70897V6.34375H9.59245L10.2402 5.53402V4.59375C10.2402 4.49141 10.2761 4.3923 10.3416 4.31367L11.1553 3.33728C11.1921 3.29314 11.2372 3.25668 11.288 3.22997C11.3389 3.20327 11.3946 3.18685 11.4518 3.18165C11.509 3.17644 11.5667 3.18256 11.6215 3.19965C11.6764 3.21674 11.7273 3.24447 11.7715 3.28125C11.8156 3.31803 11.8521 3.36315 11.8788 3.41402C11.9055 3.46489 11.9219 3.52053 11.9271 3.57775C11.9323 3.63496 11.9262 3.69265 11.9091 3.7475C11.892 3.80236 11.8643 3.85331 11.8275 3.89744L11.1152 4.75216V5.30805L12.1449 5.47972L12.5559 5.06877C12.5965 5.02814 12.6447 4.99591 12.6978 4.97393C12.7509 4.95194 12.8078 4.94062 12.8652 4.94062C12.9227 4.94062 12.9796 4.95194 13.0326 4.97393C13.0857 4.99591 13.134 5.02814 13.1746 5.06877C13.2152 5.1094 13.2474 5.15763 13.2694 5.21071C13.2914 5.26379 13.3027 5.32068 13.3027 5.37814C13.3027 5.43559 13.2914 5.49248 13.2694 5.54557C13.2474 5.59865 13.2152 5.64688 13.1746 5.6875L12.5183 6.21562C12.4703 6.26365 12.4118 6.29983 12.3473 6.32131C12.2829 6.34278 12.2143 6.34896 12.1471 6.33935L10.8632 6.15596L10.1444 7.05469C10.1034 7.1059 10.0514 7.14724 9.99222 7.17563C9.93309 7.20403 9.86832 7.21877 9.80272 7.21875H8.49022L7.39647 8.67708Z" fill="#53536E"/>
</svg>
