<svg width="14" height="14" viewBox="0 0 14 14" fill="none" xmlns="http://www.w3.org/2000/svg">
<g clip-path="url(#clip0_264_842)">
<path d="M13.6481 11.0033L13.6475 11.0036C13.3044 11.2095 12.8593 11.0982 12.6534 10.7551C12.6534 10.755 12.6533 10.7549 12.6533 10.7548L12.4213 10.3679C12.1594 9.93105 11.6875 9.66372 11.1781 9.66372H5.14892C4.64006 9.66372 4.16848 9.93054 3.90641 10.3667L3.67293 10.7554C3.46684 11.0984 3.02168 11.2094 2.67866 11.0033C2.67861 11.0033 2.67854 11.0032 2.67849 11.0032C2.33563 10.7971 2.22464 10.3522 2.43057 10.0092L3.22234 8.69014H13.1033L13.8962 10.0085C14.1025 10.3514 13.9917 10.7966 13.6488 11.0029C13.6486 11.003 13.6483 11.0031 13.6481 11.0033Z" fill="#53536E"/>
<path d="M12.3084 5.79104H4.67669L2.14968 3.26404C1.65466 2.76923 0.852237 2.7694 0.357432 3.26442C0.327597 3.29428 0.299259 3.32559 0.272563 3.35827C-0.134284 3.88383 -0.0801421 4.63143 0.398177 5.09288L3.51225 8.20692H13.2748C13.6684 8.20885 13.9908 7.89496 13.9996 7.50149C14.0095 6.56677 13.2597 5.80104 12.325 5.79114C12.3195 5.79109 12.314 5.79107 12.3084 5.79104ZM0.953834 4.09994C0.820399 4.09994 0.712236 3.99177 0.712236 3.85834C0.712236 3.7249 0.820399 3.61674 0.953834 3.61674C1.08727 3.61674 1.19543 3.7249 1.19543 3.85834C1.19502 3.99163 1.0871 4.09955 0.953834 4.09994ZM3.05804 5.96257C2.96277 6.05598 2.81026 6.05598 2.71499 5.96257L1.50705 4.75463C1.4127 4.6595 1.41333 4.50591 1.50845 4.41158C1.60303 4.31778 1.75555 4.31778 1.8501 4.41158L3.05804 5.61952C3.15228 5.71448 3.15228 5.86763 3.05804 5.96257Z" fill="#53536E"/>
</g>
<defs>
<clipPath id="clip0_264_842">
<rect width="14" height="14" fill="white"/>
</clipPath>
</defs>
</svg>
