<svg width="14" height="14" viewBox="0 0 14 14" fill="none" xmlns="http://www.w3.org/2000/svg">
<mask id="mask0_264_349" style="mask-type:luminance" maskUnits="userSpaceOnUse" x="0" y="0" width="14" height="14">
<path d="M0 9.53674e-07H14V14H0V9.53674e-07Z" fill="white"/>
</mask>
<g mask="url(#mask0_264_349)">
<path d="M11.9745 0.121693C11.8151 -0.0393617 11.5553 -0.0407288 11.3943 0.118685L9.23355 2.25833C9.24077 2.27665 9.78644 2.5747 10.0055 2.64853L11.9715 0.701654C12.1325 0.54224 12.1339 0.282474 11.9745 0.121693Z" fill="#53536E"/>
<path d="M6.54871 3.82321C6.98183 3.17599 7.68976 2.71552 8.4696 2.55747C8.19289 1.75466 7.42808 1.18892 6.54871 1.18892C5.6696 1.18892 4.90453 1.75466 4.62781 2.55747C5.43445 2.72123 6.13363 3.19975 6.54871 3.82321Z" fill="#53536E"/>
<path d="M5.11397 6.38669V6.93138C5.11397 7.21682 5.33737 7.45501 5.6119 7.46267C5.90257 7.47003 6.13854 7.2379 6.13854 6.95049C6.13854 6.72412 6.32229 6.54034 6.5487 6.54034C6.77538 6.54034 6.95886 6.72412 6.95886 6.95049V8.07626C6.95886 8.32263 7.13222 8.55533 7.3887 8.60044C7.46718 8.61412 7.5596 8.60345 7.56452 8.59878C7.8035 8.55341 7.98343 8.32889 7.98343 8.07626V6.90264C7.98343 5.86577 8.82698 5.02224 9.86358 5.02224H11.1509C10.9592 4.05126 10.1015 3.31678 9.07499 3.31678C9.04354 3.31678 9.01511 3.31736 8.98858 3.31845C7.89601 3.36286 6.95886 4.21669 6.95886 5.12503C6.95886 5.35146 6.77538 5.53518 6.5487 5.53518C6.32229 5.53518 6.13854 5.35146 6.13854 5.12503C6.13854 4.23529 5.24905 3.41525 4.21136 3.32499C3.10284 3.22849 2.14991 3.99245 1.94675 5.02224H3.74952C4.50202 5.02224 5.11397 5.63447 5.11397 6.38669Z" fill="#53536E"/>
<path d="M8.80374 6.90264V8.07627C8.80374 9.59931 6.64659 9.97417 6.19542 8.48041C6.16452 8.37787 6.1473 8.27478 6.14128 8.18042C5.24632 8.5556 4.29367 7.86982 4.29367 6.93138V6.38669C4.29367 6.08671 4.04976 5.84253 3.74952 5.84253H1.90683C1.92337 8.24941 3.78089 10.2266 6.13849 10.4341V13.1797H4.38661C4.16009 13.1797 3.97645 13.3633 3.97645 13.5899C3.97645 13.8164 4.16009 14 4.38661 14H8.71077C8.93729 14 9.12093 13.8164 9.12093 13.5899C9.12093 13.3633 8.93729 13.1797 8.71077 13.1797H6.95881V10.434C9.31879 10.2263 11.1743 8.24752 11.1906 5.84253H9.86359C9.27925 5.84253 8.80374 6.31806 8.80374 6.90264Z" fill="#53536E"/>
</g>
</svg>
