<svg width="14" height="14" viewBox="0 0 14 14" fill="none" xmlns="http://www.w3.org/2000/svg">
<path d="M0 9.61548C0 10.2668 0.529594 10.7979 1.18245 10.7979H8.2157V8.43303H1.18245C0.529594 8.43303 0 8.96262 0 9.61548Z" fill="#53536E"/>
<path d="M0 6.64191C0 7.29324 0.529594 7.82436 1.18245 7.82436H8.2157V5.45946H1.18245C0.529594 5.45946 0 5.98905 0 6.64191Z" fill="#53536E"/>
<path d="M14 6.64191C14 6.18669 13.7423 5.79141 13.3645 5.59377V7.68841C13.7422 7.49241 14 7.09723 14 6.64191Z" fill="#53536E"/>
<path d="M13.3644 8.56734V10.6635C13.7422 10.4659 13.9999 10.0707 13.9999 9.61537C14 9.16026 13.7422 8.76498 13.3644 8.56734Z" fill="#53536E"/>
<path d="M10.9965 2.60597C10.2329 2.52536 9.54527 2.89373 9.16431 3.47867C8.81803 2.94755 8.21899 2.59503 7.53758 2.59503C6.46735 2.59503 5.59628 3.46598 5.59628 4.53786V4.82716H6.22858V4.58205C6.22858 3.88653 6.75347 3.27633 7.44899 3.23039C8.211 3.17986 8.84811 3.78525 8.84811 4.53775V11.0888C8.84811 11.2627 8.9903 11.4049 9.16421 11.4049C9.25116 11.4049 9.33013 11.3684 9.38711 11.3117C9.4441 11.2547 9.4803 11.1757 9.4803 11.0888V9.97752H12.0997V11.0889C12.0997 11.2628 12.2419 11.405 12.4158 11.405C12.5043 11.405 12.5834 11.3685 12.6404 11.3118C12.6973 11.2548 12.732 11.1758 12.732 11.0889V4.59473C12.7321 3.59089 11.9938 2.71042 10.9965 2.60597ZM12.0997 9.34511H9.48041V6.91392H12.0998L12.0997 9.34511ZM12.0997 6.28152H9.48041V4.53786C9.48041 3.81533 10.0685 3.22744 10.7893 3.22744C11.5118 3.22744 12.0997 3.81555 12.0997 4.53786V6.28152Z" fill="#53536E"/>
</svg>
