<svg width="14" height="14" viewBox="0 0 14 14" fill="none" xmlns="http://www.w3.org/2000/svg">
<path d="M11.5118 2.46094C12.1903 2.46094 12.7422 1.90898 12.7422 1.23047C12.7422 0.551961 12.1903 0 11.5118 0H3.30865C3.08214 0 2.8985 0.183641 2.8985 0.410156V2.46094H11.5118Z" fill="#53536E"/>
<path d="M12.3321 11.5391H5.35943V3.33594H2.71841L1.26189 13.5318C1.24507 13.6495 1.28032 13.7689 1.35803 13.8586C1.43574 13.9483 1.54946 14 1.66803 14H12.3321C12.5588 14 12.7422 13.8166 12.7422 13.5898V11.9492C12.7422 11.7225 12.5588 11.5391 12.3321 11.5391ZM3.30865 12.3594C3.08214 12.3594 2.8985 12.1757 2.8985 11.9492C2.8985 11.7226 3.08214 11.5391 3.30865 11.5391C3.53517 11.5391 3.71881 11.7226 3.71881 11.9492C3.71881 12.1757 3.53517 12.3594 3.30865 12.3594Z" fill="#53536E"/>
<path d="M11.5118 7.4375H11.1016V7.02734C11.1016 6.80064 10.9182 6.61719 10.6915 6.61719H9.05084V5.79688H8.23053V6.61719H6.5899C6.3632 6.61719 6.17975 6.80064 6.17975 7.02734V9.07812C6.17975 9.7107 6.42628 10.2824 6.81981 10.7188H10.4616C10.6751 10.482 10.8398 10.203 10.9509 9.89844H11.5118C12.1903 9.89844 12.7422 9.34648 12.7422 8.66797C12.7422 7.98946 12.1903 7.4375 11.5118 7.4375ZM11.5118 9.07812H11.1016V8.25781H11.5118C11.7377 8.25781 11.9219 8.44167 11.9219 8.66797C11.9219 8.89427 11.7377 9.07812 11.5118 9.07812Z" fill="#53536E"/>
<path d="M7.82037 4.97656H9.461C9.63723 4.97656 9.79426 4.86361 9.85032 4.69618L10.3037 3.33594H6.97764L7.43105 4.69618C7.48713 4.86361 7.64414 4.97656 7.82037 4.97656Z" fill="#53536E"/>
</svg>
