<svg width="14" height="14" viewBox="0 0 14 14" fill="none" xmlns="http://www.w3.org/2000/svg">
<g clip-path="url(#clip0_280_215)">
<path d="M6.12137 9.66512C5.89485 9.66512 5.71121 9.84876 5.71121 10.0753V12.7112C5.71121 12.9377 5.89485 13.1214 6.12137 13.1214C6.34788 13.1214 6.53152 12.9377 6.53152 12.7112V10.0753C6.53152 9.84876 6.34788 9.66512 6.12137 9.66512Z" fill="#53536E"/>
<path d="M2.57764 6.97084H9.66511V8.72811H2.57764V6.97084Z" fill="#53536E"/>
<path d="M12.4916 0.878632H1.5085C0.67673 0.878632 0 1.55533 0 2.38713V7.21965C0 8.05142 0.67673 8.72809 1.5085 8.72809H1.75733V6.56066C1.75733 6.33415 1.94097 6.15051 2.16748 6.15051H10.0753C10.3018 6.15051 10.4854 6.33415 10.4854 6.56066V8.72809H12.4916C13.3233 8.72809 14 8.05142 14 7.21965V2.38713C14 1.55533 13.3233 0.878632 12.4916 0.878632ZM10.0753 5.21352H2.16748C1.94097 5.21352 1.75733 5.02988 1.75733 4.80336C1.75733 4.57685 1.94097 4.39321 2.16748 4.39321H10.0753C10.3018 4.39321 10.4854 4.57685 10.4854 4.80336C10.4854 5.02988 10.3018 5.21352 10.0753 5.21352ZM10.0753 3.45624H2.16748C1.94097 3.45624 1.75733 3.2726 1.75733 3.04609C1.75733 2.81957 1.94097 2.63593 2.16748 2.63593H10.0753C10.3018 2.63593 10.4854 2.81957 10.4854 3.04609C10.4854 3.2726 10.3018 3.45624 10.0753 3.45624ZM12.1226 5.09332C12.0463 5.16988 11.9404 5.21363 11.8327 5.21363C11.7247 5.21363 11.6189 5.16985 11.5426 5.09332C11.4663 5.01703 11.4225 4.91151 11.4225 4.80347C11.4225 4.69544 11.4663 4.58964 11.5426 4.51335C11.6189 4.43707 11.7247 4.39332 11.8327 4.39332C11.9407 4.39332 12.0463 4.43707 12.1226 4.51335C12.1988 4.58964 12.2428 4.69546 12.2428 4.80347C12.2428 4.91148 12.1988 5.017 12.1226 5.09332ZM12.1226 3.33621C12.0463 3.41249 11.9404 3.45624 11.8327 3.45624C11.7247 3.45624 11.6189 3.41249 11.5426 3.33621C11.4663 3.25992 11.4225 3.1541 11.4225 3.04609C11.4225 2.93811 11.4663 2.83253 11.5426 2.756C11.6189 2.67971 11.7247 2.63593 11.8327 2.63593C11.9404 2.63593 12.0463 2.67971 12.1226 2.756C12.1991 2.83256 12.2428 2.93838 12.2428 3.04609C12.2428 3.1541 12.1991 3.25964 12.1226 3.33621Z" fill="#53536E"/>
<path d="M4.36411 9.66512C4.13759 9.66512 3.95395 9.84876 3.95395 10.0753V11.8325C3.95395 12.0909 3.74376 12.3011 3.48542 12.3011C3.2271 12.3011 3.01694 12.0909 3.01694 11.8325C3.01694 11.606 2.8333 11.4224 2.60678 11.4224C2.38027 11.4224 2.19662 11.606 2.19662 11.8325C2.19662 12.5432 2.77478 13.1214 3.48542 13.1214C4.19608 13.1214 4.77427 12.5432 4.77427 11.8325V10.0753C4.77427 9.84876 4.59062 9.66512 4.36411 9.66512Z" fill="#53536E"/>
<path d="M9.63594 11.4224C9.40942 11.4224 9.22578 11.606 9.22578 11.8325C9.22578 12.0909 9.01562 12.301 8.7573 12.301C8.49898 12.301 8.28882 12.0909 8.28882 11.8325V10.0752C8.28882 9.84873 8.10518 9.66508 7.87866 9.66508C7.65215 9.66508 7.46851 9.84873 7.46851 10.0752V11.8325C7.46851 12.5432 8.04666 13.1214 8.7573 13.1214C9.46794 13.1214 10.0461 12.5432 10.0461 11.8325C10.0461 11.606 9.86248 11.4224 9.63594 11.4224Z" fill="#53536E"/>
</g>
<defs>
<clipPath id="clip0_280_215">
<rect width="14" height="14" fill="white"/>
</clipPath>
</defs>
</svg>
