<svg width="14" height="14" viewBox="0 0 14 14" fill="none" xmlns="http://www.w3.org/2000/svg">
<path d="M6.98632 3.34758C7.63459 3.34758 8.16011 2.82206 8.16011 2.17379C8.16011 1.52552 7.63459 1 6.98632 1C6.33805 1 5.81253 1.52552 5.81253 2.17379C5.81253 2.82206 6.33805 3.34758 6.98632 3.34758Z" fill="#53536E"/>
<path d="M8.26654 3.54611C7.93081 3.85951 7.48071 4.05185 6.98631 4.05185C6.49191 4.05185 6.04181 3.85951 5.70608 3.54611C5.20837 3.80547 4.84933 4.29544 4.77191 4.8735H9.20071C9.12327 4.29544 8.76425 3.80547 8.26654 3.54611Z" fill="#53536E"/>
<path d="M2.76067 10.7894C3.40894 10.7894 3.93446 10.2639 3.93446 9.61562C3.93446 8.96736 3.40894 8.44183 2.76067 8.44183C2.11241 8.44183 1.58688 8.96736 1.58688 9.61562C1.58688 10.2639 2.11241 10.7894 2.76067 10.7894Z" fill="#53536E"/>
<path d="M11.212 10.7894C11.8602 10.7894 12.3858 10.2639 12.3858 9.61562C12.3858 8.96736 11.8602 8.44183 11.212 8.44183C10.5637 8.44183 10.0382 8.96736 10.0382 9.61562C10.0382 10.2639 10.5637 10.7894 11.212 10.7894Z" fill="#53536E"/>
<path d="M4.02392 11.0042C3.69009 11.3081 3.24666 11.4937 2.76068 11.4937C2.27471 11.4937 1.83128 11.3081 1.49745 11.0042C1.19663 11.2167 1 11.5669 1 11.9632V12.6675C1 12.862 1.15766 13.0196 1.35214 13.0196H4.16923C4.36371 13.0196 4.52137 12.862 4.52137 12.6675V11.9632C4.52137 11.5669 4.32474 11.2167 4.02392 11.0042Z" fill="#53536E"/>
<path d="M12.4752 11.0042C12.1414 11.3081 11.698 11.4937 11.212 11.4937C10.726 11.4937 10.2826 11.3081 9.94875 11.0042C9.64793 11.2167 9.45129 11.5669 9.45129 11.9632V12.6675C9.45129 12.862 9.60896 13.0196 9.80343 13.0196H12.6205C12.815 13.0196 12.9727 12.862 12.9727 12.6675V11.9632C12.9727 11.5669 12.776 11.2167 12.4752 11.0042Z" fill="#53536E"/>
<path d="M8.24956 11.0042C7.91574 11.3081 7.4723 11.4937 6.98633 11.4937C6.50036 11.4937 6.05692 11.3081 5.7231 11.0042C5.42228 11.2167 5.22565 11.5669 5.22565 11.9632V12.6675C5.22565 12.862 5.38331 13.0196 5.57778 13.0196H8.39488C8.58935 13.0196 8.74702 12.862 8.74702 12.6675V11.9632C8.74702 11.5669 8.55038 11.2167 8.24956 11.0042Z" fill="#53536E"/>
<path d="M9.3339 9.61559C9.3339 8.78497 9.87614 8.07901 10.6251 7.83195V6.28203H10.7424C10.9369 6.28203 11.0946 6.12436 11.0946 5.92989C11.0946 5.73542 10.9369 5.57775 10.7424 5.57775H10.3903V4.16921C10.3903 4.07582 10.3532 3.98626 10.2872 3.92022L9.81764 3.45071C9.68014 3.31318 9.45717 3.31318 9.31965 3.45071C9.18212 3.58823 9.18212 3.81118 9.31965 3.9487L9.68603 4.31506V5.57775H3.23019C3.03572 5.57775 2.87805 5.73542 2.87805 5.92989C2.87805 6.12436 3.03572 6.28203 3.23019 6.28203H3.34757V7.83195C4.09649 8.07901 4.63874 8.78497 4.63874 9.61559C4.63874 9.91167 4.56962 10.1918 4.44708 10.4411C4.61336 10.5614 4.75675 10.7065 4.87349 10.8695C4.99024 10.7065 5.13365 10.5614 5.29991 10.4411C5.17737 10.1918 5.10825 9.91167 5.10825 9.61559C5.10825 8.58003 5.95075 7.73753 6.98632 7.73753C8.02188 7.73753 8.86438 8.58003 8.86438 9.61559C8.86438 9.91167 8.79527 10.1918 8.67272 10.4411C8.839 10.5614 8.98239 10.7065 9.09914 10.8695C9.21588 10.7065 9.3593 10.5614 9.52555 10.4411C9.40301 10.1918 9.3339 9.91167 9.3339 9.61559Z" fill="#53536E"/>
<path d="M6.98632 10.7894C7.63459 10.7894 8.16011 10.2639 8.16011 9.61562C8.16011 8.96736 7.63459 8.44183 6.98632 8.44183C6.33805 8.44183 5.81253 8.96736 5.81253 9.61562C5.81253 10.2639 6.33805 10.7894 6.98632 10.7894Z" fill="#53536E"/>
</svg>
