<svg width="14" height="14" viewBox="0 0 14 14" fill="none" xmlns="http://www.w3.org/2000/svg">
<g clip-path="url(#clip0_262_228)">
<path d="M7 0.43722C6.03465 0.437237 5.11649 0.645058 4.2904 1.01998C4.17732 1.07132 4.12959 1.20634 4.1853 1.31733L4.57623 2.10048C4.62873 2.20566 4.75494 2.25056 4.86206 2.20216C5.51504 1.91061 6.23777 1.75014 7 1.75014C9.90208 1.75014 12.2496 4.09764 12.2496 6.99972C12.2496 8.09143 11.9135 9.10028 11.3438 9.94045L10.6542 9.25043C10.6071 9.20322 10.5411 9.18008 10.4748 9.18761C10.3643 9.20042 10.281 9.29422 10.2812 9.4055V11.8117C10.2808 11.9325 10.3783 12.0309 10.4991 12.0314H12.905C13.1015 12.033 13.2002 11.7945 13.0601 11.6567L12.2846 10.8812C13.0846 9.79363 13.5625 8.45233 13.5625 6.99969C13.5625 3.37791 10.6218 0.437212 7 0.43722ZM1.09289 1.96804C0.898365 1.96811 0.800684 2.20304 0.937805 2.34103L1.71368 3.11691C0.913535 4.20462 0.4375 5.54683 0.4375 6.99972C0.4375 10.6215 3.37823 13.5622 7 13.5622C7.96535 13.5622 8.88351 13.3527 9.70959 12.9777C9.82251 12.9262 9.87003 12.7912 9.81427 12.6804L9.42206 11.8972C9.36964 11.793 9.24461 11.7483 9.13794 11.7956C8.48496 12.0871 7.76222 12.2493 7 12.2493C4.09792 12.2493 1.75043 9.9018 1.75043 6.99972C1.75043 5.90839 2.08448 4.89834 2.65363 4.05813L3.34576 4.74855C3.48375 4.88569 3.71868 4.78798 3.71875 4.59346V2.18765C3.71919 2.06617 3.62062 1.96758 3.49914 1.96804H1.09289ZM6.99957 3.49929C5.06917 3.49929 3.50043 5.06974 3.50043 7.00015C3.50043 8.93055 5.06917 10.4993 6.99957 10.4993C8.92998 10.4993 10.5004 8.93055 10.5004 7.00015C10.5004 5.06974 8.92998 3.49929 6.99957 3.49929ZM6.9987 4.37301C7.1081 4.37301 7.21745 4.44583 7.21745 4.59174V5.05531C7.71535 5.157 8.09287 5.59954 8.09287 6.12642C8.09948 6.42463 7.64876 6.42463 7.65537 6.12642C7.65537 5.76139 7.36458 5.47102 6.99955 5.47102C6.63452 5.47102 6.34416 5.76139 6.34416 6.12642C6.34416 6.49145 6.63452 6.78225 6.99955 6.78225C7.60102 6.78225 8.09287 7.27538 8.09287 7.87685C8.09287 8.40375 7.71535 8.84671 7.21745 8.94839V9.40767C7.21745 9.69941 6.77995 9.69941 6.77995 9.40767V8.94796C6.28288 8.84562 5.90666 8.40314 5.90666 7.87685C5.91298 7.59159 6.33754 7.59159 6.34416 7.87685C6.34416 8.24188 6.63452 8.53268 6.99955 8.53268C7.36458 8.53268 7.65537 8.24188 7.65537 7.87685C7.65537 7.51182 7.36458 7.21973 6.99955 7.21973C6.39807 7.21973 5.90666 6.72789 5.90666 6.12642C5.90666 5.60013 6.28288 5.15809 6.77995 5.05574V4.59174C6.77995 4.44588 6.8893 4.37301 6.9987 4.37301Z" fill="#53536E"/>
</g>
<defs>
<clipPath id="clip0_262_228">
<rect width="14" height="14" fill="white"/>
</clipPath>
</defs>
</svg>
