<svg width="14" height="14" viewBox="0 0 14 14" fill="none" xmlns="http://www.w3.org/2000/svg">
<path d="M9.33328 11.5505L8.50849 10.7256C6.8586 9.07514 4.6655 8.16672 2.33328 8.16672V12.8333C2.33328 13.4748 2.85862 14 3.50001 14H10.5C11.1414 14 11.6667 13.4748 11.6667 12.8333V9.21706L9.33328 11.5505Z" fill="#53536E"/>
<path d="M6.99194 8.16672C7.85662 8.62924 8.64621 9.21303 9.33325 9.90062L11.0673 8.16672H6.99194Z" fill="#53536E"/>
<path d="M10.5 0H3.50001C2.85862 0 2.33328 0.525171 2.33328 1.16672V7H11.6667V1.16672C11.6667 0.525171 11.1414 0 10.5 0ZM7.00001 1.16672C7.64436 1.16672 8.16673 1.68892 8.16673 2.33328C8.16673 2.97763 7.64436 3.5 7.00001 3.5C6.35514 3.5 5.83328 2.97763 5.83328 2.33328C5.83328 1.68892 6.35514 1.16672 7.00001 1.16672ZM4.66673 5.83328C4.66673 5.18841 5.18893 4.66672 5.83328 4.66672H8.16673C8.8116 4.66672 9.33328 5.18841 9.33328 5.83328H4.66673Z" fill="#53536E"/>
</svg>
