<svg width="14" height="14" viewBox="0 0 14 14" fill="none" xmlns="http://www.w3.org/2000/svg">
<g clip-path="url(#clip0_264_674)">
<path d="M10.7139 1.73947C11.0033 1.8195 11.0138 1.83006 11.0939 2.11944C11.1289 2.2459 11.2437 2.33335 11.375 2.33335C11.5063 2.33335 11.6211 2.2459 11.6561 2.11944C11.7362 1.83006 11.7467 1.8195 12.0361 1.73947C12.1626 1.70444 12.25 1.58965 12.25 1.45835C12.25 1.32704 12.1626 1.21225 12.0361 1.17723C11.7467 1.09719 11.7362 1.08664 11.6561 0.797256C11.586 0.544327 11.1639 0.544327 11.0939 0.797256C11.0138 1.08664 11.0033 1.09719 10.7139 1.17723C10.5874 1.21223 10.5 1.32701 10.5 1.45832C10.5 1.58962 10.5874 1.70441 10.7139 1.73947Z" fill="#53536E"/>
<path d="M1.53609 12.8439C1.24671 12.7638 1.23616 12.7533 1.15612 12.4639C1.08604 12.211 0.663934 12.211 0.593852 12.4639C0.513816 12.7533 0.503262 12.7638 0.213883 12.8439C0.0874453 12.8789 0 12.9937 0 13.125C0 13.2563 0.0874453 13.3711 0.21391 13.4061C0.503289 13.4862 0.513844 13.4967 0.593879 13.7861C0.628906 13.9126 0.743695 14 0.875 14C1.0063 14 1.12109 13.9126 1.15612 13.7861C1.23616 13.4967 1.24671 13.4862 1.53609 13.4061C1.66255 13.3711 1.75 13.2563 1.75 13.125C1.75 12.9937 1.66255 12.8789 1.53609 12.8439Z" fill="#53536E"/>
<path d="M13.7861 3.21888C13.7465 3.20805 13.7231 3.19979 13.7206 3.20179C13.716 3.19096 13.7086 3.16988 13.6978 3.13058C13.6277 2.87766 13.2056 2.87766 13.1355 3.13058C13.1247 3.16991 13.1173 3.19096 13.1184 3.1961C13.1076 3.20067 13.0865 3.20808 13.0472 3.21888C12.9208 3.25391 12.8333 3.36899 12.8333 3.5C12.8333 3.631 12.9208 3.74609 13.0472 3.78112C13.0868 3.79195 13.1085 3.79594 13.1128 3.79821C13.1173 3.80904 13.1247 3.83012 13.1355 3.86941C13.1706 3.99588 13.2856 4.08332 13.4167 4.08332C13.5477 4.08332 13.6627 3.99588 13.6978 3.86941C13.7086 3.83009 13.716 3.80904 13.7149 3.8039C13.7257 3.79933 13.7468 3.79192 13.7861 3.78112C13.9126 3.74609 14 3.63103 14 3.5C14 3.36897 13.9126 3.25391 13.7861 3.21888Z" fill="#53536E"/>
<path d="M4.72976 10.8947C5.34365 10.9995 6.01456 11.0607 6.70832 11.0749V8.7454C5.87374 8.73012 5.08793 8.65016 4.38364 8.51544C4.41036 9.37103 4.53277 10.18 4.72976 10.8947Z" fill="#53536E"/>
<path d="M4.3811 7.9214C5.05219 8.05787 5.83466 8.14559 6.70835 8.16194V5.8272C5.99643 5.81377 5.30991 5.75258 4.6748 5.647C4.50231 6.33853 4.3989 7.1103 4.3811 7.9214Z" fill="#53536E"/>
<path d="M7.29168 11.0749C7.98539 11.0607 8.65638 10.9996 9.27024 10.8947C9.46728 10.1801 9.58962 9.37114 9.61631 8.5155C8.91218 8.6502 8.1264 8.73015 7.29165 8.74541V11.0749H7.29168Z" fill="#53536E"/>
<path d="M7.29168 5.82719V8.16177C8.16077 8.14482 8.94463 8.05453 9.61877 7.9153C9.60053 7.10644 9.49725 6.33669 9.3252 5.64694C8.69009 5.75254 8.00354 5.81382 7.29168 5.82719Z" fill="#53536E"/>
<path d="M7.29168 2.34812V0.291676C7.29168 0.130457 7.16122 0 7 0C6.83878 0 6.70832 0.130457 6.70832 0.291676V2.34812C3.62756 2.50157 1.16668 5.04853 1.16668 8.16668C1.16668 11.3833 3.78342 14 7 14C10.2166 14 12.8333 11.3833 12.8333 8.16668C12.8333 5.04853 10.3724 2.50157 7.29168 2.34812ZM10.1983 7.77684C11.1275 7.52257 11.7793 7.17525 12.0707 6.8288C12.1287 7.04854 12.1741 7.27303 12.2033 7.50296C11.7435 7.86939 11.0545 8.1731 10.2027 8.38802C10.1874 9.23995 10.0857 10.0412 9.91247 10.7638C10.8346 10.5472 11.5711 10.2337 11.9651 9.85821C11.8473 10.2029 11.6943 10.5305 11.5109 10.8388C11.0223 11.0733 10.4191 11.2653 9.73345 11.4048C9.66033 11.6325 9.57955 11.8497 9.49184 12.0553C9.2129 12.7091 8.63237 13.2024 7.93289 13.3285C7.92925 13.3291 7.92567 13.3298 7.92203 13.3304C8.37594 12.9563 8.77428 12.3246 9.07069 11.5175C8.51143 11.5984 7.91495 11.6466 7.29168 11.6582V13.4019C7.19455 13.4073 7.09846 13.4166 7 13.4166C6.90154 13.4166 6.80545 13.4072 6.70832 13.4019V11.6582C6.085 11.6466 5.48857 11.5984 4.92934 11.5175C5.22572 12.3246 5.62398 12.9564 6.07791 13.3304C6.07428 13.3298 6.07069 13.3291 6.06706 13.3284C5.36763 13.2023 4.78707 12.7091 4.50819 12.0553C4.42047 11.8497 4.33975 11.6326 4.26661 11.4049C3.58088 11.2654 2.97776 11.0734 2.48918 10.839C2.30565 10.5304 2.15258 10.2027 2.03473 9.85778C2.42875 10.2334 3.16526 10.5469 4.08751 10.7638C3.91418 10.0411 3.81257 9.23989 3.79731 8.388C2.94563 8.17302 2.25649 7.86939 1.79665 7.50318C1.82585 7.27319 1.87121 7.04867 1.92927 6.82888C2.22378 7.18386 2.87109 7.53219 3.80141 7.78466C3.82637 6.97916 3.92872 6.22158 4.09596 5.53555C3.59291 5.42456 3.13466 5.28402 2.73446 5.1176C2.85548 4.94884 2.98668 4.78855 3.12632 4.63553C3.46615 4.76615 3.83611 4.88329 4.25225 4.97377C4.32827 4.73225 4.41279 4.50223 4.50505 4.28509C4.78379 3.62895 5.36342 3.13195 6.06498 3.00513C6.06856 3.0045 6.0722 3.00385 6.07581 3.00322C5.57244 3.41737 5.13732 4.14881 4.83405 5.08266C5.41898 5.17634 6.05087 5.23127 6.70827 5.24398V2.93144C6.80539 2.92605 6.90148 2.91668 6.99994 2.91668C7.09841 2.91668 7.1945 2.92608 7.29162 2.93144V5.24398C7.94894 5.23124 8.58091 5.17636 9.16584 5.08271C8.86257 4.14881 8.42745 3.41737 7.92408 3.00325C7.92769 3.00388 7.9313 3.00453 7.93491 3.00516C8.63644 3.13198 9.21605 3.62895 9.49479 4.28504C9.58707 4.50223 9.67159 4.73225 9.74764 4.97383C10.1637 4.88335 10.5337 4.76623 10.8736 4.63559C11.0131 4.78855 11.1443 4.94875 11.2652 5.11741C10.8651 5.28393 10.407 5.42456 9.90396 5.53558C10.0707 6.21939 10.1729 6.97422 10.1983 7.77684Z" fill="#53536E"/>
</g>
<defs>
<clipPath id="clip0_264_674">
<rect width="14" height="14" fill="white"/>
</clipPath>
</defs>
</svg>
