<svg width="14" height="14" viewBox="0 0 14 14" fill="none" xmlns="http://www.w3.org/2000/svg">
<g clip-path="url(#clip0_264_622)">
<path d="M2.89056 2.83205C2.24011 3.00563 1.63636 3.3308 1.13323 3.78733V0.877953C1.13323 0.39375 1.52698 0 2.01119 0C2.49681 0 2.89056 0.39375 2.89056 0.877953V2.83205Z" fill="#53536E"/>
<path d="M7.51056 12.3113V13.0842C7.51056 13.5888 7.10073 14.0001 6.59465 14.0001H5.26039C4.92789 14.0001 4.63465 13.8207 4.47584 13.5539L3.51192 13.2389C2.12209 12.7839 1.17862 11.5151 1.13476 10.0612C1.73993 10.6124 2.50129 10.9946 3.33397 11.1184C3.33976 11.1198 3.34567 11.1198 3.35146 11.1214C3.54112 11.3226 3.78022 11.4786 4.05726 11.5691L4.55306 11.731C4.72084 11.5268 4.97601 11.3971 5.26039 11.3971H6.59476C7.10073 11.3969 7.51056 11.8067 7.51056 12.3113Z" fill="#53536E"/>
<path d="M9.90784 5.02951H3.97961C2.88258 5.02951 1.96109 5.97528 2.0942 7.15445C2.18826 7.98701 2.85436 8.68034 3.67817 8.80306C4.20426 8.88214 4.72992 8.74914 5.14391 8.4267C6.25592 7.56198 7.78564 7.61721 8.87392 8.44321C9.20423 8.69324 9.6005 8.8257 10.0193 8.8257C11.0657 8.8257 11.9353 7.97214 11.9173 6.8937C11.8998 5.86579 10.9982 5.02951 9.90784 5.02951Z" fill="#53536E"/>
<path d="M9.90806 3.27251H3.98005C1.81147 3.27251 0.0994211 5.15671 0.348796 7.35154C0.529593 8.96154 1.82164 10.3032 3.41851 10.5409C4.47431 10.6956 5.45573 10.4111 6.22289 9.81324C6.67351 9.46324 7.32681 9.47494 7.81244 9.84387C8.45119 10.3281 9.21397 10.5832 10.0189 10.5832C12.0648 10.5832 13.7084 8.91057 13.6749 6.86449C13.6415 4.88251 11.9512 3.27251 9.90806 3.27251ZM10.0189 9.40921C9.47198 9.40921 8.95431 9.23563 8.52119 8.90751C7.64181 8.23955 6.40369 8.18563 5.50244 8.88705C4.93959 9.32455 4.25556 9.48052 3.59198 9.38001C2.51136 9.21955 1.63778 8.31109 1.51386 7.22018C1.3417 5.68893 2.54045 4.44643 3.97994 4.44643H9.90806C11.314 4.44643 12.4776 5.54018 12.501 6.8833C12.5243 8.27455 11.4073 9.40921 10.0189 9.40921Z" fill="#53536E"/>
</g>
<defs>
<clipPath id="clip0_264_622">
<rect width="14" height="14" fill="white"/>
</clipPath>
</defs>
</svg>
