<svg width="14" height="14" viewBox="0 0 14 14" fill="none" xmlns="http://www.w3.org/2000/svg">
<path d="M7 0C4.03364 0 1.62033 2.4133 1.62033 5.37966C1.62033 6.8338 2.48555 8.68689 4.19196 10.8874C5.43905 12.4956 7.00221 14 7.00221 14C7.00221 14 12.3797 8.72178 12.3797 5.37966C12.3797 2.4133 9.96636 0 7 0ZM6.98223 9.23221C4.83019 9.23221 3.07937 7.48139 3.07937 5.32935C3.07937 3.17732 4.83019 1.42652 6.98223 1.42652C9.13426 1.42652 10.8851 3.17734 10.8851 5.32938C10.8851 7.48141 9.13426 9.23221 6.98223 9.23221Z" fill="#53536E"/>
<path d="M6.98222 2.26505C5.29257 2.26505 3.91792 3.6397 3.91792 5.32935C3.91792 7.019 5.29257 8.39365 6.98222 8.39365C8.67188 8.39365 10.0465 7.019 10.0465 5.32935C10.0465 3.6397 8.6719 2.26505 6.98222 2.26505ZM7.92465 7.19168C7.53859 7.4708 6.9729 7.72488 6.9729 7.72488C6.9729 7.72488 6.40751 7.47012 6.02175 7.19053C5.4373 6.76697 5.14111 6.31668 5.14142 5.85224L5.95593 5.85274C5.95579 6.07687 6.23806 6.35272 6.56638 6.57986L6.56706 5.39156L5.92449 5.39117L5.92498 4.57669L6.56753 4.57707L6.56777 4.13601C6.40773 4.0133 6.30443 3.82028 6.30443 3.60303C6.30443 3.23225 6.60499 2.93169 6.97577 2.93169C7.34655 2.93169 7.64711 3.23225 7.64711 3.60303C7.64711 3.82096 7.54318 4.01458 7.38226 4.13722L7.38202 4.57756L8.02454 4.57794L8.02408 5.39246L7.38155 5.39208L7.38087 6.58035C7.70935 6.35365 7.99195 6.07813 7.99208 5.85399L8.80657 5.85449C8.8063 6.31892 8.50959 6.76883 7.92465 7.19168Z" fill="#53536E"/>
</svg>
