<svg width="14" height="14" viewBox="0 0 14 14" fill="none" xmlns="http://www.w3.org/2000/svg">
<g clip-path="url(#clip0_262_124)">
<path d="M12.2062 9.75752L9.83836 8.27209C9.83257 8.27797 9.82691 8.28396 9.82106 8.28981C9.76634 8.34453 9.70998 8.39697 9.65232 8.44753V10.5547H10.0898C10.6175 10.5547 11.0468 10.984 11.0468 11.5117V12.2227C11.0468 12.5996 10.7402 12.9063 10.3633 12.9063H9.9531C9.72658 12.9063 9.54294 12.7226 9.54294 12.4961C9.54294 12.2696 9.72658 12.0859 9.9531 12.0859H10.2265V11.5117C10.2265 11.4363 10.1652 11.375 10.0898 11.375H8.33982C8.26443 11.375 8.2031 11.4363 8.2031 11.5117V12.0859H8.47653C8.70305 12.0859 8.88669 12.2696 8.88669 12.4961C8.88669 12.7226 8.70305 12.9063 8.47653 12.9063H8.06638C7.68945 12.9063 7.38278 12.5996 7.38278 12.2227V11.5117C7.38278 10.984 7.81211 10.5547 8.33982 10.5547H8.832V8.98156C8.38575 9.18795 7.89619 9.29688 7.38984 9.29688H6.61013C6.09861 9.29688 5.60421 9.18579 5.15427 8.97529V10.6573C5.62455 10.8304 5.96091 11.2829 5.96091 11.8125C5.96091 12.491 5.40892 13.043 4.73044 13.043C4.05196 13.043 3.49997 12.491 3.49997 11.8125C3.49997 11.2727 3.84948 10.8134 4.33396 10.648V8.43545C4.28107 8.38861 4.22929 8.34021 4.17889 8.28984C4.17304 8.28399 4.16741 8.278 4.16158 8.27212L1.79375 9.75754C0.677633 10.4577 0 11.6827 0 13.0004V14H14V13.0004C14 11.6827 13.3224 10.4577 12.2062 9.75752Z" fill="#53536E"/>
<path d="M4.73047 12.2227C4.95663 12.2227 5.14062 12.0387 5.14062 11.8125C5.14062 11.5863 4.95663 11.4023 4.73047 11.4023C4.50431 11.4023 4.32031 11.5863 4.32031 11.8125C4.32031 12.0387 4.50431 12.2227 4.73047 12.2227Z" fill="#53536E"/>
<path d="M3.99219 4.17974H10.0078V1.64062C10.0078 0.734535 9.27328 0 8.36719 0H5.63281C4.72672 0 3.99219 0.734535 3.99219 1.64062V4.17974ZM6.31641 1.88672H6.58984V1.61328C6.58984 1.38677 6.77348 1.20312 7 1.20312C7.22652 1.20312 7.41016 1.38677 7.41016 1.61328V1.88672H7.68359C7.91011 1.88672 8.09375 2.07036 8.09375 2.29688C8.09375 2.52339 7.91011 2.70703 7.68359 2.70703H7.41016V2.98047C7.41016 3.20698 7.22652 3.39062 7 3.39062C6.77348 3.39062 6.58984 3.20698 6.58984 2.98047V2.70703H6.31641C6.08989 2.70703 5.90625 2.52339 5.90625 2.29688C5.90625 2.07036 6.08989 1.88672 6.31641 1.88672Z" fill="#53536E"/>
<path d="M6.61016 8.47657H7.38987C8.83572 8.47657 10.0078 7.30448 10.0078 5.8586V5.00006H3.99219V5.8586C3.99219 7.30448 5.16428 8.47657 6.61016 8.47657Z" fill="#53536E"/>
</g>
<defs>
<clipPath id="clip0_262_124">
<rect width="14" height="14" fill="white"/>
</clipPath>
</defs>
</svg>
