<svg width="14" height="14" viewBox="0 0 14 14" fill="none" xmlns="http://www.w3.org/2000/svg">
<path d="M9.92297 8.36479C9.13744 7.64823 6.5991 5.44825 6.59908 5.44614C6.48491 5.34538 6.3377 5.29009 6.18543 5.29077C5.62549 5.29118 3.13627 5.29047 2.62425 5.29077C2.54092 5.29076 2.45841 5.30733 2.38155 5.33954C2.30468 5.37174 2.235 5.41893 2.17656 5.47834C2.11813 5.53776 2.0721 5.60821 2.04118 5.6856C2.01025 5.76299 1.99505 5.84576 1.99644 5.92908L9.19437 13.1249H9.45052C9.61619 13.1245 9.77503 13.0588 9.89256 12.9421C10.0101 12.8253 10.0769 12.6669 10.0783 12.5013V8.77424C10.0797 8.62311 10.0242 8.47697 9.92297 8.36479Z" fill="#53536E"/>
<path d="M1.99643 8.35849V12.5013C1.99705 12.6672 2.06352 12.8261 2.18125 12.9431C2.29897 13.06 2.45831 13.1254 2.62424 13.1249H6.76706C6.69013 13.0513 1.99643 8.35849 1.99643 8.35849Z" fill="#53536E"/>
<path d="M1.99654 6.52115V7.76212L7.36138 13.125H8.59797L1.99654 6.52115Z" fill="#53536E"/>
<path d="M5.26994 4.87081H5.79908C5.84065 4.63819 5.96314 4.42776 6.1449 4.27675C6.32665 4.12574 6.55596 4.04386 6.79226 4.04561C6.98541 4.04777 7.17393 4.10502 7.33566 4.21065C7.49739 4.31627 7.62559 4.46588 7.70521 4.64188C7.78482 4.81787 7.81253 5.01294 7.78507 5.20414C7.75762 5.39535 7.67614 5.57474 7.55023 5.72122C8.17232 6.26875 9.29424 7.24433 9.91036 7.78735C12.2778 5.13877 10.3418 0.866368 6.7922 0.875013C5.71788 0.877723 4.68596 1.29458 3.9112 2.03885C3.13644 2.78311 2.67849 3.79746 2.63266 4.87081C2.85285 4.87173 4.98911 4.87015 5.26994 4.87081ZM9.46523 5.02829C9.40956 5.02879 9.35596 5.00718 9.3162 4.96821C9.27645 4.92924 9.25377 4.87609 9.25315 4.82042C9.24642 4.22228 9.0041 3.65091 8.57877 3.2303C8.15344 2.80969 7.57941 2.57375 6.98123 2.57369C6.92554 2.57369 6.87213 2.55157 6.83275 2.51219C6.79337 2.47281 6.77125 2.4194 6.77125 2.36372C6.77125 2.30803 6.79337 2.25462 6.83275 2.21524C6.87213 2.17586 6.92554 2.15374 6.98123 2.15374C7.68992 2.15425 8.36988 2.434 8.87374 2.93236C9.37761 3.43073 9.66481 4.10757 9.6731 4.81622C9.6735 4.87186 9.65186 4.9254 9.61291 4.96513C9.57396 5.00487 9.52086 5.02758 9.46523 5.02829Z" fill="#53536E"/>
<path d="M11.376 5.29076C11.3057 6.31785 10.9008 7.29361 10.2232 8.06871C10.4 8.26117 10.4981 8.51292 10.4983 8.77423V12.5013C10.4983 12.7265 10.4246 12.9455 10.2883 13.1249H11.376C11.5419 13.1254 11.7013 13.06 11.819 12.943C11.9367 12.8261 12.0032 12.6672 12.0038 12.5013V5.91438C12.0032 5.74844 11.9367 5.58955 11.819 5.47261C11.7013 5.35567 11.5419 5.29026 11.376 5.29076Z" fill="#53536E"/>
</svg>
