<svg width="14" height="14" viewBox="0 0 14 14" fill="none" xmlns="http://www.w3.org/2000/svg">
<g clip-path="url(#clip0_262_89)">
<path d="M3.04751 1.94277L4.00014 0.990199L4.95266 1.94277C5.03275 2.02289 5.13772 2.06292 5.24266 2.06292C5.34761 2.06292 5.45261 2.02286 5.53267 1.94277C5.69285 1.78262 5.69285 1.52294 5.5327 1.36273L4.29017 0.120148C4.21325 0.0432031 4.10894 0 4.00016 0H4.00014C3.89136 0 3.78705 0.0432031 3.71013 0.120148L2.46747 1.36273C2.30731 1.52288 2.30731 1.78257 2.46747 1.94277C2.62765 2.10298 2.88733 2.10293 3.04751 1.94277Z" fill="#53536E"/>
<path d="M7.95247 1.94276C8.02938 2.01968 8.13373 2.06291 8.2425 2.06291C8.35128 2.06291 8.45559 2.01971 8.53251 1.94276L9.77509 0.700178C9.93524 0.540025 9.93524 0.280314 9.77509 0.120135C9.61494 -0.0400449 9.35523 -0.0400176 9.19505 0.120135L8.2425 1.07268L7.28998 0.120135C7.1298 -0.0400449 6.87012 -0.0400449 6.70991 0.120135C6.54976 0.280287 6.54976 0.539971 6.70991 0.700178L7.95247 1.94276Z" fill="#53536E"/>
<path d="M12.7112 8.0314C12.8192 8.0314 12.9248 7.98765 13.0013 7.91136C13.0776 7.83507 13.1214 7.72925 13.1214 7.62125C13.1214 7.51351 13.0776 7.40769 13.0013 7.33113C12.9247 7.25484 12.8192 7.21109 12.7112 7.21109C12.6032 7.21109 12.4974 7.25484 12.4211 7.33113C12.3448 7.40772 12.301 7.51324 12.301 7.62125C12.301 7.72925 12.3448 7.83507 12.4211 7.91136C12.4974 7.98765 12.6032 8.0314 12.7112 8.0314Z" fill="#53536E"/>
<path d="M12.7112 8.96844C12.6032 8.96844 12.4976 9.01222 12.4211 9.08851C12.3448 9.1648 12.301 9.27062 12.301 9.3786C12.301 9.48661 12.3448 9.59218 12.4211 9.66872C12.4976 9.74501 12.6032 9.78876 12.7112 9.78876C12.8189 9.78876 12.9248 9.74501 13.0013 9.66872C13.0776 9.59216 13.1214 9.48661 13.1214 9.3786C13.1214 9.27062 13.0776 9.1648 13.0013 9.08851C12.9248 9.01222 12.8192 8.96844 12.7112 8.96844Z" fill="#53536E"/>
<path d="M0.878632 4.50835V13.5898C0.878632 13.8164 1.06227 14 1.28879 14H5.71115V2.99988H2.38708C1.55533 2.99988 0.878632 3.67658 0.878632 4.50835Z" fill="#53536E"/>
<path d="M9.85559 2.99988H6.53146V14H10.9538C11.1804 14 11.364 13.8164 11.364 13.5898V4.50835C11.364 3.67658 10.6873 2.99988 9.85559 2.99988Z" fill="#53536E"/>
</g>
<defs>
<clipPath id="clip0_262_89">
<rect width="14" height="14" fill="white"/>
</clipPath>
</defs>
</svg>
