<svg width="14" height="14" viewBox="0 0 14 14" fill="none" xmlns="http://www.w3.org/2000/svg">
<g clip-path="url(#clip0_264_551)">
<path d="M5.86199 8.16666H11.0833C11.238 8.16666 11.3864 8.1052 11.4958 7.99581C11.6052 7.88641 11.6667 7.73804 11.6667 7.58333C11.63 6.48025 11.3605 5.39739 10.8759 4.40577C10.1819 3.01772 8.74913 1.37958 5.83333 1.18591V0.583328H4.66667V1.19583C2.79563 1.38432 1.40518 2.49965 0.625042 4.45003C0.238845 5.45097 0.0274249 6.51081 0 7.58333C0 7.73804 0.0614582 7.88641 0.170854 7.99581C0.280251 8.1052 0.428624 8.16666 0.583333 8.16666H1.80359C1.8784 8.66246 2.02864 9.14389 2.24911 9.59422C2.69595 10.488 3.61995 11.5434 5.49814 11.6562C6.37474 13.5647 7.71356 14 8.75 14V12.8333C6.45954 12.8333 5.96743 9.53509 5.86199 8.16666ZM3.30881 9.10444C3.15951 8.808 3.05163 8.49246 2.9882 8.16666H4.69117C4.74232 8.929 4.86566 9.68476 5.05954 10.4238C4.26307 10.2575 3.675 9.81647 3.30881 9.10444Z" fill="#53536E"/>
<path d="M13.6776 8.8116C13.1591 8.55239 12.6316 8.15966 12.2249 7.82336C12.1695 8.08519 12.0259 8.32007 11.8181 8.48874C11.6104 8.6574 11.351 8.74962 11.0833 8.74999H8.49217C8.65363 8.86054 8.82184 8.9609 8.99581 9.05048C9.76245 9.44561 11.1517 9.91666 13.4167 9.91666C13.5481 9.91665 13.6756 9.87228 13.7787 9.79073C13.8817 9.70918 13.9542 9.59524 13.9844 9.46736C14.0146 9.33948 14.0007 9.20515 13.945 9.08613C13.8893 8.96711 13.7951 8.87038 13.6776 8.8116Z" fill="#53536E"/>
</g>
<defs>
<clipPath id="clip0_264_551">
<rect width="14" height="14" fill="white"/>
</clipPath>
</defs>
</svg>
