<svg width="14" height="14" viewBox="0 0 14 14" fill="none" xmlns="http://www.w3.org/2000/svg">
<path fill-rule="evenodd" clip-rule="evenodd" d="M10.1644 10.8715C9.30242 11.5768 8.20063 12 7 12C4.23858 12 2 9.76142 2 7C2 5.79937 2.42318 4.69758 3.12852 3.83564L6.03896 6.74608V6.91714H5.62181C5.4625 6.91716 5.33335 7.0463 5.33333 7.20561C5.33335 7.36493 5.4625 7.49407 5.62181 7.49409H6.03896V7.93674L5.67816 7.93445C5.51884 7.93345 5.38887 8.06176 5.38783 8.22108C5.38682 8.38039 5.51514 8.51037 5.67446 8.5114L6.03896 8.51371V9.21064C6.03898 9.36995 6.16812 9.4991 6.32744 9.49912C6.48675 9.4991 6.61589 9.36995 6.61591 9.21064V8.51736L7.81785 8.52497L10.1644 10.8715ZM10.8715 10.1644L8.20118 7.49409H8.29563C8.32721 7.4941 8.35857 7.48893 8.38848 7.47878C8.67568 7.38106 8.92981 7.20075 9.11682 6.96188C9.30382 6.72301 9.41787 6.43319 9.44381 6.13094C9.47363 5.78345 9.38543 5.4332 9.1947 5.14121C9.00396 4.84921 8.71866 4.62782 8.38848 4.51548C8.35858 4.50527 8.32722 4.50004 8.29563 4.5H6.32744C6.16807 4.50003 6.0389 4.62927 6.03896 4.78864V5.33187L3.83563 3.12853C4.69756 2.42319 5.79936 2 7 2C9.76142 2 12 4.23858 12 7C12 8.20064 11.5768 9.30244 10.8715 10.1644ZM6.61591 5.90882V5.07712H8.23104C8.42392 5.15032 8.59907 5.28447 8.7116 5.45676C8.83001 5.63804 8.88739 5.86592 8.86888 6.08165C8.85271 6.27003 8.77887 6.45725 8.66232 6.60612C8.55262 6.74624 8.43485 6.88264 8.23238 6.91714H7.62423L6.61591 5.90882ZM6.78697 7.49409H6.61591V7.94039L7.2372 7.94432L6.78697 7.49409Z" fill="#53536E"/>
<path d="M6.97266 0C3.11054 0 0 3.12747 0 6.97266C0 10.8263 3.11853 13.9453 6.97266 13.9453C8.83509 13.9453 10.5861 13.22 11.9031 11.903C13.22 10.5861 13.9453 8.83509 13.9453 6.97266C13.9453 3.11905 10.8268 0 6.97266 0ZM10.7044 11.5153C5.24781 16.0051 -2.06434 8.70311 2.42998 3.24095C2.53189 3.11716 2.7195 3.10636 2.83448 3.22134C3.18205 3.56891 10.4191 10.806 10.724 11.1108C10.8382 11.225 10.8289 11.4128 10.7044 11.5153ZM11.5153 10.7044C11.4125 10.8293 11.2247 10.8378 11.1108 10.724C10.5686 10.1817 3.5621 3.17524 3.22134 2.83448C3.10715 2.72027 3.11639 2.5325 3.24095 2.42998C4.28818 1.5683 5.61345 1.09375 6.97266 1.09375C10.2218 1.09375 12.8516 3.72304 12.8516 6.97266C12.8516 8.33186 12.377 9.65713 11.5153 10.7044Z" fill="#53536E"/>
</svg>
