<svg width="14" height="14" viewBox="0 0 14 14" fill="none" xmlns="http://www.w3.org/2000/svg">
<path fill-rule="evenodd" clip-rule="evenodd" d="M8.23818 6.57271C8.10219 6.57268 7.99181 6.46233 7.99181 6.32632L7.9919 2.35479C7.9919 2.21877 8.10215 2.10838 8.2382 2.10838C8.37425 2.10838 8.48461 2.21874 8.48461 2.35479V6.3263C8.48461 6.46237 8.37425 6.57273 8.23818 6.57271Z" fill="#53536E"/>
<path fill-rule="evenodd" clip-rule="evenodd" d="M5.43091 1.2083C4.80841 1.2083 4.30205 1.71471 4.30205 2.33713C4.30213 2.95956 4.80838 3.46595 5.43085 3.46595C6.05306 3.46594 6.55962 2.95958 6.55962 2.33713C6.55968 1.7147 6.05306 1.20831 5.43091 1.2083Z" fill="#53536E"/>
<path fill-rule="evenodd" clip-rule="evenodd" d="M4.92423 3.65997C3.99943 3.88177 3.33263 4.72246 3.33263 5.67528L3.33266 6.18245H7.52882V5.67525C7.52882 4.7225 6.86213 3.8819 5.93737 3.66001C5.78002 3.72046 5.60928 3.7537 5.43091 3.7537C5.25244 3.7537 5.08162 3.72046 4.92423 3.65997Z" fill="#53536E"/>
<path fill-rule="evenodd" clip-rule="evenodd" d="M7.99181 1.67653V4.45583L10.8794 3.06619L7.99181 1.67653Z" fill="#53536E"/>
<path fill-rule="evenodd" clip-rule="evenodd" d="M10.8973 7.3775C10.2748 7.3775 9.76816 7.88388 9.76816 8.50629C9.76827 9.12874 10.2747 9.63511 10.8972 9.63511C11.5195 9.63509 12.026 9.12874 12.026 8.50629C12.026 7.88386 11.5194 7.3775 10.8973 7.3775Z" fill="#53536E"/>
<path fill-rule="evenodd" clip-rule="evenodd" d="M10.3906 9.82916C9.75252 9.98257 9.21123 10.445 8.9574 11.0523C9.18125 11.4149 9.30928 11.839 9.30928 12.2847V12.3516H12.9951V11.8445C12.9951 10.8917 12.3284 10.0511 11.4037 9.82917C11.2463 9.88962 11.0756 9.92285 10.8972 9.92284C10.7188 9.92284 10.548 9.88963 10.3906 9.82916Z" fill="#53536E"/>
<path fill-rule="evenodd" clip-rule="evenodd" d="M6.41706 10.2693C5.49221 10.4911 4.82536 11.3317 4.82536 12.2847L4.82539 12.7917H9.02155V12.4955V12.2846C9.02155 11.3318 8.35475 10.4911 7.43016 10.2693C7.27279 10.3298 7.10203 10.363 6.92364 10.363C6.74522 10.363 6.57442 10.3298 6.41706 10.2693Z" fill="#53536E"/>
<path fill-rule="evenodd" clip-rule="evenodd" d="M6.92364 7.81766C6.30114 7.81766 5.79478 8.32403 5.79478 8.94648C5.79487 9.56889 6.30111 10.0753 6.92358 10.0753C7.54614 10.0752 8.05238 9.5689 8.05238 8.94648C8.05242 8.32402 7.54605 7.81766 6.92364 7.81766Z" fill="#53536E"/>
<path fill-rule="evenodd" clip-rule="evenodd" d="M3.10291 7.3775C2.48041 7.3775 1.97404 7.88388 1.97404 8.50629C1.97413 9.12874 2.48035 9.63511 3.10282 9.63511C3.72541 9.63509 4.23163 9.12874 4.23163 8.50629C4.23167 7.88386 3.72529 7.3775 3.10291 7.3775Z" fill="#53536E"/>
<path fill-rule="evenodd" clip-rule="evenodd" d="M2.59638 9.82916C1.67161 10.051 1.00485 10.8917 1.00485 11.8445L1.00486 12.3516H4.53763V12.2846C4.53763 11.782 4.70056 11.307 4.98003 10.9166C4.70517 10.3723 4.20006 9.97099 3.60937 9.82916C3.45201 9.88962 3.28128 9.92286 3.1029 9.92285C2.9245 9.92285 2.75374 9.88964 2.59638 9.82916Z" fill="#53536E"/>
</svg>
