<svg width="14" height="14" viewBox="0 0 14 14" fill="none" xmlns="http://www.w3.org/2000/svg">
<g clip-path="url(#clip0_280_57)">
<path d="M4.445 9.60498L4.65063 9.37393C4.5004 8.8938 4.49999 8.36522 4.66047 7.87713C3.47867 8.52641 1.9825 8.26768 1.08938 7.21131C0.426016 7.73741 0 8.55033 0 9.46088V13.5624C0 13.7889 0.18375 13.9726 0.410156 13.9726H3.7893C3.74363 13.8444 3.71875 13.7063 3.71875 13.5624V11.5117C3.71875 10.8084 3.9766 10.1311 4.445 9.60498Z" fill="#53536E"/>
<path d="M3.28125 7.4101C4.41387 7.4101 5.33203 6.49194 5.33203 5.35932C5.33203 4.22671 4.41387 3.30854 3.28125 3.30854C2.14863 3.30854 1.23047 4.22671 1.23047 5.35932C1.23047 6.49194 2.14863 7.4101 3.28125 7.4101Z" fill="#53536E"/>
<path d="M12.9106 7.21131C12.0159 8.2696 10.5187 8.52548 9.33954 7.87686C9.49977 8.36593 9.4998 8.89314 9.34938 9.37393L9.55501 9.60498C10.0234 10.1311 10.2813 10.8084 10.2813 11.5117V13.5624C10.2813 13.7063 10.2564 13.8444 10.2107 13.9726H13.5899C13.8163 13.9726 14 13.7889 14 13.5624V9.46088C14 8.55033 13.574 7.73741 12.9106 7.21131Z" fill="#53536E"/>
<path d="M10.7188 7.4101C11.8514 7.4101 12.7695 6.49194 12.7695 5.35932C12.7695 4.22671 11.8514 3.30854 10.7188 3.30854C9.58613 3.30854 8.66797 4.22671 8.66797 5.35932C8.66797 6.49194 9.58613 7.4101 10.7188 7.4101Z" fill="#53536E"/>
<path d="M7 11.1015C6.21141 11.1015 5.5084 10.7288 5.05777 10.1502C4.73512 10.5128 4.53906 10.9897 4.53906 11.5117V13.5624C4.53906 13.7889 4.72281 13.9726 4.94922 13.9726H9.05078C9.27719 13.9726 9.46094 13.7889 9.46094 13.5624V11.5117C9.46094 10.9897 9.26488 10.5128 8.94223 10.1502C8.4916 10.7288 7.78859 11.1015 7 11.1015Z" fill="#53536E"/>
<path d="M7 10.2812C7.90609 10.2812 8.64062 9.54666 8.64062 8.64057C8.64062 7.73448 7.90609 6.99995 7 6.99995C6.09391 6.99995 5.35938 7.73448 5.35938 8.64057C5.35938 9.54666 6.09391 10.2812 7 10.2812Z" fill="#53536E"/>
<path d="M5.83294 3.33572C6.30123 3.76852 6.76545 4.05595 6.78497 4.06798C6.91685 4.14914 7.08313 4.14914 7.215 4.06798C7.23455 4.05595 7.69874 3.76852 8.16703 3.33572C8.84417 2.70993 9.1875 2.10156 9.1875 1.52753C9.1875 0.223891 7.89113 -0.388035 7 0.336165C6.10687 -0.389648 4.8125 0.227336 4.8125 1.52753C4.8125 2.10156 5.15583 2.70993 5.83294 3.33572Z" fill="#53536E"/>
</g>
<defs>
<clipPath id="clip0_280_57">
<rect width="14" height="14" fill="white"/>
</clipPath>
</defs>
</svg>
