<svg width="14" height="14" viewBox="0 0 14 14" fill="none" xmlns="http://www.w3.org/2000/svg">
<g clip-path="url(#clip0_280_222)">
<path d="M6.99946 8.78692C7.9871 8.78692 8.78774 7.98628 8.78774 6.99864C8.78774 6.011 7.9871 5.21036 6.99946 5.21036C6.01182 5.21036 5.21118 6.011 5.21118 6.99864C5.21118 7.98628 6.01182 8.78692 6.99946 8.78692Z" fill="#53536E"/>
<path d="M13.7895 6.43864C13.5961 5.92102 13.1526 5.48871 12.6085 5.29266C11.5834 4.91996 10.3827 5.02086 9.10492 5.55489C9.38689 5.96494 9.5426 6.44861 9.5528 6.94615C9.563 7.4437 9.42726 7.93334 9.16234 8.35461C9.61678 8.51555 10.0148 8.80474 10.3083 9.18719C10.6018 9.56965 10.7782 10.029 10.8161 10.5096C10.8161 10.5096 10.8218 10.57 10.8205 10.701C10.8192 10.8578 10.8652 11.0113 10.9525 11.1415C11.0573 11.3023 11.2205 11.416 11.4076 11.4585C11.5947 11.501 11.791 11.469 11.955 11.3693L11.9695 11.3605C13.3391 10.3663 14.4873 8.23457 13.7895 6.43864Z" fill="#53536E"/>
<path d="M4.44555 7C4.44498 6.52086 4.57997 6.05134 4.83493 5.64567C4.38114 5.48441 3.98375 5.1952 3.69077 4.81299C3.39779 4.43077 3.22175 3.9719 3.18391 3.4918C3.18391 3.4918 3.17817 3.43137 3.17954 3.30039C3.18078 3.14362 3.13475 2.99012 3.04747 2.85989C2.94274 2.69909 2.77953 2.58539 2.59241 2.54287C2.40529 2.50036 2.20897 2.53236 2.04504 2.63211L2.03055 2.64086C0.660904 3.63426 -0.48726 5.76598 0.210552 7.56274C0.403873 8.08035 0.847388 8.51239 1.39153 8.70871C2.41665 9.08168 3.61758 8.98051 4.89563 8.44621C4.60191 8.02119 4.44489 7.51665 4.44555 7Z" fill="#53536E"/>
<path d="M11.3676 2.04504L11.3591 2.03055C10.3655 0.660904 8.23402 -0.48726 6.43726 0.210552C5.91965 0.403873 5.48762 0.847388 5.29156 1.39153C4.91859 2.41637 5.01976 3.61676 5.55324 4.89426C5.96333 4.61189 6.44715 4.45582 6.94494 4.44532C7.44274 4.43483 7.93271 4.57036 8.35433 4.8352C8.5156 4.38134 8.80484 3.98389 9.1871 3.69086C9.56937 3.39782 10.0283 3.22175 10.5085 3.18391C10.5085 3.18391 10.5689 3.17817 10.6999 3.17954C10.8566 3.18074 11.0101 3.13472 11.1404 3.04747C11.3011 2.94266 11.4147 2.7794 11.4571 2.59229C11.4995 2.40518 11.4674 2.2089 11.3676 2.04504Z" fill="#53536E"/>
<path d="M7.00001 9.55255C6.52063 9.55311 6.05088 9.41792 5.64513 9.16262C5.48415 9.61701 5.19494 10.015 4.81249 10.3085C4.43004 10.6019 3.97074 10.7782 3.49017 10.8161C3.49017 10.8161 3.42974 10.8218 3.29876 10.8205C3.14208 10.8192 2.98866 10.8653 2.85853 10.9525C2.69774 11.0573 2.58403 11.2205 2.54152 11.4076C2.499 11.5947 2.53101 11.791 2.63076 11.955L2.63923 11.9695C3.6329 13.3391 5.76435 14.4873 7.56111 13.7895C8.07872 13.5961 8.51076 13.1526 8.70708 12.6085C9.07978 11.5831 8.97861 10.3819 8.44431 9.10356C8.01964 9.39642 7.51587 9.55302 7.00001 9.55255Z" fill="#53536E"/>
</g>
<defs>
<clipPath id="clip0_280_222">
<rect width="14" height="14" fill="white"/>
</clipPath>
</defs>
</svg>
