<svg width="14" height="14" viewBox="0 0 14 14" fill="none" xmlns="http://www.w3.org/2000/svg">
<g clip-path="url(#clip0_264_649)">
<path d="M6.12497 4.4555V0.4375C6.12497 0.196 5.92897 0 5.68747 0C5.44597 0 5.24997 0.196 5.24997 0.4375V4.4555C4.7416 4.63662 4.37497 5.11788 4.37497 5.6875C4.37497 6.25712 4.7416 6.73838 5.24997 6.9195V11.375C5.24997 12.3401 4.4651 13.125 3.49997 13.125C2.53485 13.125 1.74997 12.3401 1.74997 11.375V10.2042L2.32397 10.7476C2.49897 10.9139 2.77635 10.906 2.9426 10.7301C3.10797 10.5551 3.10097 10.2778 2.9251 10.1115L1.6126 8.869C1.48485 8.74825 1.29935 8.71587 1.13835 8.785C0.977348 8.85413 0.874973 9.0125 0.874973 9.1875V11.375C0.874973 12.8223 2.05272 14 3.49997 14C4.94722 14 6.12497 12.8223 6.12497 11.375V6.9195C6.63335 6.73838 6.99997 6.25712 6.99997 5.6875C6.99997 5.11788 6.63335 4.63662 6.12497 4.4555ZM5.68747 6.125C5.44597 6.125 5.24997 5.929 5.24997 5.6875C5.24997 5.446 5.44597 5.25 5.68747 5.25C5.92897 5.25 6.12497 5.446 6.12497 5.6875C6.12497 5.929 5.92897 6.125 5.68747 6.125Z" fill="#53536E"/>
<path d="M11.4765 10.4834C12.5413 9.11662 13.125 7.44887 13.125 5.6875C13.125 5.40312 13.1075 5.12225 13.0777 4.84312C12.2465 5.15375 11.375 5.32175 10.5 5.32175C9.62497 5.32175 8.75347 5.15375 7.92222 4.844C7.89247 5.12225 7.87497 5.40312 7.87497 5.6875C7.87497 7.44887 8.4586 9.11662 9.52347 10.4834L7.93097 13.3499C7.83997 13.5126 7.86185 13.713 7.98522 13.8512C8.10685 13.9904 8.30285 14.0367 8.4761 13.9685L10.5 13.1582L12.5247 13.9685C12.5781 13.9895 12.6323 14 12.6875 14C12.8108 14 12.9307 13.9475 13.0156 13.8512C13.1381 13.713 13.16 13.5118 13.0698 13.3499L11.4765 10.4834Z" fill="#53536E"/>
<path d="M10.808 0.12687C10.6373 -0.0420051 10.3617 -0.0420051 10.1911 0.12687C9.1131 1.19612 8.39035 2.52437 8.06835 3.97075C9.6276 4.59987 11.3723 4.59987 12.9307 3.97162C12.6087 2.52524 11.8868 1.19699 10.808 0.12687ZM10.955 3.49999C10.7143 3.49999 10.5131 3.30399 10.5131 3.06249C10.5131 2.82099 10.7038 2.62499 10.9462 2.62499H10.955C11.1965 2.62499 11.3925 2.82099 11.3925 3.06249C11.3925 3.30399 11.1965 3.49999 10.955 3.49999Z" fill="#53536E"/>
</g>
<defs>
<clipPath id="clip0_264_649">
<rect width="14" height="14" fill="white"/>
</clipPath>
</defs>
</svg>
