<svg width="14" height="14" viewBox="0 0 14 14" fill="none" xmlns="http://www.w3.org/2000/svg">
<g clip-path="url(#clip0_264_580)">
<path d="M7.90028 11.9005C2.13443 6.13472 7.86705 11.8672 2.10101 6.10125C1.94078 5.94096 1.68137 5.94096 1.52111 6.10125L0.941198 6.68119C0.461505 7.16088 0.461505 7.94127 0.941198 8.42096L1.23118 8.71089L0.941198 9.00087C0.461533 9.48059 0.461533 10.261 0.941225 10.7407L3.26091 13.0604C3.7406 13.54 4.52099 13.54 5.00069 13.0604L5.29061 12.7704L5.58059 13.0604C6.06029 13.54 6.84068 13.54 7.32037 13.0604L7.90028 12.4805C8.06057 12.3202 8.06057 12.0608 7.90028 11.9005Z" fill="#53536E"/>
<path d="M13.0588 5.57909L12.7688 5.28911L13.0588 4.99913C13.5385 4.51946 13.5385 3.73902 13.0588 3.25938L10.7391 0.939695C10.2595 0.460002 9.47906 0.460002 8.99937 0.939695L8.70939 1.22965L8.41943 0.939695C7.93974 0.460002 7.15935 0.460002 6.67965 0.939695L6.09975 1.5196C5.93946 1.67989 5.93946 1.9393 6.09975 2.09951L11.899 7.89878C12.0592 8.05901 12.3187 8.05901 12.4789 7.89878L13.0588 7.31881C13.5385 6.83915 13.5385 6.05873 13.0588 5.57909Z" fill="#53536E"/>
<path d="M13.6387 0.359793C13.1591 -0.119927 12.3786 -0.119926 11.899 0.359766L11.609 0.64972L13.3488 2.3895L13.6387 2.09952C14.1184 1.61988 14.1184 0.839431 13.6387 0.359793Z" fill="#53536E"/>
<path d="M0.651221 11.6105L0.361295 11.9005C-0.118397 12.3802 -0.118397 13.1605 0.361295 13.6402C0.840933 14.1199 1.62138 14.1199 2.10102 13.6402L2.391 13.3503L0.651221 11.6105Z" fill="#53536E"/>
<path d="M7.54955 4.70918L4.71074 7.55108L6.45052 9.29086L9.28932 6.44899L7.54955 4.70918Z" fill="#53536E"/>
</g>
<defs>
<clipPath id="clip0_264_580">
<rect width="14" height="14" fill="white"/>
</clipPath>
</defs>
</svg>
