<svg width="14" height="14" viewBox="0 0 14 14" fill="none" xmlns="http://www.w3.org/2000/svg">
<path d="M11.8125 5.6875H13.5625V8.3125H11.8125V5.6875Z" fill="#53536E"/>
<path d="M7 7.875C7.48325 7.875 7.875 7.48325 7.875 7C7.875 6.51675 7.48325 6.125 7 6.125C6.51675 6.125 6.125 6.51675 6.125 7C6.125 7.48325 6.51675 7.875 7 7.875Z" fill="#53536E"/>
<path d="M12.25 2.1875H7.4375V5.31125C7.80822 5.412 8.1355 5.63194 8.36882 5.93714C8.60215 6.24233 8.72856 6.61583 8.72856 7C8.72856 7.38417 8.60215 7.75767 8.36882 8.06286C8.1355 8.36806 7.80822 8.588 7.4375 8.68875V11.8125H12.25C12.5981 11.8125 12.9319 11.6742 13.1781 11.4281C13.4242 11.1819 13.5625 10.8481 13.5625 10.5V9.1875H11.375C11.259 9.1875 11.1477 9.14141 11.0656 9.05936C10.9836 8.97731 10.9375 8.86603 10.9375 8.75V5.25C10.9375 5.13397 10.9836 5.02269 11.0656 4.94064C11.1477 4.85859 11.259 4.8125 11.375 4.8125H13.5625V3.5C13.5625 3.1519 13.4242 2.81806 13.1781 2.57192C12.9319 2.32578 12.5981 2.1875 12.25 2.1875Z" fill="#53536E"/>
<path d="M5.25 7C5.25126 6.61301 5.38076 6.23734 5.61824 5.93178C5.85572 5.62622 6.18779 5.408 6.5625 5.31125V2.1875H1.75C1.4019 2.1875 1.06806 2.32578 0.821922 2.57192C0.575781 2.81806 0.4375 3.1519 0.4375 3.5V4.8125H2.625C2.74103 4.8125 2.85231 4.85859 2.93436 4.94064C3.01641 5.02269 3.0625 5.13397 3.0625 5.25V8.75C3.0625 8.86603 3.01641 8.97731 2.93436 9.05936C2.85231 9.14141 2.74103 9.1875 2.625 9.1875H0.4375V10.5C0.4375 10.8481 0.575781 11.1819 0.821922 11.4281C1.06806 11.6742 1.4019 11.8125 1.75 11.8125H6.5625V8.68875C6.18779 8.592 5.85572 8.37378 5.61824 8.06822C5.38076 7.76266 5.25126 7.38699 5.25 7Z" fill="#53536E"/>
<path d="M0.4375 5.6875H2.1875V8.3125H0.4375V5.6875Z" fill="#53536E"/>
</svg>
