<svg width="14" height="14" viewBox="0 0 14 14" fill="none" xmlns="http://www.w3.org/2000/svg">
<path d="M10.9375 5.25V1.75C10.9375 1.02813 10.3469 0.4375 9.625 0.4375H4.375C3.65313 0.4375 3.0625 1.02813 3.0625 1.75V5.25H10.9375ZM4.8125 2.625C4.8125 2.38437 5.00937 2.1875 5.25 2.1875C5.49063 2.1875 5.6875 2.38437 5.6875 2.625V3.9375C5.6875 4.17813 5.49063 4.375 5.25 4.375C5.00937 4.375 4.8125 4.17813 4.8125 3.9375V2.625ZM3.0625 6.125V13.125C3.0625 13.3656 3.25937 13.5625 3.5 13.5625H10.5C10.7406 13.5625 10.9375 13.3656 10.9375 13.125V6.125H3.0625ZM5.6875 8.75C5.6875 8.99063 5.49063 9.1875 5.25 9.1875C5.00937 9.1875 4.8125 8.99063 4.8125 8.75V7.4375C4.8125 7.19687 5.00937 7 5.25 7C5.49063 7 5.6875 7.19687 5.6875 7.4375V8.75Z" fill="#53536E"/>
</svg>
