<svg width="14" height="14" viewBox="0 0 14 14" fill="none" xmlns="http://www.w3.org/2000/svg">
<g clip-path="url(#clip0_264_518)">
<path d="M6.27898 8.40929L6.85877 7.82949L8.59839 9.56911L8.0186 10.1489L6.27898 8.40929Z" fill="#53536E"/>
<path d="M3.95912 10.7286L5.69868 8.98906L7.43825 10.7286L5.69868 12.4682L3.95912 10.7286Z" fill="#53536E"/>
<path d="M6.21495 4.41505C6.05474 4.25484 5.79501 4.25484 5.63507 4.41505L5.54436 4.50549C5.47262 4.23576 5.33166 3.98079 5.12051 3.76962C4.47934 3.1285 3.44172 3.12856 2.80066 3.76962L0.480785 6.08947C-0.160384 6.73058 -0.16022 7.76831 0.480785 8.40932C0.692175 8.62068 0.946761 8.76192 1.21592 8.8339L0.121788 9.92806C-0.0419764 10.0918 -0.037602 10.3587 0.131084 10.5172L3.72023 13.8874C3.88263 14.0399 4.13525 14.0345 4.29108 13.8786L5.12057 13.0492L3.0906 11.0192C2.93039 10.859 2.93039 10.5993 3.0906 10.439C3.13101 10.3986 6.56599 6.96393 6.57039 6.95953C6.72967 6.79967 6.99 6.79869 7.15026 6.95953L9.18023 8.98922L9.69476 8.47469C9.85497 8.31448 9.85497 8.05503 9.69476 7.89481C9.22288 7.42296 6.52402 4.72413 6.21495 4.41505ZM2.22144 7.82865C2.2212 7.8289 2.22093 7.82909 2.22068 7.82934C1.90009 8.14992 1.3813 8.14984 1.06074 7.82934C0.740976 7.50954 0.740976 6.98922 1.06074 6.66943L3.38062 4.34957C3.70115 4.02904 4.21994 4.02902 4.54056 4.34957C4.86032 4.66937 4.86032 5.18969 4.54056 5.50951C4.54039 5.50968 4.54028 5.50984 4.54012 5.51001C4.30598 5.74414 2.42731 7.62279 2.22144 7.82865Z" fill="#53536E"/>
<path d="M13.6393 1.63047L13.0595 1.05033C12.5796 0.57079 11.7991 0.57079 11.3196 1.05033C11.1256 1.24425 7.90199 4.46789 7.66479 4.70509L8.24494 5.28524L11.0295 2.50048L11.8994 3.3704C12.3792 3.84993 13.1598 3.84993 13.6393 3.3704C14.1202 2.88949 14.1202 2.11113 13.6393 1.63047Z" fill="#53536E"/>
<path d="M7.07917 2.97097L6.45556 3.59458C6.57995 3.65391 6.69451 3.73484 6.79484 3.83517L7.08492 4.12525L8.529 2.68089C9.00881 2.20136 9.00881 1.42081 8.529 0.940998L7.94912 0.361124C7.46931 -0.118686 6.68877 -0.118686 6.20923 0.361124C5.72936 0.841537 5.72966 1.62091 6.20923 2.10102L7.07917 2.97097Z" fill="#53536E"/>
<path d="M11.8994 4.53014C11.4196 4.0506 10.639 4.0506 10.1595 4.53014L8.82478 5.86513L9.40466 6.44501L9.86943 5.98023L10.7394 6.85018C11.2192 7.32972 11.9997 7.32972 12.4793 6.85018C12.9602 6.36928 12.9602 5.59092 12.4793 5.11029L11.8994 4.53014Z" fill="#53536E"/>
</g>
<defs>
<clipPath id="clip0_264_518">
<rect width="14" height="14" fill="white"/>
</clipPath>
</defs>
</svg>
