<svg width="14" height="14" viewBox="0 0 14 14" fill="none" xmlns="http://www.w3.org/2000/svg">
<path fill-rule="evenodd" clip-rule="evenodd" d="M8.09713 11.5165C8.69009 11.329 9.15038 11.1059 9.51227 10.8552C10.314 9.41542 10.3751 8.10255 9.67402 7.33839C9.62029 7.27993 9.62419 7.18876 9.68277 7.13506C9.74127 7.08134 9.83229 7.08536 9.88603 7.1438C10.5675 7.88645 10.6258 9.06034 10.0718 10.3676C10.6676 9.70731 10.8342 8.92068 11.0061 8.10747C11.0296 7.99645 11.0533 7.88483 11.0781 7.77294C11.1897 6.95096 10.6951 6.54141 10.6896 6.53708C10.6277 6.48735 10.6179 6.3967 10.6677 6.33474C10.7175 6.2728 10.8081 6.26306 10.87 6.31277C11.005 6.42142 11.1851 6.64792 11.2915 6.97233C11.396 6.65702 11.5313 6.34602 11.7223 6.04701C11.765 5.98005 11.8539 5.96057 11.9209 6.00328C11.9878 6.046 12.0075 6.13492 11.9648 6.20187C11.6399 6.71062 11.4844 7.27186 11.3604 7.82904C11.3484 7.91433 11.3309 8.00249 11.3069 8.09349C11.3047 8.10196 11.3017 8.11005 11.2981 8.11773L11.2877 8.16718C11.2712 8.24511 11.2547 8.32318 11.2377 8.40127C11.5907 8.08247 11.9159 7.97574 12.1517 7.8984C12.3507 7.83321 12.4569 7.79474 12.5081 7.69982C12.5461 7.62987 12.6332 7.60391 12.7032 7.64163C12.7731 7.67933 12.7991 7.76677 12.7614 7.83671C12.6532 8.03678 12.4624 8.09948 12.2413 8.17192C11.9255 8.27527 11.5327 8.40429 11.0973 8.98427C10.9908 9.36989 10.8502 9.7486 10.6282 10.1054L11.6341 9.42883C11.7001 9.38438 11.7895 9.40186 11.8337 9.4678C11.8781 9.53373 11.8607 9.62316 11.7947 9.66763L9.56692 11.1661C9.56055 11.1703 9.55396 11.174 9.54721 11.1772C9.30448 11.332 9.02416 11.476 8.6989 11.6069C10.0803 11.7014 11.3008 11.2797 12.087 10.404C13.0861 9.29119 13.2694 7.60266 12.5903 5.77173C12.4646 5.43275 12.359 5.26442 12.3123 5.19923C11.4653 5.07832 10.4936 6.13567 9.63448 7.07086C9.04769 7.70943 8.49115 8.31513 7.97189 8.57883C8.51465 9.48218 8.77704 10.3438 8.54704 10.957C8.45937 11.1908 8.30907 11.3775 8.09713 11.5165Z" fill="#53536E"/>
<path fill-rule="evenodd" clip-rule="evenodd" d="M6.21798 11.5125C6.21984 11.5129 6.22169 11.5134 6.22351 11.5138C6.32688 11.5383 6.45098 11.5354 6.51486 11.5268C6.52374 11.5256 6.53265 11.5251 6.54164 11.5256C6.90271 11.5439 7.21039 11.5239 7.46387 11.466C7.49849 11.432 7.54942 11.4164 7.5999 11.4292L7.60074 11.4294C7.94809 11.322 8.17471 11.1306 8.27762 10.8562C8.47643 10.3261 8.22391 9.4811 7.56661 8.47697C6.94717 7.53076 6.03567 6.54988 5.06586 5.78604C3.59914 4.63077 2.32295 4.21239 1.65213 4.66675C0.946238 5.14482 0.817797 5.91343 1.27038 6.95128C1.64918 7.82001 2.44062 8.85689 3.44174 9.79608C3.83848 10.1682 4.18428 10.4467 4.46446 10.6451C3.97255 10.2453 3.62212 9.84763 3.38706 9.4274C3.24546 9.17419 3.15498 8.92745 3.0931 8.68584C3.03067 8.57286 2.96141 8.43426 2.88832 8.28787C2.59747 7.70561 2.15792 6.82564 1.67067 6.69251C1.594 6.6715 1.54885 6.59259 1.56977 6.51591C1.59073 6.43922 1.66979 6.39402 1.74648 6.415C2.24444 6.55089 2.63891 7.18093 2.9478 7.7697C2.87821 7.13948 2.79951 6.48704 2.24475 5.73484C2.19757 5.67086 2.21117 5.58072 2.27511 5.53376C2.3391 5.48653 2.42914 5.50003 2.47629 5.56398C3.08508 6.38926 3.16222 7.08892 3.23684 7.76559C3.26484 8.01954 3.29249 8.26995 3.35053 8.52309C3.36775 8.26663 3.44332 8.04348 3.57727 7.85501C4.0614 7.17409 5.11499 7.22629 5.15958 7.2288C5.23892 7.23326 5.29954 7.30123 5.29499 7.38066C5.29045 7.45984 5.22266 7.52054 5.1433 7.51604C5.13391 7.51554 4.20221 7.47108 3.81117 8.0226C3.79844 8.04056 3.78642 8.059 3.77506 8.07789C4.27359 8.23852 5.39467 8.08691 5.82021 8.00738C5.8984 7.99263 5.9735 8.0441 5.98812 8.12227C6.00273 8.20018 5.95128 8.27539 5.87319 8.29013C5.75729 8.31186 5.06157 8.43675 4.42357 8.43674C4.14196 8.43674 3.87159 8.41242 3.66732 8.34406C3.58671 8.67727 3.65274 9.10774 3.86521 9.6296C4.05776 9.88592 4.31528 10.1524 4.66316 10.4343C4.69898 10.368 4.7515 10.3024 4.8206 10.238C5.30433 9.78634 6.61375 9.41441 7.23612 9.55179C7.31373 9.569 7.36273 9.6457 7.3456 9.72339C7.32849 9.80081 7.2517 9.84978 7.17409 9.83279C6.65327 9.71763 5.42353 10.0686 5.01698 10.4483C4.96838 10.4938 4.91389 10.5557 4.89815 10.6166C5.07633 10.7493 5.27473 10.8855 5.49589 11.0256C5.60612 11.0752 5.7876 11.1913 6.0982 11.4574C6.12813 11.4831 6.17069 11.5007 6.21798 11.5125Z" fill="#53536E"/>
<path fill-rule="evenodd" clip-rule="evenodd" d="M8.48542 11.8802C8.19811 11.8503 7.90482 11.7993 7.60624 11.7272C7.31233 11.8048 6.95652 11.8338 6.53974 11.8136C6.5148 11.8163 6.46576 11.8208 6.40391 11.8208C6.38108 11.8208 6.35649 11.8202 6.33072 11.8187L6.33073 12.6339C6.33073 12.7088 6.39179 12.77 6.46685 12.77H8.34926C8.42431 12.77 8.48541 12.7088 8.48541 12.6339L8.48542 11.8802Z" fill="#53536E"/>
<path fill-rule="evenodd" clip-rule="evenodd" d="M7.33142 7.65366C7.50783 7.87966 7.67131 8.10739 7.81857 8.3337C8.29496 8.10341 8.8435 7.50636 9.42258 6.87605C10.1869 6.04411 10.9717 5.19012 11.7664 4.96089C11.9277 4.61057 11.8425 4.16436 11.7388 3.84442C11.505 3.12354 11.0189 2.49034 10.8673 2.38468C10.8528 2.38793 10.8365 2.39117 10.8178 2.39517C10.4724 2.4661 9.42094 2.68217 9.26297 3.92335C9.08634 5.31141 7.61296 7.28676 7.33142 7.65366Z" fill="#53536E"/>
<path fill-rule="evenodd" clip-rule="evenodd" d="M5.96237 5.49425C6.39585 6.3131 6.94179 7.07253 7.17422 7.38386C7.56198 6.86446 8.82364 5.09639 8.97755 3.88713C9.04892 3.32628 9.28721 2.88433 9.68649 2.57083C9.69408 2.32179 9.61794 2.12158 9.45974 1.97529C9.17406 1.71075 8.72507 1.69378 8.65165 1.70052C8.61731 1.71199 8.58279 1.71076 8.54383 1.70952C8.3731 1.70375 7.85297 1.68554 7.5642 2.91522C7.24622 4.26923 6.26822 5.22296 5.96237 5.49425Z" fill="#53536E"/>
<path fill-rule="evenodd" clip-rule="evenodd" d="M4.0584 2.54979C4.05332 2.54799 4.04829 2.54589 4.04336 2.5435C3.83397 2.45752 3.64405 2.41849 3.53045 2.39517C3.50095 2.38915 3.47744 2.38418 3.45803 2.37943C3.32942 2.4109 2.76935 2.78458 2.50695 3.30713C2.34412 3.6314 2.33723 3.9339 2.48644 4.20671C3.24045 4.27123 4.19308 4.73232 5.24389 5.55994C5.52747 5.78331 5.80788 6.02619 6.07876 6.28229C5.63031 5.5466 5.17836 4.65369 5.0854 3.92335C4.98062 3.09998 4.48266 2.72782 4.0584 2.54979Z" fill="#53536E"/>
<path fill-rule="evenodd" clip-rule="evenodd" d="M5.38528 3.98372C5.42909 2.36941 5.97054 1.5767 6.32087 1.23072C6.20828 1.22766 6.09611 1.23484 5.98446 1.25241C5.14699 1.38449 4.54787 2.06322 4.32437 2.3562C4.39636 2.39291 4.46936 2.43505 4.54178 2.4836C5.01365 2.79982 5.29258 3.27217 5.37086 3.88713C5.37491 3.91895 5.37973 3.95116 5.38528 3.98372Z" fill="#53536E"/>
<path fill-rule="evenodd" clip-rule="evenodd" d="M6.40222 1.57063C6.50235 1.71186 6.69131 2.00445 6.84248 2.39042C6.99155 2.77109 7.06535 3.14713 7.0638 3.50755C7.1535 3.30104 7.22964 3.08097 7.28404 2.84928C7.39152 2.39155 7.54417 2.04043 7.73933 1.80081C7.39478 1.53488 7.04999 1.36145 6.70783 1.28142C6.64929 1.32177 6.53443 1.41152 6.40222 1.57063Z" fill="#53536E"/>
<path fill-rule="evenodd" clip-rule="evenodd" d="M6.61788 4.3062C7.05275 3.25973 6.48091 2.21147 6.22304 1.81931C6.19196 1.86888 6.16085 1.92227 6.13016 1.97978C5.86068 2.4843 5.56913 3.41179 5.70528 4.96772C5.74364 5.05423 5.78421 5.14101 5.82653 5.22759C6.00059 5.06553 6.31658 4.74532 6.61788 4.3062Z" fill="#53536E"/>
<path fill-rule="evenodd" clip-rule="evenodd" d="M8.57496 1.42376C8.56771 1.42525 8.55676 1.42826 8.5444 1.43425C8.55246 1.43025 8.56269 1.42675 8.57496 1.42376Z" fill="#53536E"/>
</svg>
