<svg width="14" height="14" viewBox="0 0 14 14" fill="none" xmlns="http://www.w3.org/2000/svg">
<g clip-path="url(#clip0_280_93)">
<path d="M13.3882 7.35573H0.611762C0.497853 7.35573 0.405792 7.448 0.405792 7.56191C0.405792 7.67582 0.498065 7.76788 0.611762 7.76788H13.3885C13.5024 7.76788 13.5946 7.67561 13.5946 7.56191C13.5946 7.44821 13.5022 7.35573 13.3882 7.35573Z" fill="#53536E"/>
<path d="M2.0069 4.05597L7.07023 0.666061L12.1336 4.05597C12.2284 4.11982 12.3561 4.09309 12.4199 3.99827C12.4838 3.90345 12.457 3.77576 12.3644 3.71382L7.18562 0.247758C7.11562 0.200455 7.02484 0.200455 6.95484 0.247758L1.77611 3.71382C1.68129 3.77576 1.65668 3.90345 1.72053 3.99827C1.77696 4.08439 1.89532 4.12427 2.0069 4.05597Z" fill="#53536E"/>
<path d="M7.27618 3.48387H8.51222V5.13205H7.27618V3.48387Z" fill="#53536E"/>
<path d="M5.62799 3.48387H6.86402V5.13205H5.62799V3.48387Z" fill="#53536E"/>
<path d="M2.61292 4.1457V6.94421H11.3875V4.053L7.07022 1.16158L2.61292 4.1457ZM9.07731 3.07194C9.19058 3.07194 9.28349 3.16464 9.28349 3.27791C9.28349 3.39118 9.19079 3.48388 9.07731 3.48388H8.92479V5.13248H9.07731C9.19058 5.13248 9.28349 5.22306 9.28349 5.33867C9.28349 5.45194 9.19079 5.54464 9.07731 5.54464H5.06313C4.94985 5.54464 4.85716 5.45194 4.85716 5.33867C4.85716 5.22327 4.94985 5.13248 5.06313 5.13248H5.21564V3.48388H5.06313C4.94985 3.48388 4.85716 3.39118 4.85716 3.27791C4.85716 3.16464 4.94985 3.07194 5.06313 3.07194H7.07234H9.07731Z" fill="#53536E"/>
<path d="M5.7576 13.7879H8.24281V9.80849H5.7576V13.7879ZM6.44996 11.3871H6.65593C6.77133 11.3871 6.86211 11.4779 6.86211 11.5933C6.86211 11.7065 6.77154 11.7992 6.65593 11.7992H6.44996C6.33669 11.7992 6.24378 11.7065 6.24378 11.5933C6.24378 11.4779 6.33669 11.3871 6.44996 11.3871Z" fill="#53536E"/>
<path d="M9.92599 10.2518H10.9561V11.4883H9.92599V10.2518Z" fill="#53536E"/>
<path d="M3.04416 10.2518H4.07422V11.4883H3.04416V10.2518Z" fill="#53536E"/>
<path d="M1.35992 13.5819C1.35992 13.6952 1.45262 13.7879 1.56589 13.7879H5.34547V9.60251C5.34547 9.48924 5.43817 9.39633 5.55144 9.39633H8.4488C8.56208 9.39633 8.65477 9.48903 8.65477 9.60251V13.7879H12.4341C12.5474 13.7879 12.6403 13.6952 12.6403 13.5819V8.18066H1.35992V13.5819ZM9.4112 10.2516C9.2958 10.2516 9.20502 10.1589 9.20502 10.0454C9.20502 9.93215 9.29559 9.83945 9.4112 9.83945H11.472C11.5852 9.83945 11.6781 9.93215 11.6781 10.0454C11.6781 10.1587 11.5854 10.2516 11.472 10.2516H11.3689V11.4881H11.472C11.5852 11.4881 11.6781 11.5808 11.6781 11.6942C11.6781 11.8075 11.5854 11.9002 11.472 11.9002H9.4112C9.2958 11.9002 9.20502 11.8075 9.20502 11.6942C9.20502 11.581 9.29559 11.4881 9.4112 11.4881H9.51429V10.2516H9.4112ZM2.52829 10.2516C2.41502 10.2516 2.32232 10.1589 2.32232 10.0454C2.32232 9.93215 2.41502 9.83945 2.52829 9.83945H4.58905C4.70232 9.83945 4.79523 9.93215 4.79523 10.0454C4.79523 10.1587 4.70253 10.2516 4.58905 10.2516H4.48596V11.4881H4.58905C4.70232 11.4881 4.79523 11.5808 4.79523 11.6942C4.79523 11.8075 4.70253 11.9002 4.58905 11.9002H2.52829C2.41502 11.9002 2.32232 11.8075 2.32232 11.6942C2.32232 11.581 2.41502 11.4881 2.52829 11.4881H2.63138V10.2516H2.52829Z" fill="#53536E"/>
</g>
<defs>
<clipPath id="clip0_280_93">
<rect width="14" height="14" fill="white"/>
</clipPath>
</defs>
</svg>
