<svg width="14" height="14" viewBox="0 0 14 14" fill="none" xmlns="http://www.w3.org/2000/svg">
<g clip-path="url(#clip0_280_180)">
<path d="M11.5864 3.15457C11.7941 3.31029 12.0029 3.3629 12.1987 3.3629C12.4486 3.3629 12.6774 3.27713 12.8551 3.21049C13.1674 3.0934 13.2496 3.08403 13.3437 3.15457C13.525 3.29055 13.7821 3.25378 13.9179 3.07251C14.0539 2.89131 14.0171 2.63422 13.8359 2.49832C13.3633 2.14384 12.8841 2.32351 12.5671 2.4424C12.255 2.55949 12.1727 2.56898 12.0787 2.49832C11.8974 2.36242 11.6404 2.39917 11.5044 2.58033C11.3685 2.76156 11.4052 3.01865 11.5864 3.15457Z" fill="#53536E"/>
<path d="M13.8359 4.25559C13.3633 3.90108 12.8841 4.08079 12.5671 4.1997C12.2549 4.31676 12.1727 4.32614 12.0787 4.25562C11.8975 4.11967 11.6404 4.15639 11.5045 4.3376C11.3685 4.51881 11.4053 4.77589 11.5865 4.91182C11.7941 5.06757 12.0029 5.12023 12.1988 5.1202C12.4487 5.1202 12.6775 5.03443 12.8552 4.96779C13.1674 4.85065 13.2496 4.8413 13.3438 4.91184C13.525 5.04785 13.7821 5.01105 13.918 4.82979C14.0539 4.64858 14.0171 4.39149 13.8359 4.25559Z" fill="#53536E"/>
<path d="M13.8359 6.01288C13.3633 5.65843 12.8841 5.83807 12.5671 5.95697C12.255 6.07405 12.1728 6.08351 12.0787 6.01288C11.8974 5.87698 11.6404 5.91373 11.5045 6.09489C11.3685 6.27612 11.4053 6.53318 11.5865 6.66913C11.7941 6.82486 12.0029 6.87749 12.1988 6.87747C12.4487 6.87747 12.6775 6.79169 12.8552 6.72505C13.1675 6.60799 13.2496 6.59859 13.3438 6.66913C13.525 6.80514 13.7821 6.76831 13.918 6.58707C14.0539 6.40587 14.0171 6.14878 13.8359 6.01288Z" fill="#53536E"/>
<path d="M3.70507 3.45625C3.08341 3.45625 2.57764 3.96203 2.57764 4.58369C2.57764 5.20538 3.08341 5.71118 3.70507 5.71118C4.32676 5.71118 4.83257 5.20538 4.83257 4.58369C4.83257 3.96203 4.32676 3.45625 3.70507 3.45625Z" fill="#53536E"/>
<path d="M10.1578 1.7782C7.57747 1.24809 4.68614 0.878647 3.70508 0.878647C1.66209 0.878647 0 2.54074 0 4.58372C0 6.62671 1.66209 8.2888 3.70508 8.2888C4.68628 8.2888 7.57764 7.91939 10.1578 7.3893C10.3485 7.35009 10.4854 7.18226 10.4854 6.98754V2.17999C10.4854 1.98528 10.3485 1.81741 10.1578 1.7782ZM3.70508 6.53153C2.6311 6.53153 1.75733 5.65773 1.75733 4.58372C1.75733 3.50974 2.6311 2.63598 3.70508 2.63598C4.77909 2.63598 5.65288 3.50974 5.65288 4.58372C5.65288 5.65773 4.77909 6.53153 3.70508 6.53153Z" fill="#53536E"/>
<path d="M5.9912 8.91047C4.98684 9.03748 4.16453 9.1091 3.70507 9.1091C3.13321 9.1091 2.58592 9.00221 2.08176 8.80777L2.35982 11.6579C2.43859 12.4649 3.16224 13.1214 3.97296 13.1214H4.8516C5.26093 13.1214 5.63316 12.9595 5.89974 12.6657C6.16631 12.3718 6.29124 11.9857 6.25149 11.5783L5.9912 8.91047Z" fill="#53536E"/>
</g>
<defs>
<clipPath id="clip0_280_180">
<rect width="14" height="14" fill="white"/>
</clipPath>
</defs>
</svg>
