<svg width="14" height="14" viewBox="0 0 14 14" fill="none" xmlns="http://www.w3.org/2000/svg">
<g clip-path="url(#clip0_262_36)">
<path d="M13.5896 4.8548C13.3629 4.8548 13.1791 5.03828 13.1791 5.26468V6.41613C13.1791 6.91624 12.772 7.32312 12.2716 7.32312C11.7712 7.32312 11.3641 6.91624 11.3641 6.41613C11.3641 6.18972 11.1803 6.00625 10.9536 6.00625C10.727 6.00625 10.5432 6.18972 10.5432 6.41613C10.5432 6.91624 10.1361 7.32312 9.63594 7.32312C9.13555 7.32312 8.7284 6.91624 8.7284 6.41613C8.7284 6.18972 8.54465 6.00625 8.31797 6.00625C8.09129 6.00625 7.90754 6.18972 7.90754 6.41613C7.90754 6.91624 7.50039 7.32312 7 7.32312C6.49961 7.32312 6.09246 6.91624 6.09246 6.41613C6.09246 6.18972 5.90871 6.00625 5.68203 6.00625C5.45535 6.00625 5.2716 6.18972 5.2716 6.41613C5.2716 6.91624 4.86445 7.32312 4.36406 7.32312C3.86395 7.32312 3.4568 6.91624 3.4568 6.41613C3.4568 6.18972 3.27305 6.00625 3.04637 6.00625C2.81969 6.00625 2.63594 6.18972 2.63594 6.41613C2.63594 6.91624 2.22879 7.32312 1.7284 7.32312C1.22801 7.32312 0.820859 6.91624 0.820859 6.41613V4.56113H3.04637C3.27305 4.56113 3.4568 4.37765 3.4568 4.15125C3.4568 3.92484 3.27305 3.74136 3.04637 3.74136H0.820859V1.8541C0.820859 1.62769 0.637109 1.44421 0.41043 1.44421C0.18375 1.44421 0 1.62769 0 1.8541V11.2081C0 11.9609 0.613047 12.5731 1.36637 12.5731H12.6336C13.387 12.5731 14 11.9609 14 11.2081V5.26468C14 5.03828 13.8162 4.8548 13.5896 4.8548ZM2.4459 11.0085H1.96574C1.73906 11.0085 1.55531 10.825 1.55531 10.5986C1.55531 10.3722 1.73906 10.1887 1.96574 10.1887H2.4459C2.67258 10.1887 2.8566 10.3722 2.8566 10.5986C2.8566 10.825 2.67258 11.0085 2.4459 11.0085ZM3.5123 9.56039H3.03215C2.80547 9.56039 2.62172 9.37691 2.62172 9.1505C2.62172 8.9241 2.80547 8.74062 3.03215 8.74062H3.5123C3.73898 8.74062 3.92273 8.9241 3.92273 9.1505C3.92273 9.37691 3.73898 9.56039 3.5123 9.56039ZM4.87949 10.7353H4.39934C4.17266 10.7353 3.98891 10.5516 3.98891 10.3255C3.98891 10.0991 4.17266 9.91558 4.39934 9.91558H4.87949C5.10617 9.91558 5.28992 10.0991 5.28992 10.3255C5.28992 10.5516 5.10617 10.7353 4.87949 10.7353ZM10.7764 11.0085H10.2963C10.0696 11.0085 9.88586 10.825 9.88586 10.5986C9.88586 10.3722 10.0696 10.1887 10.2963 10.1887H10.7764C11.0031 10.1887 11.1869 10.3722 11.1869 10.5986C11.1869 10.825 11.0031 11.0085 10.7764 11.0085ZM11.8429 9.56039H11.3627C11.136 9.56039 10.9523 9.37691 10.9523 9.1505C10.9523 8.9241 11.136 8.74062 11.3627 8.74062H11.8429C12.0695 8.74062 12.2533 8.9241 12.2533 9.1505C12.2533 9.37691 12.0695 9.56039 11.8429 9.56039Z" fill="#53536E"/>
<path d="M10.1903 4.70791C10.0915 4.91222 10.1768 5.15807 10.3808 5.25703C10.4385 5.285 10.4994 5.29823 10.5594 5.29823C10.7118 5.29823 10.8582 5.21284 10.9291 5.06628C11.2356 4.43272 11.1498 3.66811 10.7107 3.11839C10.4627 2.80804 10.4188 2.37861 10.5989 2.02442C10.7017 1.82211 10.6213 1.57464 10.4193 1.47164C10.2174 1.36872 9.97014 1.44916 9.8673 1.65151C9.54136 2.29269 9.62076 3.07007 10.0696 3.63193C10.3122 3.93561 10.3596 4.35796 10.1903 4.70791Z" fill="#53536E"/>
<path d="M7.99215 4.70791C7.89331 4.9122 7.97859 5.15804 8.1826 5.257C8.24024 5.285 8.30119 5.29821 8.36124 5.29821C8.51363 5.29821 8.66003 5.21284 8.73093 5.06628C9.03745 4.43272 8.95167 3.66814 8.51248 3.11839C8.26455 2.80804 8.22067 2.37861 8.40072 2.02442C8.50356 1.82211 8.42315 1.57464 8.22113 1.47164C8.0192 1.36872 7.77195 1.44916 7.66912 1.65151C7.34318 2.29269 7.42258 3.07007 7.87146 3.63193C8.11405 3.93561 8.16144 4.35796 7.99215 4.70791Z" fill="#53536E"/>
<path d="M5.8119 4.70791C5.71308 4.91222 5.79837 5.15807 6.00238 5.25702C6.06005 5.285 6.12097 5.29823 6.18101 5.29823C6.33343 5.29823 6.47983 5.21284 6.55073 5.06627C6.8572 4.43272 6.77142 3.6681 6.33225 3.11839C6.08433 2.80803 6.04047 2.3786 6.2205 2.02439C6.32334 1.82207 6.24292 1.57461 6.04088 1.47164C5.83894 1.36871 5.59173 1.44919 5.48889 1.6515C5.16298 2.29271 5.24238 3.07007 5.69123 3.6319C5.93383 3.93561 5.98121 4.35796 5.8119 4.70791Z" fill="#53536E"/>
</g>
<defs>
<clipPath id="clip0_262_36">
<rect width="14" height="14" fill="white"/>
</clipPath>
</defs>
</svg>
