<svg width="14" height="14" viewBox="0 0 14 14" fill="none" xmlns="http://www.w3.org/2000/svg">
<g clip-path="url(#clip0_280_188)">
<path d="M3.2658 0C1.46505 0 3.05176e-05 1.46502 3.05176e-05 3.26577V5.71123H6.5315V3.26577C6.5315 1.46502 5.06653 0 3.2658 0Z" fill="#53536E"/>
<path d="M3.05176e-05 7.87867C3.05176e-05 8.10518 0.183671 8.28883 0.410187 8.28883H6.12134C6.34785 8.28883 6.5315 8.10518 6.5315 7.87867V6.53152H3.05176e-05V7.87867Z" fill="#53536E"/>
<path d="M0.4102 9.10913C0.345423 9.10913 0.281821 9.10402 0.219696 9.09431V10.9539C0.219696 12.6335 1.5862 14 3.26582 14C4.94543 14 6.31186 12.6335 6.31186 10.9539V9.09431C6.24976 9.10402 6.18613 9.10913 6.12135 9.10913H0.4102Z" fill="#53536E"/>
<path d="M10.7342 0C8.9335 0 7.46848 1.46502 7.46848 3.26577V5.71123H13.9999V3.26577C14 1.46502 12.535 0 10.7342 0Z" fill="#53536E"/>
<path d="M7.46851 7.87867C7.46851 8.10518 7.65212 8.28883 7.87866 8.28883H13.5898C13.8163 8.28883 14 8.10518 14 7.87867V6.53152H7.46851V7.87867Z" fill="#53536E"/>
<path d="M7.87868 9.10913C7.8139 9.10913 7.7503 9.10402 7.68817 9.09431V10.9539C7.68817 12.6336 9.05465 14 10.7343 14C12.4139 14 13.7803 12.6335 13.7803 10.9539V9.09431C13.7182 9.10402 13.6546 9.10913 13.5898 9.10913H7.87868Z" fill="#53536E"/>
</g>
<defs>
<clipPath id="clip0_280_188">
<rect width="14" height="14" fill="white"/>
</clipPath>
</defs>
</svg>
