<svg width="14" height="14" viewBox="0 0 14 14" fill="none" xmlns="http://www.w3.org/2000/svg">
<path d="M10.5294 3.47052V2.05876C10.5294 1.47495 10.0544 0.999939 9.47056 0.999939C8.88671 0.999939 8.41174 1.47495 8.41174 2.05876V3.47052H9.11762V2.05876C9.11762 1.86415 9.27593 1.70582 9.47056 1.70582C9.66517 1.70582 9.8235 1.86415 9.8235 2.05876V3.47052H9.11762V7.00135C9.7267 7.01601 10.0858 7.14271 10.3523 7.23676C10.5644 7.31161 10.6812 7.35285 10.9999 7.35285C11.3186 7.35285 11.4354 7.31161 11.6475 7.23674C11.9307 7.13681 12.3185 6.99991 13 6.99991V3.47052H10.5294Z" fill="#53536E"/>
<path d="M5.58823 5.02347H8.41174V5.72935H5.58823V5.02347Z" fill="#53536E"/>
<path d="M5.58823 3.47052H8.41174V4.31758H5.58823V3.47052Z" fill="#53536E"/>
<path d="M5.58823 7.03886C5.92712 7.08679 6.16314 7.16998 6.35232 7.23676C6.56439 7.31161 6.68121 7.35285 6.99984 7.35285C7.31848 7.35285 7.43533 7.31161 7.64744 7.23674C7.83662 7.16996 8.07269 7.08674 8.41174 7.03883V6.43521H5.58823V7.03886Z" fill="#53536E"/>
<path d="M4.5294 1C3.94556 1 3.47058 1.47501 3.47058 2.05882V3.47058H1V6.99998C1.68146 6.99998 2.06924 7.13687 2.35239 7.23682C2.56446 7.31167 2.68131 7.35292 2.99994 7.35292C3.31858 7.35292 3.43543 7.31167 3.64752 7.2368C3.91392 7.14278 4.27309 7.01602 4.88234 7.00139V3.47058H4.17646V2.05882C4.17646 1.86421 4.33479 1.70588 4.5294 1.70588C4.72401 1.70588 4.88234 1.86421 4.88234 2.05882V3.47058H5.58822V2.05882C5.58822 1.47501 5.11323 1 4.5294 1Z" fill="#53536E"/>
<path d="M10.9999 12.294C10.0446 12.2845 10.0359 11.9338 8.9998 11.9411C7.96294 11.9338 7.95588 12.2844 6.99981 12.2941C6.04412 12.2845 6.03629 11.9338 4.99989 11.9411C3.96349 11.9338 3.95568 12.2844 2.99995 12.2941C2.04376 12.2845 2.03677 11.9338 1 11.9411V12.647C1.95508 12.6565 1.96395 13.0072 2.99995 12.9999C4.03691 13.0072 4.04378 12.6566 4.99989 12.6469C5.95546 12.6565 5.96349 13.0072 6.99981 12.9999C8.03635 13.0072 8.04397 12.6566 8.9998 12.6469C9.95592 12.6565 9.96314 13.0072 10.9999 12.9999C12.036 13.0072 12.0444 12.6566 13 12.647V11.9411C11.9633 11.9338 11.9558 12.2844 10.9999 12.294Z" fill="#53536E"/>
<path d="M10.9999 10.8823C10.0446 10.8727 10.0359 10.522 8.9998 10.5293C7.96294 10.522 7.95588 10.8727 6.99981 10.8823C6.04412 10.8727 6.03629 10.522 4.99989 10.5293C3.96349 10.522 3.95568 10.8727 2.99995 10.8823C2.04376 10.8727 2.03677 10.522 1 10.5293V11.2352C1.95508 11.2448 1.96395 11.5955 2.99995 11.5881C4.03691 11.5954 4.04378 11.2448 4.99989 11.2352C5.95546 11.2447 5.96349 11.5954 6.99981 11.5881C8.03635 11.5954 8.04397 11.2448 8.9998 11.2352C9.95592 11.2447 9.96314 11.5954 10.9999 11.5881C12.036 11.5954 12.0444 11.2448 13 11.2352V10.5293C11.9633 10.522 11.9558 10.8727 10.9999 10.8823Z" fill="#53536E"/>
<path d="M10.9999 9.47051C10.0446 9.46094 10.0359 9.11028 8.9998 9.1176C7.96294 9.1103 7.95588 9.46091 6.99981 9.47054C6.04412 9.46094 6.03629 9.11028 4.99989 9.1176C3.96349 9.1103 3.95568 9.46091 2.99995 9.47054C2.04376 9.46094 2.03677 9.11028 1 9.11757V9.82345C1.95508 9.83303 1.96395 10.1837 2.99995 10.1764C4.03691 10.1837 4.04378 9.83305 4.99989 9.82343C5.95546 9.83301 5.96349 10.1837 6.99981 10.1764C8.03635 10.1837 8.04397 9.83305 8.9998 9.82343C9.95592 9.83301 9.96314 10.1837 10.9999 10.1764C12.036 10.1837 12.0444 9.83305 13 9.82345V9.11757C11.9633 9.1103 11.9558 9.46091 10.9999 9.47051Z" fill="#53536E"/>
<path d="M10.9999 8.05874C10.0446 8.04916 10.0359 7.69851 8.9998 7.70582C7.96294 7.69853 7.95588 8.04914 6.99981 8.05876C6.04412 8.04916 6.03629 7.69851 4.99989 7.70582C3.96349 7.69853 3.95568 8.04914 2.99995 8.05876C2.04376 8.04916 2.03677 7.69851 1 7.7058V8.41168C1.95508 8.42126 1.96395 8.77194 2.99995 8.7646C4.03691 8.77189 4.04378 8.42128 4.99989 8.41166C5.95546 8.42123 5.96349 8.77191 6.99981 8.7646C8.03635 8.77189 8.04397 8.42128 8.9998 8.41166C9.95592 8.42123 9.96314 8.77191 10.9999 8.7646C12.036 8.77189 12.0444 8.42128 13 8.41168V7.7058C11.9633 7.69853 11.9558 8.04914 10.9999 8.05874Z" fill="#53536E"/>
</svg>
