<svg width="14" height="14" viewBox="0 0 14 14" fill="none" xmlns="http://www.w3.org/2000/svg">
<g clip-path="url(#clip0_262_129)">
<path d="M12.4418 10.1718L11.698 10.4903L10.1021 6.82375H6.39632V6.05851H9.96772V4.52103H6.39632V3.13139C6.92216 2.85377 7.28182 2.30203 7.28182 1.66713C7.28182 0.754187 6.53912 0.0116272 5.62632 0.0116272C4.71352 0.0116272 3.97068 0.754327 3.97068 1.66727C3.97068 2.30315 4.3316 2.85559 4.85884 3.13279V8.36123H9.09468L10.8983 12.5056L13.047 11.5853L12.4418 10.1718Z" fill="#53536E"/>
<path d="M5.75386 12.4743C3.885 12.4743 2.36446 10.9539 2.36446 9.08503C2.36446 7.82041 3.0611 6.71609 4.09024 6.13356V4.44781C2.18974 5.13171 0.826981 6.95185 0.826981 9.08503C0.826981 11.8015 3.03716 14.0118 5.75386 14.0118C7.42532 14.0118 8.90414 13.1743 9.79524 11.8974L8.99794 10.0652C8.5764 11.4576 7.28182 12.4743 5.75386 12.4743Z" fill="#53536E"/>
</g>
<defs>
<clipPath id="clip0_262_129">
<rect width="14" height="14" fill="white"/>
</clipPath>
</defs>
</svg>
