<svg width="14" height="14" viewBox="0 0 14 14" fill="none" xmlns="http://www.w3.org/2000/svg">
<g clip-path="url(#clip0_264_487)">
<path d="M4.4219 2.76642H5.24221C5.24221 2.30043 5.07659 2.04209 4.95568 1.85344C4.85787 1.70089 4.79886 1.6088 4.79886 1.38318C4.79886 1.15754 4.8579 1.06548 4.95568 0.912926C5.07659 0.724309 5.24221 0.465965 5.24221 0H4.4219C4.4219 0.225613 4.36289 0.31768 4.26511 0.470203C4.14417 0.658848 3.97858 0.917191 3.97858 1.38318C3.97858 1.84915 4.1442 2.10749 4.26511 2.29614C4.36287 2.44869 4.4219 2.54078 4.4219 2.76642Z" fill="#53536E"/>
<path d="M6.81149 2.76642H7.6318C7.6318 2.30043 7.46621 2.04209 7.34527 1.85344C7.24748 1.70089 7.18848 1.60882 7.18848 1.38318C7.18848 1.15754 7.24748 1.06548 7.34527 0.912926C7.46621 0.724309 7.6318 0.465965 7.6318 0H6.81149C6.81149 0.225613 6.75248 0.31768 6.6547 0.47023C6.53378 0.658848 6.36816 0.917191 6.36816 1.38318C6.36816 1.84915 6.53376 2.10749 6.65467 2.29614C6.75248 2.44869 6.81149 2.54078 6.81149 2.76642Z" fill="#53536E"/>
<path d="M9.20114 2.76642H10.0214C10.0214 2.30043 9.85583 2.04209 9.73491 1.85344C9.6371 1.70089 9.5781 1.6088 9.5781 1.38318C9.5781 1.15754 9.6371 1.06548 9.73491 0.912926C9.85583 0.724309 10.0214 0.465965 10.0214 0H9.20114C9.20114 0.225613 9.14213 0.31768 9.04435 0.470203C8.92341 0.658848 8.75781 0.917191 8.75781 1.38318C8.75781 1.84915 8.92343 2.10749 9.04435 2.29614C9.1421 2.44869 9.20114 2.54078 9.20114 2.76642Z" fill="#53536E"/>
<path d="M0 5.19504H1.50609V7.10937H0V5.19504Z" fill="#53536E"/>
<path d="M6.78918 5.19504H14V7.10937H6.78918V5.19504Z" fill="#53536E"/>
<path d="M6.78918 10.6553H1.50609V7.92969H0V11.0663L0.984922 12.9027H1.91406V14H2.73438V12.9027H11.2656V14H12.0859V12.9027H13.0151L14 11.0663V7.92969H6.78918V10.6553Z" fill="#53536E"/>
<path d="M2.32648 5.19504H5.96872V9.83494H2.32648V5.19504Z" fill="#53536E"/>
</g>
<defs>
<clipPath id="clip0_264_487">
<rect width="14" height="14" fill="white"/>
</clipPath>
</defs>
</svg>
