<svg width="14" height="14" viewBox="0 0 14 14" fill="none" xmlns="http://www.w3.org/2000/svg">
<g clip-path="url(#clip0_280_353)">
<path d="M2.62072 4.38079H7.00427C7.08515 4.38071 7.16444 4.35822 7.2333 4.31579C7.30217 4.27337 7.35793 4.21269 7.39438 4.14048C7.43084 4.06828 7.44656 3.98738 7.4398 3.90678C7.43304 3.82618 7.40407 3.74903 7.35611 3.6839L6.1425 2.04203V1.31228C6.1425 1.25484 6.13118 1.19796 6.10919 1.14489C6.0872 1.09182 6.05497 1.0436 6.01435 1.003C5.97372 0.962387 5.92548 0.930182 5.87241 0.90822C5.81933 0.886258 5.76244 0.87497 5.705 0.875H3.92C3.86255 0.87497 3.80567 0.886257 3.75259 0.908218C3.69951 0.930179 3.65128 0.962383 3.61065 1.00299C3.57002 1.0436 3.53779 1.09181 3.5158 1.14488C3.49381 1.19794 3.4825 1.25482 3.4825 1.31226V2.04201L2.26887 3.6839C2.22331 3.74961 2.19633 3.82639 2.19078 3.90615C2.18524 3.98592 2.20133 4.0657 2.23737 4.13707C2.27341 4.20845 2.32805 4.26877 2.39552 4.31166C2.46299 4.35456 2.5408 4.37844 2.62072 4.38079Z" fill="#53536E"/>
<path d="M12.6875 6.99584H12.25V5.64774C12.25 5.47703 12.2162 5.30801 12.1506 5.15041C12.085 4.99281 11.9888 4.84974 11.8677 4.72946C11.7466 4.60917 11.6028 4.51403 11.4448 4.44953C11.2867 4.38502 11.1174 4.35242 10.9467 4.35361C10.776 4.35479 10.6072 4.38973 10.4501 4.45642C10.2929 4.52311 10.1505 4.62023 10.0311 4.74218C9.91162 4.86414 9.81747 5.00852 9.75405 5.16701C9.69063 5.32551 9.65918 5.49498 9.66153 5.66568C9.66171 5.72265 9.67322 5.77902 9.69538 5.8315C9.71754 5.88399 9.74993 5.93154 9.79064 5.97139C9.83135 6.01125 9.87958 6.04261 9.93252 6.06365C9.98547 6.0847 10.0421 6.095 10.099 6.09397C10.216 6.09199 10.3274 6.04407 10.4093 5.96056C10.4912 5.87705 10.5369 5.76466 10.5365 5.64771C10.5365 5.53653 10.5807 5.42989 10.6593 5.35127C10.7379 5.27265 10.8446 5.22848 10.9558 5.22848C11.067 5.22848 11.1736 5.27265 11.2522 5.35127C11.3308 5.42989 11.375 5.53653 11.375 5.64771V6.99581H8.3125V6.57694C8.3125 6.5195 8.30118 6.46262 8.27919 6.40955C8.2572 6.35649 8.22497 6.30827 8.18434 6.26767C8.14372 6.22706 8.09548 6.19486 8.04241 6.1729C7.98933 6.15094 7.93244 6.13965 7.875 6.13968H1.3125C1.25506 6.13965 1.19817 6.15094 1.14509 6.1729C1.09202 6.19486 1.04379 6.22706 1.00316 6.26767C0.962528 6.30827 0.930298 6.35649 0.908309 6.40955C0.886319 6.46262 0.875001 6.5195 0.875 6.57694V12.6854C0.875001 12.7428 0.886319 12.7997 0.908309 12.8528C0.930298 12.9058 0.962528 12.954 1.00316 12.9946C1.04379 13.0352 1.09202 13.0674 1.14509 13.0894C1.19817 13.1114 1.25506 13.1227 1.3125 13.1226L12.6817 13.125C12.7993 13.1232 12.9115 13.0755 12.9943 12.9921C13.0771 12.9086 13.124 12.7961 13.125 12.6785V7.4331C13.125 7.37565 13.1137 7.31878 13.0917 7.26571C13.0697 7.21264 13.0375 7.16443 12.9968 7.12382C12.9562 7.08322 12.908 7.05101 12.8549 7.02905C12.8018 7.00709 12.7449 6.99581 12.6875 6.99584ZM7.4375 7.84301H1.75V7.01418H7.4375V7.84301ZM10.9375 9.63776H9.625C9.50903 9.63776 9.39781 9.5917 9.31581 9.50969C9.23381 9.42769 9.18774 9.31647 9.18774 9.2005C9.18774 9.08454 9.23381 8.97332 9.31581 8.89131C9.39781 8.80931 9.50903 8.76324 9.625 8.76324H10.9375C11.0535 8.76324 11.1647 8.80931 11.2467 8.89131C11.3287 8.97332 11.3748 9.08454 11.3748 9.2005C11.3748 9.31647 11.3287 9.42769 11.2467 9.50969C11.1647 9.5917 11.0535 9.63776 10.9375 9.63776Z" fill="#53536E"/>
</g>
<defs>
<clipPath id="clip0_280_353">
<rect width="14" height="14" fill="white"/>
</clipPath>
</defs>
</svg>
