<svg width="14" height="14" viewBox="0 0 14 14" fill="none" xmlns="http://www.w3.org/2000/svg">
<g clip-path="url(#clip0_280_289)">
<path d="M4.43548 4.10156C4.26895 4.89128 4.16502 5.75725 4.13882 6.58984H6.58984V4.10156H4.43548Z" fill="#53536E"/>
<path d="M0.625789 4.10156C0.28134 4.85983 0.0511602 5.71681 0 6.58984H3.31912C3.34329 5.7493 3.43623 4.88854 3.59518 4.10156H0.625789Z" fill="#53536E"/>
<path d="M4.13882 7.41016C4.16502 8.24275 4.26895 9.10872 4.43548 9.89844H6.58984V7.41016H4.13882Z" fill="#53536E"/>
<path d="M4.63304 3.28125H6.58984V0C5.78755 0.330285 5.0806 1.67997 4.63304 3.28125Z" fill="#53536E"/>
<path d="M4.63304 10.7188C5.0806 12.32 5.78755 13.6697 6.58984 14V10.7188H4.63304Z" fill="#53536E"/>
<path d="M3.31912 7.41016H0C0.0511602 8.28319 0.28134 9.14017 0.625789 9.89844H3.59518C3.43621 9.11146 3.34329 8.2507 3.31912 7.41016Z" fill="#53536E"/>
<path d="M7.41016 0V3.28125H9.36696C8.91939 1.67997 8.21245 0.330285 7.41016 0Z" fill="#53536E"/>
<path d="M9.56452 4.10156H7.41016V6.58984H9.86117C9.83497 5.75725 9.73104 4.89128 9.56452 4.10156Z" fill="#53536E"/>
<path d="M10.2091 10.7188C9.87859 11.9481 9.39523 13.1104 8.80745 13.8479C10.5258 13.3855 12.0083 12.1909 12.9319 10.7188H10.2091Z" fill="#53536E"/>
<path d="M1.0681 3.28125H3.79085C4.12141 2.05187 4.60477 0.889597 5.19255 0.152054C3.47416 0.614491 1.99174 1.80914 1.0681 3.28125Z" fill="#53536E"/>
<path d="M8.80745 0.152054C9.39526 0.889597 9.87861 2.05187 10.2091 3.28125H12.9319C12.0083 1.80914 10.5258 0.614491 8.80745 0.152054Z" fill="#53536E"/>
<path d="M3.79085 10.7188H1.0681C1.99174 12.1909 3.47416 13.3855 5.19255 13.8479C4.60474 13.1104 4.12139 11.9481 3.79085 10.7188Z" fill="#53536E"/>
<path d="M13.3742 4.10156H10.4048C10.5638 4.88854 10.6567 5.7493 10.6809 6.58984H14C13.9488 5.71681 13.7187 4.85983 13.3742 4.10156Z" fill="#53536E"/>
<path d="M7.41016 10.7188V14C8.21245 13.6697 8.91939 12.32 9.36696 10.7188H7.41016Z" fill="#53536E"/>
<path d="M7.41016 7.41016V9.89844H9.56452C9.73104 9.10872 9.83497 8.24275 9.86117 7.41016H7.41016Z" fill="#53536E"/>
<path d="M10.6809 7.41016C10.6567 8.2507 10.5638 9.11146 10.4048 9.89844H13.3742C13.7187 9.14017 13.9488 8.28319 14 7.41016H10.6809Z" fill="#53536E"/>
</g>
<defs>
<clipPath id="clip0_280_289">
<rect width="14" height="14" fill="white"/>
</clipPath>
</defs>
</svg>
