<svg width="14" height="14" viewBox="0 0 14 14" fill="none" xmlns="http://www.w3.org/2000/svg">
<g clip-path="url(#clip0_263_291)">
<path d="M1.66797 10.6536V11.9219H2.48828V10.6536C3.2308 10.5329 4.12891 10.0227 4.12891 8.23047C4.12891 6.51774 3.34865 4.12891 2.07812 4.12891C0.807598 4.12891 0 6.51774 0 8.23047C0 10.0227 0.925449 10.5329 1.66797 10.6536Z" fill="#53536E"/>
<path d="M11.9219 5.9034V4.8764C12.6275 4.64715 13.1523 3.85112 13.1523 2.89841C13.1523 1.92388 12.5731 -3.05176e-05 11.5117 -3.05176e-05C10.4503 -3.05176e-05 9.87109 1.92388 9.87109 2.89841C9.87109 3.85109 10.3959 4.64712 11.1016 4.8764V5.76953H7V4.87643C7.70566 4.64718 8.23047 3.85115 8.23047 2.89843C8.23047 1.9239 7.65127 -3.17383e-06 6.58984 -3.17383e-06C5.52841 -3.17383e-06 4.94922 1.9239 4.94922 2.89843C4.94922 3.85112 5.47403 4.64715 6.17969 4.87643V5.76953H4.54593C4.72336 6.30415 4.84096 6.87042 4.90107 7.41015H9.05078C9.50299 7.41015 9.87109 7.77825 9.87109 8.23047C9.87109 8.68268 9.50299 9.05078 9.05078 9.05078H8.23047C5.969 9.05078 4.12891 10.9182 4.12891 13.1797V14H9.05078V13.1797C9.05078 12.2749 9.78657 11.5117 10.6914 11.5117H11.1016C12.6845 11.5117 14 10.2236 14 8.64062C14 7.34461 13.1036 6.25904 11.9219 5.9034Z" fill="#53536E"/>
</g>
<defs>
<clipPath id="clip0_263_291">
<rect width="14" height="14" fill="white"/>
</clipPath>
</defs>
</svg>
