<svg width="14" height="14" viewBox="0 0 14 14" fill="none" xmlns="http://www.w3.org/2000/svg">
<g clip-path="url(#clip0_262_199)">
<path d="M9.87737 6.64823H9.79295C9.59947 6.5888 9.41124 6.51348 9.23012 6.42309L9.11051 6.3668C8.94131 6.27697 8.77695 6.17833 8.61806 6.07132L8.53364 6.00801C8.38422 5.89143 8.24532 5.76196 8.11856 5.62108L8.04822 5.54368C7.93566 5.39595 7.80198 5.24118 7.6824 5.07234C7.67419 5.05203 7.67419 5.02934 7.6824 5.00902C7.57687 4.83316 7.47837 4.65023 7.39395 4.47436V4.40402C7.30995 4.20636 7.24403 4.0015 7.19697 3.79196C7.14995 3.56043 7.12637 3.32471 7.12663 3.08846C7.11733 2.94557 7.11733 2.80221 7.12663 2.65932C7.12663 2.65932 7.12663 2.5749 7.12663 2.52567C7.12663 2.47643 7.16182 2.34274 7.18995 2.23721L7.23216 2.0965C7.23216 2.00505 7.29548 1.91357 7.33066 1.82213C7.33861 1.78265 7.33861 1.74199 7.33066 1.70252C7.38448 1.57714 7.44556 1.45499 7.51359 1.3367C7.57374 1.21363 7.64434 1.09593 7.72464 0.984931C7.74858 0.948722 7.77694 0.915613 7.80906 0.886428C7.87238 0.802006 7.90757 0.73869 7.97791 0.661292L8.08344 0.555764C8.15378 0.478367 8.19599 0.422107 8.27339 0.351734L8.37891 0.267312C8.47214 0.18256 8.57348 0.107174 8.68141 0.0421753H3.39798V5.5859H7.28842C7.46557 5.58962 7.6083 5.73235 7.61203 5.9095V8.09745C7.60447 8.27065 7.46178 8.40717 7.28842 8.40701H3.39798V14H10.5176V6.77486C10.3007 6.75234 10.0864 6.70996 9.87737 6.64823Z" fill="#53536E"/>
<path d="M1.9417 6.21911C1.76719 6.21554 1.62549 6.07694 1.6181 5.90252V5.4382L0.0844212 6.99298L1.6181 8.54071V8.09749C1.62182 7.92034 1.76455 7.77761 1.9417 7.77389H7V6.21911H1.9417Z" fill="#53536E"/>
<path d="M10.8482 8.24928e-06C9.15029 -0.00388308 7.77071 1.36943 7.76682 3.06733C7.76293 4.76523 9.13624 6.14484 10.8341 6.14873C12.5321 6.15262 13.9117 4.77931 13.9155 3.08141C13.9155 3.07673 13.9155 3.07204 13.9155 3.06736C13.9117 1.3749 12.5407 0.00389957 10.8482 8.24928e-06ZM10.5176 0.569857H11.1296V1.00605H10.5176V0.569857ZM8.75878 3.38394H8.30854V2.77189H8.75878V3.38394ZM10.5176 5.58594V5.14272H11.1296L11.1437 5.58594H10.5176ZM11.9246 2.46935L11.2211 3.17286C11.1625 3.39047 10.9386 3.51942 10.721 3.46085C10.5405 3.41227 10.4161 3.24722 10.4191 3.06031C10.4191 2.83108 10.6049 2.64519 10.8341 2.64515C10.8365 2.64515 10.8388 2.64519 10.8412 2.64522L11.4603 2.02614C11.5792 1.89792 11.7795 1.89034 11.9077 2.00922C11.9135 2.01466 11.9192 2.0203 11.9246 2.02614C12.0351 2.15323 12.0351 2.34229 11.9246 2.46935ZM13.3316 3.40505L12.8884 3.38394V2.77189H13.3316V3.40505Z" fill="#53536E"/>
</g>
<defs>
<clipPath id="clip0_262_199">
<rect width="14" height="14" fill="white"/>
</clipPath>
</defs>
</svg>
