<svg width="14" height="14" viewBox="0 0 14 14" fill="none" xmlns="http://www.w3.org/2000/svg">
<g clip-path="url(#clip0_262_97)">
<path d="M7 11.4224C8.46953 11.4224 9.66511 10.2268 9.66511 8.75728C9.66511 7.28774 8.46953 6.09219 7 6.09219C5.53046 6.09219 4.33488 7.28777 4.33488 8.75731C4.33488 10.2268 5.53046 11.4224 7 11.4224Z" fill="#53536E"/>
<path d="M0.878632 12.4915C0.878632 13.3233 1.55533 14 2.38713 14H11.6129C12.4447 14 13.1214 13.3233 13.1214 12.4915V4.3349H0.878632V12.4915ZM7 5.27189C8.78308 5.27189 10.2575 6.61791 10.4612 8.34716H10.5146C10.7411 8.34716 10.9247 8.5308 10.9247 8.75731C10.9247 8.98383 10.7411 9.16747 10.5146 9.16747H10.4612C10.2575 10.8967 8.78308 12.2427 7 12.2427C5.07814 12.2427 3.51457 10.6792 3.51457 8.75731C3.51457 6.83546 5.07814 5.27189 7 5.27189Z" fill="#53536E"/>
<path d="M4.39321 0H2.38713C1.55533 0 0.878632 0.676676 0.878632 1.50845V3.51457H4.39321V0ZM2.92602 2.04714C2.84973 2.12371 2.74394 2.16743 2.63593 2.16743C2.52792 2.16743 2.42235 2.12368 2.34606 2.04714C2.26977 1.97086 2.22578 1.86531 2.22578 1.75727C2.22578 1.64924 2.26977 1.54345 2.34606 1.46716C2.42235 1.39089 2.5279 1.34712 2.63593 1.34712C2.74397 1.34712 2.84973 1.39089 2.92602 1.46716C3.00231 1.54375 3.04609 1.64927 3.04609 1.75727C3.04606 1.86504 3.00231 1.97086 2.92602 2.04714Z" fill="#53536E"/>
<path d="M11.6129 0H5.21352V3.51457H13.1214V1.50845C13.1214 0.676676 12.4447 0 11.6129 0ZM7.72947 2.04714C7.65291 2.12371 7.54736 2.16743 7.43935 2.16743C7.33137 2.16743 7.22555 2.12368 7.14926 2.04714C7.07297 1.97086 7.0292 1.86531 7.0292 1.75727C7.0292 1.64924 7.07297 1.54345 7.14926 1.46716C7.22555 1.39089 7.33137 1.34712 7.43935 1.34712C7.54736 1.34712 7.65293 1.39089 7.72947 1.46716C7.80576 1.54345 7.84951 1.64927 7.84951 1.75727C7.84951 1.86528 7.80576 1.97086 7.72947 2.04714ZM9.48658 2.04714C9.41029 2.12371 9.30477 2.16743 9.19674 2.16743C9.0887 2.16743 8.98291 2.12368 8.90662 2.04714C8.83033 1.97086 8.78658 1.86531 8.78658 1.75727C8.78658 1.64924 8.83033 1.54345 8.90662 1.46716C8.98291 1.39089 9.08873 1.34712 9.19674 1.34712C9.30474 1.34712 9.41029 1.39089 9.48658 1.46716C9.56287 1.54375 9.60689 1.64927 9.60689 1.75727C9.60689 1.86504 9.56287 1.97086 9.48658 2.04714ZM11.244 2.04714C11.1677 2.12371 11.0619 2.16743 10.9538 2.16743C10.8458 2.16743 10.7403 2.12368 10.664 2.04714C10.5874 1.97086 10.5437 1.86531 10.5437 1.75727C10.5437 1.64924 10.5874 1.54345 10.664 1.46716C10.7403 1.39089 10.8458 1.34712 10.9538 1.34712C11.0619 1.34712 11.1677 1.39089 11.244 1.46716C11.3203 1.54345 11.364 1.64927 11.364 1.75727C11.364 1.86528 11.3203 1.97086 11.244 2.04714Z" fill="#53536E"/>
</g>
<defs>
<clipPath id="clip0_262_97">
<rect width="14" height="14" fill="white"/>
</clipPath>
</defs>
</svg>
