<svg width="14" height="14" viewBox="0 0 14 14" fill="none" xmlns="http://www.w3.org/2000/svg">
<g clip-path="url(#clip0_280_363)">
<path d="M12.6304 1.52173H1.36957C0.614359 1.52173 0 2.13609 0 2.89129V10.1956C0 10.9508 0.614359 11.5652 1.36957 11.5652H1.8261V12.0217C1.8261 12.2739 2.03044 12.4783 2.28263 12.4783C2.53482 12.4783 2.73916 12.2739 2.73916 12.0217V11.5652H11.2609V12.0217C11.2609 12.2739 11.4652 12.4783 11.7174 12.4783C11.9696 12.4783 12.174 12.2739 12.174 12.0217V11.5652H12.6305C13.3857 11.5652 14.0001 10.9508 14.0001 10.1956V2.89129C14 2.13609 13.3856 1.52173 12.6304 1.52173ZM10.3478 9.2826C10.3478 9.53479 10.1435 9.73913 9.8913 9.73913H2.2826C2.03041 9.73913 1.82607 9.53479 1.82607 9.2826V3.80433C1.82607 3.55214 2.03041 3.3478 2.2826 3.3478H9.8913C10.1435 3.3478 10.3478 3.55214 10.3478 3.80433V9.2826ZM12.1739 3.34783C12.426 3.34783 12.6304 3.55222 12.6304 3.80436C12.6304 4.05649 12.426 4.26089 12.1739 4.26089C11.9218 4.26089 11.7174 4.05649 11.7174 3.80436C11.7174 3.55222 11.9218 3.34783 12.1739 3.34783ZM12.1739 5.1739C12.426 5.1739 12.6304 5.37829 12.6304 5.63043C12.6304 5.88254 12.426 6.08696 12.1739 6.08696C11.9218 6.08696 11.7174 5.88256 11.7174 5.63043C11.7174 5.37832 11.9218 5.1739 12.1739 5.1739ZM12.6304 9.73913H11.7174C11.4652 9.73913 11.2609 9.53479 11.2609 9.2826C11.2609 9.0304 11.4652 8.82606 11.7174 8.82606H12.6304C12.8826 8.82606 13.087 9.0304 13.087 9.2826C13.087 9.53479 12.8826 9.73913 12.6304 9.73913ZM12.6304 7.91303H11.7174C11.4652 7.91303 11.2609 7.70869 11.2609 7.4565C11.2609 7.20431 11.4652 6.99997 11.7174 6.99997H12.6304C12.8826 6.99997 13.087 7.20431 13.087 7.4565C13.087 7.70869 12.8826 7.91303 12.6304 7.91303Z" fill="#53536E"/>
<path d="M8.97827 5.1739C8.72616 5.1739 8.52174 5.3783 8.52174 5.63044V7.45653C8.52174 7.70864 8.72613 7.91306 8.97827 7.91306C9.2304 7.91306 9.4348 7.70867 9.4348 7.45653V5.63044C9.43477 5.37833 9.23038 5.1739 8.97827 5.1739Z" fill="#53536E"/>
</g>
<defs>
<clipPath id="clip0_280_363">
<rect width="14" height="14" fill="white"/>
</clipPath>
</defs>
</svg>
