<svg width="14" height="14" viewBox="0 0 14 14" fill="none" xmlns="http://www.w3.org/2000/svg">
<g clip-path="url(#clip0_280_201)">
<path d="M1.31793 10.7342C1.31793 11.566 1.99464 12.2427 2.82643 12.2427H11.1735C12.0053 12.2427 12.682 11.566 12.682 10.7342V2.57761H1.31793V10.7342ZM9.6651 4.80339C9.6651 4.57687 9.84874 4.39323 10.0753 4.39323C10.3018 4.39323 10.4854 4.57687 10.4854 4.80339V7.43932C10.4854 7.66584 10.3018 7.84948 10.0753 7.84948C9.84874 7.84948 9.6651 7.66584 9.6651 7.43932V4.80339Z" fill="#53536E"/>
<path d="M11.1735 0H2.82643C1.99464 0 1.31793 0.676703 1.31793 1.50847V1.7573H12.682V1.50847C12.682 0.676703 12.0053 0 11.1735 0Z" fill="#53536E"/>
<path d="M2.63593 13.0546V13.5899C2.63593 13.8164 2.81957 14 3.04608 14H4.80335C5.02987 14 5.21351 13.8164 5.21351 13.5899V13.063H2.82643C2.76225 13.063 2.69882 13.0597 2.63593 13.0546Z" fill="#53536E"/>
<path d="M8.78647 13.063V13.5899C8.78647 13.8164 8.97011 14 9.19662 14H10.9539C11.1804 14 11.3641 13.8164 11.3641 13.5899V13.0546C11.3011 13.0597 11.2378 13.063 11.1736 13.063H8.78647V13.063Z" fill="#53536E"/>
</g>
<defs>
<clipPath id="clip0_280_201">
<rect width="14" height="14" fill="white"/>
</clipPath>
</defs>
</svg>
