<svg width="14" height="14" viewBox="0 0 14 14" fill="none" xmlns="http://www.w3.org/2000/svg">
<path d="M1.315 11.6124H12.7075C12.7075 11.6124 12.88 11.6146 13.0468 11.698C13.2137 11.7814 13.3639 11.9322 13.3639 12.2689V12.9274H0.656433V12.2689C0.656433 11.9382 0.806684 11.7814 0.973521 11.698C1.14036 11.6146 1.315 11.6124 1.315 11.6124Z" fill="#53536E"/>
<path d="M6.57281 9.64102H7.44919V11.1743H6.57281V9.64102Z" fill="#53536E"/>
<path d="M1.97183 9.64102H2.84821V11.1743H1.97183V9.64102Z" fill="#53536E"/>
<path d="M7.01273 1.15796C7.07722 1.15796 7.18639 1.19514 7.21642 1.318L8.7933 7.76802C8.97288 8.50265 8.42413 9.20283 7.66787 9.20283H6.35759C5.60133 9.20283 5.05259 8.50265 5.23216 7.76802L6.80904 1.318C6.83907 1.19514 6.94989 1.15796 7.01273 1.15796Z" fill="#53536E"/>
<path d="M2.47123 1.15796C2.53247 1.15796 2.64488 1.19514 2.67492 1.318L4.2518 7.76802C4.43137 8.50265 3.88262 9.20283 3.12637 9.20283H1.81608C1.05983 9.20283 0.511081 8.50265 0.690656 7.76802L2.26754 1.318C2.29757 1.19514 2.40998 1.15796 2.47123 1.15796Z" fill="#53536E"/>
<path d="M11.3746 2.18805C11.8604 2.18805 12.2498 2.57742 12.2498 3.06326C12.2498 3.5491 11.8604 3.93687 11.3746 3.93687C10.8887 3.93687 10.4994 3.5491 10.4994 3.06326C10.4994 2.57742 10.8887 2.18805 11.3746 2.18805Z" fill="#53536E"/>
<path d="M11.3746 0.655611C11.3458 0.65571 11.3174 0.661469 11.2909 0.67256C11.2644 0.683652 11.2403 0.699858 11.2201 0.720252C11.1998 0.740646 11.1838 0.764829 11.1729 0.791419C11.162 0.81801 11.1565 0.846486 11.1566 0.875222V1.31283C11.1568 1.37058 11.1798 1.42592 11.2207 1.46676C11.2615 1.5076 11.3168 1.53063 11.3746 1.53083C11.4033 1.53094 11.4318 1.52539 11.4584 1.51449C11.485 1.5036 11.5092 1.48757 11.5296 1.46733C11.5499 1.44708 11.5662 1.42302 11.5772 1.39651C11.5883 1.37 11.5941 1.34157 11.5942 1.31283V0.875222C11.5943 0.84635 11.5887 0.817742 11.5777 0.791046C11.5667 0.76435 11.5505 0.740095 11.5301 0.71968C11.5097 0.699264 11.4855 0.683092 11.4588 0.672096C11.4321 0.6611 11.4035 0.655497 11.3746 0.655611Z" fill="#53536E"/>
<path d="M11.3746 4.59409C11.3168 4.59429 11.2615 4.61732 11.2207 4.65816C11.1798 4.699 11.1568 4.75433 11.1566 4.81208V5.24969C11.1565 5.27843 11.162 5.3069 11.1729 5.33349C11.1838 5.36008 11.1998 5.38427 11.2201 5.40466C11.2403 5.42506 11.2644 5.44126 11.2909 5.45235C11.3174 5.46344 11.3458 5.4692 11.3746 5.4693C11.4035 5.46942 11.4321 5.46381 11.4588 5.45282C11.4855 5.44182 11.5097 5.42565 11.5301 5.40523C11.5505 5.38482 11.5667 5.36056 11.5777 5.33387C11.5887 5.30717 11.5943 5.27856 11.5942 5.24969V4.81208C11.5941 4.78335 11.5883 4.75491 11.5772 4.7284C11.5662 4.70189 11.5499 4.67783 11.5296 4.65759C11.5092 4.63734 11.485 4.62131 11.4584 4.61042C11.4318 4.59952 11.4033 4.59397 11.3746 4.59409Z" fill="#53536E"/>
<path d="M13.125 2.84364C13.0963 2.84374 13.0678 2.8495 13.0413 2.86059C13.0148 2.87168 12.9908 2.88789 12.9705 2.90828C12.9503 2.92868 12.9342 2.95286 12.9233 2.97945C12.9125 3.00604 12.9069 3.03452 12.907 3.06325C12.9072 3.12101 12.9302 3.17634 12.9711 3.21718C13.0119 3.25802 13.0673 3.28105 13.125 3.28125H13.5626C13.6204 3.28105 13.6757 3.25802 13.7165 3.21718C13.7574 3.17634 13.7804 3.12101 13.7806 3.06325C13.7807 3.03452 13.7752 3.00604 13.7643 2.97945C13.7534 2.95286 13.7374 2.92868 13.7171 2.90828C13.6969 2.88789 13.6728 2.87168 13.6463 2.86059C13.6198 2.8495 13.5914 2.84374 13.5626 2.84364H13.125Z" fill="#53536E"/>
<path d="M9.18815 2.84364C9.15928 2.84353 9.13067 2.84913 9.10397 2.86013C9.07728 2.87113 9.05302 2.8873 9.03261 2.90771C9.01219 2.92813 8.99602 2.95238 8.98502 2.97908C8.97403 3.00578 8.96842 3.03438 8.96854 3.06326C8.96864 3.09199 8.9744 3.12043 8.98549 3.14694C8.99658 3.17345 9.01278 3.19751 9.03318 3.21775C9.05357 3.238 9.07776 3.25403 9.10435 3.26492C9.13094 3.27582 9.15941 3.28137 9.18815 3.28125H9.62576C9.68351 3.28105 9.73885 3.25802 9.77968 3.21718C9.82052 3.17634 9.84355 3.12101 9.84375 3.06326C9.84387 3.03452 9.83832 3.00604 9.82742 2.97945C9.81653 2.95286 9.8005 2.92868 9.78025 2.90829C9.76001 2.88789 9.73595 2.87169 9.70944 2.86059C9.68293 2.8495 9.65449 2.84374 9.62576 2.84364H9.18815Z" fill="#53536E"/>
<path d="M12.7665 1.36127L12.4581 1.6697C12.4377 1.69002 12.4215 1.71418 12.4104 1.74078C12.3994 1.76738 12.3937 1.79591 12.3937 1.82472C12.3937 1.85352 12.3994 1.88205 12.4104 1.90865C12.4215 1.93525 12.4377 1.95941 12.4581 1.97973C12.4991 2.02047 12.5545 2.04334 12.6123 2.04334C12.6701 2.04334 12.7255 2.02047 12.7665 1.97973L13.0766 1.6697C13.1173 1.62871 13.1402 1.57327 13.1402 1.51548C13.1402 1.4577 13.1173 1.40226 13.0766 1.36127C13.0562 1.34086 13.0321 1.32466 13.0055 1.3136C12.9789 1.30255 12.9503 1.29686 12.9215 1.29686C12.8927 1.29686 12.8642 1.30255 12.8376 1.3136C12.811 1.32466 12.7868 1.34086 12.7665 1.36127Z" fill="#53536E"/>
<path d="M9.98262 4.14518L9.6742 4.45522C9.63346 4.4962 9.6106 4.55164 9.6106 4.60943C9.6106 4.66721 9.63346 4.72265 9.6742 4.76364C9.71519 4.80438 9.77062 4.82724 9.82841 4.82724C9.8862 4.82724 9.94164 4.80438 9.98262 4.76364L10.2927 4.45522C10.3131 4.43489 10.3293 4.41073 10.3403 4.38413C10.3514 4.35753 10.3571 4.329 10.3571 4.3002C10.3571 4.27139 10.3514 4.24286 10.3403 4.21626C10.3293 4.18966 10.3131 4.1655 10.2927 4.14518C10.2723 4.12476 10.2482 4.10856 10.2216 4.09751C10.195 4.08645 10.1665 4.08076 10.1376 4.08076C10.1088 4.08076 10.0803 4.08645 10.0537 4.09751C10.0271 4.10856 10.0029 4.12476 9.98262 4.14518Z" fill="#53536E"/>
<path d="M12.4581 4.14516C12.4377 4.16549 12.4215 4.18965 12.4104 4.21625C12.3994 4.24285 12.3937 4.27137 12.3937 4.30018C12.3937 4.32899 12.3994 4.35751 12.4104 4.38412C12.4215 4.41072 12.4377 4.43488 12.4581 4.4552L12.7665 4.76363C12.7868 4.78404 12.811 4.80024 12.8376 4.81129C12.8642 4.82235 12.8927 4.82804 12.9215 4.82804C12.9503 4.82804 12.9789 4.82235 13.0055 4.81129C13.0321 4.80024 13.0562 4.78404 13.0766 4.76363C13.1173 4.72264 13.1402 4.6672 13.1402 4.60941C13.1402 4.55163 13.1173 4.49619 13.0766 4.4552L12.7665 4.14516C12.7255 4.10442 12.6701 4.08156 12.6123 4.08156C12.5545 4.08156 12.4991 4.10442 12.4581 4.14516Z" fill="#53536E"/>
<path d="M9.6742 1.36127C9.63346 1.40226 9.6106 1.4577 9.6106 1.51549C9.6106 1.57327 9.63346 1.62871 9.6742 1.6697L9.98262 1.97974C10.0029 2.00015 10.0271 2.01635 10.0537 2.0274C10.0803 2.03846 10.1088 2.04415 10.1376 2.04415C10.1665 2.04415 10.195 2.03846 10.2216 2.0274C10.2482 2.01635 10.2723 2.00015 10.2927 1.97974C10.3131 1.95941 10.3293 1.93525 10.3403 1.90865C10.3514 1.88205 10.3571 1.85352 10.3571 1.82472C10.3571 1.79591 10.3514 1.76739 10.3403 1.74078C10.3293 1.71418 10.3131 1.69002 10.2927 1.6697L9.98262 1.36127C9.94164 1.32053 9.8862 1.29767 9.82841 1.29767C9.77062 1.29767 9.71519 1.32053 9.6742 1.36127Z" fill="#53536E"/>
</svg>
