<svg width="14" height="14" viewBox="0 0 14 14" fill="none" xmlns="http://www.w3.org/2000/svg">
<g clip-path="url(#clip0_264_803)">
<path d="M6.83156 3.16706L5.25 1.5855C6.0235 1.13663 6.9195 0.875 7.87806 0.875C8.91625 0.875 9.88137 1.18038 10.696 1.701C9.38219 1.99369 8.08806 2.48631 6.83156 3.16706Z" fill="#53536E"/>
<path d="M7.47733 3.81325C8.81214 3.11894 10.1876 2.64994 11.5802 2.41982C11.3501 3.81194 10.8811 5.18744 10.1868 6.52269L7.47733 3.81325Z" fill="#53536E"/>
<path d="M10.8329 7.16844C11.5137 5.91194 12.0063 4.61782 12.299 3.30357C12.8196 4.11819 13.125 5.08332 13.125 6.12194C13.125 7.08094 12.8634 7.97694 12.4145 8.75L10.8329 7.16844Z" fill="#53536E"/>
<path d="M2.0173 11.3641L2.63592 11.9827L1.6218 12.9968C1.45074 13.1679 1.17424 13.1679 1.00317 12.9968C0.832112 12.8258 0.832112 12.5493 1.00317 12.3782L2.0173 11.3641Z" fill="#53536E"/>
<path d="M13.125 10.7188C13.125 11.3229 12.6354 11.8125 12.0312 11.8125H11.375V12.4688C11.375 12.831 11.081 13.125 10.7187 13.125C10.3565 13.125 10.0625 12.831 10.0625 12.4688V11.8125H6.12499V12.4688C6.12499 12.831 5.83099 13.125 5.46874 13.125C5.10649 13.125 4.81249 12.831 4.81249 12.4688V11.8125H4.15624C3.86618 11.8125 3.58793 11.697 3.38274 11.4923L1.19524 9.30475C0.767805 8.87731 0.767805 8.18519 1.19524 7.75819C1.62224 7.33075 2.31524 7.33075 2.74181 7.75819L4.18249 9.19888L7.90387 5.4775L8.52249 6.09613L4.99362 9.625H12.0312C12.6354 9.625 13.125 10.1146 13.125 10.7188Z" fill="#53536E"/>
</g>
<defs>
<clipPath id="clip0_264_803">
<rect width="14" height="14" fill="white"/>
</clipPath>
</defs>
</svg>
