<svg width="14" height="14" viewBox="0 0 14 14" fill="none" xmlns="http://www.w3.org/2000/svg">
<g clip-path="url(#clip0_263_281)">
<path fill-rule="evenodd" clip-rule="evenodd" d="M3.66925 10.625H4.33075L4 9.798L3.66925 10.625Z" fill="#53536E"/>
<path fill-rule="evenodd" clip-rule="evenodd" d="M5.957 5.60974L5.54526 5.19824C5.49838 5.15136 5.4348 5.12501 5.36851 5.12499C5.36201 5.12499 5.355 5.12499 5.3485 5.12499C5.27397 5.13093 5.20601 5.16991 5.16326 5.23124C5.09676 5.34105 5.11661 5.48248 5.21076 5.56974L5.94176 6.301C6.03759 6.39253 6.18741 6.39589 6.28726 6.30875L8.919 3.89624C9.02076 3.80291 9.02759 3.64475 8.93426 3.54299C8.84092 3.44124 8.68276 3.43441 8.58101 3.52774L6.30251 5.61749C6.2038 5.70774 6.05156 5.70433 5.957 5.60974Z" fill="#53536E"/>
<path fill-rule="evenodd" clip-rule="evenodd" d="M12.25 9.375H11.75V11.375H12.25C12.5261 11.375 12.75 11.1511 12.75 10.875V9.875C12.75 9.59886 12.5261 9.375 12.25 9.375Z" fill="#53536E"/>
<path d="M3.75 4.625C3.75 6.41993 5.20507 7.875 7 7.875C8.79493 7.875 10.25 6.41993 10.25 4.625C10.25 2.83007 8.79493 1.375 7 1.375C5.20593 1.37707 3.75207 2.83093 3.75 4.625ZM9.30275 3.206C9.4372 3.35262 9.50788 3.54666 9.49926 3.7454C9.49063 3.94415 9.4034 4.13133 9.25675 4.26575L6.625 6.678C6.32896 6.9492 5.87186 6.93917 5.588 6.65525L4.857 5.925C4.58949 5.66443 4.54735 5.24954 4.757 4.9405C4.88508 4.76084 5.08577 4.64669 5.30565 4.62843C5.52553 4.61018 5.7423 4.68967 5.89825 4.84575L6.1405 5.08825L8.2425 3.161C8.38902 3.02627 8.58309 2.95532 8.78195 2.96376C8.98082 2.9722 9.16817 3.05934 9.30275 3.206Z" fill="#53536E"/>
<path d="M13.25 8.125H8.33525C7.47629 8.45834 6.52371 8.45834 5.66475 8.125H0.75C0.335786 8.125 0 8.46079 0 8.875V11.875C0 12.2892 0.335786 12.625 0.75 12.625H13.25C13.6642 12.625 14 12.2892 14 11.875V8.875C14 8.46079 13.6642 8.125 13.25 8.125ZM1.875 10.625H1.5V11.625C1.5 11.7631 1.38807 11.875 1.25 11.875C1.11193 11.875 1 11.7631 1 11.625V9.125C1 8.98693 1.11193 8.875 1.25 8.875H1.875C2.35825 8.875 2.75 9.26675 2.75 9.75C2.75 10.2332 2.35825 10.625 1.875 10.625ZM5.093 11.8573C5.03141 11.8819 4.96255 11.881 4.90159 11.8548C4.84064 11.8287 4.79258 11.7794 4.768 11.7178L4.53075 11.125H3.46925L3.23225 11.7178C3.19911 11.8007 3.12423 11.8597 3.0358 11.8725C2.94737 11.8853 2.85884 11.8499 2.80355 11.7798C2.74826 11.7096 2.73461 11.6152 2.76775 11.5323L3.76775 9.03225C3.80563 8.93716 3.89765 8.87477 4 8.87477C4.10236 8.87477 4.19437 8.93716 4.23225 9.03225L5.23225 11.5323C5.25689 11.5938 5.25606 11.6626 5.22994 11.7236C5.20383 11.7845 5.15457 11.8326 5.093 11.8573ZM6 11.625C6 11.7631 5.88807 11.875 5.75 11.875C5.61193 11.875 5.5 11.7631 5.5 11.625V9.125C5.5 8.98693 5.61193 8.875 5.75 8.875C5.88807 8.875 6 8.98693 6 9.125V11.625ZM8.343 11.8573C8.28141 11.8819 8.21255 11.881 8.1516 11.8548C8.09064 11.8287 8.04258 11.7794 8.018 11.7178L7.58075 10.625H7.25V11.625C7.25 11.7631 7.13807 11.875 7 11.875C6.86193 11.875 6.75 11.7631 6.75 11.625V9.125C6.75 8.98693 6.86193 8.875 7 8.875H7.625C8.01925 8.87379 8.36532 9.13712 8.46929 9.51741C8.57325 9.8977 8.40928 10.3005 8.06925 10.5L8.48225 11.5325C8.53339 11.6606 8.47107 11.806 8.343 11.8573ZM10.5 10.125C10.6381 10.125 10.75 10.2369 10.75 10.375C10.75 10.5131 10.6381 10.625 10.5 10.625H9.5V11.375H10.5C10.6381 11.375 10.75 11.4869 10.75 11.625C10.75 11.7631 10.6381 11.875 10.5 11.875H9.25C9.11193 11.875 9 11.7631 9 11.625V9.125C9 8.98693 9.11193 8.875 9.25 8.875H10.5C10.6381 8.875 10.75 8.98693 10.75 9.125C10.75 9.26307 10.6381 9.375 10.5 9.375H9.5V10.125H10.5ZM13.25 10.875C13.25 11.4273 12.8023 11.875 12.25 11.875H11.5C11.3619 11.875 11.25 11.7631 11.25 11.625V9.125C11.25 8.98693 11.3619 8.875 11.5 8.875H12.25C12.8023 8.875 13.25 9.32272 13.25 9.875V10.875Z" fill="#53536E"/>
<path fill-rule="evenodd" clip-rule="evenodd" d="M1.875 9.375H1.5V10.125H1.875C2.08211 10.125 2.25 9.95711 2.25 9.75C2.25 9.54289 2.08211 9.375 1.875 9.375Z" fill="#53536E"/>
<path fill-rule="evenodd" clip-rule="evenodd" d="M7.625 9.375H7.25V10.125H7.625C7.83211 10.125 8 9.95711 8 9.75C8 9.54289 7.83211 9.375 7.625 9.375Z" fill="#53536E"/>
</g>
<defs>
<clipPath id="clip0_263_281">
<rect width="14" height="14" fill="white"/>
</clipPath>
</defs>
</svg>
