<svg width="14" height="14" viewBox="0 0 14 14" fill="none" xmlns="http://www.w3.org/2000/svg">
<g clip-path="url(#clip0_263_295)">
<path d="M9.05078 10.5287C9.05078 11.0707 8.60921 11.5117 8.06641 11.5117H5.93359C5.39079 11.5117 4.94922 11.0707 4.94922 10.5287V6.86327C4.94922 6.65729 5.01252 6.45995 5.1322 6.29244L2.69434 3.85458C2.03052 4.76289 1.66797 5.86842 1.66797 6.99999C1.66797 9.94007 4.05992 12.332 7 12.332C8.13157 12.332 9.2371 11.9695 10.1454 11.3056L9.05078 10.211V10.5287Z" fill="#53536E"/>
<path d="M8.42267 6.61011L7.50255 5.32468C7.38254 5.15703 7.31913 4.95942 7.31913 4.75316V4.12891H6.68092V4.75316C6.68092 4.95939 6.61749 5.15703 6.4975 5.32468L6.49228 5.33198L8.50396 7.34366V6.86328C8.5039 6.7719 8.47582 6.68434 8.42267 6.61011Z" fill="#53536E"/>
<path d="M5.49609 6.86327V10.5287C5.49609 10.7692 5.69237 10.9648 5.93359 10.9648H8.06641C8.30763 10.9648 8.50391 10.7692 8.50391 10.5287V9.66415L5.53129 6.69153C5.5081 6.74537 5.49609 6.8035 5.49609 6.86327Z" fill="#53536E"/>
<path d="M7 0.0273438C3.13789 0.0273438 0.0273438 3.15481 0.0273438 7C0.0273438 10.8536 3.14587 13.9727 7 13.9727C8.86244 13.9727 10.6134 13.2474 11.9304 11.9304C13.2474 10.6134 13.9727 8.86244 13.9727 7C13.9727 3.14639 10.8541 0.0273438 7 0.0273438ZM10.7317 11.5427C5.27516 16.0324 -2.037 8.73045 2.45733 3.26829C2.55924 3.1445 2.74684 3.1337 2.86182 3.24868C3.20939 3.59625 10.4465 10.8333 10.7513 11.1382C10.8655 11.2524 10.8563 11.4402 10.7317 11.5427ZM11.5427 10.7317C11.4399 10.8566 11.2521 10.8652 11.1382 10.7513C10.5959 10.2091 3.58944 3.20258 3.24868 2.86182C3.1345 2.74761 3.14374 2.55984 3.26829 2.45733C4.31553 1.59564 5.6408 1.12109 7 1.12109C10.2491 1.12109 12.8789 3.75039 12.8789 7C12.8789 8.3592 12.4044 9.68447 11.5427 10.7317Z" fill="#53536E"/>
<path d="M6.68097 3.03516H7.31898V3.58203H6.68097V3.03516Z" fill="#53536E"/>
<path d="M6.99999 1.66797C5.86842 1.66797 4.76289 2.03052 3.85458 2.69434L6.09437 4.93412C6.12026 4.87771 6.13401 4.81644 6.13401 4.75316C6.13404 4.51259 6.1341 2.88053 6.1341 2.76172C6.1341 2.6107 6.25651 2.48828 6.40753 2.48828H7.59242C7.74344 2.48828 7.86586 2.6107 7.86586 2.76172V3.85361C7.86586 3.85424 7.86594 3.85484 7.86594 3.85547V4.75316C7.86594 4.84455 7.89402 4.9321 7.94718 5.00634L8.86729 6.29177C8.98733 6.45939 9.05077 6.65703 9.05077 6.86328V7.89053L11.3056 10.1454C11.9695 9.2371 12.332 8.13157 12.332 7C12.332 4.05992 9.94007 1.66797 6.99999 1.66797Z" fill="#53536E"/>
</g>
<defs>
<clipPath id="clip0_263_295">
<rect width="14" height="14" fill="white"/>
</clipPath>
</defs>
</svg>
