<svg width="14" height="14" viewBox="0 0 14 14" fill="none" xmlns="http://www.w3.org/2000/svg">
<g clip-path="url(#clip0_264_342)">
<path d="M3.55469 11.5106C3.7812 11.5106 3.96484 11.327 3.96484 11.1005C3.96484 10.8739 3.7812 10.6903 3.55469 10.6903H3.14453V7.6825H2.32422V10.6903H1.91406C1.68755 10.6903 1.50391 10.8739 1.50391 11.1005C1.50391 11.327 1.68755 11.5106 1.91406 11.5106H2.32422V12.0575H1.91406C1.68755 12.0575 1.50391 12.2411 1.50391 12.4677C1.50391 12.6942 1.68755 12.8778 1.91406 12.8778H2.32422V13.3164C2.32422 13.5429 2.50786 13.7266 2.73438 13.7266C2.96089 13.7266 3.14453 13.5429 3.14453 13.3164V12.8778H3.55469C3.7812 12.8778 3.96484 12.6942 3.96484 12.4677C3.96484 12.2411 3.7812 12.0575 3.55469 12.0575H3.14453V11.5106H3.55469Z" fill="#53536E"/>
<path d="M0.428467 5.22156H5.03644L3.13905 3.421V2.46094H4.92785C5.20936 2.46094 5.40645 2.18384 5.31614 1.91871L5.0818 1.23047L5.31614 0.542227C5.40653 0.276855 5.20911 0 4.92785 0H2.72887C2.50246 0 2.31871 0.18375 2.31871 0.410156V2.46094L2.31874 3.41201L0.428467 5.22156Z" fill="#53536E"/>
<path d="M8.95972 5.22156H13.5677L11.6649 3.41592V2.46094H13.4537C13.7352 2.46094 13.9323 2.18384 13.842 1.91871L13.6077 1.23047L13.842 0.542227C13.9324 0.276855 13.735 0 13.4537 0H11.2548C11.0284 0 10.8446 0.18375 10.8446 0.410156V2.46094H10.8446V3.41712L8.95972 5.22156Z" fill="#53536E"/>
<path d="M10.8555 7.6825H11.6758V10.1434H10.8555V7.6825Z" fill="#53536E"/>
<path d="M8.53125 6.04187V7.60921C7.57999 7.60921 6.41955 7.60921 5.46875 7.60921V6.04187H0V13.5898C0 13.8164 0.183641 14 0.410156 14C0.636672 14 0.820312 13.8164 0.820312 13.5898V10.1434H1.50391V7.27234C1.50391 7.04593 1.68766 6.86218 1.91406 6.86218H3.55469C3.78109 6.86218 3.96484 7.04593 3.96484 7.27234V10.1434H4.64841V13.5898C4.64841 13.8162 4.83216 14 5.05857 14C5.28497 14 5.46872 13.8162 5.46872 13.5898V10.1434H5.46875H8.53122V13.5898C8.53122 13.8162 8.71497 14 8.94138 14C9.16778 14 9.35153 13.8162 9.35153 13.5898V10.1434H10.0352V7.27234C10.0352 7.04593 10.2189 6.86218 10.4453 6.86218H12.0859C12.3123 6.86218 12.4961 7.04593 12.4961 7.27234V10.1434H13.1797V13.5898C13.1797 13.8164 13.3633 14 13.5898 14C13.8164 14 14 13.8164 14 13.5898C14 13.0769 14 6.34424 14 6.04187H8.53125ZM5.46875 8.42953H6.59255V9.32312H5.46875V8.42953ZM7.41286 9.32312V8.42953H8.53125V9.32312H7.41286Z" fill="#53536E"/>
</g>
<defs>
<clipPath id="clip0_264_342">
<rect width="14" height="14" fill="white"/>
</clipPath>
</defs>
</svg>
