<svg width="14" height="14" viewBox="0 0 14 14" fill="none" xmlns="http://www.w3.org/2000/svg">
<g clip-path="url(#clip0_264_411)">
<path d="M2.9169 0C1.95074 0 1.16696 0.783267 1.16696 1.74994C1.16696 2.71609 1.95074 3.49987 2.9169 3.49987C3.88305 3.49987 4.66683 2.71609 4.66683 1.74994C4.66683 0.783267 3.88302 0 2.9169 0Z" fill="#53536E"/>
<path d="M4.66683 4.66655H1.16696L0.000274658 11.6663H1.16696V13.9995H2.33347V11.6663H3.50015V13.9995H4.66683V11.6663H5.83334L4.66683 4.66655Z" fill="#53536E"/>
<path d="M7.00003 9.33293V9.91636C7.00003 11.2041 8.04473 12.2495 9.33322 12.2495H11.6666C12.9544 12.2495 13.9998 11.2054 13.9998 9.91636V9.33293H7.00003Z" fill="#53536E"/>
<path d="M9.91663 4.37485V8.45797H13.9998C13.9998 6.20387 12.1725 4.37485 9.91663 4.37485Z" fill="#53536E"/>
<path d="M12.2498 14C12.5719 14 12.8331 13.7389 12.8331 13.4168C12.8331 13.0946 12.5719 12.8335 12.2498 12.8335C11.9277 12.8335 11.6666 13.0946 11.6666 13.4168C11.6666 13.7389 11.9277 14 12.2498 14Z" fill="#53536E"/>
<path d="M8.74994 14C9.07206 14 9.3332 13.7389 9.3332 13.4168C9.3332 13.0946 9.07206 12.8335 8.74994 12.8335C8.42782 12.8335 8.16669 13.0946 8.16669 13.4168C8.16669 13.7389 8.42782 14 8.74994 14Z" fill="#53536E"/>
</g>
<defs>
<clipPath id="clip0_264_411">
<rect width="14" height="14" fill="white"/>
</clipPath>
</defs>
</svg>
