<svg width="14" height="14" viewBox="0 0 14 14" fill="none" xmlns="http://www.w3.org/2000/svg">
<g clip-path="url(#clip0_264_764)">
<path d="M5.00044 7.41633L6.01505 6.88237L5.00044 6.34837L5.61212 5.3786L4.46645 5.42345L4.51129 4.27778L3.54152 4.88945L3.00753 3.87484L2.47353 4.88945L1.50376 4.27778L1.54861 5.42345L0.402936 5.3786L1.01461 6.34837L0 6.88237L1.01461 7.41636L0.402936 8.38613L1.54861 8.34129L1.50376 9.48693L2.47353 8.87525L3.00753 9.88989L3.54152 8.87528L4.51129 9.48693L4.46645 8.34126L5.61212 8.3861L5.00044 7.41633ZM3.00753 8.38613C2.17702 8.38613 1.50376 7.71285 1.50376 6.88237C1.50376 6.05189 2.17702 5.3786 3.00753 5.3786C3.83804 5.3786 4.51129 6.05189 4.51129 6.88237C4.51129 7.71285 3.83804 8.38613 3.00753 8.38613Z" fill="#53536E"/>
<path d="M12.5961 12.8353C12.3192 13.0301 12.119 13.1708 11.6655 13.1708C11.2119 13.1708 11.0117 13.0301 10.7347 12.8353C10.4276 12.6194 10.0453 12.3506 9.33225 12.3506C8.61921 12.3506 8.23694 12.6194 7.92979 12.8353C7.6528 13.0301 7.45267 13.1708 6.99915 13.1708C6.54563 13.1708 6.3455 13.0301 6.06851 12.8353C5.76136 12.6194 5.3791 12.3506 4.66611 12.3506C3.95307 12.3506 3.57083 12.6194 3.26368 12.8353C2.98669 13.0301 2.78656 13.1708 2.33304 13.1708C1.87952 13.1708 1.67942 13.0301 1.40243 12.8353C1.09528 12.6194 0.71304 12.3506 0 12.3506V13.1708C0.453494 13.1708 0.65365 13.3115 0.930641 13.5063C1.23779 13.7222 1.62006 13.991 2.33304 13.991C3.04608 13.991 3.42832 13.7222 3.73547 13.5063C4.01246 13.3115 4.21259 13.1708 4.66611 13.1708C5.11963 13.1708 5.31973 13.3115 5.59672 13.5063C5.90387 13.7222 6.28614 13.991 6.99912 13.991C7.71211 13.991 8.0944 13.7223 8.40155 13.5063C8.67854 13.3115 8.87867 13.1708 9.33222 13.1708C9.78577 13.1708 9.98593 13.3115 10.2629 13.5063C10.5701 13.7223 10.9524 13.991 11.6654 13.991C12.3785 13.991 12.7607 13.7223 13.0679 13.5063C13.3449 13.3116 13.5451 13.1708 13.9986 13.1708V12.3506C13.2856 12.3506 12.9033 12.6193 12.5961 12.8353Z" fill="#53536E"/>
<path d="M13.5749 2.99574C13.1239 2.02852 12.363 1.26836 11.4083 0.820802L11.6017 0.289542L10.8308 0.00894165L10.6374 0.540475C8.40874 -0.0493823 6.05054 1.15174 5.24705 3.35933L5.08148 3.81425L5.55742 3.90279C6.32657 4.04588 7.0619 4.31351 7.743 4.69829L7.83876 4.75238L7.94871 4.75131C7.96254 4.75118 7.97638 4.75112 7.99019 4.75112C8.35222 4.75112 8.70995 4.79741 9.0555 4.88666L7.14434 10.1375C7.096 10.1369 7.04771 10.136 6.99931 10.136C5.73207 10.136 4.48752 10.3435 3.30023 10.7528C2.55225 11.0106 1.83631 11.3456 1.16016 11.7523C1.47256 11.8823 1.70274 12.0439 1.8741 12.1644C2.11393 12.333 2.139 12.3506 2.33301 12.3506C2.52704 12.3506 2.55208 12.333 2.79183 12.1644C3.1292 11.9272 3.69363 11.5304 4.66608 11.5304C5.63853 11.5304 6.20295 11.9273 6.54018 12.1644C6.78001 12.333 6.80509 12.3506 6.99909 12.3506C7.19312 12.3506 7.21817 12.333 7.45789 12.1644C7.79528 11.9272 8.35971 11.5304 9.33219 11.5304C10.3048 11.5304 10.8692 11.9273 11.2065 12.1644C11.4463 12.333 11.4713 12.3506 11.6654 12.3506C11.8594 12.3506 11.8845 12.333 12.1242 12.1644C12.2957 12.0439 12.5259 11.8822 12.8384 11.7522C12.1622 11.3455 11.4463 11.0105 10.6983 10.7527C9.82579 10.4519 8.92231 10.2606 8.00167 10.1801L9.82626 5.16713C10.1606 5.32676 10.4753 5.53042 10.7611 5.775L10.8447 5.84651L10.9528 5.86661C11.7219 6.0097 12.4573 6.27733 13.1384 6.66211L13.5599 6.90022L13.7255 6.44528C14.1376 5.31292 14.0842 4.08785 13.5749 2.99574Z" fill="#53536E"/>
</g>
<defs>
<clipPath id="clip0_264_764">
<rect width="14" height="14" fill="white"/>
</clipPath>
</defs>
</svg>
