<svg width="14" height="14" viewBox="0 0 14 14" fill="none" xmlns="http://www.w3.org/2000/svg">
<path d="M13.0803 11.1266V8.99482H7.12251L6.42285 11.1266H10.7456L11.3662 12.1787H6.07757L6.42285 11.1266H5.67496L5.32968 12.1787H3.79977L4.45587 11.1266H5.67496L6.37462 8.99482H4.99455L2.54313 6.5434L1.0357 8.05083L3.8078 10.8229L2.96229 12.1787H1V12.8893H13.0803V12.1787H12.1912L11.5706 11.1266H13.0803Z" fill="#53536E"/>
<path d="M10.0364 6.9497C10.054 6.95545 11.3843 7.39181 11.3877 7.39292C11.9462 7.5761 12.5496 7.27079 12.7328 6.71231L12.8435 6.37472L10.8178 5.71033C10.7337 5.89153 10.6725 6.50621 10.0364 6.9497Z" fill="#53536E"/>
<path d="M11.026 5.03074L13.03 5.68802C13.1983 4.51766 11.976 3.22402 10.8781 2.59189C11.1969 3.35044 11.224 4.21851 11.026 5.03074Z" fill="#53536E"/>
<path d="M6.32883 3.49008L10.3481 4.80835C10.5998 3.7666 10.3552 2.47323 9.43922 1.93322L9.67266 1.22147L8.99744 1L8.764 1.71174C7.70563 1.60477 6.74351 2.50123 6.32883 3.49008Z" fill="#53536E"/>
<path d="M7.2145 1.39027C5.95634 1.24907 4.20356 1.56809 3.64685 2.61043L5.65086 3.26772C5.97243 2.49607 6.50832 1.81268 7.2145 1.39027Z" fill="#53536E"/>
<path d="M3.96037 4.95682C3.96279 4.9576 5.30929 5.39925 5.31171 5.40003C5.06044 4.66185 5.37825 4.12593 5.41612 3.93859L3.39047 3.2742L3.27973 3.61181C3.09658 4.17027 3.40191 4.77365 3.96037 4.95682Z" fill="#53536E"/>
<path d="M8.01166 6.2856L8.68687 6.50707C9.24536 6.69024 9.84872 6.38492 10.0319 5.82645L10.1426 5.48884L6.09131 4.16003L5.98058 4.49764C5.79741 5.05611 6.10273 5.65948 6.6612 5.84266L7.33641 6.06413L6.37459 8.99481H7.12248L8.01166 6.2856Z" fill="#53536E"/>
</svg>
