<svg width="14" height="14" viewBox="0 0 14 14" fill="none" xmlns="http://www.w3.org/2000/svg">
<g clip-path="url(#clip0_264_809)">
<path d="M13.4615 10.5831C13.4615 10.2855 13.2207 10.0446 12.9231 10.0446H8.21863L6.35662 4.99873L10.0011 3.6692C10.1627 3.61005 10.2811 3.48082 10.335 3.32465C10.3834 3.16308 10.3564 2.98541 10.2542 2.8508C8.91879 0.987677 6.45798 0.244663 4.25576 1.04158C2.06418 1.84388 0.658738 3.99772 0.836473 6.28619C0.852642 6.45307 0.944139 6.60386 1.08414 6.69542C1.21156 6.78293 1.39293 6.80912 1.55806 6.74925L5.34438 5.36794L7.07019 10.0446H6.59983L5.19004 8.7069C4.97445 8.50234 4.63318 8.51128 4.42863 8.72688C4.22407 8.943 4.23301 9.28375 4.44861 9.4883L5.72877 10.7027L5.00285 12.1985H1.07691C0.779288 12.1985 0.538452 12.4393 0.538452 12.7369C0.538452 13.0346 0.779288 13.2754 1.07691 13.2754H12.9231C13.2207 13.2754 13.4615 13.0346 13.4615 12.7369C13.4615 12.4393 13.2207 12.1985 12.9231 12.1985H12.6733L12.1506 11.1216H12.9231C13.2207 11.1216 13.4615 10.8807 13.4615 10.5831ZM6.19966 12.1985L6.72235 11.1216H7.4676L7.865 12.1985H6.19966ZM9.01344 12.1985L8.61603 11.1216H10.9538L11.4765 12.1985H9.01344Z" fill="#53536E"/>
</g>
<defs>
<clipPath id="clip0_264_809">
<rect width="14" height="14" fill="white"/>
</clipPath>
</defs>
</svg>
