<svg width="14" height="14" viewBox="0 0 14 14" fill="none" xmlns="http://www.w3.org/2000/svg">
<g clip-path="url(#clip0_262_65)">
<path d="M7.82031 4.53906C7.82031 4.31273 7.63649 4.12891 7.41016 4.12891H6.58984V4.94922H7.41016C7.63649 4.94922 7.82031 4.7654 7.82031 4.53906Z" fill="#53536E"/>
<path d="M7 8.23047C8.58295 8.23047 9.87109 6.94232 9.87109 5.35938C9.87109 3.77643 8.58295 2.48828 7 2.48828C5.41705 2.48828 4.12891 3.77643 4.12891 5.35938C4.12891 6.94232 5.41705 8.23047 7 8.23047ZM5.76953 3.30859H7.41016C8.08862 3.30859 8.64062 3.8606 8.64062 4.53906C8.64062 5.21753 8.08862 5.76953 7.41016 5.76953H6.58984V7.41016H5.76953V3.30859Z" fill="#53536E"/>
<path d="M7 14L11.263 8.56212L11.2678 8.55614C11.964 7.62848 12.332 6.52298 12.332 5.35938C12.332 2.41939 9.93999 0 7 0C4.06001 0 1.66797 2.41939 1.66797 5.35938C1.66797 6.52298 2.03604 7.62848 2.73705 8.56212L7 14ZM7 1.66797C9.03551 1.66797 10.6914 3.32387 10.6914 5.35938C10.6914 7.39488 9.03551 9.05078 7 9.05078C4.96449 9.05078 3.30859 7.39488 3.30859 5.35938C3.30859 3.32387 4.96449 1.66797 7 1.66797Z" fill="#53536E"/>
</g>
<defs>
<clipPath id="clip0_262_65">
<rect width="14" height="14" fill="white"/>
</clipPath>
</defs>
</svg>
