<svg width="14" height="14" viewBox="0 0 14 14" fill="none" xmlns="http://www.w3.org/2000/svg">
<g clip-path="url(#clip0_264_828)">
<path d="M12.0823 9.30822C12.0059 9.27648 11.9279 9.24563 11.8487 9.2155C11.5802 9.39408 11.2664 9.55921 10.909 9.70782C9.69393 10.2131 8.0873 10.4913 6.38507 10.4913C4.68284 10.4913 3.0762 10.2131 1.86113 9.70782C1.71798 9.6483 1.58222 9.58601 1.4531 9.52142C0.52325 9.99193 0 10.5571 0 11.1082C0 11.7453 0.698961 12.4014 1.9177 12.9081C3.26856 13.4698 5.07347 13.7791 7 13.7791C8.92653 13.7791 10.7314 13.4698 12.0823 12.9081C13.301 12.4014 14 11.7453 14 11.1082C14 10.471 13.301 9.81496 12.0823 9.30822Z" fill="#53536E"/>
<path d="M2.17606 8.95038C3.29365 9.41505 4.78842 9.67099 6.38505 9.67099C7.98171 9.67099 9.47648 9.41508 10.5941 8.95038C11.5684 8.54528 12.15 8.00814 12.15 7.51354C12.15 7.13251 11.8046 6.72629 11.2006 6.37459C10.1791 6.71292 8.9284 6.89667 7.61497 6.89667C6.07768 6.89667 4.62611 6.64513 3.52766 6.18841C3.2709 6.08166 3.03886 5.96537 2.83214 5.84098C2.60177 5.91227 2.38245 5.99091 2.17606 6.07671C1.20177 6.48181 0.620087 7.01895 0.620087 7.51357C0.620087 8.00811 1.20177 8.54525 2.17606 8.95038Z" fill="#53536E"/>
<path d="M3.84258 5.43093C4.84353 5.84713 6.18323 6.07632 7.61493 6.07632C9.04662 6.07632 10.3863 5.84713 11.3873 5.43093C12.2483 5.07292 12.7624 4.60364 12.7624 4.17563C12.7624 3.74762 12.2483 3.27838 11.3873 2.92034C11.2116 2.8473 11.0254 2.78017 10.8302 2.71889C10.5901 2.9205 10.2805 3.10212 9.9065 3.25765C9.04131 3.61738 7.8999 3.81552 6.69248 3.81552C5.48507 3.81552 4.34366 3.61738 3.47847 3.25765C3.41974 3.23323 3.3627 3.20813 3.30714 3.18245C2.773 3.49149 2.46744 3.84581 2.46744 4.17566C2.46749 4.60362 2.98156 5.07289 3.84258 5.43093Z" fill="#53536E"/>
<path d="M3.79345 2.5002C4.56112 2.81939 5.5907 2.99521 6.69251 2.99521C7.7943 2.99521 8.82388 2.81941 9.59155 2.5002C10.2166 2.2403 10.6049 1.89845 10.6049 1.60803C10.6049 1.31761 10.2166 0.975735 9.59155 0.71586C8.8239 0.396649 7.79433 0.220856 6.69251 0.220856C5.5907 0.220856 4.56112 0.396649 3.79345 0.71586C3.16837 0.975762 2.78006 1.31761 2.78006 1.60803C2.78009 1.89845 3.1684 2.2403 3.79345 2.5002Z" fill="#53536E"/>
</g>
<defs>
<clipPath id="clip0_264_828">
<rect width="14" height="14" fill="white"/>
</clipPath>
</defs>
</svg>
