<svg width="14" height="14" viewBox="0 0 14 14" fill="none" xmlns="http://www.w3.org/2000/svg">
<g clip-path="url(#clip0_280_207)">
<path d="M1.97696 13.0261V13.5898C1.97696 13.8164 2.1606 14 2.38712 14H4.14439C4.3709 14 4.55454 13.8164 4.55454 13.5898V13.063H2.38712C2.24712 13.063 2.11021 13.0499 1.97696 13.0261Z" fill="#53536E"/>
<path d="M9.44543 13.063V13.5898C9.44543 13.8164 9.62908 14 9.85559 14H11.6129C11.8394 14 12.023 13.8164 12.023 13.5898V13.0261C11.8898 13.0499 11.7529 13.063 11.6129 13.063H9.44543V13.063Z" fill="#53536E"/>
<path d="M3.45621 2.57761V9.66511H10.5437V2.57761H3.45621ZM9.46456 8.00589C9.62471 8.16604 9.62471 8.42575 9.46456 8.58593C9.38447 8.66602 9.2795 8.70608 9.17455 8.70608C9.06961 8.70608 8.96461 8.66602 8.88454 8.58593L8.52948 8.2309C8.09959 8.54347 7.57098 8.72815 6.99998 8.72815C6.42899 8.72815 5.90041 8.54347 5.47051 8.2309L5.11545 8.58593C5.03536 8.66602 4.93039 8.70608 4.82545 8.70608C4.7205 8.70608 4.6155 8.66605 4.53544 8.58596C4.37526 8.42578 4.37526 8.16609 4.53541 8.00589L4.89044 7.65083C4.5779 7.2209 4.39322 6.69232 4.39322 6.12133C4.39322 5.55034 4.5779 5.02178 4.89044 4.59186L4.53541 4.2368C4.37526 4.07662 4.37526 3.81693 4.53544 3.65673C4.69562 3.49663 4.9553 3.4966 5.11548 3.65675L5.47048 4.01181C5.90041 3.69922 6.42899 3.51454 6.99998 3.51454C7.57098 3.51454 8.09959 3.69922 8.52948 4.01181L8.88454 3.65675C9.0447 3.4966 9.30441 3.4966 9.46459 3.65675C9.62477 3.81691 9.62474 4.07662 9.46459 4.2368L9.10953 4.59186C9.42212 5.02175 9.6068 5.55034 9.6068 6.12133C9.6068 6.69232 9.42212 7.22093 9.10953 7.65086L9.46456 8.00589Z" fill="#53536E"/>
<path d="M6.99998 4.33488C6.01495 4.33488 5.21356 5.1363 5.21356 6.12133C5.21356 7.10639 6.01495 7.90781 6.99998 7.90781C7.98504 7.90781 8.78646 7.10639 8.78646 6.12133C8.78646 5.1363 7.98504 4.33488 6.99998 4.33488Z" fill="#53536E"/>
<path d="M11.6129 0H2.38711C1.55534 0 0.878662 0.676703 0.878662 1.50847V3.95391H2.63594V2.16746C2.63594 1.94094 2.81958 1.7573 3.04609 1.7573H10.9539C11.1804 1.7573 11.364 1.94094 11.364 2.16746V10.0753C11.364 10.3018 11.1804 10.4854 10.9539 10.4854H3.04606C2.81955 10.4854 2.63591 10.3018 2.63591 10.0753V8.28882H0.878662V10.7343C0.878662 11.566 1.55534 12.2427 2.38711 12.2427H11.6129C12.4446 12.2427 13.1213 11.566 13.1213 10.7343V1.50847C13.1213 0.676703 12.4446 0 11.6129 0Z" fill="#53536E"/>
<path d="M0.878662 4.77422H2.63594V7.4685H0.878662V4.77422Z" fill="#53536E"/>
</g>
<defs>
<clipPath id="clip0_280_207">
<rect width="14" height="14" fill="white"/>
</clipPath>
</defs>
</svg>
