<svg width="14" height="14" viewBox="0 0 14 14" fill="none" xmlns="http://www.w3.org/2000/svg">
<path d="M8.77187 7.3303C8.29326 6.87705 7.65916 6.62445 7 6.62445C6.34083 6.62445 5.70673 6.87705 5.22812 7.3303L3.09094 9.35155C1.86594 10.465 2.74969 12.5934 4.40344 12.5103C5.30031 12.4862 6.02875 12.0269 6.99781 12.0444C8.00187 12.0269 8.74781 12.4315 9.64906 12.5103C11.2744 12.5475 12.1144 10.4431 10.9069 9.35155L8.77187 7.3303Z" fill="#53536E"/>
<path d="M12.4512 4.35968C11.6156 4.19561 10.9769 5.1253 10.8106 5.92593C10.3119 8.40436 12.7137 8.87686 13.2759 6.4728C13.5056 5.44249 13.1425 4.5128 12.4512 4.35968Z" fill="#53536E"/>
<path d="M8.90969 5.69842C9.74094 5.69842 10.4169 4.75342 10.4169 3.59405C10.3337 0.802798 7.48562 0.802798 7.40469 3.59405C7.40469 4.75342 8.08062 5.69842 8.90969 5.69842Z" fill="#53536E"/>
<path d="M3.18937 5.92593C3.02531 5.1253 2.38437 4.19561 1.54875 4.35968C-3.03984e-06 4.75124 0.656247 8.05218 2.17 8.06093C3.0275 8.03249 3.42343 7.03718 3.18937 5.92593Z" fill="#53536E"/>
<path d="M5.09031 5.69842C5.91937 5.69842 6.59531 4.75342 6.59531 3.59405C6.51437 0.802798 3.66625 0.802798 3.58312 3.59405C3.58312 4.75342 4.25906 5.69842 5.09031 5.69842Z" fill="#53536E"/>
</svg>
