<svg width="14" height="14" viewBox="0 0 14 14" fill="none" xmlns="http://www.w3.org/2000/svg">
<path d="M7.07693 3.34226C9.4359 3.36541 10.9137 3.21863 11.1133 5.8333H13.9899C13.9899 1.78277 10.4573 1.2368 7.00204 1.2368C3.5465 1.2368 0.0141602 1.78277 0.0141602 5.8333H2.86846C3.0893 3.1688 4.73756 3.31939 7.07693 3.34226Z" fill="#53536E"/>
<path d="M1.44076 7.13546C2.1414 7.13546 2.72441 7.1774 2.85403 6.48819C2.87145 6.39452 2.88153 6.28832 2.88153 6.16551H2.84831H0C0 7.19074 0.64509 7.13546 1.44076 7.13546Z" fill="#53536E"/>
<path d="M11.1318 6.16551H11.1049C11.1049 6.28914 11.1155 6.39561 11.1354 6.48819C11.2721 7.12375 11.8542 7.08427 12.5524 7.08427C13.3519 7.08427 14 7.13682 14 6.16551H11.1318Z" fill="#53536E"/>
<path d="M9.72645 5.46732V5.05996C9.72645 4.87779 9.5165 4.86635 9.25727 4.86635H8.83384C8.57488 4.86635 8.36493 4.87779 8.36493 5.05996V5.41096V5.68326H5.36958V5.41096V5.05996C5.36958 4.87779 5.15963 4.86635 4.90067 4.86635H4.47696C4.218 4.86635 4.00805 4.87779 4.00805 5.05996V5.46732V5.82295C3.32566 6.53204 1.09276 9.55053 1.01161 9.91597L1.0127 12.3545C1.0127 12.5797 1.19596 12.7629 1.42116 12.7629H12.3133C12.5385 12.7629 12.7218 12.5797 12.7218 12.3545V9.90371C12.6415 9.5489 10.4091 6.53176 9.72645 5.82268V5.46732ZM5.22199 10.2441C5.00278 10.2441 4.82497 10.0666 4.82497 9.84707C4.82497 9.6276 5.00278 9.45005 5.22199 9.45005C5.44119 9.45005 5.61901 9.6276 5.61901 9.84707C5.61901 10.0666 5.44119 10.2441 5.22199 10.2441ZM5.22199 8.88257C5.00278 8.88257 4.82497 8.70503 4.82497 8.48555C4.82497 8.26607 5.00278 8.08853 5.22199 8.08853C5.44119 8.08853 5.61901 8.26607 5.61901 8.48555C5.61901 8.70503 5.44119 8.88257 5.22199 8.88257ZM5.22199 7.52132C5.00278 7.52132 4.82497 7.34378 4.82497 7.1243C4.82497 6.90509 5.00278 6.72728 5.22199 6.72728C5.44119 6.72728 5.61901 6.90509 5.61901 7.1243C5.61901 7.34378 5.44119 7.52132 5.22199 7.52132ZM6.85582 10.2441C6.63661 10.2441 6.45879 10.0666 6.45879 9.84707C6.45879 9.6276 6.63661 9.45005 6.85582 9.45005C7.07529 9.45005 7.25284 9.6276 7.25284 9.84707C7.25284 10.0666 7.07529 10.2441 6.85582 10.2441ZM6.85582 8.88257C6.63661 8.88257 6.45879 8.70503 6.45879 8.48555C6.45879 8.26607 6.63661 8.08853 6.85582 8.08853C7.07529 8.08853 7.25284 8.26607 7.25284 8.48555C7.25284 8.70503 7.07529 8.88257 6.85582 8.88257ZM6.85582 7.52132C6.63661 7.52132 6.45879 7.34378 6.45879 7.1243C6.45879 6.90509 6.63661 6.72728 6.85582 6.72728C7.07529 6.72728 7.25284 6.90509 7.25284 7.1243C7.25284 7.34378 7.07529 7.52132 6.85582 7.52132ZM8.48964 10.2441C8.27017 10.2441 8.09262 10.0666 8.09262 9.84707C8.09262 9.6276 8.27017 9.45005 8.48964 9.45005C8.70912 9.45005 8.88666 9.6276 8.88666 9.84707C8.88666 10.0666 8.70912 10.2441 8.48964 10.2441ZM8.48964 8.88257C8.27017 8.88257 8.09262 8.70503 8.09262 8.48555C8.09262 8.26607 8.27017 8.08853 8.48964 8.08853C8.70912 8.08853 8.88666 8.26607 8.88666 8.48555C8.88666 8.70503 8.70912 8.88257 8.48964 8.88257ZM8.48964 7.52132C8.27017 7.52132 8.09262 7.34378 8.09262 7.1243C8.09262 6.90509 8.27017 6.72728 8.48964 6.72728C8.70912 6.72728 8.88666 6.90509 8.88666 7.1243C8.88666 7.34378 8.70912 7.52132 8.48964 7.52132Z" fill="#53536E"/>
</svg>
