<svg width="14" height="14" viewBox="0 0 14 14" fill="none" xmlns="http://www.w3.org/2000/svg">
<g clip-path="url(#clip0_264_336)">
<path d="M5.37117 6.6885C5.37117 6.35655 5.10101 6.0864 4.76903 6.0864H3.94079C3.60884 6.0864 3.33865 6.35655 3.33865 6.6885V9.35788H5.37117V6.6885Z" fill="#53536E"/>
<path d="M8.51636 2.69101L4.57136 0.23986C4.43875 0.157555 4.27086 0.157555 4.13851 0.23986L0.19322 2.69101C-0.154647 2.90743 -0.00280743 3.44955 0.409782 3.44955H8.30004C8.71012 3.44955 8.8666 2.90894 8.51636 2.69101Z" fill="#53536E"/>
<path d="M5.37117 10.1783H3.33865V9.35788H2.51834V13.409C2.51834 13.6354 2.70209 13.8191 2.9285 13.8191C3.15518 13.8191 3.33865 13.6354 3.33865 13.409V12.6393H5.37117V13.409C5.37117 13.6354 5.55465 13.8191 5.78133 13.8191C6.00773 13.8191 6.19148 13.6354 6.19148 13.409V9.35788H5.37114V10.1783H5.37117ZM3.33865 11.819V10.9986H5.37117V11.819H3.33865Z" fill="#53536E"/>
<path d="M13.5898 12.9987H13.0429C12.2122 12.9987 11.4152 12.2872 10.9938 11.582L10.1082 10.0998C10.0233 9.95778 9.92775 9.82388 9.82338 9.69845V8.84426C9.82338 7.69158 8.95117 6.73925 7.83216 6.61137V4.26987H0.877655C0.877655 5.05154 0.877737 12.9185 0.877737 13.4089C0.877737 13.6354 1.06138 13.819 1.28789 13.819C1.51441 13.819 1.69805 13.6354 1.69805 13.4089V9.35788H2.51831V6.6885C2.51831 5.90398 3.15654 5.26605 3.94076 5.26605H4.76903C5.55327 5.26605 6.19148 5.90398 6.19148 6.6885V9.35788C6.87789 9.35788 6.95013 9.35796 7.01168 9.35796V13.4089C7.01168 13.6354 7.19532 13.8191 7.42184 13.8191C7.64835 13.8191 7.83199 13.6354 7.83199 13.4089V9.40696C8.48078 9.54079 9.05839 9.94227 9.40398 10.5206C10.2992 12.0188 10.5864 12.6475 11.4226 13.2502C12.3178 13.8954 12.9827 13.819 13.5898 13.819C13.8163 13.819 13.9999 13.6354 13.9999 13.4089C14 13.1824 13.8164 12.9987 13.5898 12.9987ZM9.00307 8.84429V8.99651C8.64612 8.7826 8.24833 8.63765 7.83218 8.57424V7.44018C8.49721 7.56156 9.00307 8.14475 9.00307 8.84429Z" fill="#53536E"/>
</g>
<defs>
<clipPath id="clip0_264_336">
<rect width="14" height="14" fill="white"/>
</clipPath>
</defs>
</svg>
