<svg width="14" height="14" viewBox="0 0 14 14" fill="none" xmlns="http://www.w3.org/2000/svg">
<g clip-path="url(#clip0_264_837)">
<path d="M4.71679 10.7188L4.1015 11.5391H9.89843L9.2832 10.7188H4.71679Z" fill="#53536E"/>
<path d="M13.7456 6.44687C13.6359 6.40161 13.5289 6.34553 13.4276 6.27783C12.5416 5.68742 11.3977 5.68742 10.5116 6.27783C9.90202 6.68399 9.11537 6.68399 8.50574 6.27783C7.61975 5.68742 6.42111 5.68742 5.53509 6.27783C4.92546 6.68399 4.1388 6.68399 3.52918 6.27783C2.64318 5.68742 1.49923 5.68742 0.613211 6.27783C0.50266 6.35152 0.384891 6.41282 0.262336 6.46007C0.104152 6.52094 0 6.67316 0 6.84258V13.5898C0 13.8166 0.183449 14 0.410156 14H1.23058L2.46094 12.3596V10.3086C2.46094 10.0819 2.64439 9.89844 2.87109 9.89844C3.0978 9.89844 3.28125 10.0819 3.28125 10.3086V11.2658L4.10156 10.1722V8.66797C4.10156 8.44126 4.28501 8.25781 4.51172 8.25781C4.73843 8.25781 4.92188 8.44126 4.92188 8.66797V9.89844H9.07812V8.66797C9.07812 8.44126 9.26157 8.25781 9.48828 8.25781C9.71499 8.25781 9.89844 8.44126 9.89844 8.66797V10.1722L10.7188 11.2659V10.3086C10.7188 10.0819 10.9022 9.89844 11.1289 9.89844C11.3556 9.89844 11.5391 10.0819 11.5391 10.3086V12.3597L12.7693 14H13.5898C13.8166 14 14 13.8166 14 13.5898V6.82618C14 6.65993 13.8995 6.51014 13.7456 6.44687Z" fill="#53536E"/>
<path d="M2.25566 14H11.7442L10.5137 12.3594H3.48621L2.25566 14Z" fill="#53536E"/>
<path d="M13.1797 5.24437V0.410156C13.1797 0.183449 12.9962 0 12.7695 0C11.1489 0 9.74181 1.15358 9.4238 2.74293L9.15206 4.12891H4.84794L4.57622 2.74291C4.25819 1.15358 2.85108 0 1.23047 0C1.00376 0 0.820312 0.183449 0.820312 0.410156V5.26014C1.08473 5.15657 1.35838 5.08219 1.64062 5.04664V0.853152C2.69246 1.02257 3.55761 1.83288 3.77191 2.90393L4.01144 4.12891H2.87109C2.64439 4.12891 2.46094 4.31236 2.46094 4.53906C2.46094 4.7119 2.48817 4.87922 2.51125 5.04736C3.03516 5.11484 3.53809 5.2981 3.9842 5.5953C4.14802 5.70423 4.33748 5.76193 4.53214 5.76193C4.7268 5.76193 4.91627 5.70426 5.08009 5.5953C5.65007 5.21557 6.36645 5.0149 7.04777 5.0149C7.72909 5.0149 8.39079 5.21557 8.96077 5.5953C9.12458 5.70423 9.31405 5.76193 9.50871 5.76193C9.70337 5.76193 9.89283 5.70426 10.0566 5.5953C10.491 5.30592 10.979 5.1222 11.488 5.05042C11.5113 4.88132 11.5391 4.71305 11.5391 4.53906C11.5391 4.31236 11.3556 4.12891 11.1289 4.12891H9.98856L10.2281 2.90393C10.4424 1.83288 11.3076 1.02257 12.3594 0.853152V5.04364C12.6412 5.07574 12.9151 5.14464 13.1797 5.24437Z" fill="#53536E"/>
</g>
<defs>
<clipPath id="clip0_264_837">
<rect width="14" height="14" fill="white"/>
</clipPath>
</defs>
</svg>
