<svg width="14" height="14" viewBox="0 0 14 14" fill="none" xmlns="http://www.w3.org/2000/svg">
<path d="M10.5294 3.47053V2.05877C10.5294 1.47496 10.0544 0.999954 9.47056 0.999954C8.8867 0.999954 8.41174 1.47496 8.41174 2.05877V3.47053H9.11762V2.05877C9.11762 1.86416 9.27592 1.70583 9.47056 1.70583C9.66517 1.70583 9.8235 1.86416 9.8235 2.05877V3.47053H9.11762V7.00137C9.7267 7.01602 10.0858 7.14273 10.3522 7.23678C10.5644 7.31162 10.6812 7.35287 10.9999 7.35287C11.3186 7.35287 11.4354 7.31162 11.6475 7.23675C11.9307 7.13682 12.3185 6.99993 13 6.99993V3.47053H10.5294Z" fill="#53536E"/>
<path d="M5.58822 5.02347H8.41173V5.72935H5.58822V5.02347Z" fill="#53536E"/>
<path d="M5.58822 3.47052H8.41173V4.31758H5.58822V3.47052Z" fill="#53536E"/>
<path d="M5.58822 7.03887C5.92711 7.0868 6.16313 7.17 6.35231 7.23678C6.56438 7.31162 6.6812 7.35287 6.99983 7.35287C7.31847 7.35287 7.43531 7.31162 7.64743 7.23675C7.83661 7.16998 8.07268 7.08675 8.41173 7.03885V6.43523H5.58822V7.03887Z" fill="#53536E"/>
<path d="M4.52939 1C3.94556 1 3.47057 1.47501 3.47057 2.05882V3.47058H0.999993V6.99998C1.68145 6.99998 2.06924 7.13687 2.35239 7.23682C2.56446 7.31167 2.6813 7.35292 2.99994 7.35292C3.31857 7.35292 3.43542 7.31167 3.64751 7.2368C3.91391 7.14278 4.27309 7.01602 4.88233 7.00139V3.47058H4.17645V2.05882C4.17645 1.86421 4.33478 1.70588 4.52939 1.70588C4.724 1.70588 4.88233 1.86421 4.88233 2.05882V3.47058H5.58821V2.05882C5.58821 1.47501 5.11322 1 4.52939 1Z" fill="#53536E"/>
<path d="M10.9999 12.294C10.0446 12.2844 10.0359 11.9338 8.9998 11.9411C7.96293 11.9338 7.95587 12.2844 6.9998 12.294C6.04411 12.2844 6.03628 11.9338 4.99988 11.9411C3.96349 11.9338 3.95568 12.2844 2.99994 12.294C2.04375 12.2844 2.03677 11.9338 0.999993 11.9411V12.647C1.95507 12.6565 1.96394 13.0072 2.99994 12.9999C4.0369 13.0072 4.04377 12.6566 4.99988 12.6469C5.95546 12.6565 5.96348 13.0072 6.9998 12.9999C8.03634 13.0072 8.04397 12.6566 8.9998 12.6469C9.95591 12.6565 9.96313 13.0072 10.9999 12.9999C12.036 13.0072 12.0444 12.6566 12.9999 12.647V11.9411C11.9632 11.9338 11.9558 12.2844 10.9999 12.294Z" fill="#53536E"/>
<path d="M10.9999 10.8823C10.0446 10.8727 10.0359 10.522 8.9998 10.5294C7.96293 10.5221 7.95587 10.8727 6.9998 10.8823C6.04411 10.8727 6.03628 10.522 4.99988 10.5294C3.96349 10.5221 3.95568 10.8727 2.99994 10.8823C2.04375 10.8727 2.03677 10.522 0.999993 10.5293V11.2352C1.95507 11.2448 1.96394 11.5955 2.99994 11.5881C4.0369 11.5954 4.04377 11.2448 4.99988 11.2352C5.95546 11.2448 5.96348 11.5954 6.9998 11.5881C8.03634 11.5954 8.04397 11.2448 8.9998 11.2352C9.95591 11.2448 9.96313 11.5954 10.9999 11.5881C12.036 11.5954 12.0444 11.2448 12.9999 11.2352V10.5293C11.9632 10.5221 11.9558 10.8727 10.9999 10.8823Z" fill="#53536E"/>
<path d="M10.9999 9.47051C10.0446 9.46094 10.0359 9.11028 8.9998 9.1176C7.96293 9.1103 7.95587 9.46091 6.9998 9.47054C6.04411 9.46094 6.03628 9.11028 4.99988 9.1176C3.96349 9.1103 3.95568 9.46091 2.99994 9.47054C2.04375 9.46094 2.03677 9.11028 0.999993 9.11757V9.82345C1.95507 9.83303 1.96394 10.1837 2.99994 10.1764C4.0369 10.1837 4.04377 9.83305 4.99988 9.82343C5.95546 9.83301 5.96348 10.1837 6.9998 10.1764C8.03634 10.1837 8.04397 9.83305 8.9998 9.82343C9.95591 9.83301 9.96313 10.1837 10.9999 10.1764C12.036 10.1837 12.0444 9.83305 12.9999 9.82345V9.11757C11.9632 9.1103 11.9558 9.46091 10.9999 9.47051Z" fill="#53536E"/>
<path d="M10.9999 8.05874C10.0446 8.04916 10.0359 7.69851 8.9998 7.70582C7.96293 7.69853 7.95587 8.04914 6.9998 8.05876C6.04411 8.04916 6.03628 7.69851 4.99988 7.70582C3.96349 7.69853 3.95568 8.04914 2.99994 8.05876C2.04375 8.04916 2.03677 7.69851 0.999993 7.7058V8.41168C1.95507 8.42126 1.96394 8.77194 2.99994 8.7646C4.0369 8.77189 4.04377 8.42128 4.99988 8.41166C5.95546 8.42123 5.96348 8.77191 6.9998 8.7646C8.03634 8.77189 8.04397 8.42128 8.9998 8.41166C9.95591 8.42123 9.96313 8.77191 10.9999 8.7646C12.036 8.77189 12.0444 8.42128 12.9999 8.41168V7.7058C11.9632 7.69853 11.9558 8.04914 10.9999 8.05874Z" fill="#53536E"/>
</svg>
