<svg width="14" height="14" viewBox="0 0 14 14" fill="none" xmlns="http://www.w3.org/2000/svg">
<g clip-path="url(#clip0_280_65)">
<path d="M3.71875 3.28125H4.53906C4.53906 1.92421 5.64296 0.820312 7 0.820312C8.35704 0.820312 9.46094 1.92421 9.46094 3.28125H10.2812C10.2812 1.472 8.80925 0 7 0C5.19075 0 3.71875 1.472 3.71875 3.28125Z" fill="#53536E"/>
<path d="M8.64062 3.28125C8.64062 2.37642 7.90483 1.64062 7 1.64062C6.09517 1.64062 5.35938 2.37642 5.35938 3.28125C5.35938 4.18608 6.09517 4.94922 7 4.94922C7.90483 4.94922 8.64062 4.18608 8.64062 3.28125Z" fill="#53536E"/>
<path d="M9.14812 12.365L2.22231 11.5475C1.52458 11.4662 0.848066 12.0421 0.847656 12.7695C0.847656 13.448 1.39962 14 2.07812 14H9.05078C9.50299 14 9.87109 13.6319 9.87109 13.1797C9.87109 12.7643 9.56028 12.4138 9.14812 12.365Z" fill="#53536E"/>
<path d="M13.1797 7.41016H11.1016C10.6494 7.41016 10.2812 7.04205 10.2812 6.58984C10.2812 5.68501 9.54546 4.94922 8.64062 4.94922H5.35938C4.45454 4.94922 3.71875 5.68501 3.71875 6.58984C3.71875 7.04205 3.35065 7.41016 2.89844 7.41016H0.820312C0.368102 7.41016 0 7.77826 0 8.23047C0 8.68268 0.368102 9.05078 0.820312 9.05078H2.89844C4.18854 9.05078 4.78986 8.13069 4.94922 8.01101V11.0434L6.99964 11.2853L9.05078 11.0433V8.01101C9.2097 8.13031 9.81107 9.05078 11.1016 9.05078H13.1797C13.6319 9.05078 14 8.68268 14 8.23047C14 7.77826 13.6319 7.41016 13.1797 7.41016Z" fill="#53536E"/>
<path d="M11.9219 14C12.6004 14 13.1523 13.448 13.1523 12.7695C13.1519 12.0421 12.4754 11.4662 11.7777 11.5475L9.88281 11.7711C10.3684 12.0586 10.6914 12.5835 10.6914 13.1797C10.6914 13.4798 10.6045 13.7577 10.4632 14H11.9219Z" fill="#53536E"/>
</g>
<defs>
<clipPath id="clip0_280_65">
<rect width="14" height="14" fill="white"/>
</clipPath>
</defs>
</svg>
