<svg width="14" height="14" viewBox="0 0 14 14" fill="none" xmlns="http://www.w3.org/2000/svg">
<path d="M12.6 3.96661V2.33337C12.6 1.82013 12.1799 1.39999 11.6666 1.39999H7.46661C6.95351 1.39999 6.53323 1.82013 6.53323 2.33337V3.96675L12.6 3.96661ZM7.93337 2.09999C8.31977 2.09999 8.63337 2.30873 8.63337 2.56661C8.63337 2.82449 8.31977 3.03323 7.93337 3.03323C7.54683 3.03323 7.23337 2.82449 7.23337 2.56661C7.23337 2.30873 7.54683 2.09999 7.93337 2.09999Z" fill="#53536E"/>
<path d="M7.46663 5.60001H11.6666C12.1799 5.60001 12.6 5.17987 12.6 4.66663H6.53339C6.53339 5.17987 6.95353 5.60001 7.46663 5.60001Z" fill="#53536E"/>
<path d="M10.4744 8.94516L10.211 8.54952L9.97583 8.6107C8.72493 8.93494 7.40879 9.1 6.06395 9.1C4.72359 9.1 3.40983 8.93494 2.15739 8.61056L1.92219 8.54938L1.65885 8.94502C1.51661 9.15838 1.39999 9.54296 1.39999 9.8V12.6H2.33337L2.79999 11.6666H9.33337L9.79999 12.6H10.7334V9.8C10.7334 9.54296 10.6166 9.15838 10.4744 8.94516ZM3.73337 10.7334H2.56675V10.0334H3.73337V10.7334ZM7.46661 10.7334H4.66661V10.0334H7.46661V10.7334ZM9.56661 10.7334H8.39999V10.0334H9.56661V10.7334Z" fill="#53536E"/>
<path d="M9.17755 6.3H7.46661C6.73385 6.3 6.11995 5.81196 5.91359 5.14612C4.99897 5.15788 4.10073 5.26736 3.26675 5.48338L2.68883 7H1.39999V7.7L2.33337 7.93338C4.82257 8.57864 7.49223 8.53216 9.79999 7.93338L10.7334 7.7V7H9.44453L9.17755 6.3Z" fill="#53536E"/>
</svg>
