<svg width="14" height="14" viewBox="0 0 14 14" fill="none" xmlns="http://www.w3.org/2000/svg">
<g clip-path="url(#clip0_280_105)">
<path d="M11.9412 4.98329C12.6508 5.14368 13.1765 5.70854 13.1765 6.37887H14C14 5.30087 13.1741 4.39655 12.0719 4.16928C12.3229 3.65334 12.908 3.29063 13.5882 3.29063V2.4671C12.7535 2.4671 12.0142 2.84859 11.5667 3.43132C11.1013 2.75287 10.298 2.4671 9.47059 2.4671V3.29063C9.88117 3.29063 10.7431 3.3872 11.0257 4.16154C9.90415 4.37533 9.05882 5.28829 9.05882 6.37887H9.88235C9.88235 5.70854 10.408 5.14368 11.1176 4.98329V9.87887H7.82353V8.23181H8.64706V7.40828H0V8.23181H0.823529V9.87887H0V11.3887H0.411765C2.12805 11.3887 2.16248 11.9377 3.70583 11.9377C5.25535 11.9377 5.27723 11.3887 6.99986 11.3887C8.71621 11.3887 8.75063 11.9377 10.294 11.9377C11.8399 11.9377 11.8684 11.3887 13.5882 11.3887H14V9.87887H11.9412V4.98329ZM1.64706 9.87887V8.23181H7V9.87887H1.64706Z" fill="#53536E"/>
<path d="M10.294 12.7612C8.57769 12.7612 8.54327 12.2122 6.99986 12.2122C5.4552 12.2122 5.42429 12.7612 3.70583 12.7612C1.98954 12.7612 1.95511 12.2122 0.411765 12.2122H0V13.9965H14V12.2122H13.5882C12.0435 12.2122 12.0126 12.7612 10.294 12.7612Z" fill="#53536E"/>
<path d="M3.70587 5.76122H4.94117V6.58474H3.70587V5.76122Z" fill="#53536E"/>
<path d="M7.82352 6.58474V4.11415H0.823517V6.58474H2.88234V4.93768H5.76469V6.58474H7.82352Z" fill="#53536E"/>
<path d="M4.32242 0.003479L0.498962 3.29062H8.17854L4.32242 0.003479Z" fill="#53536E"/>
</g>
<defs>
<clipPath id="clip0_280_105">
<rect width="14" height="14" fill="white"/>
</clipPath>
</defs>
</svg>
