<svg width="14" height="14" viewBox="0 0 14 14" fill="none" xmlns="http://www.w3.org/2000/svg">
<path d="M7 0.4375C5.6081 0.439092 4.27367 0.992727 3.28945 1.97695C2.30523 2.96117 1.75159 4.2956 1.75 5.6875C1.75 9.68931 6.66087 13.3651 6.87001 13.5197C6.90764 13.5475 6.9532 13.5625 7 13.5625C7.0468 13.5625 7.09236 13.5475 7.12999 13.5197C7.33913 13.3651 12.25 9.68931 12.25 5.6875C12.2484 4.2956 11.6948 2.96117 10.7106 1.97695C9.72633 0.992727 8.3919 0.439092 7 0.4375ZM7 9.625C6.22124 9.625 5.45996 9.39407 4.81244 8.96141C4.16492 8.52875 3.66024 7.9138 3.36222 7.19432C3.0642 6.47483 2.98623 5.68313 3.13816 4.91933C3.29009 4.15553 3.6651 3.45394 4.21577 2.90327C4.76644 2.3526 5.46803 1.97759 6.23183 1.82566C6.99563 1.67373 7.78733 1.7517 8.50682 2.04972C9.2263 2.34774 9.84125 2.85242 10.2739 3.49994C10.7066 4.14746 10.9375 4.90874 10.9375 5.6875C10.9363 6.73143 10.5211 7.73226 9.78292 8.47042C9.04476 9.20859 8.04393 9.62381 7 9.625ZM9.40625 4.59375C9.41472 4.83456 9.35827 5.07322 9.24281 5.28472C9.12735 5.49622 8.95714 5.67277 8.75 5.79589V7.65625C8.75 7.77228 8.70391 7.88356 8.62186 7.96561C8.53981 8.04766 8.42853 8.09375 8.3125 8.09375C8.19647 8.09375 8.08519 8.04766 8.00314 7.96561C7.92109 7.88356 7.875 7.77228 7.875 7.65625V5.79589C7.66786 5.67277 7.49765 5.49622 7.38219 5.28472C7.26673 5.07322 7.21028 4.83456 7.21875 4.59375C7.21875 3.87 7.70944 3.28125 8.3125 3.28125C8.91556 3.28125 9.40625 3.87 9.40625 4.59375ZM6.78125 3.5V5.25C6.78106 5.42399 6.71186 5.5908 6.58883 5.71383C6.4658 5.83686 6.29899 5.90606 6.125 5.90625V7.65625C6.125 7.77228 6.07891 7.88356 5.99686 7.96561C5.91481 8.04766 5.80353 8.09375 5.6875 8.09375C5.57147 8.09375 5.46019 8.04766 5.37814 7.96561C5.29609 7.88356 5.25 7.77228 5.25 7.65625V5.90625C5.07601 5.90606 4.9092 5.83686 4.78617 5.71383C4.66314 5.5908 4.59394 5.42399 4.59375 5.25V3.5C4.59375 3.44198 4.6168 3.38634 4.65782 3.34532C4.69884 3.3043 4.75448 3.28125 4.8125 3.28125C4.87052 3.28125 4.92616 3.3043 4.96718 3.34532C5.0082 3.38634 5.03125 3.44198 5.03125 3.5V4.59375H5.46875V3.5C5.46875 3.44198 5.4918 3.38634 5.53282 3.34532C5.57384 3.3043 5.62948 3.28125 5.6875 3.28125C5.74552 3.28125 5.80116 3.3043 5.84218 3.34532C5.8832 3.38634 5.90625 3.44198 5.90625 3.5V4.59375H6.34375V3.5C6.34375 3.44198 6.3668 3.38634 6.40782 3.34532C6.44884 3.3043 6.50448 3.28125 6.5625 3.28125C6.62052 3.28125 6.67616 3.3043 6.71718 3.34532C6.7582 3.38634 6.78125 3.44198 6.78125 3.5Z" fill="#53536E"/>
</svg>
