<svg width="14" height="14" viewBox="0 0 14 14" fill="none" xmlns="http://www.w3.org/2000/svg">
<g clip-path="url(#clip0_262_76)">
<path d="M1.97694 13.0261V13.5898C1.97694 13.8164 2.16058 14 2.3871 14H4.14437C4.37089 14 4.55453 13.8164 4.55453 13.5898V13.063H2.3871C2.2471 13.063 2.11019 13.0499 1.97694 13.0261Z" fill="#53536E"/>
<path d="M9.44543 13.063V13.5898C9.44543 13.8164 9.62908 14 9.85559 14H11.6129C11.8394 14 12.023 13.8164 12.023 13.5898V13.0261C11.8898 13.0499 11.7529 13.063 11.6129 13.063H9.44543V13.063Z" fill="#53536E"/>
<path d="M3.45622 2.57761V9.66511H10.5437V2.57761H3.45622ZM9.46457 8.00589C9.62473 8.16604 9.62473 8.42575 9.46457 8.58593C9.38448 8.66602 9.27951 8.70608 9.17457 8.70608C9.06962 8.70608 8.96462 8.66602 8.88456 8.58593L8.5295 8.2309C8.0996 8.54347 7.57099 8.72815 7 8.72815C6.42901 8.72815 5.90043 8.54347 5.47053 8.2309L5.11547 8.58593C5.03538 8.66602 4.93041 8.70608 4.82546 8.70608C4.72052 8.70608 4.61552 8.66605 4.53545 8.58596C4.37527 8.42578 4.37527 8.16609 4.53543 8.00589L4.89046 7.65083C4.57792 7.2209 4.39324 6.69232 4.39324 6.12133C4.39324 5.55034 4.57792 5.02178 4.89046 4.59186L4.53543 4.2368C4.37527 4.07662 4.37527 3.81693 4.53545 3.65673C4.69563 3.49663 4.95532 3.4966 5.1155 3.65675L5.4705 4.01181C5.90043 3.69922 6.42901 3.51454 7 3.51454C7.57099 3.51454 8.0996 3.69922 8.5295 4.01181L8.88456 3.65675C9.04471 3.4966 9.30442 3.4966 9.4646 3.65675C9.62478 3.81691 9.62475 4.07662 9.4646 4.2368L9.10954 4.59186C9.42214 5.02175 9.60682 5.55034 9.60682 6.12133C9.60682 6.69232 9.42214 7.22093 9.10954 7.65086L9.46457 8.00589Z" fill="#53536E"/>
<path d="M6.99997 4.3349C6.01494 4.3349 5.21355 5.13632 5.21355 6.12135C5.21355 7.10641 6.01494 7.90783 6.99997 7.90783C7.98503 7.90783 8.78645 7.10641 8.78645 6.12135C8.78645 5.13632 7.98503 4.3349 6.99997 4.3349Z" fill="#53536E"/>
<path d="M11.6129 0H2.38711C1.55534 0 0.878662 0.676703 0.878662 1.50847V3.95391H2.63594V2.16746C2.63594 1.94094 2.81958 1.7573 3.04609 1.7573H10.9539C11.1804 1.7573 11.364 1.94094 11.364 2.16746V10.0753C11.364 10.3018 11.1804 10.4854 10.9539 10.4854H3.04606C2.81955 10.4854 2.63591 10.3018 2.63591 10.0753V8.28882H0.878662V10.7343C0.878662 11.566 1.55534 12.2427 2.38711 12.2427H11.6129C12.4446 12.2427 13.1213 11.566 13.1213 10.7343V1.50847C13.1213 0.676703 12.4446 0 11.6129 0Z" fill="#53536E"/>
<path d="M0.878662 4.77423H2.63594V7.46852H0.878662V4.77423Z" fill="#53536E"/>
</g>
<defs>
<clipPath id="clip0_262_76">
<rect width="14" height="14" fill="white"/>
</clipPath>
</defs>
</svg>
