<svg width="14" height="14" viewBox="0 0 14 14" fill="none" xmlns="http://www.w3.org/2000/svg">
<g clip-path="url(#clip0_262_103)">
<path d="M3.33568 4.79683C3.82901 5.23348 4.14716 5.80541 4.25538 6.4514L4.4032 7.3395C4.42655 7.48021 4.54818 7.58332 4.69089 7.58332H9.30914C9.45184 7.58332 9.57347 7.48021 9.59682 7.3395L9.74464 6.45282C9.85287 5.80655 10.171 5.23376 10.6649 4.7968C10.7287 4.74012 10.7646 4.65866 10.7632 4.57321C10.7618 4.48804 10.723 4.40773 10.6572 4.35332C10.4431 4.17673 10.187 4.0833 9.91669 4.0833H7.29169V3.5H8.75001C9.39344 3.5 9.91669 2.97678 9.91669 2.33332V1.16668C9.91669 0.523223 9.39344 0 8.75001 0H5.25001C4.60659 0 4.08334 0.523223 4.08334 1.16668V2.33335C4.08334 2.97678 4.60659 3.5 5.25001 3.5H6.70834V4.08332H4.08334C3.81274 4.08332 3.55669 4.17676 3.34306 4.35362C3.27727 4.40803 3.23852 4.48834 3.2371 4.57352C3.23568 4.65869 3.27158 4.74045 3.33568 4.79683Z" fill="#53536E"/>
<path d="M12.5417 4.66669C11.4368 4.66669 10.5026 5.45823 10.32 6.54884L10.0506 8.16669L3.94948 8.16696L3.68004 6.54799C3.49746 5.45793 2.56321 4.66669 1.45836 4.66669C0.975851 4.66669 0.583359 5.05918 0.583359 5.54169C0.583359 6.02419 0.975851 6.41669 1.45836 6.41669C1.70473 6.41669 1.91322 6.59327 1.95396 6.83595L2.22341 8.45522C2.36554 9.30203 3.09157 9.91669 3.94948 9.91669H6.67771L6.50033 11.6905C5.25933 11.7683 4.08336 12.1361 4.08336 12.8334C4.08333 13.6349 5.59522 14 7.00001 14C8.40479 14 9.91668 13.6349 9.91668 12.8333C9.91668 12.1361 8.74071 11.7682 7.49971 11.6905L7.32234 9.91666H10.0506C10.9085 9.91666 11.6345 9.3017 11.7766 8.45404L12.0461 6.83677C12.0868 6.59325 12.2953 6.41663 12.5417 6.41663C13.0242 6.41663 13.4167 6.02414 13.4167 5.54163C13.4167 5.05918 13.0242 4.66669 12.5417 4.66669Z" fill="#53536E"/>
</g>
<defs>
<clipPath id="clip0_262_103">
<rect width="14" height="14" fill="white"/>
</clipPath>
</defs>
</svg>
