<svg width="14" height="14" viewBox="0 0 14 14" fill="none" xmlns="http://www.w3.org/2000/svg">
<g clip-path="url(#clip0_264_816)">
<path d="M7 1.57418C7.21273 1.20559 7.61113 0.957031 8.06641 0.957031H9.40625V0.820312C9.40625 0.367227 9.03902 0 8.58594 0H5.41406C4.96098 0 4.59375 0.367227 4.59375 0.820312V0.957031H5.93359C6.38887 0.957031 6.78727 1.20559 7 1.57418Z" fill="#53536E"/>
<path d="M5.25001 4.63668C5.46274 4.26809 5.86114 4.01953 6.31641 4.01953H7.6836C8.13887 4.01953 8.53727 4.26809 8.75001 4.63668C8.96274 4.26809 9.36114 4.01953 9.81641 4.01953H10.5055L10.3182 2.14676C10.2971 1.93703 10.1207 1.77734 9.9102 1.77734H8.06641C7.84001 1.77734 7.65626 1.96109 7.65626 2.1875V2.67969C7.65626 2.90609 7.47251 3.08984 7.2461 3.08984H6.75391C6.52751 3.08984 6.34376 2.90609 6.34376 2.67969V2.1875C6.34376 1.96109 6.16001 1.77734 5.9336 1.77734H4.08981C3.87926 1.77734 3.7029 1.93703 3.68184 2.14676L3.49454 4.01953H4.1836C4.63887 4.01953 5.03727 4.26809 5.25001 4.63668Z" fill="#53536E"/>
<path d="M5.66016 10.0625V10.751C6.28633 10.8861 6.8162 11.0601 7.29969 11.2014C7.63465 11.1549 7.98273 11.1158 8.33984 11.0846V10.0625C8.33984 9.32367 7.73883 8.72266 7 8.72266C6.26117 8.72266 5.66016 9.32367 5.66016 10.0625Z" fill="#53536E"/>
<path d="M4.83986 10.6113V10.0901C4.83986 8.90094 5.78951 7.9141 6.97869 7.90234C8.17962 7.89086 9.16017 8.8643 9.16017 10.0625V11.0275C10.3171 10.9657 11.5393 10.9856 12.6733 11.0835L12.0012 5.20352C11.9777 4.99625 11.8021 4.83984 11.5938 4.83984H9.81642C9.59001 4.83984 9.40627 5.02359 9.40627 5.25V5.74219C9.40627 5.96859 9.22251 6.15234 8.99611 6.15234H8.50392C8.27751 6.15234 8.09376 5.96859 8.09376 5.74219V5.25C8.09376 5.02359 7.91001 4.83984 7.68361 4.83984H6.31642C6.09001 4.83984 5.90626 5.02359 5.90626 5.25V5.74219C5.90626 5.96859 5.72251 6.15234 5.49611 6.15234H5.00392C4.77751 6.15234 4.59376 5.96859 4.59376 5.74219V5.25C4.59376 5.02359 4.41001 4.83984 4.18361 4.83984H2.40626C2.19763 4.83984 2.02236 4.99625 1.99884 5.20352L1.3363 11.0012C2.58928 10.6464 3.54013 10.4514 4.83986 10.6113ZM10.6914 7.49219C10.9179 7.49219 11.1016 7.67596 11.1016 7.90234C11.1016 8.12875 10.9181 8.3125 10.6914 8.3125C10.465 8.3125 10.2813 8.12875 10.2813 7.90234C10.2813 7.67594 10.4647 7.49219 10.6914 7.49219ZM3.08986 9.625C2.86345 9.625 2.6797 9.44125 2.6797 9.21484C2.6797 8.98844 2.86318 8.80469 3.08958 8.80469C3.31758 8.80469 3.50001 8.98964 3.50001 9.21484C3.50001 9.44125 3.31626 9.625 3.08986 9.625Z" fill="#53536E"/>
<path d="M13.6471 12.0183C11.6869 11.7421 9.25293 11.7391 7.243 12.0382C6.39609 11.8034 5.27354 11.375 3.9375 11.375C2.54012 11.375 1.33109 11.9274 0.340266 12.0988C0.143637 12.1328 0 12.3034 0 12.5029V13.5898C0 13.8164 0.183641 14 0.410156 14H13.5898C13.8164 14 14 13.8164 14 13.5898V12.4245C14 12.22 13.8495 12.0468 13.6471 12.0183Z" fill="#53536E"/>
</g>
<defs>
<clipPath id="clip0_264_816">
<rect width="14" height="14" fill="white"/>
</clipPath>
</defs>
</svg>
