<svg width="14" height="14" viewBox="0 0 14 14" fill="none" xmlns="http://www.w3.org/2000/svg">
<g clip-path="url(#clip0_264_823)">
<path d="M6.95515 4.08164C6.624 3.51585 6.03061 3.17773 5.37506 3.17773C4.71951 3.17773 4.12619 3.51585 3.79504 4.08164L0.248442 10.1674C0.186351 10.2709 0.186351 10.4019 0.248442 10.5124C0.310534 10.6159 0.420919 10.6849 0.545102 10.6849H5.02314L7.91419 5.72382L6.95515 4.08164ZM3.30514 9.30492C3.11189 9.30492 2.96012 9.15307 2.96012 8.95989C2.96012 8.76665 3.11189 8.61487 3.30514 8.61487C3.49838 8.61487 3.65016 8.76665 3.65016 8.95989C3.65009 9.15307 3.49838 9.30492 3.30514 9.30492ZM4.68509 6.54495C4.49184 6.54495 4.34006 6.3931 4.34006 6.19993C4.34006 6.00668 4.49184 5.85491 4.68509 5.85491C4.87833 5.85491 5.03011 6.00668 5.03011 6.19993C5.03011 6.3931 4.87833 6.54495 4.68509 6.54495ZM5.37513 8.61494C5.18189 8.61494 5.03011 8.46309 5.03011 8.26992C5.03011 8.07668 5.18189 7.9249 5.37513 7.9249C5.56837 7.9249 5.72015 8.07668 5.72015 8.26992C5.72008 8.46309 5.5683 8.61494 5.37513 8.61494ZM13.9517 10.1674L11.6126 6.1517C11.2815 5.58591 10.6881 5.24779 10.0325 5.24779C9.41156 5.24779 8.84577 5.55142 8.50765 6.06891L5.81667 10.685H13.655C13.7792 10.685 13.8897 10.616 13.9517 10.5125C14.0139 10.402 14.0139 10.2709 13.9517 10.1674ZM9.51505 7.92497C9.3218 7.92497 9.17002 7.77312 9.17002 7.57995C9.17002 7.3867 9.3218 7.23492 9.51505 7.23492C9.70829 7.23492 9.86007 7.3867 9.86007 7.57995C9.86007 7.77312 9.70829 7.92497 9.51505 7.92497ZM10.8951 9.30492C10.7018 9.30492 10.55 9.15307 10.55 8.95989C10.55 8.76665 10.7018 8.61487 10.8951 8.61487C11.0883 8.61487 11.2401 8.76665 11.2401 8.95989C11.2401 9.15307 11.0883 9.30492 10.8951 9.30492Z" fill="#53536E"/>
<path d="M13.655 12.065H9.515C9.32459 12.065 9.16998 11.9104 9.16998 11.72C9.16998 11.5296 9.32459 11.375 9.515 11.375H13.655C13.8454 11.375 14 11.5296 14 11.72C14 11.9104 13.8454 12.065 13.655 12.065Z" fill="#53536E"/>
</g>
<defs>
<clipPath id="clip0_264_823">
<rect width="14" height="14" fill="white"/>
</clipPath>
</defs>
</svg>
