<svg width="14" height="14" viewBox="0 0 14 14" fill="none" xmlns="http://www.w3.org/2000/svg">
<g clip-path="url(#clip0_264_472)">
<path d="M13.5768 14H0.423199C0.197132 14 0.013855 13.8167 0.013855 13.5907V12.4991C0.013855 12.273 0.197132 12.0897 0.423199 12.0897H13.5768C13.8029 12.0897 13.9861 12.273 13.9861 12.4991V13.5907C13.9861 13.8167 13.8029 14 13.5768 14Z" fill="#53536E"/>
<path d="M0.719934 11.271H3.88651C3.62649 10.6581 3.68173 9.94121 4.06029 9.36922L4.31381 8.98618C4.32336 8.97175 4.3333 8.95764 4.34309 8.94342C4.03153 8.723 3.6552 8.59976 3.26251 8.59976H2.43571C1.808 8.59976 1.22212 8.91457 0.875676 9.43804L0.622183 9.82105C0.342028 10.2444 0.359029 10.7983 0.664673 11.2036C0.682247 11.2269 0.700859 11.2492 0.719934 11.271Z" fill="#53536E"/>
<path d="M9.87957 9.36922C10.2581 9.94121 10.3134 10.6581 10.0534 11.271H13.2801C13.2991 11.2492 13.3177 11.2269 13.3353 11.2036C13.641 10.7983 13.658 10.2444 13.3778 9.82105L13.1243 9.43804C12.7779 8.91457 12.192 8.59976 11.5643 8.59976H10.7375C10.3278 8.59976 9.93595 8.73395 9.61682 8.97267C9.61988 8.9772 9.62304 8.98163 9.62607 8.98618L9.87957 9.36922Z" fill="#53536E"/>
<path d="M4.7855 11.2036C4.80307 11.2269 4.82168 11.2492 4.84076 11.271H9.09911C9.11819 11.2492 9.13677 11.2269 9.15437 11.2036C9.46002 10.7983 9.47704 10.2444 9.19686 9.82105L8.94337 9.43804C8.59693 8.91457 8.01105 8.59976 7.38333 8.59976H6.55657C5.92885 8.59976 5.34297 8.91457 4.99653 9.43804L4.74304 9.82105C4.46283 10.2444 4.47986 10.7983 4.7855 11.2036Z" fill="#53536E"/>
<path d="M3.26248 7.78108C3.86869 7.78108 4.44491 7.98351 4.90951 8.34387C5.37412 7.98351 5.95031 7.78108 6.55652 7.78108H7.30881C7.34819 7.49822 7.28638 7.20366 7.12139 6.95437L6.8679 6.57136C6.52145 6.04789 5.93557 5.73308 5.30786 5.73308H4.48109C3.85338 5.73308 3.2675 6.04789 2.92106 6.57133L2.66756 6.95434C2.50257 7.20363 2.44076 7.4982 2.48014 7.78105H3.26248V7.78108Z" fill="#53536E"/>
<path d="M7.55061 6.1195L7.8041 6.50254C8.07915 6.91813 8.18337 7.41024 8.12023 7.88344C8.46307 7.98076 8.78246 8.14531 9.06038 8.36729C9.53006 7.99219 10.1182 7.78108 10.7375 7.78108H11.4247C11.4641 7.49822 11.4023 7.20366 11.2373 6.95437L10.9838 6.57136C10.6373 6.04789 10.0515 5.73308 9.42374 5.73308H8.59698C8.20567 5.73308 7.83066 5.85544 7.51974 6.07439C7.53009 6.08937 7.54051 6.10427 7.55061 6.1195Z" fill="#53536E"/>
<path d="M4.54347 4.72313C4.46504 4.72313 4.38579 4.70064 4.31577 4.65368C4.12804 4.52771 4.07797 4.2734 4.20393 4.0857C4.35373 3.86241 4.46196 3.70111 4.46196 3.33769C4.46196 2.97427 4.35373 2.81297 4.20391 2.58974C4.02707 2.3262 3.80701 1.99821 3.80701 1.38556C3.80701 0.772959 4.02707 0.444965 4.20391 0.181457C4.3299 -0.00626822 4.5843 -0.0565084 4.77199 0.0694877C4.95972 0.195429 5.00988 0.449605 4.88391 0.637357L4.88372 0.63763C4.73393 0.860886 4.62567 1.02219 4.62567 1.38556C4.62567 1.74897 4.7339 1.91031 4.88372 2.13356C5.06053 2.39707 5.28062 2.72507 5.28062 3.33769C5.28062 3.95031 5.06055 4.27831 4.88375 4.54184C4.8048 4.65954 4.67531 4.72313 4.54347 4.72313Z" fill="#53536E"/>
<path d="M6.99964 4.72312C6.92121 4.72312 6.84197 4.70063 6.77194 4.65364C6.58422 4.5277 6.53414 4.27338 6.66008 4.08566C6.80987 3.8624 6.9181 3.70109 6.9181 3.33771C6.9181 2.97429 6.80987 2.81298 6.66005 2.58975C6.48322 2.32622 6.26315 1.99822 6.26315 1.38557C6.26315 0.772974 6.48322 0.444981 6.66005 0.181472C6.78602 -0.00625296 7.04042 -0.0564931 7.22814 0.069503C7.41587 0.195444 7.46602 0.44962 7.34008 0.637372L7.33989 0.637645C7.19007 0.860901 7.08184 1.02221 7.08184 1.38557C7.08184 1.74899 7.19007 1.91032 7.33989 2.13358C7.5167 2.39709 7.73679 2.72508 7.73679 3.33771C7.73679 3.95033 7.51675 4.2783 7.33992 4.54183C7.26094 4.65948 7.13148 4.72312 6.99964 4.72312Z" fill="#53536E"/>
<path d="M9.45582 4.72312C9.37739 4.72312 9.29814 4.70064 9.22812 4.65364C9.04039 4.5277 8.99032 4.27339 9.11626 4.08567C9.26605 3.86241 9.37428 3.7011 9.37428 3.33771C9.37428 2.9743 9.26605 2.81299 9.11623 2.58976C8.93942 2.32622 8.71933 1.99823 8.71933 1.38558C8.71933 0.772926 8.93942 0.444933 9.11628 0.181397C9.24231 -0.0063008 9.49667 -0.0565137 9.68434 0.0694824C9.87207 0.195451 9.9222 0.449654 9.79623 0.637379L9.7961 0.637597C9.64628 0.860881 9.53802 1.02219 9.53802 1.38558C9.53802 1.74899 9.64625 1.91033 9.79607 2.13359C9.97288 2.39709 10.193 2.72509 10.193 3.33771C10.193 3.95034 9.97293 4.2783 9.7961 4.54184C9.71712 4.65948 9.58766 4.72312 9.45582 4.72312Z" fill="#53536E"/>
</g>
<defs>
<clipPath id="clip0_264_472">
<rect width="14" height="14" fill="white"/>
</clipPath>
</defs>
</svg>
