<svg width="14" height="14" viewBox="0 0 14 14" fill="none" xmlns="http://www.w3.org/2000/svg">
<g clip-path="url(#clip0_280_163)">
<path d="M10.535 7.27115C10.535 7.49766 10.7187 7.6813 10.9452 7.6813C11.1717 7.6813 11.3553 7.49766 11.3553 7.27115V7.27106C11.3553 7.04455 11.1717 6.86096 10.9452 6.86096C10.7187 6.86096 10.535 7.04463 10.535 7.27115Z" fill="#53536E"/>
<path d="M11.8977 5.73863C11.8212 5.81492 11.7774 5.92071 11.7774 6.02847C11.7774 6.13648 11.8212 6.24203 11.8977 6.31859C11.974 6.39488 12.0799 6.43863 12.1878 6.43863C12.2956 6.43863 12.4014 6.39488 12.4777 6.31859C12.554 6.2423 12.5977 6.13648 12.5977 6.02847C12.5977 5.92047 12.554 5.81492 12.4777 5.73863C12.4014 5.66204 12.2956 5.61832 12.1878 5.61832C12.0799 5.61832 11.974 5.66204 11.8977 5.73863Z" fill="#53536E"/>
<path d="M10.1128 8.51372C10.1128 8.40574 10.069 8.29992 9.99272 8.22363C9.91613 8.14734 9.81061 8.10356 9.70261 8.10356C9.5946 8.10356 9.48878 8.14734 9.41249 8.22363C9.3362 8.29992 9.29245 8.40574 9.29245 8.51372C9.29245 8.62173 9.3362 8.7273 9.41249 8.80383C9.48878 8.88012 9.5946 8.92387 9.70261 8.92387C9.81061 8.92387 9.91616 8.88012 9.99272 8.80383C10.069 8.7273 10.1128 8.62175 10.1128 8.51372Z" fill="#53536E"/>
<path d="M11.9765 9.13499C11.9765 9.02699 11.9327 8.92117 11.8565 8.84488C11.7802 8.76859 11.6744 8.72484 11.5663 8.72484C11.4586 8.72484 11.3528 8.76859 11.2762 8.84488C11.1999 8.92144 11.1562 9.02699 11.1562 9.13499C11.1562 9.24297 11.1999 9.34855 11.2762 9.42508C11.3528 9.50137 11.4586 9.54515 11.5663 9.54515C11.6744 9.54515 11.7802 9.50137 11.8565 9.42508C11.9327 9.3488 11.9765 9.24297 11.9765 9.13499Z" fill="#53536E"/>
<path d="M13.2193 7.8925C13.2193 7.78449 13.1755 7.67867 13.099 7.60238C13.0227 7.5261 12.9171 7.48235 12.8091 7.48235C12.7011 7.48235 12.5953 7.5261 12.519 7.60238C12.4427 7.67897 12.399 7.78449 12.399 7.8925C12.399 8.00024 12.4427 8.10606 12.519 8.18234C12.5953 8.25893 12.7011 8.30266 12.8091 8.30266C12.9171 8.30266 13.0227 8.25891 13.099 8.18234C13.1755 8.10603 13.2193 8.00024 13.2193 7.8925Z" fill="#53536E"/>
<path d="M10.6908 10.1942L10.6907 10.1941C10.5894 9.99154 10.3431 9.90945 10.1405 10.0107C9.93784 10.112 9.85576 10.3585 9.95707 10.5611C10.0289 10.7048 10.1738 10.7879 10.3242 10.7879C10.3859 10.7879 10.4485 10.7739 10.5073 10.7445C10.71 10.6432 10.7921 10.3968 10.6908 10.1942Z" fill="#53536E"/>
<path d="M12.1876 10.5889C12.0799 10.5889 11.974 10.6326 11.8977 10.7089C11.8212 10.7852 11.7774 10.891 11.7774 10.999C11.7774 11.1067 11.8212 11.2126 11.8977 11.2889C11.974 11.3652 12.0799 11.4092 12.1876 11.4092C12.2956 11.4092 12.4012 11.3652 12.4777 11.2889C12.554 11.2126 12.5977 11.1068 12.5977 10.999C12.5977 10.8907 12.554 10.7852 12.4777 10.7089C12.4014 10.6326 12.2956 10.5889 12.1876 10.5889Z" fill="#53536E"/>
<path d="M13.4303 9.34615C13.2038 9.34615 13.0201 9.52981 13.0201 9.75633C13.0201 9.98285 13.2038 10.1665 13.4303 10.1665C13.6568 10.1665 13.8405 9.98285 13.8405 9.75633V9.75625C13.8405 9.52973 13.6568 9.34615 13.4303 9.34615Z" fill="#53536E"/>
<path d="M10.9451 11.8313C10.8371 11.8313 10.7315 11.8751 10.655 11.9514C10.5787 12.0277 10.5349 12.1335 10.5349 12.2415C10.5349 12.3495 10.5787 12.4551 10.655 12.5316C10.7315 12.6079 10.8374 12.6517 10.9451 12.6517C11.0531 12.6517 11.1589 12.6079 11.2352 12.5316C11.3115 12.4551 11.3553 12.3492 11.3553 12.2415C11.3553 12.1335 11.3115 12.0279 11.2352 11.9514C11.1589 11.8751 11.0531 11.8313 10.9451 11.8313Z" fill="#53536E"/>
<path d="M10.0714 1.44837C9.57517 1.20821 9.02739 1.08082 8.45987 1.08082C7.91721 1.08082 7.39246 1.19695 6.91367 1.41704L5.87466 0.378C5.63119 0.13423 5.30741 0 4.96288 0H1.44831C0.737672 0 0.159515 0.578184 0.159515 1.28882V13.5898C0.159515 13.8164 0.343156 14 0.569672 14H2.327C2.55352 14 2.73716 13.8164 2.73716 13.5898V2.57761H4.42905L5.0911 3.23966C4.87103 3.71848 4.75491 4.24323 4.75491 4.78592C4.75491 5.35352 4.88233 5.9013 5.12252 6.39754C5.16553 6.34531 5.21122 6.2945 5.26003 6.2457L9.91973 1.5861C9.96837 1.53746 10.019 1.49157 10.0714 1.44837Z" fill="#53536E"/>
<path d="M12.6999 3.07741C12.6999 2.73315 12.5659 2.40951 12.3225 2.16612C12.0791 1.92265 11.7554 1.78856 11.4112 1.78856C11.0669 1.78856 10.7433 1.92263 10.4999 2.16609L5.84008 6.82577C5.33764 7.32832 5.33764 8.14595 5.84011 8.64839C6.08353 8.89181 6.40717 9.02587 6.75145 9.02587C7.09568 9.02587 7.41935 8.89184 7.66279 8.64839L12.3224 3.98869C12.5659 3.7453 12.6999 3.42166 12.6999 3.07741Z" fill="#53536E"/>
</g>
<defs>
<clipPath id="clip0_280_163">
<rect width="14" height="14" fill="white"/>
</clipPath>
</defs>
</svg>
