<svg width="14" height="14" viewBox="0 0 14 14" fill="none" xmlns="http://www.w3.org/2000/svg">
<g clip-path="url(#clip0_262_157)">
<path d="M2.05871 2.26514C1.37867 2.26514 0.825233 2.81871 0.825233 3.49919C0.825233 4.17966 1.37867 4.73324 2.05871 4.73324C2.20391 4.73324 2.34281 4.70781 2.47215 4.66157V13.5898C2.47215 13.8165 2.6559 14 2.8823 14C3.10898 14 3.29246 13.8165 3.29246 13.5898V3.49919C3.29246 2.81871 2.73902 2.26514 2.05871 2.26514ZM2.05871 3.91273C1.83094 3.91273 1.64555 3.72729 1.64555 3.49919C1.64555 3.27109 1.83094 3.08564 2.05871 3.08564C2.28676 3.08564 2.47215 3.27109 2.47215 3.49919C2.47215 3.72729 2.28676 3.91273 2.05871 3.91273Z" fill="#53536E"/>
<path d="M11.9413 2.26514C11.261 2.26514 10.7075 2.81871 10.7075 3.49919V13.5897C10.7075 13.8165 10.891 14 11.1177 14C11.3441 14 11.5279 13.8165 11.5279 13.5897V4.66157C11.6572 4.70778 11.7961 4.73324 11.9413 4.73324C12.6213 4.73324 13.1748 4.17966 13.1748 3.49919C13.1748 2.81871 12.6213 2.26514 11.9413 2.26514ZM11.9413 3.91273C11.7132 3.91273 11.5279 3.72729 11.5279 3.49919C11.5279 3.27109 11.7132 3.08564 11.9413 3.08564C12.1691 3.08564 12.3545 3.27109 12.3545 3.49919C12.3545 3.72729 12.1691 3.91273 11.9413 3.91273Z" fill="#53536E"/>
<path d="M5.55871 0C4.76492 0 4.11934 0.646023 4.11934 1.4397V2.61904C4.79527 1.78158 5.84391 1.24567 7 1.24075C6.9557 0.924027 6.79219 0.638066 6.57617 0.42227C6.31559 0.161355 5.95547 0 5.55871 0Z" fill="#53536E"/>
<path d="M7 8.64264C5.83734 8.64264 4.79828 8.10355 4.11934 7.26227V9.47271H9.88066V7.26227C9.20172 8.10355 8.16266 8.64264 7 8.64264Z" fill="#53536E"/>
<path d="M4.11934 10.2932H9.88066V11.1203H4.11934V10.2932Z" fill="#53536E"/>
<path d="M4.11934 12.5603C4.11934 13.354 4.76492 14 5.55871 14C6.3525 14 6.99836 13.354 6.99836 12.5603H7.00164C7.00164 13.354 7.6475 14 8.44129 14C9.2348 14 9.88066 13.354 9.88066 12.5603V11.9408H4.11934V12.5603Z" fill="#53536E"/>
<path d="M8.44129 0C7.71586 0 7.09816 0.54168 7 1.24075C8.15609 1.24567 9.20473 1.78158 9.88066 2.61904V1.43998C9.88066 0.646023 9.23508 0 8.44129 0Z" fill="#53536E"/>
<path d="M7 2.0592C5.4116 2.0592 4.11934 3.35177 4.11934 4.94082C4.11934 6.52961 5.4116 7.82217 7 7.82217C8.5884 7.82217 9.88066 6.52961 9.88066 4.94082C9.88066 3.35177 8.5884 2.0592 7 2.0592ZM7.82359 5.35106H7C6.77359 5.35106 6.58984 5.16726 6.58984 4.9408V4.11701C6.58984 3.89028 6.77359 3.70675 7 3.70675C7.22641 3.70675 7.41016 3.89028 7.41016 4.11701V4.53056H7.82359C8.05 4.53056 8.23375 4.71409 8.23375 4.94082C8.23375 5.16726 8.05 5.35106 7.82359 5.35106Z" fill="#53536E"/>
</g>
<defs>
<clipPath id="clip0_262_157">
<rect width="14" height="14" fill="white"/>
</clipPath>
</defs>
</svg>
