<svg width="14" height="14" viewBox="0 0 14 14" fill="none" xmlns="http://www.w3.org/2000/svg">
<g clip-path="url(#clip0_262_167)">
<path d="M13.433 1.78986C12.9933 1.02338 12.4566 0.583586 11.9599 0.583313C11.9195 0.583313 11.8811 0.591543 11.8461 0.606336C11.5806 0.660942 11.3766 0.885352 11.3766 1.16664V2.91664C11.3766 3.12975 11.4971 3.30853 11.6682 3.41036V11.6988C11.3189 11.774 11.0849 11.9815 11.0849 12.25C11.0849 12.5184 11.3189 12.726 11.6682 12.8011V13.7083C11.6682 13.8695 11.7987 14 11.9599 14C12.1211 14 12.25 13.8695 12.25 13.7083V12.8011C12.5994 12.726 12.8349 12.5184 12.8349 12.25C12.8349 11.9815 12.5994 11.774 12.25 11.6988V4.32008C12.4853 4.5452 12.7782 4.6642 13.1214 4.66664C13.1243 4.66664 13.1271 4.66664 13.1294 4.66664C13.4479 4.66664 13.7042 4.52677 13.8529 4.27215C14.2009 3.6763 13.8791 2.56773 13.433 1.78986ZM13.3493 3.97793C13.3174 4.03319 13.2695 4.08873 13.126 4.08331C12.9249 4.08189 12.7637 4.01638 12.6338 3.88307C12.4982 3.74428 12.4104 3.54483 12.3523 3.34235C12.468 3.23568 12.5432 3.08609 12.5432 2.91664V1.53788C12.6738 1.68387 12.8049 1.8671 12.9272 2.08008C13.3453 2.80929 13.535 3.66036 13.3493 3.97793Z" fill="#53536E"/>
<path d="M2.3319 11.6989V3.41039C2.50305 3.30856 2.62358 3.12978 2.62358 2.91667V1.16667C2.62358 0.88541 2.41954 0.660972 2.15403 0.606367C2.11906 0.591547 2.08061 0.583344 2.04025 0.583344C1.5435 0.583617 1.0063 1.02341 0.567109 1.78989C0.120477 2.56746 -0.200812 3.67603 0.147246 4.27188C0.295942 4.5268 0.552289 4.66667 0.870707 4.66667C0.872977 4.66667 0.87582 4.66667 0.878692 4.66667C1.22194 4.66421 1.51473 4.54523 1.75 4.32011V11.6989C1.40066 11.774 1.16523 11.9815 1.16523 12.25C1.16523 12.5185 1.40066 12.726 1.75 12.8011V13.7083C1.75 13.8695 1.87904 14 2.04023 14C2.20145 14 2.3319 13.8695 2.3319 13.7083V12.8011C2.68127 12.726 2.91523 12.5185 2.91523 12.25C2.91523 11.9815 2.68127 11.774 2.3319 11.6989ZM1.36634 3.88308C1.23646 4.01638 1.07524 4.08189 0.874152 4.08332C0.873004 4.08332 0.871309 4.08332 0.87016 4.08332C0.731719 4.08332 0.682746 4.03262 0.650836 3.97793C0.465117 3.66034 0.654828 2.80899 1.07294 2.08011C1.19503 1.867 1.32625 1.68366 1.4569 1.53764V2.91664C1.4569 3.08609 1.53207 3.23569 1.64782 3.34236C1.58966 3.54486 1.50191 3.74431 1.36634 3.88308Z" fill="#53536E"/>
<path d="M9.42162 9.21364C9.05133 8.44296 8.78645 7.87024 8.63376 7.51196C8.63376 7.51169 8.63376 7.51138 8.63376 7.51111C8.56316 7.34656 8.48173 7.1493 8.39404 6.93093C8.39396 6.93074 8.39401 6.93058 8.39401 6.93058C8.28321 6.65613 8.15959 6.34304 8.02946 6.00967C8.77291 4.41976 9.6571 2.58237 10.087 1.69264C10.2288 1.39872 10.2448 1.05667 10.1303 0.753924C10.0169 0.452897 9.79188 0.217932 9.49679 0.092889C9.49679 0.092889 9.49679 0.092889 9.49621 0.092889C9.2 -0.0327009 8.87414 -0.0307048 8.57905 0.0974554C8.27826 0.227612 8.04869 0.469987 7.9342 0.780119C7.72428 1.34745 7.37639 2.28433 6.99415 3.29996C6.61144 2.28293 6.2635 1.34616 6.05377 0.779846C5.93925 0.469987 5.7097 0.227612 5.40892 0.0974554C5.11271 -0.0307048 4.78685 -0.0327009 4.49176 0.092889C4.49118 0.092889 4.49118 0.092889 4.49118 0.092889C4.19609 0.218205 3.97108 0.45317 3.85771 0.754471C3.74377 1.05692 3.75916 1.39896 3.901 1.69288C4.33188 2.58434 5.21711 4.42326 5.95886 6.00915C5.82829 6.34351 5.70448 6.65687 5.59404 6.93008C5.5939 6.93044 5.59396 6.93079 5.59382 6.93115C5.50558 7.14963 5.42478 7.34719 5.35478 7.51221C5.20051 7.87342 4.9353 8.44539 4.56701 9.21225C4.56668 9.21288 4.56608 9.21323 4.5658 9.21389C4.05027 10.2884 3.43902 11.5182 3.04139 12.3131C3.04139 12.3131 3.04139 12.3131 3.04139 12.3134C2.89611 12.6039 2.87675 12.9439 2.9884 13.2458C3.10004 13.5477 3.32393 13.7826 3.61903 13.908C3.7643 13.9692 3.91639 13.9999 4.0685 13.9999C4.2263 13.9999 4.38468 13.9669 4.5345 13.9008C4.82959 13.7712 5.06086 13.5215 5.16966 13.2153C5.46752 12.3753 5.9322 11.0767 6.34919 9.95734L6.34944 9.9569C6.62851 9.2079 6.84354 8.65422 6.99404 8.29459C7.14588 8.65654 7.3605 9.20979 7.63859 9.95663C8.05558 11.0762 8.52042 12.3752 8.81893 13.2156C8.92716 13.5215 9.15846 13.7712 9.45353 13.9008C9.60334 13.967 9.76172 14 9.91949 14C10.0716 14 10.2237 13.9692 10.369 13.908C10.6646 13.7827 10.8885 13.5472 11.0001 13.2453C11.1112 12.9431 11.0919 12.6033 10.9466 12.3131C10.549 11.5183 9.9383 10.2882 9.42162 9.21364ZM6.48785 7.99269C6.35228 8.31196 6.15746 8.80835 5.90849 9.47024L5.24057 9.19472L5.2249 9.18827C5.52967 8.55031 5.75354 8.06417 5.8914 7.74064C5.8914 7.74036 5.8914 7.74006 5.8914 7.74006C5.93184 7.64523 5.9757 7.54012 6.02186 7.42678L6.62 7.68824C6.57161 7.79789 6.52717 7.89986 6.48785 7.99269ZM8.74743 9.19475L8.0795 9.47026C7.83169 8.81038 7.63744 8.31398 7.50014 7.99244C7.46082 7.89989 7.41639 7.79792 7.36854 7.68827L7.96611 7.42681C8.01281 7.54045 8.0567 7.64583 8.09714 7.74066C8.23386 8.0622 8.45718 8.54837 8.76307 9.1883L8.74743 9.19475Z" fill="#53536E"/>
</g>
<defs>
<clipPath id="clip0_262_167">
<rect width="14" height="14" fill="white"/>
</clipPath>
</defs>
</svg>
