<svg width="14" height="14" viewBox="0 0 14 14" fill="none" xmlns="http://www.w3.org/2000/svg">
<g clip-path="url(#clip0_264_455)">
<path fill-rule="evenodd" clip-rule="evenodd" d="M12.6875 7C12.6875 5.79192 11.7081 4.8125 10.5 4.8125H3.5C2.29192 4.8125 1.3125 5.79192 1.3125 7V11.0833C1.3125 12.2914 2.29192 13.2708 3.5 13.2708H10.5C11.7081 13.2708 12.6875 12.2914 12.6875 11.0833V7ZM5.25 11.8125H8.75C8.9915 11.8125 9.1875 11.6165 9.1875 11.375C9.1875 11.1335 8.9915 10.9375 8.75 10.9375H5.25C5.0085 10.9375 4.8125 11.1335 4.8125 11.375C4.8125 11.6165 5.0085 11.8125 5.25 11.8125ZM11.8125 7V9.91667H2.1875V7H11.8125Z" fill="#53536E"/>
<path fill-rule="evenodd" clip-rule="evenodd" d="M8.3125 7V9.91667C8.3125 10.1582 8.5085 10.3542 8.75 10.3542C8.9915 10.3542 9.1875 10.1582 9.1875 9.91667V7C9.1875 6.7585 8.9915 6.5625 8.75 6.5625C8.5085 6.5625 8.3125 6.7585 8.3125 7Z" fill="#53536E"/>
<path fill-rule="evenodd" clip-rule="evenodd" d="M4.8125 7V9.91667C4.8125 10.1582 5.0085 10.3542 5.25 10.3542C5.4915 10.3542 5.6875 10.1582 5.6875 9.91667V7C5.6875 6.7585 5.4915 6.5625 5.25 6.5625C5.0085 6.5625 4.8125 6.7585 4.8125 7Z" fill="#53536E"/>
<path fill-rule="evenodd" clip-rule="evenodd" d="M12.6688 0.742591L8.67417 1.44667C8.43617 1.48867 8.2775 1.71617 8.31892 1.95359C8.36092 2.19159 8.58842 2.35084 8.82583 2.30884L12.8205 1.60417C13.0585 1.56217 13.2178 1.33526 13.1758 1.09726C13.1338 0.859841 12.9063 0.700591 12.6688 0.742591Z" fill="#53536E"/>
<path fill-rule="evenodd" clip-rule="evenodd" d="M5.17417 2.06384L1.17951 2.7685C0.941506 2.8105 0.782256 3.03742 0.824256 3.27542C0.866256 3.51284 1.09376 3.67209 1.33117 3.63009L5.32584 2.926C5.56384 2.884 5.72251 2.6565 5.68109 2.41909C5.63909 2.18109 5.41159 2.02242 5.17417 2.06384Z" fill="#53536E"/>
<path fill-rule="evenodd" clip-rule="evenodd" d="M9.02767 1.08851C8.98567 0.850505 8.75876 0.691838 8.52076 0.733255L5.07384 1.34109C4.83584 1.38309 4.67717 1.61001 4.71917 1.84801L4.97234 3.28417C5.01434 3.52217 5.24126 3.68142 5.47926 3.63942L8.92617 3.03159C9.16417 2.98959 9.32284 2.76267 9.28084 2.52467L9.02767 1.08851Z" fill="#53536E"/>
<path fill-rule="evenodd" clip-rule="evenodd" d="M7.4375 5.25001V2.91667C7.4375 2.67517 7.2415 2.47917 7 2.47917C6.7585 2.47917 6.5625 2.67517 6.5625 2.91667V5.25001C6.5625 5.49151 6.7585 5.68751 7 5.68751C7.2415 5.68751 7.4375 5.49151 7.4375 5.25001Z" fill="#53536E"/>
</g>
<defs>
<clipPath id="clip0_264_455">
<rect width="14" height="14" fill="white"/>
</clipPath>
</defs>
</svg>
