<svg width="14" height="14" viewBox="0 0 14 14" fill="none" xmlns="http://www.w3.org/2000/svg">
<path d="M2.30892 6.63039C2.3323 6.7319 2.39066 6.82195 2.47378 6.88474L4.86178 8.70989C4.90102 8.73916 4.94759 8.757 4.99633 8.76144C5.04508 8.76589 5.09411 8.75675 5.13799 8.73506C5.18187 8.71336 5.21889 8.67995 5.24496 8.63852C5.27103 8.59709 5.28512 8.54925 5.28569 8.5003C5.28676 8.44153 5.26764 8.38417 5.23152 8.3378L4.07991 6.88709C3.8934 6.90919 3.7055 6.85903 3.55483 6.7469C3.40416 6.63478 3.30215 6.4692 3.26977 6.2842L3.06961 5.069C3.06466 5.03838 3.06579 5.00709 3.07294 4.97691C3.08008 4.94673 3.0931 4.91825 3.11125 4.8931C3.1294 4.86796 3.15233 4.84663 3.17872 4.83034C3.20512 4.81405 3.23446 4.80312 3.26508 4.79818C3.29569 4.79323 3.32698 4.79436 3.35716 4.8015C3.38734 4.80865 3.41582 4.82167 3.44097 4.83982C3.46612 4.85797 3.48744 4.8809 3.50373 4.90729C3.52002 4.93368 3.53095 4.96302 3.5359 4.99364L3.73373 6.20647C3.74549 6.26894 3.77991 6.32486 3.83039 6.36349C3.88086 6.40212 3.94383 6.42074 4.0072 6.41578C4.07057 6.41082 4.12987 6.38262 4.17372 6.3366C4.21757 6.29059 4.24287 6.22999 4.24476 6.16646C4.24522 6.15229 4.24444 6.1381 4.24242 6.12407L4.07286 5.08076C4.05485 4.96444 3.77138 4.67086 3.71252 4.56973L3.00601 3.65834C2.98905 3.63365 2.96872 3.61348 2.95184 3.58768C2.81543 3.41019 2.72339 3.20268 2.68337 2.98243L2.42431 1.53409C2.41944 1.50506 2.40884 1.47729 2.39313 1.4524C2.37741 1.42752 2.3569 1.40601 2.33279 1.38913C2.30867 1.37225 2.28144 1.36034 2.25268 1.35409C2.22391 1.34785 2.19419 1.34739 2.16525 1.35275L1.31273 1.50112C1.28259 1.50642 1.25386 1.51783 1.2283 1.53467C1.20274 1.5515 1.18091 1.57339 1.16414 1.59899C1.14737 1.62458 1.13602 1.65335 1.13079 1.6835C1.12557 1.71365 1.12657 1.74455 1.13375 1.7743L2.30892 6.63039Z" fill="#53536E"/>
<path d="M10.0203 5.11216C9.9793 5.22508 9.95399 5.3431 9.94507 5.4629C9.91782 5.68946 9.89056 5.91603 9.8633 6.14261C9.84687 6.27915 9.85412 6.45699 9.98361 6.50342C10.0273 6.51435 10.0733 6.51102 10.1149 6.4939C10.1565 6.47679 10.1915 6.4468 10.2149 6.40833C10.2598 6.33029 10.2871 6.24335 10.2949 6.15362C10.3478 5.82148 10.4007 5.48933 10.4536 5.15716C10.4621 5.06642 10.4884 4.97822 10.5308 4.89759C10.5496 4.8552 10.5819 4.82021 10.6227 4.79808C10.6634 4.77594 10.7103 4.7679 10.7561 4.77521C10.8019 4.78252 10.844 4.80477 10.8758 4.83848C10.9077 4.8722 10.9275 4.9155 10.9321 4.96163C10.9473 5.05099 10.9448 5.14244 10.9249 5.23085L10.8022 6.00486C10.7813 6.25312 10.7054 6.4936 10.5799 6.70884C10.5147 6.81485 10.4167 6.89675 10.3009 6.94219C10.185 6.98764 10.0575 6.99415 9.93756 6.96076C9.64908 7.30086 8.90803 8.17524 8.86504 8.29322C8.82138 8.41299 8.83958 8.76958 9.04124 8.7438C9.10174 8.73058 9.15786 8.70209 9.20425 8.66106C9.92952 8.12065 10.6548 7.58023 11.3801 7.03981C11.4919 6.96672 11.5892 6.87343 11.6669 6.76472C11.7237 6.66112 11.763 6.54887 11.7833 6.43248C12.1387 4.8947 12.4941 3.35691 12.8495 1.81912C12.8549 1.79593 12.8601 1.77201 12.8639 1.74796C12.8764 1.6925 12.8698 1.63442 12.8451 1.58322C12.8142 1.54491 12.7752 1.51392 12.731 1.49247C12.6867 1.47102 12.6382 1.45965 12.589 1.45917C12.3676 1.42531 12.1462 1.39145 11.9248 1.3576C11.8442 1.33482 11.7579 1.34401 11.6839 1.38326C11.6225 1.44233 11.5867 1.52308 11.5842 1.60821C11.5186 2.0275 11.4531 2.44679 11.3875 2.86609C11.3665 3.05075 11.3224 3.23204 11.2563 3.40574C11.1725 3.57946 11.0665 3.74155 10.941 3.88796C10.6984 4.19688 10.4557 4.50582 10.2131 4.81476C10.1357 4.90473 10.0708 5.00477 10.0203 5.11216Z" fill="#53536E"/>
<path d="M8.80176 1.10546C8.16496 0.793626 7.13165 0.891331 6.43965 0.877031C5.71628 0.878011 5.01678 1.13595 4.46594 1.60483C3.9151 2.0737 3.54875 2.72303 3.43225 3.43696L3.91037 4.05638C4.67343 2.9451 7.43608 1.59977 8.80176 1.10546Z" fill="#53536E"/>
<path d="M10.123 4.16937L10.6622 3.46521C10.6009 3.0484 10.4527 2.64914 10.2271 2.29332C10.0015 1.93751 9.70366 1.63309 9.35284 1.39983C8.91245 1.56469 8.23184 1.83081 7.49707 2.17229C8.08278 2.2096 8.64443 2.41903 9.11157 2.77432C9.57872 3.1296 9.93055 3.6149 10.123 4.16937Z" fill="#53536E"/>
<path d="M5.5989 8.04342C5.69677 8.1653 5.75217 8.3158 5.75668 8.47204C6.37606 8.77114 7.41936 9.0867 8.37078 8.49324C8.35394 8.38717 8.35994 8.27873 8.38837 8.17517C8.4168 8.0716 8.46701 7.9753 8.53565 7.8927L9.5224 6.72224C9.41048 6.57766 9.35898 6.39532 9.37873 6.21355L9.51769 5.11375C9.5499 4.9373 9.63346 4.77427 9.75791 4.64509C9.64674 4.08103 9.34362 3.57289 8.9001 3.20709C8.45658 2.84128 7.90005 2.6404 7.32514 2.6386H6.56211C5.39872 3.26505 4.60743 3.87264 4.20941 4.44493C4.36522 4.60158 4.47868 4.79525 4.53913 5.00777L4.70634 6.04635C4.72433 6.15896 4.71582 6.27421 4.68148 6.38296C4.64714 6.4917 4.58791 6.59094 4.50851 6.67279L5.5989 8.04342Z" fill="#53536E"/>
<path d="M11.8445 12.9254C11.8747 11.7512 10.3807 10.8654 9.06789 10.568C8.85866 10.5256 8.67053 10.4122 8.53533 10.2469C8.40014 10.0817 8.32621 9.87482 8.32605 9.66133V9.05372C7.9681 9.21903 7.57813 9.30346 7.18386 9.30101C6.64122 9.29035 6.10718 9.16346 5.61775 8.92891C5.5992 8.9576 5.5779 8.98442 5.55416 9.00899V9.79793C5.55483 10.0029 5.48709 10.2022 5.36168 10.3643C5.23627 10.5264 5.06036 10.642 4.86181 10.6929C3.89131 10.954 2.19072 11.4261 2.23828 12.7841V13.1232H11.8445V12.9254Z" fill="#53536E"/>
</svg>
