<svg width="14" height="14" viewBox="0 0 14 14" fill="none" xmlns="http://www.w3.org/2000/svg">
<path d="M7.02942 11.0039C7.531 10.9981 8.0992 11.0865 8.66578 11.3698C9.71067 11.8922 10.5554 11.8391 11.2162 11.6497C11.877 11.4602 12.3708 11.1742 12.7075 11.1742H13.1457V12.4892H12.7075C12.1678 12.4892 11.6888 12.8106 11.0964 12.9805C10.5039 13.1503 9.81455 13.2068 8.86134 12.7302C7.00407 11.8015 5.1607 12.7302 5.1607 12.7302C4.32974 13.1456 3.63412 13.0936 3.00655 12.9356C2.37899 12.7775 1.84501 12.4892 1.31499 12.4892H0.876801V11.1742H1.31499C1.66135 11.1742 2.21623 11.4355 2.9 11.6077C3.58377 11.7799 4.42198 11.8372 5.35668 11.3698C5.35668 11.3698 6.07185 11.015 7.02942 11.0039Z" fill="#53536E"/>
<path d="M7.02899 9.25075C7.16578 9.24917 7.30731 9.25424 7.45263 9.26872C7.84016 9.30735 8.25372 9.41059 8.66578 9.61662C9.71067 10.1391 10.5554 10.0859 11.2162 9.89648C11.877 9.70703 12.3708 9.42106 12.7075 9.42106H13.1457V10.7361H12.7075C12.1678 10.7361 11.6888 11.0575 11.0964 11.2273C10.5039 11.3972 9.81455 11.4549 8.86134 10.9783C8.39702 10.7461 7.93377 10.629 7.4997 10.5854C6.19748 10.4548 5.1607 10.9783 5.1607 10.9783C4.32974 11.3937 3.63412 11.3404 3.00655 11.1824C2.37899 11.0243 1.84501 10.7361 1.31499 10.7361H0.876801V9.42106H1.31499C1.66135 9.42106 2.21623 9.68234 2.9 9.85454C3.58377 10.0267 4.42198 10.084 5.35668 9.61662C5.35668 9.61662 6.07147 9.26185 7.02899 9.25075Z" fill="#53536E"/>
<path d="M9.61491 5.90956L12.9172 5.91726C12.9172 5.91726 12.8362 7.67699 11.7293 9.24305C11.5283 9.32543 11.3205 9.41159 11.0964 9.47584C10.5039 9.64569 9.81456 9.70168 8.86135 9.22508C8.39703 8.99292 7.93378 8.87749 7.49971 8.83396C6.19749 8.70337 5.16071 9.22508 5.16071 9.22508C4.32975 9.64056 3.63413 9.58853 3.00656 9.43048C2.48677 9.29957 2.03122 9.07859 1.58887 9.00641L2.14302 6.78936L8.73041 6.72817C8.78894 6.72769 8.84492 6.7038 8.88574 6.66184L9.61491 5.90956Z" fill="#53536E"/>
<path d="M3.06818 4.38145H6.63916L7.33752 6.30367L3.06818 6.34432V4.38145Z" fill="#53536E"/>
<path d="M4.60139 2.62999H8.31487C8.25116 3.26191 7.90939 3.57795 7.57072 3.74729C7.18479 3.94025 6.79105 3.94284 6.79105 3.94284H3.07886C3.14214 3.31633 3.47608 2.99923 3.82344 2.82555C4.20937 2.63258 4.60139 2.62999 4.60139 2.62999Z" fill="#53536E"/>
</svg>
