<svg width="14" height="14" viewBox="0 0 14 14" fill="none" xmlns="http://www.w3.org/2000/svg">
<g clip-path="url(#clip0_264_513)">
<path d="M4.26057 9.03568C3.1648 9.03568 2.27097 9.92683 2.27097 11.0253C2.27097 12.1237 3.1648 13.0176 4.26057 13.0176C5.35903 13.0176 6.25288 12.1237 6.25288 11.0253C6.25288 9.92683 5.35903 9.03568 4.26057 9.03568Z" fill="#53536E"/>
<path d="M9.54288 8.40567C9.19019 7.28298 8.99635 6.21682 8.77288 4.98105L8.70288 4.60683C8.57096 3.66182 8.11596 2.71143 7.34866 1.94144C6.53018 1.12567 5.48557 0.630283 4.40327 0.549517C3.31019 0.468751 2.30865 0.821443 1.58711 1.54298C0.932882 2.19721 0.582886 3.08028 0.582886 4.05491C0.582886 4.1572 0.585581 4.25951 0.593649 4.36182C0.631345 4.86797 0.763266 5.36606 0.973274 5.83989C0.975952 5.84259 0.975952 5.84528 0.975952 5.84798C1.21557 6.37568 1.55211 6.86836 1.98019 7.29913C1.98289 7.30183 1.98289 7.30451 1.98289 7.30451C1.98557 7.3072 1.98826 7.3072 1.98826 7.3099C2.42174 7.74066 2.91172 8.06913 3.42596 8.30067C3.43673 8.30606 3.44751 8.31412 3.45827 8.31682C3.80557 8.47028 4.16365 8.57798 4.52173 8.6399C5.95404 8.94952 7.21674 9.26452 8.37173 9.59836L9.20097 10.4276L10.3829 9.24567L9.54288 8.40567ZM8.14557 4.51528C8.14557 4.52337 8.14289 4.53143 8.14557 4.53952L8.1725 4.69566C8.2075 4.95143 8.21827 5.20451 8.19672 5.4522L7.37018 4.62298L8.00558 3.9849C8.0648 4.16259 8.11326 4.3376 8.14557 4.51528ZM4.28481 4.62298L3.50403 5.40374L2.72327 4.62298L3.50403 3.8422L4.28481 4.62298ZM3.88635 3.4626L4.66711 2.68182L5.44789 3.4626L4.66711 4.24336L3.88635 3.4626ZM4.66711 5.00259L5.44789 5.78336L4.66711 6.56412L3.88635 5.78336L4.66711 5.00259ZM5.04674 4.62298L5.8275 3.8422L6.60827 4.62298L5.8275 5.40374L5.04674 4.62298ZM6.98788 5.00259L8.08096 6.09566C7.97327 6.4699 7.79557 6.8172 7.54519 7.12143L6.20712 5.78336L6.98788 5.00259ZM7.78211 3.44914L6.98788 4.24336L6.20712 3.4626L7.14943 2.52029C7.40518 2.81105 7.61789 3.12336 7.78211 3.44914ZM6.76711 2.14066L5.8275 3.08028L5.04674 2.29952L5.84095 1.50798C6.16942 1.6722 6.48172 1.88489 6.76711 2.14066ZM4.09904 1.0772C4.18519 1.0772 4.27403 1.07989 4.36558 1.08528C4.68327 1.10952 4.99826 1.17951 5.30249 1.28182L4.66711 1.91989L3.8352 1.08798C3.92134 1.08259 4.01019 1.0772 4.09904 1.0772ZM3.18904 1.20375L4.28481 2.29952L3.50403 3.08028L2.16596 1.74221C2.46481 1.49452 2.81211 1.31412 3.18904 1.20375ZM1.78634 2.12451L3.12442 3.4626L2.34365 4.24336L1.25057 3.15028C1.36097 2.77067 1.54135 2.42335 1.78634 2.12451ZM1.12942 4.32144C1.11596 4.14105 1.12135 3.96606 1.13481 3.79374L1.96404 4.62298L1.32597 5.26106C1.22366 4.95413 1.15365 4.63913 1.12942 4.32144ZM1.54942 5.79682L2.34365 5.00259L3.12442 5.78336L2.18212 6.72567C1.92904 6.44029 1.71634 6.12797 1.54942 5.79682ZM2.56442 7.10528L3.50403 6.16567L4.28481 6.94644L3.49327 7.73798C3.16749 7.57374 2.8525 7.36375 2.56442 7.10528ZM4.6725 8.12298C4.64557 8.1149 4.61865 8.10952 4.59174 8.10413C4.58096 8.10144 4.57289 8.10413 4.56211 8.10413C4.38442 8.06913 4.20672 8.02337 4.02904 7.96413L4.66711 7.32605L5.49365 8.15529C5.22442 8.17413 4.9498 8.16605 4.6725 8.12298ZM5.04674 6.94644L5.8275 6.16567L7.16289 7.50106C6.85865 7.75144 6.51135 7.92913 6.13981 8.03682L5.04674 6.94644ZM8.42019 9.05451C7.78211 8.86874 7.11173 8.69375 6.40096 8.51874C6.89903 8.35721 7.36211 8.08798 7.74711 7.70298C8.09441 7.35566 8.34749 6.94375 8.51441 6.49951C8.64903 7.16182 8.79981 7.81605 9.00174 8.47298L8.42019 9.05451Z" fill="#53536E"/>
<path d="M13.4171 12.428C13.4171 12.7053 13.3094 12.9637 13.1156 13.1603C12.9137 13.3622 12.6498 13.4618 12.3833 13.4618C12.1194 13.4618 11.8556 13.3622 11.6537 13.1603L9.62367 11.1303C9.53751 11.0441 9.52136 10.9095 9.58058 10.8072L10.7625 9.62528C10.8648 9.56875 11.0021 9.5849 11.0856 9.66836L13.1156 11.6984C13.3094 11.8922 13.4171 12.1534 13.4171 12.428Z" fill="#53536E"/>
</g>
<defs>
<clipPath id="clip0_264_513">
<rect width="14" height="14" fill="white"/>
</clipPath>
</defs>
</svg>
