<svg width="14" height="14" viewBox="0 0 14 14" fill="none" xmlns="http://www.w3.org/2000/svg">
<g clip-path="url(#clip0_264_631)">
<path d="M0.275214 12.2521C0.887345 12.2521 1.22173 12.4813 1.46587 12.6486C1.64578 12.7719 1.7279 12.8282 1.95633 12.8282C2.18479 12.8282 2.26691 12.7719 2.44682 12.6486C2.69099 12.4813 3.02535 12.2521 3.6375 12.2521C4.2318 12.2521 4.56426 12.4681 4.80656 12.6338C5.30029 12.5095 5.81291 12.3574 6.3346 12.1778C9.45861 11.1017 11.7213 9.44595 11.3884 8.47962C11.1551 7.80207 9.70751 7.64341 7.78633 7.97997L7.21355 8.4518L7.67131 10.0421C7.82266 10.5679 7.51909 11.1169 6.99324 11.2682C6.46736 11.4196 5.91845 11.116 5.76706 10.5902L5.20892 8.65122C4.84113 8.77617 4.48428 8.9089 4.1232 9.05639L2.98984 11.527C2.76208 12.0235 2.17427 12.243 1.67619 12.0144C1.17885 11.7863 0.960607 11.1982 1.18876 10.7008L1.22024 10.6322C0.411445 11.2415 -0.032035 11.8352 0.0536392 12.2931C0.12247 12.2667 0.197108 12.2521 0.275214 12.2521Z" fill="#53536E"/>
<path d="M10.66 3.63953L8.69024 2.60894C8.62557 2.57512 8.55464 2.55486 8.48185 2.54944C7.56795 2.48994 7.01925 2.46088 6.69131 2.44695C6.39355 2.43432 6.09591 2.46921 5.80902 2.54993C5.80413 2.55131 5.79917 2.55271 5.79419 2.55409C5.21032 2.71842 4.69496 3.06654 4.32449 3.54681C4.10242 3.83469 3.80651 4.21743 3.40831 4.72828L1.73302 5.42157C1.45998 5.53458 1.33022 5.84752 1.44322 6.12059C1.556 6.39319 1.86868 6.52359 2.14224 6.41042L3.94894 5.66277C4.03502 5.62713 4.11032 5.56964 4.16737 5.49596L4.97601 4.45155C5.15589 5.0508 5.28433 5.47868 5.48177 6.13644L3.28837 7.27363C3.16006 7.34015 3.05763 7.44762 2.99738 7.579L1.49983 10.8435C1.35048 11.169 1.49334 11.554 1.81892 11.7034C1.90657 11.7436 1.99844 11.7626 2.08896 11.7626C2.33467 11.7626 2.56973 11.6223 2.67888 11.3843L4.08341 8.32255L5.99562 7.33115L5.66916 7.60009C5.46963 7.76447 5.38676 8.03165 5.45829 8.28008L6.09195 10.4815C6.19254 10.8309 6.56322 11.043 6.91068 10.9358C7.24749 10.8319 7.44044 10.4769 7.34249 10.1367L6.82258 8.33053L7.7784 7.54435C8.21965 7.18143 8.40636 6.5931 8.25502 6.04218C7.98016 5.04161 7.62216 3.74136 7.56676 3.55455L8.29217 3.60844L10.1639 4.58773C10.4266 4.72512 10.7495 4.62271 10.886 4.36167C11.0231 4.09986 10.9219 3.77654 10.66 3.63953Z" fill="#53536E"/>
<path d="M5.35154 2.37666C5.91867 2.20642 6.2404 1.60868 6.07018 1.04155C5.93081 0.577232 5.5048 0.277359 5.04371 0.277359C4.32785 0.277359 3.80946 0.968587 4.01642 1.65803C4.18614 2.22348 4.78286 2.54738 5.35154 2.37666Z" fill="#53536E"/>
<path d="M13.7248 12.5961C13.2192 12.5961 12.9472 12.7825 12.7286 12.9323C12.533 13.0664 12.3785 13.1722 12.0435 13.1722C11.7084 13.1722 11.554 13.0664 11.3584 12.9323C11.1398 12.7825 10.8678 12.5961 10.3622 12.5961C9.8566 12.5961 9.58455 12.7825 9.36597 12.9323C9.17046 13.0664 9.01598 13.1722 8.68094 13.1722C8.34589 13.1722 8.19147 13.0664 7.99593 12.9324C7.77736 12.7825 7.50531 12.5961 6.99977 12.5961C6.49423 12.5961 6.22218 12.7825 6.00363 12.9324C5.80812 13.0664 5.65367 13.1722 5.31865 13.1722C4.9836 13.1722 4.82918 13.0664 4.63364 12.9324C4.41507 12.7825 4.14302 12.5961 3.63748 12.5961C3.13194 12.5961 2.85989 12.7825 2.64131 12.9324C2.4458 13.0664 2.29135 13.1722 1.9563 13.1722C1.62129 13.1722 1.46686 13.0664 1.27132 12.9324C1.05275 12.7825 0.780727 12.5961 0.275186 12.5961C0.123213 12.5961 -2.76566e-05 12.7193 -2.76566e-05 12.8713C-2.76566e-05 13.0233 0.123213 13.1465 0.275186 13.1465C0.610204 13.1465 0.764627 13.2523 0.960167 13.3863C1.17874 13.5362 1.45076 13.7226 1.9563 13.7226C2.46184 13.7226 2.73389 13.5362 2.95247 13.3863C3.14798 13.2523 3.30243 13.1465 3.63748 13.1465C3.97252 13.1465 4.12694 13.2523 4.32248 13.3863C4.54106 13.5362 4.81311 13.7226 5.31865 13.7226C5.82419 13.7226 6.09624 13.5362 6.31479 13.3863C6.5103 13.2523 6.66475 13.1465 6.99977 13.1465C7.33481 13.1465 7.48923 13.2523 7.68477 13.3863C7.90335 13.5362 8.1754 13.7226 8.68094 13.7226C9.18651 13.7226 9.45856 13.5362 9.67713 13.3864C9.87264 13.2523 10.0271 13.1465 10.3622 13.1465C10.6972 13.1465 10.8517 13.2523 11.0473 13.3864C11.2659 13.5362 11.5379 13.7226 12.0435 13.7226C12.5491 13.7226 12.8211 13.5362 13.0397 13.3864C13.2353 13.2523 13.3897 13.1465 13.7248 13.1465C13.8768 13.1465 14 13.0233 14 12.8713C14 12.7193 13.8768 12.5961 13.7248 12.5961Z" fill="#53536E"/>
<path d="M13.0761 6.39729C13.5232 6.0784 13.3121 5.21863 12.945 5.35908C12.4553 5.54647 12.1059 6.56495 11.9282 7.2195C11.9023 7.31464 12.0291 7.37403 12.085 7.29287C12.4336 6.78746 12.7224 6.64955 13.0761 6.39729Z" fill="#53536E"/>
<path d="M13.1122 8.36703C13.4382 8.43512 13.7345 7.98751 13.521 7.88172C13.2531 7.74899 12.709 7.97364 12.3418 8.15883C12.2757 8.19216 12.3055 8.29231 12.3791 8.28458C12.6993 8.25098 12.8721 8.31686 13.1122 8.36703Z" fill="#53536E"/>
</g>
<defs>
<clipPath id="clip0_264_631">
<rect width="14" height="14" fill="white"/>
</clipPath>
</defs>
</svg>
