<svg width="14" height="14" viewBox="0 0 14 14" fill="none" xmlns="http://www.w3.org/2000/svg">
<path d="M3.93236 10.1053C1.93447 10.1756 1.93396 13.0543 3.93233 13.125C4.13083 13.1253 4.32744 13.0865 4.51093 13.0108C4.69441 12.9351 4.86116 12.8239 5.00164 12.6837C5.14212 12.5435 5.25357 12.3769 5.32961 12.1935C5.40565 12.0102 5.44479 11.8136 5.44479 11.6151C5.4448 11.4166 5.40566 11.2201 5.32962 11.0367C5.25358 10.8534 5.14214 10.6868 5.00166 10.5466C4.86119 10.4063 4.69444 10.2952 4.51095 10.2195C4.32747 10.1437 4.13086 10.1049 3.93236 10.1053Z" fill="#53536E"/>
<path d="M4.96449 9.52015L10.1011 4.38353C8.9589 -0.744487 1.58684 -0.0713254 1.43634 5.2294C1.43757 6.24226 1.78982 7.22337 2.43311 8.00571C3.0764 8.78805 3.97096 9.32324 4.96449 9.52015Z" fill="#53536E"/>
<path d="M12.253 9.96063L9.62336 7.33096C9.84251 6.80105 10.2688 5.67393 10.1734 4.93138L5.94183 9.16296L5.51233 9.59248C6.35298 9.65084 7.19254 9.46435 7.92943 9.05559L10.5438 11.6721C10.7431 11.8689 11.012 11.9793 11.2921 11.9793C11.5723 11.9793 11.8411 11.8689 12.0405 11.6721L12.253 11.4574C12.3515 11.3592 12.4296 11.2426 12.4829 11.1141C12.5362 10.9857 12.5637 10.848 12.5637 10.709C12.5637 10.57 12.5362 10.4323 12.4829 10.3039C12.4296 10.1754 12.3515 10.0588 12.253 9.96063Z" fill="#53536E"/>
</svg>
