<svg width="14" height="14" viewBox="0 0 14 14" fill="none" xmlns="http://www.w3.org/2000/svg">
<path d="M6.75001 7.125V9.875H2.95726L3.72501 7.125H6.75001ZM10.275 7.125L11.0425 9.875H7.25001V7.125H10.275ZM2.81775 10.375H11.1823L11.6708 12.125H2.32926L2.81775 10.375ZM12.1898 12.125L10.7943 7.125H12.075L13.771 11.7895C13.7989 11.8661 13.7877 11.9515 13.7409 12.0183C13.6942 12.0851 13.6178 12.1249 13.5363 12.125H12.1898ZM10.1425 2.03325L11.0678 4.375H10.027L9.32926 1.875H9.91001C10.0126 1.87502 10.1048 1.93778 10.1425 2.03325ZM4.49176 4.375L4.84176 3.125H6.75001V4.375H4.49176ZM8.81026 1.875L9.01976 2.625H4.98026L5.18976 1.875H8.81026ZM7.25001 3.125H9.15926L9.50926 4.375H7.25001V3.125ZM4.09026 1.875H4.67076L3.97301 4.375H2.9325L3.85751 2.03325C3.89521 1.93769 3.98753 1.87492 4.09026 1.875ZM1.5 5.125C1.5 4.98693 1.61193 4.875 1.75001 4.875H12.25C12.3881 4.875 12.5 4.98693 12.5 5.125V6.375C12.5 6.51307 12.3881 6.625 12.25 6.625H1.75001C1.61193 6.625 1.5 6.51307 1.5 6.375V5.125ZM1.925 7.125H3.20575L1.81026 12.125H0.463755C0.382221 12.1249 0.305837 12.0851 0.259093 12.0183C0.21235 11.9515 0.20112 11.8661 0.229005 11.7895L1.925 7.125Z" fill="#53536E"/>
</svg>
