<svg width="14" height="14" viewBox="0 0 14 14" fill="none" xmlns="http://www.w3.org/2000/svg">
<g clip-path="url(#clip0_280_413)">
<path d="M12.9348 11.2976V7.30434H13.5435C13.7955 7.30434 14 7.09983 14 6.8478C14 6.59578 13.7955 6.39127 13.5435 6.39127H12.0217V1.36957C12.0217 0.614359 11.4074 0 10.6522 0H3.34783C2.59262 0 1.97827 0.614359 1.97827 1.36957V6.3913H0.456531C0.204504 6.3913 0 6.5958 0 6.84783C0 7.09986 0.204504 7.30436 0.456531 7.30436H1.06523V11.2976C0.456531 11.4368 0 11.9801 0 12.6304V13.5435C0 13.7955 0.204504 14 0.456531 14H13.5435C13.7955 14 14 13.7955 14 13.5435V12.6304C14 11.9801 13.5435 11.4368 12.9348 11.2976ZM2.8913 11.2609H1.97827V7.30434C2.30866 7.30434 2.56091 7.30434 2.8913 7.30434V11.2609ZM4.7174 11.2609H3.80434V7.30434C4.13473 7.30434 4.38698 7.30434 4.71737 7.30434V11.2609H4.7174ZM6.54347 11.2609H5.63043V7.30434H6.54347V11.2609ZM8.36957 11.2609H7.45653V7.30434H8.36957V11.2609ZM10.1957 11.2609H9.28263V7.30434C9.61302 7.30434 9.86527 7.30434 10.1957 7.30434V11.2609ZM10.1957 6.3913H9.28263V2.73913H7.45653V6.3913H6.5435V2.73913H4.7174V6.3913H3.80434V2.2826C3.80434 2.03057 4.00884 1.82607 4.26087 1.82607H9.73913C9.99116 1.82607 10.1957 2.03057 10.1957 2.2826V6.3913ZM12.0217 11.2609H11.1087V7.30434C11.4391 7.30434 11.6913 7.30434 12.0217 7.30434V11.2609Z" fill="#53536E"/>
</g>
<defs>
<clipPath id="clip0_280_413">
<rect width="14" height="14" fill="white"/>
</clipPath>
</defs>
</svg>
