<svg width="14" height="14" viewBox="0 0 14 14" fill="none" xmlns="http://www.w3.org/2000/svg">
<path fill-rule="evenodd" clip-rule="evenodd" d="M2 2.76364C2 2.34189 2.34189 2 2.76364 2H11.2364C11.6581 2 12 2.34189 12 2.76364V10.3273C12 10.749 11.6581 11.0909 11.2364 11.0909H2.76364C2.34189 11.0909 2 10.749 2 10.3273V2.76364ZM6.92629 3.09869C6.97535 3.01419 7.09738 3.01419 7.14643 3.09869L7.45987 3.63859C7.47787 3.6696 7.50812 3.69158 7.54318 3.69912L8.15351 3.83038C8.24903 3.85092 8.28674 3.96697 8.22154 4.03974L7.80492 4.50467C7.78099 4.53138 7.76943 4.56694 7.7731 4.60261L7.83687 5.22363C7.84685 5.32083 7.74813 5.39255 7.65877 5.35303L7.08785 5.10047C7.05506 5.08596 7.01767 5.08596 6.98488 5.10047L6.41395 5.35303C6.3246 5.39255 6.22588 5.32083 6.23586 5.22363L6.29963 4.60261C6.30329 4.56694 6.29174 4.53138 6.26781 4.50467L5.85119 4.03974C5.78599 3.96697 5.82369 3.85092 5.91922 3.83038L6.52955 3.69912C6.56461 3.69158 6.59486 3.6696 6.61286 3.63859L6.92629 3.09869ZM2.85213 8.35883V8.63636H4.52231V8.30803H3.37995V8.28944L3.88422 7.76163C4.03868 7.60469 4.15928 7.47129 4.24601 7.36143C4.33274 7.25075 4.39345 7.15039 4.42814 7.06036C4.46366 6.97032 4.48142 6.87822 4.48142 6.78406C4.48142 6.64777 4.44714 6.52552 4.37858 6.41731C4.31002 6.30828 4.21462 6.22238 4.09237 6.1596C3.97095 6.096 3.83053 6.0642 3.67111 6.0642C3.51335 6.0642 3.37251 6.09641 3.24861 6.16084C3.12471 6.22444 3.02724 6.31406 2.95621 6.4297C2.88517 6.54534 2.84965 6.68039 2.84965 6.83486H3.21516C3.21516 6.744 3.23333 6.6647 3.26968 6.59697C3.30602 6.52924 3.35806 6.47679 3.42579 6.43962C3.49352 6.40245 3.57282 6.38386 3.66368 6.38386C3.74958 6.38386 3.82681 6.40079 3.89537 6.43466C3.96393 6.4677 4.01803 6.51519 4.05768 6.57714C4.09733 6.63827 4.11715 6.71096 4.11715 6.79521C4.11715 6.86955 4.10229 6.93976 4.07255 7.00584C4.04281 7.07192 3.9978 7.14172 3.9375 7.21523C3.87803 7.28792 3.80245 7.37258 3.71076 7.46923L2.85213 8.35883ZM5.3735 8.52362C5.51227 8.62604 5.67953 8.67766 5.8753 8.67849C6.07023 8.67849 6.23708 8.62728 6.37585 8.52485C6.51462 8.4216 6.62076 8.27251 6.69428 8.07758C6.76779 7.88181 6.80455 7.64558 6.80455 7.36887C6.80455 7.09381 6.76738 6.85922 6.69304 6.66511C6.61952 6.47018 6.51338 6.3215 6.37461 6.21907C6.23585 6.11582 6.06941 6.0642 5.8753 6.0642C5.68119 6.0642 5.51433 6.11541 5.37474 6.21783C5.23597 6.32026 5.12942 6.46894 5.05508 6.66387C4.98156 6.85881 4.94481 7.09381 4.94481 7.36887C4.94481 7.64475 4.98156 7.88057 5.05508 8.07634C5.12859 8.2721 5.23473 8.42119 5.3735 8.52362ZM6.27797 8.09616C6.18133 8.26384 6.0471 8.34768 5.8753 8.34768C5.76048 8.34768 5.66219 8.31051 5.58041 8.23617C5.49864 8.161 5.43545 8.05073 5.39085 7.90535C5.34707 7.75915 5.32518 7.58032 5.32518 7.36887C5.32601 7.05251 5.37515 6.81008 5.47262 6.64157C5.57009 6.47307 5.70431 6.38882 5.8753 6.38882C5.98846 6.38882 6.08593 6.42681 6.1677 6.5028C6.2503 6.57797 6.31349 6.68865 6.35727 6.83486C6.40187 6.98023 6.42417 7.15824 6.42417 7.36887C6.42417 7.68605 6.37544 7.92848 6.27797 8.09616ZM7.24408 8.35883V8.63636H8.91426V8.30803H7.7719V8.28944L8.27617 7.76163C8.43063 7.60469 8.55123 7.47129 8.63796 7.36143C8.72469 7.25075 8.7854 7.15039 8.82009 7.06036C8.85561 6.97032 8.87337 6.87822 8.87337 6.78406C8.87337 6.64777 8.83909 6.52552 8.77053 6.41731C8.70197 6.30828 8.60657 6.22238 8.48432 6.1596C8.3629 6.096 8.22248 6.0642 8.06306 6.0642C7.9053 6.0642 7.76446 6.09641 7.64056 6.16084C7.51666 6.22444 7.4192 6.31406 7.34816 6.4297C7.27712 6.54534 7.24161 6.68039 7.24161 6.83486H7.60711C7.60711 6.744 7.62528 6.6647 7.66163 6.59697C7.69797 6.52924 7.75001 6.47679 7.81774 6.43962C7.88547 6.40245 7.96477 6.38386 8.05563 6.38386C8.14153 6.38386 8.21876 6.40079 8.28732 6.43466C8.35588 6.4677 8.40998 6.51519 8.44963 6.57714C8.48928 6.63827 8.5091 6.71096 8.5091 6.79521C8.5091 6.86955 8.49424 6.93976 8.4645 7.00584C8.43476 7.07192 8.38975 7.14172 8.32945 7.21523C8.26998 7.28792 8.1944 7.37258 8.10271 7.46923L7.24408 8.35883ZM9.76545 8.52362C9.90422 8.62604 10.0715 8.67766 10.2672 8.67849C10.4622 8.67849 10.629 8.62728 10.7678 8.52485C10.9066 8.4216 11.0127 8.27251 11.0862 8.07758C11.1597 7.88181 11.1965 7.64558 11.1965 7.36887C11.1965 7.09381 11.1593 6.85922 11.085 6.66511C11.0115 6.47018 10.9053 6.3215 10.7666 6.21907C10.6278 6.11582 10.4614 6.0642 10.2672 6.0642C10.0731 6.0642 9.90628 6.11541 9.76669 6.21783C9.62792 6.32026 9.52137 6.46894 9.44703 6.66387C9.37351 6.85881 9.33676 7.09381 9.33676 7.36887C9.33676 7.64475 9.37351 7.88057 9.44703 8.07634C9.52054 8.2721 9.62668 8.42119 9.76545 8.52362ZM10.6699 8.09616C10.5733 8.26384 10.4391 8.34768 10.2672 8.34768C10.1524 8.34768 10.0541 8.31051 9.97236 8.23617C9.89059 8.161 9.8274 8.05073 9.7828 7.90535C9.73902 7.75915 9.71713 7.58032 9.71713 7.36887C9.71796 7.05251 9.7671 6.81008 9.86457 6.64157C9.96204 6.47307 10.0963 6.38882 10.2672 6.38882C10.3804 6.38882 10.4779 6.42681 10.5597 6.5028C10.6423 6.57797 10.7054 6.68865 10.7492 6.83486C10.7938 6.98023 10.8161 7.15824 10.8161 7.36887C10.8161 7.68605 10.7674 7.92848 10.6699 8.09616Z" fill="#53536E"/>
</svg>
