<svg width="14" height="14" viewBox="0 0 14 14" fill="none" xmlns="http://www.w3.org/2000/svg">
<path fill-rule="evenodd" clip-rule="evenodd" d="M2 2.76364C2 2.34189 2.34189 2 2.76364 2H11.2364C11.6581 2 12 2.34189 12 2.76364V10.3273C12 10.749 11.6581 11.0909 11.2364 11.0909H2.76364C2.34189 11.0909 2 10.749 2 10.3273V2.76364ZM6.92629 3.09869C6.97535 3.01419 7.09738 3.01419 7.14643 3.09869L7.45987 3.63859C7.47787 3.6696 7.50812 3.69158 7.54318 3.69912L8.15351 3.83038C8.24903 3.85092 8.28674 3.96697 8.22154 4.03974L7.80492 4.50467C7.78099 4.53138 7.76943 4.56694 7.7731 4.60261L7.83687 5.22363C7.84685 5.32083 7.74813 5.39255 7.65877 5.35303L7.08785 5.10047C7.05506 5.08596 7.01767 5.08596 6.98488 5.10047L6.41395 5.35303C6.3246 5.39255 6.22588 5.32083 6.23586 5.22363L6.29963 4.60261C6.30329 4.56694 6.29174 4.53138 6.26781 4.50467L5.85119 4.03974C5.78599 3.96697 5.82369 3.85092 5.91922 3.83038L6.52955 3.69912C6.56461 3.69158 6.59486 3.6696 6.61286 3.63859L6.92629 3.09869ZM3.15367 8.35883V8.63636H4.82385V8.30803H3.68149V8.28944L4.18576 7.76163C4.34023 7.60469 4.46082 7.47129 4.54755 7.36143C4.63428 7.25075 4.69499 7.15039 4.72968 7.06036C4.7652 6.97032 4.78296 6.87822 4.78296 6.78406C4.78296 6.64777 4.74868 6.52552 4.68012 6.41731C4.61157 6.30828 4.51616 6.22238 4.39392 6.1596C4.27249 6.096 4.13207 6.0642 3.97265 6.0642C3.81489 6.0642 3.67406 6.09641 3.55016 6.16084C3.42626 6.22444 3.32879 6.31406 3.25775 6.4297C3.18672 6.54534 3.1512 6.68039 3.1512 6.83486H3.5167C3.5167 6.744 3.53487 6.6647 3.57122 6.59697C3.60756 6.52924 3.6596 6.47679 3.72733 6.43962C3.79506 6.40245 3.87436 6.38386 3.96522 6.38386C4.05113 6.38386 4.12836 6.40079 4.19691 6.43466C4.26547 6.4677 4.31958 6.51519 4.35922 6.57714C4.39887 6.63827 4.4187 6.71096 4.4187 6.79521C4.4187 6.86955 4.40383 6.93976 4.37409 7.00584C4.34436 7.07192 4.29934 7.14172 4.23904 7.21523C4.17957 7.28792 4.10399 7.37258 4.0123 7.46923L3.15367 8.35883ZM5.67504 8.52362C5.81381 8.62604 5.98108 8.67766 6.17684 8.67849C6.37177 8.67849 6.53863 8.62728 6.6774 8.52485C6.81616 8.4216 6.9223 8.27251 6.99582 8.07758C7.06933 7.88181 7.10609 7.64558 7.10609 7.36887C7.10609 7.09381 7.06892 6.85922 6.99458 6.66511C6.92107 6.47018 6.81492 6.3215 6.67616 6.21907C6.53739 6.11582 6.37095 6.0642 6.17684 6.0642C5.98273 6.0642 5.81588 6.11541 5.67628 6.21783C5.53751 6.32026 5.43096 6.46894 5.35662 6.66387C5.28311 6.85881 5.24635 7.09381 5.24635 7.36887C5.24635 7.64475 5.28311 7.88057 5.35662 8.07634C5.43013 8.2721 5.53627 8.42119 5.67504 8.52362ZM6.57951 8.09616C6.48287 8.26384 6.34865 8.34768 6.17684 8.34768C6.06202 8.34768 5.96373 8.31051 5.88196 8.23617C5.80018 8.161 5.73699 8.05073 5.69239 7.90535C5.64861 7.75915 5.62672 7.58032 5.62672 7.36887C5.62755 7.05251 5.67669 6.81008 5.77416 6.64157C5.87163 6.47307 6.00586 6.38882 6.17684 6.38882C6.29 6.38882 6.38747 6.42681 6.46924 6.5028C6.55184 6.57797 6.61503 6.68865 6.65881 6.83486C6.70341 6.98023 6.72572 7.15824 6.72572 7.36887C6.72572 7.68605 6.67698 7.92848 6.57951 8.09616ZM7.54563 8.35883V8.63636H9.2158V8.30803H8.07344V8.28944L8.57771 7.76163C8.73218 7.60469 8.85277 7.47129 8.9395 7.36143C9.02623 7.25075 9.08694 7.15039 9.12164 7.06036C9.15715 6.97032 9.17491 6.87822 9.17491 6.78406C9.17491 6.64777 9.14063 6.52552 9.07208 6.41731C9.00352 6.30828 8.90811 6.22238 8.78587 6.1596C8.66444 6.096 8.52402 6.0642 8.36461 6.0642C8.20684 6.0642 8.06601 6.09641 7.94211 6.16084C7.81821 6.22444 7.72074 6.31406 7.6497 6.4297C7.57867 6.54534 7.54315 6.68039 7.54315 6.83486H7.90865C7.90865 6.744 7.92683 6.6647 7.96317 6.59697C7.99951 6.52924 8.05155 6.47679 8.11928 6.43962C8.18702 6.40245 8.26631 6.38386 8.35717 6.38386C8.44308 6.38386 8.52031 6.40079 8.58886 6.43466C8.65742 6.4677 8.71153 6.51519 8.75117 6.57714C8.79082 6.63827 8.81065 6.71096 8.81065 6.79521C8.81065 6.86955 8.79578 6.93976 8.76604 7.00584C8.73631 7.07192 8.69129 7.14172 8.63099 7.21523C8.57152 7.28792 8.49594 7.37258 8.40425 7.46923L7.54563 8.35883ZM10.6481 8.63636V6.09889H10.2751L9.64202 6.51272V6.87946L10.2491 6.48298H10.264V8.63636H10.6481Z" fill="#53536E"/>
</svg>
