<svg width="14" height="14" viewBox="0 0 14 14" fill="none" xmlns="http://www.w3.org/2000/svg">
<path fill-rule="evenodd" clip-rule="evenodd" d="M2 2.76364C2 2.34189 2.34189 2 2.76364 2H11.2364C11.6581 2 12 2.34189 12 2.76364V10.3273C12 10.749 11.6581 11.0909 11.2364 11.0909H2.76364C2.34189 11.0909 2 10.749 2 10.3273V2.76364ZM6.92629 3.09869C6.97535 3.01419 7.09738 3.01419 7.14643 3.09869L7.45987 3.63859C7.47787 3.6696 7.50812 3.69158 7.54318 3.69912L8.15351 3.83038C8.24903 3.85092 8.28674 3.96697 8.22154 4.03974L7.80492 4.50467C7.78099 4.53138 7.76943 4.56694 7.7731 4.60261L7.83687 5.22363C7.84685 5.32083 7.74813 5.39255 7.65877 5.35303L7.08785 5.10047C7.05506 5.08596 7.01767 5.08596 6.98488 5.10047L6.41395 5.35303C6.3246 5.39255 6.22588 5.32083 6.23586 5.22363L6.29963 4.60261C6.30329 4.56694 6.29174 4.53138 6.26781 4.50467L5.85119 4.03974C5.78599 3.96697 5.82369 3.85092 5.91922 3.83038L6.52955 3.69912C6.56461 3.69158 6.59486 3.6696 6.61286 3.63859L6.92629 3.09869ZM3.12131 8.35883V8.63636H4.79148V8.30803H3.64912V8.28944L4.15339 7.76163C4.30786 7.60469 4.42845 7.47129 4.51518 7.36143C4.60191 7.25075 4.66262 7.15039 4.69732 7.06036C4.73283 6.97032 4.75059 6.87822 4.75059 6.78406C4.75059 6.64777 4.71631 6.52552 4.64776 6.41731C4.5792 6.30828 4.48379 6.22238 4.36155 6.1596C4.24012 6.096 4.0997 6.0642 3.94029 6.0642C3.78252 6.0642 3.64169 6.09641 3.51779 6.16084C3.39389 6.22444 3.29642 6.31406 3.22538 6.4297C3.15435 6.54534 3.11883 6.68039 3.11883 6.83486H3.48433C3.48433 6.744 3.50251 6.6647 3.53885 6.59697C3.57519 6.52924 3.62723 6.47679 3.69496 6.43962C3.7627 6.40245 3.84199 6.38386 3.93285 6.38386C4.01876 6.38386 4.09599 6.40079 4.16455 6.43466C4.2331 6.4677 4.28721 6.51519 4.32685 6.57714C4.3665 6.63827 4.38633 6.71096 4.38633 6.79521C4.38633 6.86955 4.37146 6.93976 4.34172 7.00584C4.31199 7.07192 4.26697 7.14172 4.20667 7.21523C4.1472 7.28792 4.07162 7.37258 3.97993 7.46923L3.12131 8.35883ZM5.64267 8.52362C5.78144 8.62604 5.94871 8.67766 6.14447 8.67849C6.33941 8.67849 6.50626 8.62728 6.64503 8.52485C6.78379 8.4216 6.88994 8.27251 6.96345 8.07758C7.03696 7.88181 7.07372 7.64558 7.07372 7.36887C7.07372 7.09381 7.03655 6.85922 6.96221 6.66511C6.8887 6.47018 6.78256 6.3215 6.64379 6.21907C6.50502 6.11582 6.33858 6.0642 6.14447 6.0642C5.95036 6.0642 5.78351 6.11541 5.64391 6.21783C5.50514 6.32026 5.39859 6.46894 5.32425 6.66387C5.25074 6.85881 5.21398 7.09381 5.21398 7.36887C5.21398 7.64475 5.25074 7.88057 5.32425 8.07634C5.39776 8.2721 5.50391 8.42119 5.64267 8.52362ZM6.54714 8.09616C6.4505 8.26384 6.31628 8.34768 6.14447 8.34768C6.02966 8.34768 5.93136 8.31051 5.84959 8.23617C5.76781 8.161 5.70462 8.05073 5.66002 7.90535C5.61624 7.75915 5.59435 7.58032 5.59435 7.36887C5.59518 7.05251 5.64433 6.81008 5.74179 6.64157C5.83926 6.47307 5.97349 6.38882 6.14447 6.38882C6.25763 6.38882 6.3551 6.42681 6.43687 6.5028C6.51947 6.57797 6.58266 6.68865 6.62644 6.83486C6.67104 6.98023 6.69335 7.15824 6.69335 7.36887C6.69335 7.68605 6.64461 7.92848 6.54714 8.09616ZM8.47596 8.63636V6.09889H8.10302L7.46989 6.51272V6.87946L8.077 6.48298H8.09187V8.63636H8.47596ZM9.54894 8.57937C9.68523 8.64049 9.84217 8.67106 10.0198 8.67106C10.1957 8.67106 10.3514 8.64049 10.4869 8.57937C10.6231 8.51825 10.7297 8.43399 10.8065 8.32661C10.8833 8.21923 10.9222 8.09699 10.923 7.95987C10.9222 7.85249 10.8986 7.75378 10.8524 7.66375C10.8069 7.57289 10.7458 7.49731 10.669 7.43701C10.593 7.37589 10.5075 7.33707 10.4125 7.32055V7.30568C10.5356 7.27512 10.6355 7.20738 10.7124 7.10248C10.7892 6.99758 10.828 6.87698 10.8288 6.74069C10.828 6.61184 10.7925 6.49661 10.7223 6.39501C10.6521 6.29259 10.5558 6.21205 10.4336 6.15341C10.3122 6.09393 10.1742 6.0642 10.0198 6.0642C9.86364 6.0642 9.72446 6.09352 9.60221 6.15217C9.47996 6.21081 9.38374 6.29135 9.31353 6.39377C9.24414 6.49537 9.20986 6.61101 9.21069 6.74069C9.20986 6.87698 9.24745 6.99758 9.32344 7.10248C9.39943 7.20738 9.50061 7.27512 9.62699 7.30568V7.32055C9.53118 7.33707 9.44445 7.37589 9.3668 7.43701C9.28916 7.49731 9.22762 7.57289 9.18219 7.66375C9.13759 7.75378 9.1157 7.85249 9.11652 7.95987C9.1157 8.09699 9.15369 8.21923 9.23051 8.32661C9.30733 8.43399 9.41347 8.51825 9.54894 8.57937ZM10.2923 8.30555C10.2155 8.34024 10.1247 8.35759 10.0198 8.35759C9.91403 8.35759 9.82234 8.34024 9.7447 8.30555C9.66705 8.27003 9.60717 8.22089 9.56504 8.15811C9.52374 8.09451 9.50351 8.02017 9.50433 7.93509C9.50351 7.84671 9.52539 7.76865 9.57 7.70092C9.6146 7.63319 9.67573 7.57991 9.75337 7.54109C9.83102 7.50227 9.91981 7.48285 10.0198 7.48285C10.1189 7.48285 10.2068 7.50227 10.2837 7.54109C10.3605 7.57991 10.4212 7.63319 10.4658 7.70092C10.5112 7.76865 10.5344 7.84671 10.5352 7.93509C10.5344 8.02017 10.5129 8.09451 10.4708 8.15811C10.4286 8.22089 10.3692 8.27003 10.2923 8.30555ZM10.244 7.12602C10.1788 7.15989 10.104 7.17682 10.0198 7.17682C9.93385 7.17682 9.85786 7.15989 9.79178 7.12602C9.72653 7.09216 9.67531 7.04507 9.63814 6.98478C9.60097 6.92448 9.5828 6.85385 9.58363 6.77291C9.5828 6.69361 9.60056 6.62423 9.6369 6.56475C9.67325 6.50528 9.72405 6.45944 9.7893 6.42723C9.85538 6.39419 9.9322 6.37767 10.0198 6.37767C10.1057 6.37767 10.1812 6.39419 10.2465 6.42723C10.3117 6.45944 10.3625 6.50528 10.3989 6.56475C10.4361 6.62423 10.4551 6.69361 10.4559 6.77291C10.4551 6.85385 10.4356 6.92448 10.3977 6.98478C10.3605 7.04507 10.3093 7.09216 10.244 7.12602Z" fill="#53536E"/>
</svg>
