<svg width="14" height="14" viewBox="0 0 14 14" fill="none" xmlns="http://www.w3.org/2000/svg">
<path fill-rule="evenodd" clip-rule="evenodd" d="M2 2.76364C2 2.34189 2.34189 2 2.76364 2H11.2364C11.6581 2 12 2.34189 12 2.76364V10.3273C12 10.749 11.6581 11.0909 11.2364 11.0909H2.76364C2.34189 11.0909 2 10.749 2 10.3273V2.76364ZM6.92629 3.09869C6.97535 3.01419 7.09738 3.01419 7.14643 3.09869L7.45987 3.63859C7.47787 3.6696 7.50812 3.69158 7.54318 3.69912L8.15351 3.83038C8.24903 3.85092 8.28674 3.96697 8.22154 4.03974L7.80492 4.50467C7.78099 4.53138 7.76943 4.56694 7.7731 4.60261L7.83687 5.22363C7.84685 5.32083 7.74813 5.39255 7.65877 5.35303L7.08785 5.10047C7.05506 5.08596 7.01767 5.08596 6.98488 5.10047L6.41395 5.35303C6.3246 5.39255 6.22588 5.32083 6.23586 5.22363L6.29963 4.60261C6.30329 4.56694 6.29174 4.53138 6.26781 4.50467L5.85119 4.03974C5.78599 3.96697 5.82369 3.85092 5.91922 3.83038L6.52955 3.69912C6.56461 3.69158 6.59486 3.6696 6.61286 3.63859L6.92629 3.09869ZM3.11449 8.35883V8.63636H4.78467V8.30803H3.64231V8.28944L4.14658 7.76163C4.30104 7.60469 4.42164 7.47129 4.50837 7.36143C4.5951 7.25075 4.65581 7.15039 4.6905 7.06036C4.72602 6.97032 4.74378 6.87822 4.74378 6.78406C4.74378 6.64777 4.7095 6.52552 4.64094 6.41731C4.57238 6.30828 4.47698 6.22238 4.35473 6.1596C4.23331 6.096 4.09289 6.0642 3.93347 6.0642C3.77571 6.0642 3.63487 6.09641 3.51097 6.16084C3.38707 6.22444 3.2896 6.31406 3.21857 6.4297C3.14753 6.54534 3.11201 6.68039 3.11201 6.83486H3.47752C3.47752 6.744 3.49569 6.6647 3.53203 6.59697C3.56838 6.52924 3.62042 6.47679 3.68815 6.43962C3.75588 6.40245 3.83518 6.38386 3.92604 6.38386C4.01194 6.38386 4.08917 6.40079 4.15773 6.43466C4.22629 6.4677 4.28039 6.51519 4.32004 6.57714C4.35969 6.63827 4.37951 6.71096 4.37951 6.79521C4.37951 6.86955 4.36464 6.93976 4.33491 7.00584C4.30517 7.07192 4.26015 7.14172 4.19986 7.21523C4.14038 7.28792 4.06481 7.37258 3.97312 7.46923L3.11449 8.35883ZM5.63586 8.52362C5.77463 8.62604 5.94189 8.67766 6.13765 8.67849C6.33259 8.67849 6.49944 8.62728 6.63821 8.52485C6.77698 8.4216 6.88312 8.27251 6.95663 8.07758C7.03015 7.88181 7.06691 7.64558 7.06691 7.36887C7.06691 7.09381 7.02974 6.85922 6.9554 6.66511C6.88188 6.47018 6.77574 6.3215 6.63697 6.21907C6.4982 6.11582 6.33177 6.0642 6.13765 6.0642C5.94354 6.0642 5.77669 6.11541 5.6371 6.21783C5.49833 6.32026 5.39178 6.46894 5.31744 6.66387C5.24392 6.85881 5.20716 7.09381 5.20716 7.36887C5.20716 7.64475 5.24392 7.88057 5.31744 8.07634C5.39095 8.2721 5.49709 8.42119 5.63586 8.52362ZM6.54033 8.09616C6.44369 8.26384 6.30946 8.34768 6.13765 8.34768C6.02284 8.34768 5.92455 8.31051 5.84277 8.23617C5.761 8.161 5.69781 8.05073 5.65321 7.90535C5.60943 7.75915 5.58754 7.58032 5.58754 7.36887C5.58836 7.05251 5.63751 6.81008 5.73498 6.64157C5.83245 6.47307 5.96667 6.38882 6.13765 6.38882C6.25082 6.38882 6.34829 6.42681 6.43006 6.5028C6.51266 6.57797 6.57585 6.68865 6.61963 6.83486C6.66423 6.98023 6.68653 7.15824 6.68653 7.36887C6.68653 7.68605 6.6378 7.92848 6.54033 8.09616ZM8.46915 8.63636V6.09889H8.09621L7.46308 6.51272V6.87946L8.07019 6.48298H8.08506V8.63636H8.46915ZM10.3338 6.12615C10.224 6.08567 10.1125 6.06502 9.99931 6.0642C9.82172 6.06255 9.66685 6.10013 9.53469 6.17695C9.40335 6.25294 9.30093 6.35619 9.22741 6.4867C9.15473 6.61721 9.11838 6.76258 9.11838 6.92283C9.11838 7.0839 9.1539 7.22721 9.22494 7.35276C9.29597 7.47831 9.39138 7.57702 9.51115 7.64888C9.63092 7.72074 9.7639 7.75667 9.9101 7.75667C10.0001 7.75667 10.0848 7.74263 10.1641 7.71455C10.2434 7.68646 10.3148 7.64682 10.3784 7.5956C10.4429 7.54439 10.4966 7.48327 10.5395 7.41223H10.5593C10.5585 7.70381 10.5061 7.93096 10.402 8.09368C10.2979 8.25558 10.1529 8.33653 9.9671 8.33653C9.84568 8.33653 9.74656 8.30307 9.66974 8.23617C9.59375 8.16844 9.54336 8.08005 9.51858 7.97102H9.14068C9.15886 8.10814 9.2047 8.22956 9.27821 8.33529C9.35173 8.44019 9.44713 8.52238 9.56442 8.58185C9.68172 8.64132 9.81594 8.67106 9.9671 8.67106C10.115 8.67106 10.2479 8.64008 10.3661 8.57813C10.4842 8.51618 10.5845 8.42573 10.6671 8.30679C10.7506 8.18785 10.8146 8.04206 10.8592 7.86942C10.9038 7.69596 10.9261 7.49814 10.9261 7.27594C10.9253 7.04466 10.898 6.85138 10.8443 6.69609C10.7914 6.53997 10.7204 6.41607 10.6312 6.32439C10.5428 6.2327 10.4437 6.16662 10.3338 6.12615ZM9.73912 6.4582C9.81677 6.41029 9.90391 6.38634 10.0006 6.38634C10.0988 6.38634 10.1864 6.41112 10.2632 6.46068C10.34 6.50941 10.4003 6.57384 10.4441 6.65396C10.4887 6.73408 10.511 6.82081 10.511 6.91415C10.511 6.98436 10.4978 7.05127 10.4714 7.11487C10.4449 7.17847 10.4082 7.23547 10.3611 7.28585C10.314 7.33541 10.2591 7.37424 10.1963 7.40232C10.1335 7.4304 10.0658 7.44445 9.99312 7.44445C9.89565 7.44445 9.80892 7.42132 9.73293 7.37506C9.65776 7.32798 9.59829 7.26479 9.55451 7.18549C9.51156 7.10537 9.49008 7.01616 9.49008 6.91787C9.49008 6.81958 9.51239 6.73037 9.55699 6.65025C9.60159 6.5693 9.6623 6.50528 9.73912 6.4582Z" fill="#53536E"/>
</svg>
