<svg width="14" height="14" viewBox="0 0 14 14" fill="none" xmlns="http://www.w3.org/2000/svg">
<g clip-path="url(#clip0_264_852)">
<path d="M11.9412 0V0.823529H2.05882V0H1.23529V14H2.05882V11.5294H2.88235V14H11.1176V11.5294H11.9412V14H12.7647V0H11.9412ZM11.9412 1.64706V3.29412H11.0168C10.8167 2.81123 10.3406 2.47059 9.78627 2.47059H4.21372C3.65938 2.47059 3.18327 2.81123 2.98323 3.29412H2.05882V1.64706H11.9412ZM10.7059 7.82353C8.94638 7.82353 8.91536 8.37255 7 8.37255C5.08312 8.37255 5.05803 7.82353 3.29411 7.82353H2.88235V8.23529H2.05882V6.58824H2.88235V7H3.29411C5.21099 7 5.23608 7.54902 7 7.54902C8.7595 7.54902 8.79051 7 10.7059 7H11.1176V6.58824H11.9412V8.23529H11.1176V7.82353H10.7059ZM2.88235 5.76471H2.05882V4.11765H2.88235V5.76471ZM11.1176 5.76471V4.11765H11.9412V5.76471H11.1176ZM11.1176 10.7059V10.2941H10.7059C8.94638 10.2941 8.91536 10.8431 7 10.8431C5.08312 10.8431 5.05803 10.2941 3.29411 10.2941H2.88235V10.7059H2.05882V9.05882H2.88235V9.47059H3.29411C5.21099 9.47059 5.23608 10.0196 7 10.0196C8.7595 10.0196 8.79051 9.47059 10.7059 9.47059H11.1176V9.05882H11.9412V10.7059H11.1176Z" fill="#53536E"/>
</g>
<defs>
<clipPath id="clip0_264_852">
<rect width="14" height="14" fill="white"/>
</clipPath>
</defs>
</svg>
