<svg width="14" height="14" viewBox="0 0 14 14" fill="none" xmlns="http://www.w3.org/2000/svg">
<path d="M7 0.65625C5.77392 0.664 4.60113 1.15849 3.73964 2.03094C2.87814 2.90338 2.39851 4.08232 2.40625 5.30841C2.40625 9.32597 7 13.3438 7 13.3438C7 13.3438 11.5938 9.32597 11.5938 5.30841C11.6015 4.08232 11.1219 2.90338 10.2604 2.03094C9.39887 1.15849 8.22608 0.664 7 0.65625ZM7 9.1875C6.22124 9.1875 5.45996 8.95657 4.81244 8.52391C4.16492 8.09125 3.66025 7.4763 3.36222 6.75682C3.0642 6.03733 2.98623 5.24563 3.13816 4.48183C3.29009 3.71803 3.6651 3.01644 4.21577 2.46577C4.76644 1.9151 5.46803 1.54009 6.23183 1.38816C6.99563 1.23623 7.78733 1.3142 8.50682 1.61222C9.2263 1.91024 9.84125 2.41492 10.2739 3.06244C10.7066 3.70996 10.9375 4.47124 10.9375 5.25C10.9363 6.29392 10.5211 7.29473 9.78289 8.03289C9.04473 8.77105 8.04392 9.18628 7 9.1875Z" fill="#53536E"/>
<path d="M7 1.75C6.30777 1.75 5.63108 1.95527 5.05551 2.33986C4.47993 2.72444 4.03133 3.27107 3.76642 3.91061C3.50152 4.55015 3.4322 5.25388 3.56725 5.93282C3.7023 6.61175 4.03564 7.23539 4.52513 7.72487C5.01461 8.21436 5.63825 8.5477 6.31719 8.68275C6.99612 8.8178 7.69985 8.74849 8.33939 8.48358C8.97894 8.21867 9.52556 7.77007 9.91014 7.1945C10.2947 6.61892 10.5 5.94223 10.5 5.25C10.4989 4.32208 10.1298 3.43248 9.47366 2.77634C8.81752 2.1202 7.92792 1.7511 7 1.75ZM7.7735 2.63616L8.08281 2.94547L7.7735 3.25478L7.46419 2.94547L7.7735 2.63616ZM8.3125 3.5V3.9375H7.875V3.5H8.3125ZM7.7735 4.18272L8.08281 4.49203L7.7735 4.80134L7.46419 4.49203L7.7735 4.18272ZM6.78125 2.40625H7.21875V2.84375H6.78125V2.40625ZM7 3.28125C7.08653 3.28125 7.17112 3.30691 7.24306 3.35498C7.31501 3.40306 7.37109 3.47138 7.4042 3.55133C7.43731 3.63127 7.44598 3.71924 7.4291 3.8041C7.41221 3.88897 7.37055 3.96692 7.30936 4.02811C7.24818 4.08929 7.17022 4.13096 7.08535 4.14784C7.00049 4.16472 6.91252 4.15606 6.83258 4.12295C6.75263 4.08983 6.68431 4.03376 6.63623 3.96181C6.58816 3.88987 6.5625 3.80528 6.5625 3.71875C6.5625 3.60272 6.6086 3.49144 6.69064 3.40939C6.77269 3.32734 6.88397 3.28125 7 3.28125ZM7.21875 4.59375V5.03125H6.78125V4.59375H7.21875ZM6.2265 2.63616L6.53581 2.94547L6.2265 3.25478L5.91719 2.94547L6.2265 2.63616ZM6.53581 4.49203L6.2265 4.80134L5.91719 4.49203L6.2265 4.18272L6.53581 4.49203ZM5.6875 3.5H6.125V3.9375H5.6875V3.5ZM8.35625 7.9975H8.35406C8.24764 7.91557 8.11647 7.87236 7.98219 7.875C7.84724 7.87241 7.7154 7.91558 7.60813 7.9975C7.42927 8.12279 7.21619 8.18999 6.99781 8.18999C6.77944 8.18999 6.56636 8.12279 6.3875 7.9975C6.28023 7.91558 6.14838 7.87241 6.01344 7.875C5.88008 7.87168 5.74961 7.91414 5.64375 7.99531C5.49099 7.91948 5.34531 7.83017 5.20844 7.72844C5.27898 7.70554 5.34543 7.67157 5.40531 7.62781C5.58426 7.50354 5.79701 7.43713 6.01488 7.43752C6.23274 7.43791 6.44525 7.50509 6.62375 7.63C6.73223 7.70958 6.86327 7.75249 6.99781 7.75249C7.13236 7.75249 7.26339 7.70958 7.37188 7.63C7.55073 7.50472 7.76382 7.43751 7.98219 7.43751C8.20056 7.43751 8.41364 7.50472 8.5925 7.63C8.65341 7.67468 8.72146 7.70871 8.79375 7.73063C8.6556 7.8316 8.50926 7.92087 8.35625 7.9975ZM9.30563 7.2625C9.19629 7.29864 9.08171 7.31638 8.96656 7.315C8.74766 7.31854 8.53351 7.251 8.35625 7.1225C8.24777 7.04292 8.11673 7.00001 7.98219 7.00001C7.84765 7.00001 7.71661 7.04292 7.60813 7.1225C7.42927 7.24779 7.21619 7.31499 6.99781 7.31499C6.77944 7.31499 6.56636 7.24779 6.3875 7.1225C6.28023 7.04058 6.14838 6.99741 6.01344 7C5.87916 6.99736 5.74799 7.04057 5.64156 7.1225C5.46431 7.251 5.25016 7.31854 5.03125 7.315C4.91695 7.31701 4.80311 7.3 4.69438 7.26469C4.6938 7.26469 4.69324 7.26446 4.69283 7.26405C4.69242 7.26364 4.69219 7.26308 4.69219 7.2625C4.51256 7.0554 4.36037 6.82601 4.23938 6.58C4.38946 6.60583 4.53164 6.6657 4.655 6.755C4.76244 6.83819 4.89543 6.88149 5.03125 6.8775C5.1662 6.88009 5.29804 6.83692 5.40531 6.755C5.58376 6.62972 5.7965 6.5625 6.01453 6.5625C6.23257 6.5625 6.4453 6.62972 6.62375 6.755C6.73223 6.83458 6.86327 6.87749 6.99781 6.87749C7.13236 6.87749 7.26339 6.83458 7.37188 6.755C7.55073 6.62972 7.76382 6.56251 7.98219 6.56251C8.20056 6.56251 8.41364 6.62972 8.5925 6.755C8.69977 6.83692 8.83162 6.88009 8.96656 6.8775C9.10166 6.88114 9.23385 6.83785 9.34063 6.755C9.46565 6.66576 9.60923 6.60594 9.76063 6.58C9.64045 6.82699 9.48739 7.05657 9.30563 7.2625ZM9.57688 6.2475C9.39802 6.37278 9.18494 6.43999 8.96656 6.43999C8.74819 6.43999 8.53511 6.37278 8.35625 6.2475C8.24777 6.16792 8.11673 6.12501 7.98219 6.12501C7.84765 6.12501 7.71661 6.16792 7.60813 6.2475C7.42927 6.37278 7.21619 6.43999 6.99781 6.43999C6.77944 6.43999 6.56636 6.37278 6.3875 6.2475C6.28023 6.16558 6.14838 6.12241 6.01344 6.125C5.87916 6.12236 5.74799 6.16557 5.64156 6.2475C5.46271 6.37278 5.24962 6.43999 5.03125 6.43999C4.81288 6.43999 4.5998 6.37278 4.42094 6.2475C4.31901 6.16972 4.19477 6.12678 4.06656 6.125C4.02245 5.98268 3.98954 5.83714 3.96813 5.68969C3.99438 5.6875 4.02063 5.6875 4.04688 5.6875C4.26578 5.68396 4.47993 5.7515 4.65719 5.88C4.76567 5.95958 4.89671 6.00249 5.03125 6.00249C5.16579 6.00249 5.29683 5.95958 5.40531 5.88C5.58376 5.75472 5.7965 5.6875 6.01453 5.6875C6.23257 5.6875 6.4453 5.75472 6.62375 5.88C6.73223 5.95958 6.86327 6.00249 6.99781 6.00249C7.13236 6.00249 7.26339 5.95958 7.37188 5.88C7.55073 5.75472 7.76382 5.68751 7.98219 5.68751C8.20056 5.68751 8.41364 5.75472 8.5925 5.88C8.69977 5.96192 8.83162 6.00509 8.96656 6.0025C9.10166 6.00614 9.23385 5.96285 9.34063 5.88C9.51873 5.75153 9.73355 5.68402 9.95313 5.6875C9.97938 5.6875 10.0056 5.6875 10.0319 5.68969C10.0105 5.83714 9.97755 5.98268 9.93344 6.125C9.8045 6.12643 9.67947 6.16939 9.57688 6.2475Z" fill="#53536E"/>
</svg>
