<svg width="14" height="14" viewBox="0 0 14 14" fill="none" xmlns="http://www.w3.org/2000/svg">
<g clip-path="url(#clip0_280_146)">
<path d="M4.60696 12.1011L4.87141 12.8949C4.93437 13.0838 4.87067 13.2898 4.71137 13.4093C4.35412 13.6772 3.85191 13.5858 3.6129 13.2086L3.36942 12.8222L3.85425 12.565C4.11537 12.4267 4.36656 12.2718 4.60696 12.1011Z" fill="#53536E"/>
<path d="M2.5307 10.9808C2.58079 10.979 2.6317 10.998 2.67192 11.0382L2.98387 11.3488C3.0643 11.4293 3.05975 11.5534 2.97445 11.6287L0.996185 13.3738C0.897014 13.4613 0.754245 13.4566 0.659841 13.3622C0.565427 13.2678 0.561211 13.1237 0.648715 13.0246C1.26768 12.3231 2.39377 11.048 2.39377 11.048C2.4314 11.0054 2.48062 10.9827 2.5307 10.9808Z" fill="#53536E"/>
<path d="M0.966235 9.12707C1.01976 9.12543 1.07401 9.13333 1.12713 9.15104L1.90338 9.4095C1.73477 9.64771 1.58107 9.89686 1.44422 10.1554L1.1849 10.644L0.813468 10.4091C0.436251 10.1701 0.344835 9.66833 0.612774 9.31108C0.698638 9.19659 0.829458 9.13129 0.966235 9.12707Z" fill="#53536E"/>
<path d="M12.5894 7.01102L13.3622 7.78598L12.7657 8.3825L12.333 7.26734L12.5894 7.01102Z" fill="#53536E"/>
<path d="M11.3291 5.89073L13.4657 11.3989C13.6125 11.777 13.4825 12.2032 13.1491 12.434L12.1978 13.0922C12.0949 13.1635 11.961 13.1423 11.8859 13.0421L8.50531 8.53527L11.3291 5.89073Z" fill="#53536E"/>
<path d="M11.2003 0.963242C10.6522 0.972787 10.1081 1.19553 9.7009 1.63037L2.80585 8.994C2.42187 9.404 2.09344 9.86261 1.83062 10.3591L1.23881 11.4798C1.18408 11.5831 1.1503 11.6946 1.13782 11.808C1.52871 11.3649 2.06512 10.757 2.06512 10.757C2.30345 10.4869 2.72743 10.4745 2.98215 10.7292L3.29282 11.0399C3.54754 11.2946 3.53554 11.7186 3.26543 11.9569L2.23457 12.8662C2.3366 12.8511 2.43634 12.8197 2.52941 12.7704L3.64885 12.1786C4.14529 11.9157 4.60522 11.5873 5.01519 11.2033L12.3869 4.30058L12.3951 4.29416C13.2539 3.64046 13.3987 2.41513 12.7237 1.57517C12.3005 1.15714 11.7484 0.953697 11.2003 0.963242ZM11.0856 1.41427C11.4429 1.40425 11.8315 1.60684 12.1234 1.89867C12.4646 2.23994 12.6897 2.72523 12.5795 3.12937C12.5484 3.24727 12.427 3.31713 12.3095 3.2847C12.1923 3.25284 12.1233 3.13174 12.1559 3.01469C12.2004 2.85132 12.1269 2.52141 11.8131 2.20763C11.5025 1.89704 11.1707 1.82034 11.0073 1.86487C10.8903 1.8974 10.7692 1.82849 10.7373 1.71124C10.7058 1.59471 10.7745 1.47439 10.8909 1.44251C10.9541 1.4253 11.0195 1.41612 11.0856 1.41427Z" fill="#53536E"/>
<path d="M6.23647 0.659851L7.01101 1.4331L6.75554 1.68857L5.63995 1.25594L6.23647 0.659851Z" fill="#53536E"/>
<path d="M2.29836 0.496812C2.40689 0.495896 2.51682 0.515031 2.62315 0.556292L8.11335 2.68604L5.47266 5.5056L0.979944 2.1366C0.879754 2.06145 0.858591 1.92719 0.929877 1.82422L1.58802 0.87338C1.75392 0.633735 2.02101 0.499154 2.29836 0.496812Z" fill="#53536E"/>
</g>
<defs>
<clipPath id="clip0_280_146">
<rect width="14" height="14" fill="white"/>
</clipPath>
</defs>
</svg>
