<svg width="14" height="14" viewBox="0 0 14 14" fill="none" xmlns="http://www.w3.org/2000/svg">
<g clip-path="url(#clip0_262_189)">
<path d="M13.5898 11.1016C13.5898 10.422 13.0389 9.87109 12.3594 9.87109H6.58984C5.91027 9.87109 5.35938 10.422 5.35938 11.1016V12.3594H13.5898V11.1016Z" fill="#53536E"/>
<path d="M1.64062 4.12891H4.94922V5.35938C4.94922 5.58608 5.13267 5.76953 5.35937 5.76953H5.5997C5.70864 5.76953 5.81279 5.72627 5.88968 5.64936L7.41016 4.12891H11.0588C11.3421 4.12891 11.5398 3.84817 11.4454 3.58176C11.2134 2.92767 10.5918 2.48828 9.89844 2.48828H1.64062L0.93368 1.07436C0.86398 0.935375 0.722176 0.847656 0.566781 0.847656H0.410156C0.183449 0.847656 0 1.03111 0 1.25781V2.48828C0 3.39311 0.735793 4.12891 1.64062 4.12891Z" fill="#53536E"/>
<path d="M0.700136 6.46968L0.820312 6.34953V9.46095C0.820312 10.5917 1.76769 11.5117 2.89844 11.5117H3.13876L3.01859 11.6319C2.85838 11.7921 2.85838 12.0517 3.01859 12.2119C3.17879 12.3721 3.43837 12.3721 3.59857 12.2119L4.41889 11.3916C4.57909 11.2314 4.57909 10.9718 4.41889 10.8116L3.59857 9.99128C3.43837 9.83107 3.17879 9.83107 3.01859 9.99128C2.85838 10.1515 2.85838 10.4111 3.01859 10.5713L3.13876 10.6914H2.89844C2.21993 10.6914 1.64062 10.1395 1.64062 9.46098V6.34953L1.7608 6.46971C1.92101 6.62991 2.18058 6.62991 2.34079 6.46971C2.501 6.3095 2.501 6.04992 2.34079 5.88972L1.52048 5.0694C1.36027 4.9092 1.10069 4.9092 0.940488 5.0694L0.120175 5.88972C-0.0400317 6.04992 -0.0400317 6.3095 0.120175 6.46971C0.280382 6.62991 0.539929 6.62991 0.700136 6.46968Z" fill="#53536E"/>
<path d="M13.5898 7.82031C13.352 7.82031 13.1317 7.89122 12.9432 8.00857L12.8781 7.61805C12.7792 7.02242 12.2688 6.58984 11.6644 6.58984H7.28479C6.68038 6.58984 6.17006 7.02242 6.07113 7.61805L6.006 8.00857C5.81755 7.89122 5.59724 7.82031 5.35938 7.82031C5.13267 7.82031 4.94922 8.00376 4.94922 8.23047C4.94922 8.45718 5.13267 8.64062 5.35938 8.64062C5.58567 8.64062 5.76953 8.82448 5.76953 9.05078H13.1797C13.1797 8.82448 13.3635 8.64062 13.5898 8.64062C13.8166 8.64062 14 8.45718 14 8.23047C14 8.00376 13.8166 7.82031 13.5898 7.82031Z" fill="#53536E"/>
<path d="M5.35938 0C5.13267 0 4.94922 0.183449 4.94922 0.410156V1.66797H7.41016L5.88971 0.120176C5.81279 0.0432578 5.70864 0 5.5997 0L5.35938 0Z" fill="#53536E"/>
<path d="M5.35938 13.5898C5.35938 13.8166 5.54282 14 5.76953 14H7.41016C7.63686 14 7.82031 13.8166 7.82031 13.5898V13.1797H5.35938V13.5898Z" fill="#53536E"/>
<path d="M11.5391 14H13.1797C13.4064 14 13.5898 13.8166 13.5898 13.5898V13.1797H11.1289V13.5898C11.1289 13.8166 11.3124 14 11.5391 14Z" fill="#53536E"/>
<path d="M10.3086 4.94922H8.64063C8.45236 4.94922 8.28855 5.07741 8.24288 5.26004L8.11552 5.76953H10.8337L10.7063 5.26004C10.6607 5.07741 10.4969 4.94922 10.3086 4.94922Z" fill="#53536E"/>
</g>
<defs>
<clipPath id="clip0_262_189">
<rect width="14" height="14" fill="white"/>
</clipPath>
</defs>
</svg>
