<svg width="14" height="14" viewBox="0 0 14 14" fill="none" xmlns="http://www.w3.org/2000/svg">
<g clip-path="url(#clip0_280_156)">
<path fill-rule="evenodd" clip-rule="evenodd" d="M6.3931 6.94265C6.35046 6.94265 1.87577 6.26133 1.4231 6.19312C1.39132 6.18847 1.36109 6.17529 1.33629 6.15514L0.0720888 5.16765C-0.0713062 5.05604 0.016281 4.82428 0.197656 4.83513L6.04352 5.17695H12.7126C12.8397 5.17695 12.9296 5.30175 12.8893 5.42266L12.6343 6.18847C12.6087 6.26443 12.5374 6.31559 12.4568 6.31559H6.33419L6.55044 6.65663C6.6295 6.78065 6.53959 6.94265 6.3931 6.94265ZM0.632492 4.67623L0.899129 4.58787C4.90876 4.61655 8.74477 4.64368 12.8544 4.67313H12.8164L12.859 5.02348C12.8133 5.0041 12.7637 4.99325 12.7126 4.99325H6.04895C4.24295 4.88784 2.43772 4.78165 0.632492 4.67623ZM1.45643 4.40262L2.02149 4.21504L3.66006 3.29654C3.69494 3.27716 3.73447 3.26941 3.77323 3.27406L5.31569 3.45621L4.90954 4.42742L1.45643 4.40262ZM8.06965 3.02138C8.08671 3.02293 8.10376 3.0268 8.12004 3.03223L9.58421 3.57868L10.6066 3.39265L11.0902 2.42842C11.1135 2.38191 11.1546 2.34781 11.2042 2.33308L12.7808 1.86957C12.797 1.86492 12.8141 1.86182 12.8304 1.86182L11.136 4.42122C11.1259 4.43672 11.1205 4.45455 11.1197 4.4716L5.09711 4.4282C5.31569 3.90655 5.5304 3.39265 5.7482 2.87178C5.78308 2.84853 5.82494 2.83613 5.86835 2.84L8.06965 3.02138ZM13.0575 1.86182H13.8132C13.9403 1.86182 14.0302 1.98583 13.9907 2.10598L13.214 4.48633L11.3282 4.47315L13.0575 1.86182Z" fill="#53536E"/>
<path d="M7.15262 10.0039C7.6542 9.99812 8.2224 10.0865 8.78898 10.3698C9.83387 10.8922 10.6786 10.8391 11.3394 10.6497C12.0002 10.4602 12.494 10.1742 12.8307 10.1742H13.2689V11.4892H12.8307C12.291 11.4892 11.812 11.8106 11.2196 11.9805C10.6271 12.1503 9.93775 12.2068 8.98454 11.7302C7.12727 10.8015 5.2839 11.7302 5.2839 11.7302C4.45294 12.1456 3.75732 12.0936 3.12975 11.9356C2.50219 11.7775 1.9682 11.4892 1.43819 11.4892H1V10.1742H1.43819C1.78455 10.1742 2.33943 10.4355 3.0232 10.6077C3.70697 10.7799 4.54518 10.8372 5.47988 10.3698C5.47988 10.3698 6.19505 10.015 7.15262 10.0039Z" fill="#53536E"/>
<path d="M7.15219 8.25075C7.28898 8.24917 7.43051 8.25424 7.57583 8.26872C7.96336 8.30735 8.37692 8.41059 8.78898 8.61662C9.83387 9.13906 10.6786 9.08593 11.3394 8.89648C12.0002 8.70703 12.494 8.42106 12.8307 8.42106H13.2689V9.73606H12.8307C12.291 9.73606 11.812 10.0575 11.2196 10.2273C10.6271 10.3972 9.93775 10.4549 8.98454 9.97826C8.52022 9.7461 8.05697 9.62896 7.6229 9.58543C6.32068 9.45484 5.2839 9.97826 5.2839 9.97826C4.45294 10.3937 3.75732 10.3404 3.12975 10.1824C2.50219 10.0243 1.9682 9.73606 1.43819 9.73606H1V8.42106H1.43819C1.78455 8.42106 2.33943 8.68234 3.0232 8.85454C3.70697 9.02675 4.54518 9.08397 5.47988 8.61662C5.47988 8.61662 6.19467 8.26185 7.15219 8.25075Z" fill="#53536E"/>
</g>
<defs>
<clipPath id="clip0_280_156">
<rect width="14" height="14" fill="white"/>
</clipPath>
</defs>
</svg>
