<svg width="14" height="14" viewBox="0 0 14 14" fill="none" xmlns="http://www.w3.org/2000/svg">
<g clip-path="url(#clip0_280_229)">
<path d="M4.81632 10.7059C5.49855 10.7059 6.05161 10.1528 6.05161 9.47058C6.05161 8.78835 5.49855 8.23529 4.81632 8.23529C4.13408 8.23529 3.58102 8.78835 3.58102 9.47058C3.58102 10.1528 4.13408 10.7059 4.81632 10.7059Z" fill="#53536E"/>
<path d="M9.34572 2.88236H10.1693C10.1693 2.20122 9.61507 1.64706 8.93396 1.64706V2.47059C9.16101 2.47059 9.34572 2.65531 9.34572 2.88236Z" fill="#53536E"/>
<path d="M10.9928 2.88235H11.8163C11.8163 1.29305 10.5233 0 8.93396 0V0.82353C10.0692 0.82353 10.9928 1.74712 10.9928 2.88235Z" fill="#53536E"/>
<path d="M5.96278 11.1798C5.63487 11.4004 5.2404 11.5294 4.81631 11.5294C4.39222 11.5294 3.99773 11.4004 3.66982 11.1798L3.25485 13.1765H1.93396V14H7.69867V13.1765H6.37778L5.96278 11.1798Z" fill="#53536E"/>
<path d="M1.93396 4.39216C1.93396 5.76353 2.40996 7.06155 3.28315 8.09832C3.66038 7.67731 4.20783 7.41177 4.81631 7.41177C5.95155 7.41177 6.87514 8.33536 6.87514 9.4706C6.87514 9.68408 6.84244 9.89007 6.78186 10.0839C7.08505 10.1325 7.39152 10.1571 7.69831 10.1571C8.13552 10.1571 8.57345 10.1075 9.00327 10.008C9.32577 9.93342 9.6397 9.8313 9.9421 9.70355L2.38597 2.14742C2.08969 2.84838 1.93396 3.60825 1.93396 4.39216Z" fill="#53536E"/>
<path d="M8.15341 4.26459L8.86952 3.61384L8.31564 3.00437L7.5704 3.68161L3.91355 0.024704L3.6224 0.315904C3.29769 0.640594 3.01686 0.997429 2.78207 1.37889L10.711 9.30786C11.0949 9.07222 11.4522 8.79107 11.7749 8.46841L12.066 8.17726L8.15341 4.26459Z" fill="#53536E"/>
</g>
<defs>
<clipPath id="clip0_280_229">
<rect width="14" height="14" fill="white"/>
</clipPath>
</defs>
</svg>
