<svg width="14" height="14" viewBox="0 0 14 14" fill="none" xmlns="http://www.w3.org/2000/svg">
<g clip-path="url(#clip0_264_789)">
<path d="M9.59656 1.75L9.73875 1.82437L10.0319 1.21843C10.0565 1.16101 10.0582 1.09636 10.0367 1.03771C10.0152 0.97906 9.97207 0.930838 9.9162 0.902903C9.86033 0.874967 9.7959 0.869427 9.73608 0.887417C9.67626 0.905406 9.62557 0.945565 9.59438 0.999684L9.29688 1.62093L9.44563 1.68656L9.59656 1.75Z" fill="#53536E"/>
<path d="M9.52001 2.22469L7.9122 5.56062L10.4235 6.78125C10.8719 4.64844 10.5175 2.88312 9.52001 2.22469Z" fill="#53536E"/>
<path d="M10.2812 7.18812L9.06937 6.60406L7.72625 5.94781C7.60597 6.25521 7.59745 6.59508 7.70219 6.90812C7.76103 7.08962 7.85614 7.25728 7.98173 7.40092C8.10732 7.54457 8.26079 7.6612 8.43281 7.74375C8.7544 7.90013 9.12306 7.9298 9.46552 7.82686C9.80798 7.72392 10.0992 7.4959 10.2812 7.18812Z" fill="#53536E"/>
<path d="M10.6772 7.38062C10.5246 7.69449 10.503 8.05612 10.617 8.38594C10.7311 8.71577 10.9715 8.98679 11.2853 9.13937C11.5992 9.29195 11.9608 9.3136 12.2906 9.19956C12.6205 9.08551 12.8915 8.84511 13.0441 8.53125L10.6794 7.38062H10.6772Z" fill="#53536E"/>
<path d="M10.8259 6.965L13.125 8.07406C13.1258 7.08607 12.9036 6.11064 12.4748 5.22053C12.046 4.33043 11.4218 3.54862 10.6487 2.93343C11.1081 3.92218 11.1869 5.34187 10.8259 6.965Z" fill="#53536E"/>
<path d="M5.46875 6.33062C5.79171 6.48555 6.16114 6.51329 6.50361 6.40832C6.84609 6.30335 7.13652 6.07335 7.31719 5.76406L4.77094 4.53249C4.63996 4.86506 4.63903 5.23475 4.76835 5.56797C4.89766 5.90118 5.14772 6.17347 5.46875 6.33062Z" fill="#53536E"/>
<path d="M2.62499 4.9525C2.93834 5.10294 3.29857 5.12294 3.62665 5.00811C3.95472 4.89329 4.22386 4.65301 4.37499 4.34L2.00812 3.20031C1.85768 3.51366 1.83767 3.87389 1.9525 4.20196C2.06733 4.53004 2.30761 4.79917 2.62062 4.95031L2.62499 4.9525Z" fill="#53536E"/>
<path d="M5.0072 4.15625L7.51845 5.36594L9.12627 2.03656C7.99314 1.66469 6.3897 2.48719 5.0072 4.15625Z" fill="#53536E"/>
<path d="M12.9609 12.5956L12.1056 12.3769C9.75052 11.7687 7.30409 11.5959 4.88688 11.8672L7.2625 6.97156C7.2217 6.82913 7.19892 6.68215 7.19469 6.53406C7.07829 6.6203 6.95287 6.69364 6.82063 6.75281L4.30063 11.9394C3.77344 12.0137 3.24625 12.1078 2.72563 12.2259L1.04563 12.6044C0.996283 12.6155 0.952314 12.6434 0.921204 12.6832C0.890095 12.7231 0.873768 12.7726 0.875004 12.8231V12.9062C0.875004 12.9643 0.898051 13.0199 0.939075 13.0609C0.980098 13.1019 1.03574 13.125 1.09375 13.125H12.9063C12.9643 13.125 13.0199 13.1019 13.0609 13.0609C13.102 13.0199 13.125 12.9643 13.125 12.9062V12.8078C13.1251 12.7592 13.109 12.712 13.0793 12.6736C13.0496 12.6352 13.008 12.6078 12.9609 12.5956Z" fill="#53536E"/>
<path d="M7.87501 1.59468C6.9124 1.3732 5.91222 1.37187 4.94903 1.5908C3.98584 1.80972 3.08449 2.24325 2.31219 2.85906L4.61126 3.96593C5.65032 2.67312 6.8097 1.84843 7.87501 1.59468Z" fill="#53536E"/>
</g>
<defs>
<clipPath id="clip0_264_789">
<rect width="14" height="14" fill="white"/>
</clipPath>
</defs>
</svg>
