<svg width="14" height="14" viewBox="0 0 14 14" fill="none" xmlns="http://www.w3.org/2000/svg">
<g clip-path="url(#clip0_264_846)">
<path d="M12.0192 2.37909L7.44606 6.95196C7.54328 6.8545 8.66012 7.46129 9.03196 7.83288C9.4757 8.24986 9.7923 8.78425 9.94476 9.37376C11.6885 7.49292 12.4555 4.9065 12.0192 2.37909Z" fill="#53536E"/>
<path d="M11.2417 1.57446C8.66851 -0.585133 4.8965 -0.515657 2.4045 1.73714C2.91759 1.85163 3.3847 2.11676 3.74595 2.49869C4.08652 2.8266 4.33777 3.23592 4.47599 3.68806C4.49193 3.74646 4.50447 3.8034 4.51396 3.85925C6.33091 2.17784 8.77656 1.34729 11.2417 1.57446Z" fill="#53536E"/>
<path d="M7.23009 6.41599L11.5375 2.10752C9.1046 1.78094 6.65287 2.55771 4.85185 4.22562C5.44136 4.37771 5.97478 4.69576 6.38884 5.14206C6.71626 5.46109 6.98066 5.83913 7.16779 6.25623C7.19116 6.30928 7.2116 6.36233 7.23009 6.41599Z" fill="#53536E"/>
<path d="M7.09175 7.21332H7.08104C7.00159 7.21356 6.92676 7.17596 6.87955 7.11184C6.83246 7.04784 6.81871 6.96522 6.84256 6.88942L6.81761 6.87494L0.0454865 13.6477L0.398098 14C0.398098 14 7.16159 7.21015 7.09175 7.21332Z" fill="#53536E"/>
<path d="M10.4122 9.55579C10.823 9.70119 11.1947 9.93918 11.4987 10.2515C11.8806 10.6125 12.1457 11.0794 12.2602 11.5924C14.4286 9.1786 14.573 5.56354 12.6038 2.98466C12.8114 5.38359 12.0182 7.76171 10.4122 9.55579Z" fill="#53536E"/>
</g>
<defs>
<clipPath id="clip0_264_846">
<rect width="14" height="14" fill="white"/>
</clipPath>
</defs>
</svg>
