<svg width="14" height="14" viewBox="0 0 14 14" fill="none" xmlns="http://www.w3.org/2000/svg">
<g clip-path="url(#clip0_280_86)">
<path d="M9.10629 5.85164C9.10678 6.03413 9.10802 6.61754 9.10889 6.79215C9.27722 6.79131 9.45703 6.79057 9.56285 6.79057C9.82666 6.79057 10.0495 6.57559 10.0495 6.3211C10.0495 6.06662 9.82666 5.85164 9.56285 5.85164H9.10629Z" fill="#53536E"/>
<path d="M9.5098 2.31426H1.66964C0.749 2.31426 0 3.06326 0 3.9839V7.19553L4.4902 11.6857H12.3304C13.251 11.6857 14 10.9367 14 10.0161V6.80449L9.5098 2.31426ZM10.8698 6.32111C10.8698 7.03229 10.2835 7.61088 9.56282 7.61088C9.4567 7.61088 9.27451 7.61165 9.10506 7.61252V8.96866H8.28475L8.28343 5.03136H8.28475H9.56282C10.2835 5.03133 10.8698 5.60992 10.8698 6.32111ZM7.41016 5.03133V8.96864H6.58984V5.03133H7.41016ZM3.51433 5.02764L4.36286 7.48382L5.17858 5.02764H6.04294L4.73408 8.96866H4.00791L2.64644 5.02764H3.51433Z" fill="#53536E"/>
<path d="M14 5.64438V3.9839C14 3.06326 13.251 2.31426 12.3304 2.31426H10.6699L14 5.64438Z" fill="#53536E"/>
<path d="M0 8.35562V10.0161C0 10.9367 0.749 11.6857 1.66964 11.6857H3.33011L0 8.35562Z" fill="#53536E"/>
</g>
<defs>
<clipPath id="clip0_280_86">
<rect width="14" height="14" fill="white"/>
</clipPath>
</defs>
</svg>
