<svg width="14" height="14" viewBox="0 0 14 14" fill="none" xmlns="http://www.w3.org/2000/svg">
<path d="M13.6396 2.46362H0.360411C0.161119 2.46362 0 2.62499 0 2.82403V11.1762C0 11.3752 0.161119 11.5366 0.360411 11.5366H13.6396C13.8389 11.5366 14 11.3752 14 11.1762V2.82403C14 2.62499 13.8389 2.46362 13.6396 2.46362ZM1.08396 5.20537H2.57815C2.77967 5.21306 2.94203 5.27726 2.99805 5.49266L3.32302 7.05551C3.00375 6.23802 2.23435 5.55785 1.07157 5.27626L1.08396 5.20537ZM2.89196 8.76982L2.02886 5.82109C2.64929 6.21819 3.17776 6.84829 3.36392 7.28678L3.46455 7.65091L4.40846 5.23933H5.42971L3.91197 8.76908L2.89196 8.76982ZM6.18028 8.7723H5.21654L5.81912 5.23561H6.78336L6.18028 8.7723ZM7.8574 8.82534C7.42535 8.82088 7.00917 8.73537 6.78361 8.63646L6.91919 7.845L7.04338 7.90127C7.35992 8.03338 7.56491 8.08692 7.95085 8.08692C8.22773 8.08692 8.52443 7.9786 8.52716 7.74163C8.5289 7.58671 8.40298 7.47616 8.02769 7.30265C7.66183 7.13359 7.17748 6.85003 7.18343 6.34213C7.18863 5.65477 7.85988 5.17513 8.81246 5.17513C9.18576 5.17513 9.48495 5.25197 9.67581 5.32361L9.54568 6.09029L9.45868 6.04939C9.2812 5.978 9.0529 5.90909 8.73736 5.91405C8.36009 5.91405 8.18509 6.0712 8.18509 6.21819C8.18311 6.38377 8.38934 6.49284 8.72645 6.65693C9.28244 6.90927 9.53948 7.21539 9.53601 7.6177C9.52858 8.35141 8.87096 8.82534 7.8574 8.82534ZM12.0341 8.77379C12.0341 8.77379 11.9461 8.36727 11.9169 8.24383C11.7766 8.24383 10.793 8.24234 10.6824 8.24234C10.645 8.33777 10.4799 8.77379 10.4799 8.77379H9.46785L10.8988 5.53282C11.0005 5.30254 11.1727 5.23933 11.4038 5.23933H12.1484L12.9284 8.77354L12.0341 8.77379Z" fill="#53536E"/>
<path d="M11.5366 6.49806L11.4717 6.19318C11.4226 6.32629 11.3381 6.5402 11.3435 6.53078C11.3435 6.53078 11.0389 7.3158 10.9596 7.51931H11.76C11.7213 7.34208 11.5366 6.49806 11.5366 6.49806Z" fill="#53536E"/>
</svg>
