<svg width="14" height="14" viewBox="0 0 14 14" fill="none" xmlns="http://www.w3.org/2000/svg">
<g clip-path="url(#clip0_264_526)">
<path d="M9.73657 10.6704C8.42413 11.5786 6.87206 12.0633 5.27779 12.0633C5.10213 12.0633 4.92606 12.0574 4.74961 12.0455C3.48488 11.9606 2.27392 11.575 1.21037 10.9317C1.45482 11.2888 1.73377 11.626 2.04635 11.9386C3.36891 13.2612 5.12732 13.9895 6.99769 13.9895C8.1665 13.9895 9.29159 13.7051 10.2939 13.1689C10.2619 12.3091 10.0721 11.4607 9.73657 10.6704Z" fill="#53536E"/>
<path d="M8.27918 0.101776C6.70629 0.562312 5.34359 1.56052 4.42358 2.93266C3.50866 4.2972 3.10415 5.92857 3.27061 7.55717C4.42383 7.55717 5.57554 7.26964 6.59625 6.72242C6.63939 5.41097 7.00955 4.1303 7.6734 3.00331C8.23088 2.05694 8.9828 1.23655 9.87241 0.598582C9.36511 0.370023 8.83094 0.203254 8.27918 0.101776Z" fill="#53536E"/>
<path d="M11.797 6.74974C11.0729 5.27533 9.86257 4.10942 8.36917 3.43925C7.78054 4.446 7.45297 5.58887 7.41612 6.75918C8.53028 7.45224 9.45428 8.41314 10.0983 9.55155C10.6421 10.5126 10.9771 11.5802 11.083 12.6756C11.3881 12.4556 11.6779 12.2098 11.9491 11.9386C12.0747 11.8129 12.195 11.6833 12.3098 11.55C12.7121 9.94406 12.5323 8.24678 11.797 6.74974Z" fill="#53536E"/>
<path d="M2.44199 7.50656C2.29111 5.73242 2.74525 3.96229 3.74203 2.47565C4.43137 1.44752 5.34372 0.607575 6.40013 0.0104675C4.7552 0.148598 3.22706 0.855226 2.04639 2.03587C0.780753 3.30151 0.0597655 4.96635 0 6.74638C0.760895 7.14622 1.59028 7.40391 2.44199 7.50656Z" fill="#53536E"/>
<path d="M6.97431 7.45085C5.83702 8.05852 4.56739 8.3778 3.28258 8.3778V8.3775C1.97964 8.3775 1.02703 8.12621 0.0285492 7.67356C0.0807927 8.21418 0.19499 8.74151 0.367011 9.24759C1.55964 10.413 3.12932 11.1144 4.80459 11.2268C6.43587 11.3364 8.04377 10.8761 9.36744 9.9267C8.79014 8.91769 7.96628 8.06598 6.97431 7.45085Z" fill="#53536E"/>
<path d="M8.83005 2.74828C10.4404 3.50488 11.745 4.78254 12.5336 6.38801C13.0857 7.51209 13.357 8.73754 13.339 9.96529C13.7717 9.04548 14 8.03392 14 6.98725C14 5.11688 13.2716 3.35846 11.9491 2.03588C11.5642 1.651 11.1422 1.31683 10.6915 1.03592C9.97303 1.49005 9.34154 2.07165 8.83005 2.74828Z" fill="#53536E"/>
</g>
<defs>
<clipPath id="clip0_264_526">
<rect width="14" height="14" fill="white"/>
</clipPath>
</defs>
</svg>
