<svg width="14" height="14" viewBox="0 0 14 14" fill="none" xmlns="http://www.w3.org/2000/svg">
<g clip-path="url(#clip0_264_616)">
<path d="M7 4.94118C7.90965 4.94118 8.64706 4.20377 8.64706 3.29412C8.64706 2.38448 7.90965 1.64706 7 1.64706C6.09036 1.64706 5.35294 2.38448 5.35294 3.29412C5.35294 4.20377 6.09036 4.94118 7 4.94118Z" fill="#53536E"/>
<path d="M11.6666 11.5294C10.9912 11.5294 10.637 11.3628 10.3245 11.2157C10.0562 11.0894 9.82443 10.9804 9.33314 10.9804C8.84188 10.9804 8.61011 11.0895 8.3418 11.2157C8.02936 11.3627 7.67529 11.5294 7 11.5294C6.99995 11.5294 6.99989 11.5294 6.99981 11.5294C6.32443 11.5294 5.97029 11.3628 5.65784 11.2157C5.38956 11.0894 5.15779 10.9804 4.66656 10.9804C4.17529 10.9804 3.94355 11.0895 3.67525 11.2157C3.36277 11.3628 3.00863 11.5294 2.33328 11.5294C1.65787 11.5294 1.30376 11.3628 0.991282 11.2157C0.723004 11.0895 0.491263 10.9804 0 10.9804V12.3529H14C14 12.1362 14 11.6003 14 10.9804C13.5087 10.9804 13.2769 11.0895 13.0086 11.2157C12.6961 11.3628 12.342 11.5294 11.6666 11.5294Z" fill="#53536E"/>
<path d="M4.11765 6.28496V7.44603C4.2818 7.42453 4.46353 7.41177 4.66656 7.41177C5.52602 7.41177 6.00756 7.63838 6.35916 7.80385C6.58815 7.91162 6.69263 7.96079 6.99981 7.96079C7.30701 7.96076 7.41152 7.91159 7.64049 7.80385C7.99219 7.63838 8.47371 7.41177 9.33314 7.41177C9.53631 7.41177 9.71811 7.42456 9.88235 7.44608V6.28496L12.657 3.51035C12.9786 3.18874 12.9786 2.6673 12.657 2.34569C12.3353 2.02407 11.8139 2.02407 11.4923 2.34569L10.1883 3.64964C9.36139 4.4766 8.23982 4.94118 7.07033 4.94118H7H6.9297C5.76018 4.94118 4.63858 4.4766 3.81162 3.64964L2.51283 2.35085C2.19122 2.02923 1.66979 2.02923 1.34817 2.35085C1.02656 2.67247 1.02656 3.1939 1.34817 3.51551L4.11765 6.28496Z" fill="#53536E"/>
<path d="M12.6579 8.54902C12.3896 8.67529 12.1579 8.78433 11.6666 8.78433C11.1752 8.78433 10.9435 8.67526 10.6752 8.54902C10.3627 8.40196 10.0085 8.23531 9.33314 8.23531C8.65774 8.23531 8.30362 8.40196 7.99114 8.54902C7.72287 8.67526 7.49113 8.7843 7 8.78433C6.99995 8.78433 6.99989 8.78433 6.99981 8.78433C6.50857 8.78433 6.27683 8.67526 6.00853 8.54902C5.69608 8.40196 5.34193 8.23531 4.66656 8.23531C3.99115 8.23531 3.63704 8.40196 3.32456 8.54902C3.05628 8.67529 2.82454 8.78433 2.33328 8.78433C1.84202 8.78433 1.61025 8.67526 1.34197 8.54902C1.02952 8.40196 0.675376 8.23531 0 8.23531V10.1569C0.675376 10.1569 1.02952 10.3235 1.34197 10.4706C1.61025 10.5969 1.84202 10.7059 2.33328 10.7059C2.82454 10.7059 3.05628 10.5968 3.32456 10.4706C3.63704 10.3235 3.99118 10.1569 4.66656 10.1569C5.34193 10.1569 5.69608 10.3235 6.00853 10.4706C6.27683 10.5969 6.50857 10.7059 6.99981 10.7059H7C7.49115 10.7059 7.72287 10.5968 7.99114 10.4706C8.30362 10.3235 8.65777 10.1569 9.33314 10.1569C10.0085 10.1569 10.3627 10.3235 10.6752 10.4706C10.9435 10.5969 11.1752 10.7059 11.6666 10.7059C12.1579 10.7059 12.3896 10.5968 12.6579 10.4706C12.9704 10.3235 13.3246 10.1569 14 10.1569C14 9.32294 14 8.51613 14 8.23531C13.3246 8.23531 12.9704 8.40196 12.6579 8.54902Z" fill="#53536E"/>
</g>
<defs>
<clipPath id="clip0_264_616">
<rect width="14" height="14" fill="white"/>
</clipPath>
</defs>
</svg>
