<svg width="14" height="14" viewBox="0 0 14 14" fill="none" xmlns="http://www.w3.org/2000/svg">
<g clip-path="url(#clip0_280_112)">
<path d="M7.02942 11.6604C7.531 11.6545 8.0992 11.7434 8.66578 12.0267C9.71067 12.5491 10.5554 12.4955 11.2162 12.3061C11.877 12.1166 12.3708 11.8307 12.7075 11.8307H13.1457V12.9274H12.7075C12.1678 12.9274 11.6888 13.2493 11.0964 13.4191C10.5039 13.589 9.81455 13.6449 8.86134 13.1683C7.00407 12.2397 5.1607 13.1683 5.1607 13.1683C3.49064 14.0034 2.33514 13.0926 1.35051 12.9291C1.33873 12.9276 1.32686 12.927 1.31499 12.9274H0.876801V11.8307H1.31499C1.66135 11.8307 2.21623 12.0937 2.9 12.2659C3.58377 12.4381 4.42198 12.494 5.35668 12.0267C5.35668 12.0267 6.07185 11.6715 7.02942 11.6604Z" fill="#53536E"/>
<path d="M7.02899 10.1271C7.16578 10.1256 7.30731 10.1311 7.45263 10.1455C7.84016 10.1842 8.25372 10.2874 8.66578 10.4934C9.71067 11.0159 10.5554 10.9623 11.2162 10.7729C11.877 10.5834 12.3708 10.2974 12.7075 10.2974H13.1457V11.3925H12.7075C12.1678 11.3925 11.6888 11.716 11.0964 11.8859C10.5039 12.0557 9.81455 12.1117 8.86134 11.6351C8.39702 11.403 7.93377 11.2871 7.4997 11.2436C6.19748 11.113 5.1607 11.6351 5.1607 11.6351C4.32974 12.0506 3.63412 11.9986 3.00655 11.8405C2.37899 11.6825 1.84501 11.3925 1.31499 11.3925H0.876801V10.2974H1.31499C1.66135 10.2974 2.21623 10.5587 2.9 10.7309C3.58377 10.9031 4.42198 10.9604 5.35668 10.493C5.35668 10.493 6.07147 10.1382 7.02899 10.1271Z" fill="#53536E"/>
<path d="M9.85925 8.98245H10.7361V10.4361C10.4703 10.4817 10.1822 10.493 9.85925 10.4399V8.98245Z" fill="#53536E"/>
<path d="M3.28641 8.98245H4.16321V10.4066C3.85331 10.4413 3.56283 10.4189 3.28641 10.3681V8.98245Z" fill="#53536E"/>
<path d="M1.12201 7.66788H12.9116C12.8579 8.0698 12.6199 8.28873 12.3904 8.40347C12.114 8.54166 11.8307 8.54426 11.8307 8.54426H2.19138C1.63817 8.54426 1.37531 8.28531 1.23712 8.00893C1.15281 7.84032 1.12201 7.66788 1.12201 7.66788Z" fill="#53536E"/>
<path d="M7.01103 4.60141C7.01103 4.60141 7.29436 4.604 7.57075 4.7422C7.84713 4.88039 8.10607 5.14685 8.10607 5.69603V7.22926H5.91641V5.69603C5.91641 5.14516 6.17535 4.88039 6.45174 4.7422C6.72812 4.604 7.01103 4.60141 7.01103 4.60141Z" fill="#53536E"/>
<path d="M7.01101 2.09767L11.3925 4.5321V7.22927H8.54424V5.69604C8.54424 4.93593 8.14718 4.54111 7.76628 4.35066C7.38539 4.16022 7.01101 4.16324 7.01101 4.16324C7.01101 4.16324 6.63663 4.16021 6.25573 4.35066C5.87483 4.54111 5.47777 4.93266 5.47777 5.69604V7.22927H2.62997V4.5321L7.01101 2.09767Z" fill="#53536E"/>
<path d="M7.01102 0.656433C7.08385 0.656433 7.15664 0.674949 7.22284 0.711635L13.1392 3.99805C13.3534 4.11681 13.4299 4.38105 13.3108 4.595C13.1921 4.80911 12.9278 4.88522 12.7139 4.76617L7.118 1.65605C7.08536 1.63784 7.04861 1.62828 7.01123 1.62828C6.97386 1.62828 6.93711 1.63784 6.90447 1.65605L1.30857 4.76617C1.09462 4.88522 0.830386 4.80911 0.711625 4.595C0.592572 4.38105 0.669107 4.11681 0.88322 3.99805L6.7992 0.711635C6.8654 0.674949 6.93819 0.656433 7.01102 0.656433Z" fill="#53536E"/>
</g>
<defs>
<clipPath id="clip0_280_112">
<rect width="14" height="14" fill="white"/>
</clipPath>
</defs>
</svg>
