<svg width="14" height="14" viewBox="0 0 14 14" fill="none" xmlns="http://www.w3.org/2000/svg">
<g clip-path="url(#clip0_264_742)">
<path d="M13.7083 13.4167H13.4166V11.0834C13.4166 10.4399 12.8934 9.91668 12.25 9.91668V7.58335C12.25 6.93993 11.7268 6.41668 11.0833 6.41668V4.08335C11.0833 3.43993 10.5601 2.91668 9.91662 2.91668H7.6536L8.43891 2.04168C8.63948 1.81609 8.75 1.51843 8.75 1.20312C8.75 0.539766 8.25582 0 7.64827 0C7.42438 0 7.2042 0.107105 7 0.313031C6.79577 0.107105 6.5756 0 6.35173 0C5.74418 0 5.25 0.539766 5.25 1.20312C5.25 1.51843 5.36052 1.81609 5.56188 2.04252L6.34637 2.91668H4.08332C3.4399 2.91668 2.91665 3.4399 2.91665 4.08335V6.41668C2.27322 6.41668 1.75 6.9399 1.75 7.58332V9.91665C1.10657 9.91665 0.583324 10.4399 0.583324 11.0833V13.4166H0.291676C0.130457 13.4167 0 13.5471 0 13.7083C0 13.8695 0.130457 14 0.291676 14H13.7084C13.8696 14 14 13.8695 14 13.7083C14 13.5471 13.8695 13.4167 13.7083 13.4167ZM3.5 4.08332C3.5 3.76176 3.76176 3.5 4.08332 3.5H9.91665C10.2382 3.5 10.5 3.76176 10.5 4.08332V4.56477C10.3955 4.5223 10.3022 4.47021 10.2026 4.41345C9.93144 4.25879 9.62412 4.08332 9.03566 4.08332C8.44804 4.08332 8.141 4.25879 7.87041 4.41345C7.63257 4.54932 7.42722 4.66665 6.99456 4.66665C6.56163 4.66665 6.35655 4.54929 6.11871 4.41345C5.84812 4.25879 5.54135 4.08332 4.95376 4.08332C4.36614 4.08332 4.0594 4.25879 3.7888 4.41345C3.69184 4.46882 3.60114 4.51995 3.49997 4.56184L3.5 4.08332ZM2.33332 7.58332C2.33332 7.26176 2.59509 7 2.91665 7H11.0833C11.4049 7 11.6666 7.26176 11.6666 7.58332V8.06206C11.5268 8.11967 11.3487 8.16668 11.0805 8.16668C10.6466 8.16668 10.441 8.04932 10.2029 7.91347C9.93172 7.75882 9.6244 7.58335 9.03563 7.58335C8.44774 7.58335 8.14097 7.75882 7.87038 7.91347C7.63254 8.04934 7.42746 8.16668 6.99453 8.16668C6.5616 8.16668 6.35652 8.04932 6.11868 7.91347C5.84809 7.75882 5.54132 7.58335 4.95373 7.58335C4.36611 7.58335 4.05937 7.75882 3.78878 7.91347C3.55094 8.04934 3.34586 8.16668 2.9132 8.16668C2.648 8.16668 2.47168 8.12049 2.3333 8.06367L2.33332 7.58332ZM12.8333 11.1055C12.4324 11.1531 12.1788 11.2875 11.9581 11.4135C11.7199 11.5493 11.5143 11.6667 11.0805 11.6667C10.6467 11.6667 10.441 11.5493 10.2029 11.4135C9.93174 11.2588 9.62443 11.0834 9.03566 11.0834C8.44804 11.0834 8.141 11.2588 7.87041 11.4135C7.63257 11.5493 7.42722 11.6667 6.99456 11.6667C6.56163 11.6667 6.35655 11.5493 6.11871 11.4135C5.84812 11.2588 5.54135 11.0834 4.95376 11.0834C4.36614 11.0834 4.0594 11.2588 3.7888 11.4135C3.55097 11.5493 3.34589 11.6667 2.91323 11.6667C2.48114 11.6667 2.27634 11.5493 2.03908 11.4135C1.81888 11.2876 1.5662 11.1532 1.16665 11.1056V11.0834C1.16668 10.7618 1.42844 10.5 1.75 10.5H12.25C12.5716 10.5 12.8333 10.7618 12.8333 11.0833V11.1055Z" fill="#53536E"/>
</g>
<defs>
<clipPath id="clip0_264_742">
<rect width="14" height="14" fill="white"/>
</clipPath>
</defs>
</svg>
