<svg width="14" height="14" viewBox="0 0 14 14" fill="none" xmlns="http://www.w3.org/2000/svg">
<g clip-path="url(#clip0_262_84)">
<path d="M13.8798 4.77985C12.9512 3.8512 11.8683 3.13212 10.6611 2.64258C9.49522 2.16984 8.26347 1.93011 7 1.93011C5.7365 1.93011 4.50475 2.16984 3.33892 2.64258C2.13172 3.13212 1.04874 3.8512 0.120092 4.77985C-0.0400873 4.94001 -0.0400873 5.19969 0.120065 5.3599L1.31816 6.55804C1.39508 6.63496 1.49942 6.67819 1.60817 6.67819C1.71694 6.67819 1.82128 6.63499 1.8982 6.55804C3.26093 5.19537 5.07278 4.44489 6.99994 4.44489C8.9271 4.44489 10.7389 5.19537 12.1016 6.55804C12.1785 6.63496 12.2829 6.67819 12.3916 6.67819C12.5004 6.67819 12.6048 6.63499 12.6816 6.55804L13.8797 5.3599C14.0401 5.19972 14.0401 4.94003 13.8798 4.77985Z" fill="#53536E"/>
<path d="M6.99999 5.319C5.30635 5.319 3.71404 5.97853 2.51644 7.17613C2.35626 7.33629 2.35626 7.59597 2.51641 7.75618L3.71451 8.95432C3.87469 9.1145 4.13437 9.11448 4.29455 8.95435C5.01722 8.23177 5.97799 7.83383 6.99994 7.83383C8.02191 7.83383 8.98272 8.23179 9.70536 8.95438C9.78228 9.0313 9.88662 9.07453 9.99539 9.07453C10.1042 9.07453 10.2085 9.0313 10.2854 8.95435L11.4834 7.75615C11.6436 7.596 11.6436 7.33631 11.4834 7.17613C10.2859 5.97853 8.69364 5.319 6.99999 5.319Z" fill="#53536E"/>
<path d="M7.00005 8.70795C6.21159 8.70795 5.47033 9.01496 4.91277 9.57245C4.83585 9.64936 4.79262 9.75371 4.79262 9.86248C4.79262 9.97126 4.83582 10.0756 4.91277 10.1525L6.70999 11.9497C6.79008 12.0298 6.89502 12.0699 7 12.0699C7.10494 12.0699 7.20994 12.0298 7.29 11.9497L9.08728 10.1525C9.1642 10.0756 9.20743 9.97126 9.20743 9.86248C9.20743 9.75371 9.1642 9.64936 9.08728 9.57247C8.52972 9.01499 7.78848 8.70795 7.00005 8.70795Z" fill="#53536E"/>
</g>
<defs>
<clipPath id="clip0_262_84">
<rect width="14" height="14" fill="white"/>
</clipPath>
</defs>
</svg>
