<svg width="14" height="14" viewBox="0 0 14 14" fill="none" xmlns="http://www.w3.org/2000/svg">
<g clip-path="url(#clip0_264_640)">
<path d="M6.86234 12.5149C7.42423 12.4801 7.78389 12.633 8.17301 12.8997C8.33921 13.0136 8.39519 13.052 8.58058 13.052C8.76601 13.052 8.82199 13.0136 8.98816 12.8997C9.08177 12.8355 9.19565 12.758 9.33924 12.6889C9.11874 12.5865 8.94187 12.3933 8.86936 12.1414L8.70682 11.5766C8.24931 11.587 7.75999 11.6164 7.25206 11.6666C7.1658 11.8545 6.88677 12.464 6.86234 12.5149Z" fill="#53536E"/>
<path d="M6.59626 5.83829L7.99677 6.0128C9.60831 5.34272 9.52257 5.36885 9.61805 5.34401C9.63321 5.34002 9.62622 5.34228 9.64097 5.33615C9.4011 5.03541 9.31247 4.6352 9.41956 4.25222C9.12765 2.867 8.67084 1.49023 7.95661 0.506434C7.99493 0.449109 8.03349 0.392334 8.07252 0.336494C8.14019 0.23964 8.11656 0.106257 8.01974 0.0385616C7.92288 -0.0291065 7.7895 -0.00547767 7.72181 0.0913482C6.95408 1.18985 6.32336 2.56016 5.84721 4.16425C5.46799 5.44166 5.18513 6.87026 5.00642 8.41028C4.83329 9.90217 4.79271 11.2148 4.79005 12.0724C4.14508 12.2294 3.61092 12.4111 3.23957 12.5996C3.4048 12.5465 3.6011 12.5102 3.83832 12.5102C4.44332 12.5102 4.78526 12.7446 5.01156 12.8996C5.17773 13.0136 5.23371 13.0519 5.41911 13.0519C5.57621 13.0519 5.6406 13.0242 5.75764 12.9464C5.36014 12.7877 5.14827 12.3728 5.22595 11.9737C5.2234 11.9742 5.22084 11.9748 5.21828 11.9753C5.22081 11.5762 5.23184 11.0859 5.26012 10.53L5.92156 10.3982L6.33158 9.50439C6.41235 9.32834 6.54958 9.18434 6.72153 9.09519L8.64671 8.09706L8.82768 7.30531L8.39436 7.48631C8.27646 7.53558 8.14385 7.55571 8.00929 7.53896L6.40927 7.33959C5.9947 7.28793 5.70048 6.90998 5.75214 6.49542C5.80375 6.08082 6.18172 5.7868 6.59626 5.83829Z" fill="#53536E"/>
<path d="M10.3184 12.5163C10.7422 12.5465 11.0227 12.6946 11.2234 12.825C11.6209 12.6273 11.8401 12.4215 11.8199 12.2281C11.7919 11.9598 11.3083 11.7634 10.5393 11.6587L10.5398 11.6605C10.6305 11.9755 10.535 12.2999 10.3184 12.5163Z" fill="#53536E"/>
<path d="M10.5897 5.46303C10.993 5.46303 11.3572 5.18546 11.4508 4.77571C11.5772 4.22281 11.1569 3.69437 10.5881 3.69437C10.1849 3.69437 9.82067 3.97194 9.72701 4.38169C9.60064 4.93454 10.0209 5.46303 10.5897 5.46303Z" fill="#53536E"/>
<path d="M12.5577 6.83307C12.1917 6.58776 11.6683 6.23891 11.23 5.94623C11.11 5.86613 10.9765 5.80856 10.8359 5.77621L10.1047 5.608C9.98297 5.58 9.85577 5.58949 9.73969 5.63557C9.48508 5.73655 9.00566 5.93685 8.04095 6.33596L6.55728 6.15108C6.31544 6.12096 6.09499 6.29255 6.06487 6.5344C6.03473 6.77621 6.20635 6.99668 6.44819 7.0268L8.04821 7.22618C8.12303 7.23553 8.20071 7.2256 8.27283 7.19548L9.2779 6.77569L8.9225 8.3306L6.87538 9.39197C6.76956 9.44682 6.68511 9.53545 6.63543 9.64377L5.59304 11.916C5.46986 12.1845 5.58768 12.502 5.85615 12.6252C6.1252 12.7486 6.44241 12.6299 6.56529 12.3621L7.53099 10.257L9.1079 9.43939L8.83866 9.66118C8.67411 9.79674 8.60578 10.0171 8.66476 10.2219L9.19064 12.0489C9.27234 12.3328 9.56871 12.4966 9.85255 12.4149C10.1364 12.3332 10.3003 12.0369 10.2186 11.753L9.78986 10.2636L10.922 9.3309C11.0139 9.25523 11.0734 9.15519 11.1002 9.04793L11.102 9.0481L11.3781 7.77093C11.8315 7.71289 12.0874 7.68016 12.3768 7.64313C12.5796 7.61717 12.7409 7.45432 12.7603 7.24502C12.7754 7.08171 12.694 6.92439 12.5577 6.83307Z" fill="#53536E"/>
<path d="M13.3233 12.9165C12.8441 12.9165 12.5866 13.093 12.3797 13.2348C12.1976 13.3596 12.0537 13.4583 11.7424 13.4583C11.4311 13.4583 11.2872 13.3597 11.1051 13.2348C10.8982 13.093 10.6406 12.9165 10.1615 12.9165C9.68236 12.9165 9.42484 13.093 9.21793 13.2348C9.0358 13.3596 8.89194 13.4583 8.58064 13.4583C8.26937 13.4583 8.1255 13.3597 7.94338 13.2348C7.73647 13.093 7.47897 12.9165 6.99985 12.9165C6.52075 12.9165 6.26326 13.093 6.05635 13.2348C5.87422 13.3596 5.73038 13.4583 5.41911 13.4583C5.10784 13.4583 4.96397 13.3597 4.78185 13.2348C4.57497 13.093 4.31744 12.9165 3.83832 12.9165C3.3592 12.9165 3.1017 13.093 2.89479 13.2348C2.71266 13.3596 2.5688 13.4583 2.25753 13.4583C1.94628 13.4583 1.80242 13.3597 1.62029 13.2348C1.41338 13.093 1.15589 12.9165 0.676763 12.9165C0.527178 12.9165 0.405898 13.0378 0.405898 13.1874C0.405898 13.337 0.527178 13.4583 0.676763 13.4583C0.988036 13.4583 1.13187 13.5568 1.314 13.6817C1.52091 13.8235 1.7784 14 2.2575 14C2.73662 14 2.99412 13.8235 3.20103 13.6817C3.38316 13.5569 3.52702 13.4583 3.83829 13.4583C4.14956 13.4583 4.29343 13.5568 4.47555 13.6817C4.68246 13.8235 4.93999 14 5.41908 14C5.89818 14 6.15568 13.8235 6.36259 13.6817C6.54471 13.5569 6.68855 13.4583 6.99982 13.4583C7.31109 13.4583 7.45496 13.5568 7.63708 13.6817C7.84399 13.8235 8.10149 14 8.58061 14C9.05974 14 9.31726 13.8235 9.52417 13.6817C9.70632 13.5569 9.85019 13.4583 10.1615 13.4583C10.4728 13.4583 10.6167 13.5568 10.7988 13.6817C11.0057 13.8235 11.2632 14 11.7424 14C12.2215 14 12.479 13.8235 12.6859 13.6817C12.8681 13.5569 13.012 13.4583 13.3233 13.4583C13.4728 13.4583 13.5941 13.337 13.5941 13.1874C13.5941 13.0378 13.4729 12.9165 13.3233 12.9165Z" fill="#53536E"/>
</g>
<defs>
<clipPath id="clip0_264_640">
<rect width="14" height="14" fill="white"/>
</clipPath>
</defs>
</svg>
