<svg width="14" height="14" viewBox="0 0 14 14" fill="none" xmlns="http://www.w3.org/2000/svg">
<g clip-path="url(#clip0_264_614)">
<path d="M13.1208 8.9433H12.6514C12.5014 8.9433 12.3605 8.87157 12.2723 8.75031L9.64243 5.13564C9.43225 4.86064 9.10589 4.69931 8.75977 4.69931H8.18155C8.05665 4.69931 7.95537 4.59806 7.95537 4.47314V3.93733C7.95537 3.83155 8.00947 3.73371 8.09787 3.67562C8.6477 3.31444 9.00863 2.68925 9.00035 1.98034C8.98759 0.888614 8.08459 0.000923808 6.99278 0.00592619C5.89346 0.0109832 5.00383 0.903703 5.00383 2.00423C5.00383 2.70298 5.36247 3.31797 5.90574 3.67516C5.99438 3.73344 6.04895 3.8313 6.04895 3.93742V4.47314C6.04895 4.59803 5.9477 4.69931 5.82277 4.69931H5.09117C4.74505 4.69931 4.41869 4.86064 4.20851 5.13564L1.5828 8.77929C1.4947 8.90156 1.35319 8.97402 1.20246 8.97402H0.879162C0.39363 8.974 0 9.36763 0 9.85318C0 10.3387 0.393603 10.7323 0.879162 10.7323H1.74282C1.20998 11.03 0.849448 11.5993 0.849448 12.253C0.849448 13.2146 1.62894 13.9941 2.5905 13.9941H9.96633L4.17204 10.7835C3.71144 10.6049 3.22077 10.512 2.72417 10.512H2.69002C2.75809 10.4576 2.81976 10.3944 2.87257 10.3227L4.54203 7.83676V10.028C4.55012 10.0318 4.55826 10.0354 4.56622 10.0398L7.01965 11.3996L9.30894 10.0262V7.83676L10.9827 10.292C11.0379 10.367 11.1027 10.4327 11.1745 10.4886C10.5415 10.4981 9.87309 10.672 9.30894 10.9853V10.9825L7.84825 11.8588L11.5972 13.9366C12.3975 13.7798 13.0015 13.0747 13.0015 12.2284V12.2201C13.0015 11.5634 12.6378 10.9957 12.101 10.7016H13.1208C13.6064 10.7016 14 10.308 14 9.82249C14 9.3369 13.6064 8.9433 13.1208 8.9433Z" fill="#53536E"/>
</g>
<defs>
<clipPath id="clip0_264_614">
<rect width="14" height="14" fill="white"/>
</clipPath>
</defs>
</svg>
