<svg width="14" height="14" viewBox="0 0 14 14" fill="none" xmlns="http://www.w3.org/2000/svg">
<g clip-path="url(#clip0_280_32)">
<path d="M7.11939 3.58732C7.60633 3.38548 7.83745 2.82712 7.63561 2.34019C7.43377 1.85325 6.87541 1.62213 6.38848 1.82397C5.90154 2.0258 5.67043 2.58416 5.87226 3.0711C6.0741 3.55803 6.63246 3.78915 7.11939 3.58732Z" fill="#53536E"/>
<path d="M9.80981 5.86081L8.96244 5.89077C8.81442 5.47638 8.69767 5.14486 8.61437 4.90254C8.40075 4.28097 8.04264 3.96581 7.54985 3.96581H5.95466C5.4619 3.96581 5.10376 4.28097 4.89014 4.90254C4.79735 5.17249 4.73129 5.36209 4.64071 5.61639L4.04526 5.31326L4.00385 5.39448V6.32542L4.68869 6.67407C4.93454 6.7992 5.23646 6.68137 5.33073 6.41983C5.43898 6.11935 5.57907 5.72527 5.57907 5.72527L4.92565 9.14959C4.89498 9.30796 5.01702 9.45428 5.17675 9.45428H5.52808V12.7819C5.52808 13.0871 5.77543 13.3344 6.08055 13.3344C6.38568 13.3344 6.63303 13.0871 6.63303 12.7819V9.45425H6.87154V12.7819C6.87154 13.087 7.11889 13.3344 7.42401 13.3344C7.72914 13.3344 7.97649 13.087 7.97649 12.7819V9.45425H8.32782C8.48809 9.45425 8.60961 9.30804 8.57892 9.14957L7.92498 5.72116C7.92498 5.72116 8.10079 6.21646 8.20915 6.51831C8.27494 6.70164 8.4487 6.82316 8.64233 6.82316C8.64777 6.82316 8.65324 6.82308 8.65874 6.82286L9.6529 6.78773L9.80981 5.86081Z" fill="#53536E"/>
<path d="M3.69428 8.11801C3.69359 8.11673 3.69275 8.11558 3.69204 8.11429L3.66263 5.38562L4.6357 3.64925C4.6755 3.58201 4.69684 3.50544 4.69757 3.42731L4.71711 1.33118C4.71938 1.0861 4.52255 0.885533 4.27747 0.883263C4.27605 0.883263 4.27466 0.883263 4.27326 0.883263C4.0301 0.883263 3.83182 1.07927 3.82955 1.32292L3.81363 3.03178C3.84728 3.14626 3.86566 3.26594 3.867 3.38841C3.87078 3.73772 3.73829 4.0676 3.49395 4.31725C3.35991 4.45419 3.20092 4.55778 3.02713 4.62423L2.96366 4.73144H1.844L0.901895 3.56609L1.04368 1.99984C1.06578 1.75574 0.885809 1.53994 0.641687 1.51783C0.397948 1.49581 0.181729 1.67573 0.159681 1.91982L0.00181102 3.66391C-0.00852942 3.77801 0.0256925 3.8917 0.0972549 3.98118L1.16533 5.31608C1.15288 5.40811 1.16005 5.24507 1.19353 8.58757L0.609052 10.134C0.592611 10.1774 0.581395 10.2227 0.575623 10.2688L0.274383 12.673C0.233979 12.9953 0.462562 13.2894 0.784894 13.3298C0.809706 13.3329 0.834381 13.3344 0.858755 13.3344C1.151 13.3344 1.40436 13.1168 1.44165 12.8193L1.73419 10.4845L2.37281 8.79479L2.72034 8.79105L3.65242 10.5265L3.46282 12.6949C3.43454 13.0186 3.67395 13.3039 3.99757 13.3321C4.01502 13.3337 4.03231 13.3344 4.04946 13.3344C4.35114 13.3344 4.60801 13.1036 4.63477 12.7974L4.83963 10.454C4.84959 10.3399 4.82604 10.2254 4.77182 10.1245L3.69428 8.11801Z" fill="#53536E"/>
<path d="M2.55899 4.38202C2.56255 4.38202 2.56621 4.382 2.56977 4.38197C3.11073 4.37614 3.54453 3.93287 3.53871 3.39191C3.53291 2.85451 3.09554 2.42287 2.55946 2.42292C2.5559 2.42292 2.55223 2.42295 2.54868 2.42297C2.00772 2.4288 1.57391 2.87207 1.57974 3.41303C1.58551 3.95043 2.0229 4.38202 2.55899 4.38202Z" fill="#53536E"/>
<path d="M13.9335 12.4745L12.6333 9.97639L12.2021 8.48253C12.6898 5.25598 12.6797 5.25926 12.6797 5.25926L13.5613 3.54811C13.5992 3.47458 13.6157 3.39197 13.6092 3.30954L13.4306 1.07407C13.4111 0.829781 13.1979 0.647483 12.9529 0.667015C12.7085 0.686519 12.5263 0.900413 12.5458 1.14473L12.7143 3.25407L11.9716 4.69582L10.994 4.54646L10.8494 4.34323C10.6552 4.25255 10.4857 4.11432 10.3552 3.93684C10.2168 3.74849 10.1337 3.53134 10.1103 3.30481L9.98165 3.1241L10.1456 1.36825C10.1683 1.12421 9.98896 0.907909 9.74492 0.885121C9.50068 0.862389 9.28457 1.04171 9.26179 1.28575L9.08253 3.20581C9.07265 3.31176 9.10116 3.41774 9.16287 3.5044L10.231 5.00521L9.83486 7.59648C9.83486 7.59648 9.84496 7.55785 9.00199 9.87312C8.97863 9.93749 8.96667 10.0054 8.96667 10.0739V12.7462C8.96667 13.071 9.23003 13.3344 9.55488 13.3344C9.87972 13.3344 10.1431 13.071 10.1431 12.7462V10.1774L10.7769 8.43189L10.9775 8.48209L11.5193 10.3591C11.5301 10.3966 11.5446 10.4329 11.5626 10.4675L12.8899 13.0177C13.0397 13.3054 13.3946 13.4181 13.6833 13.2679C13.9714 13.1178 14.0834 12.7626 13.9335 12.4745Z" fill="#53536E"/>
<path d="M11.2535 4.12611C11.303 4.13366 11.3523 4.13735 11.4009 4.13735C11.8709 4.13735 12.2834 3.79439 12.3565 3.31542C12.4373 2.78697 12.0743 2.29309 11.5458 2.21236C11.4963 2.20481 11.447 2.20112 11.3985 2.20112C10.9284 2.20112 10.516 2.54408 10.4428 3.02305C10.3621 3.5515 10.725 4.04538 11.2535 4.12611Z" fill="#53536E"/>
</g>
<defs>
<clipPath id="clip0_280_32">
<rect width="14" height="14" fill="white"/>
</clipPath>
</defs>
</svg>
