<?xml version="1.0" standalone="no"?>
<!DOCTYPE svg PUBLIC "-//W3C//DTD SVG 20010904//EN"
 "http://www.w3.org/TR/2001/REC-SVG-20010904/DTD/svg10.dtd">
<svg version="1.0" xmlns="http://www.w3.org/2000/svg"
 width="660.000000pt" height="660.000000pt" viewBox="0 0 660.000000 660.000000"
 preserveAspectRatio="xMidYMid meet">
<metadata>
Created by potrace 1.14, written by Peter Selinger 2001-2017
</metadata>
<g transform="translate(0.000000,660.000000) scale(0.100000,-0.100000)"
fill="#000000" stroke="none">
<path d="M3349 6480 c-15 -4 -46 -10 -70 -14 -24 -3 -57 -8 -74 -10 -16 -2
-59 -7 -95 -11 -36 -3 -76 -8 -90 -10 -14 -2 -61 -6 -105 -9 -77 -6 -119 -9
-340 -21 -55 -3 -120 -7 -145 -10 -25 -2 -74 -7 -110 -10 -179 -17 -213 -22
-254 -40 -19 -8 -111 -66 -131 -82 -40 -32 -243 -144 -267 -147 -8 -1 -164
-103 -181 -119 -7 -7 -20 -16 -29 -22 -50 -30 -320 -221 -393 -277 -163 -127
-339 -294 -434 -413 -31 -38 -58 -72 -61 -75 -13 -12 -110 -170 -110 -179 0
-5 -3 -11 -7 -13 -5 -1 -21 -32 -37 -68 -16 -36 -32 -73 -37 -82 -11 -22 -12
-38 -2 -37 21 3 31 -3 41 -26 15 -33 15 -48 0 -39 -8 5 -9 0 -4 -17 23 -76 15
-89 -28 -46 l-24 24 -17 -39 c-43 -97 -70 -177 -126 -363 -33 -110 -62 -208
-64 -218 -2 -9 -6 -21 -10 -26 -3 -6 2 -14 11 -19 13 -7 17 -24 18 -64 1 -33
7 -63 16 -74 13 -17 13 -18 0 -7 -13 10 -15 0 -15 -76 0 -85 -1 -87 -40 -141
-21 -30 -45 -58 -51 -63 -13 -7 -32 -85 -40 -160 -2 -23 -6 -58 -9 -77 -8 -56
-8 -379 0 -440 4 -30 8 -68 10 -85 6 -76 33 -218 66 -355 20 -80 109 -362 128
-405 38 -85 54 -121 55 -130 1 -5 14 -36 29 -68 15 -31 39 -83 53 -114 53
-114 185 -310 314 -463 46 -56 277 -290 321 -325 13 -11 62 -52 109 -91 108
-90 248 -194 260 -194 6 0 10 -3 10 -7 0 -5 30 -26 66 -48 36 -22 71 -44 78
-50 14 -12 49 -33 89 -53 15 -7 27 -18 27 -23 0 -5 7 -9 14 -9 8 0 40 -15 71
-34 52 -31 58 -33 91 -21 34 12 79 12 139 0 75 -14 155 -17 185 -7 28 10 31
10 25 -7 -4 -15 0 -18 21 -18 35 0 67 -19 87 -51 9 -15 30 -42 47 -60 29 -31
31 -32 59 -17 17 8 31 25 33 37 2 13 9 23 17 23 14 0 18 -6 45 -68 17 -39 43
-58 55 -39 4 6 26 14 50 18 40 6 43 6 34 -12 -19 -37 -10 -82 25 -119 19 -19
39 -36 45 -36 7 -1 37 -3 67 -4 30 -2 57 -4 60 -5 9 -3 121 -1 275 5 174 8
332 8 392 2 35 -4 41 -2 38 12 -2 10 1 24 6 32 7 11 10 10 15 -8 9 -33 34 -37
64 -8 39 37 88 31 53 -7 -9 -10 -13 -21 -10 -25 13 -13 100 -10 181 7 45 9 89
16 97 14 8 -1 23 -3 34 -5 11 -2 31 3 44 10 13 7 72 16 131 20 73 5 116 13
133 24 22 14 26 14 31 2 3 -10 19 -15 43 -15 33 0 40 4 51 30 21 46 44 55 176
61 38 2 54 9 76 31 16 15 31 24 34 19 7 -10 251 111 372 184 154 94 279 199
392 332 45 52 174 153 196 153 7 0 128 79 157 103 8 6 34 36 57 65 44 57 54
100 27 122 -12 10 -13 16 -3 27 10 12 14 11 29 -8 l17 -23 22 46 c11 25 51 75
88 111 37 35 77 77 89 91 21 24 26 57 10 72 -11 11 -8 44 3 44 35 0 117 136
129 213 2 18 55 114 74 135 16 17 17 22 6 22 -34 0 -74 60 -50 75 5 2 12 22
16 42 10 53 21 64 51 52 34 -12 34 -12 34 14 0 35 25 107 62 177 36 69 37 78
9 136 -22 44 -17 72 14 84 32 12 34 19 40 95 3 37 8 71 11 76 2 4 -13 17 -34
28 -43 22 -63 59 -59 106 3 33 11 34 78 11 l36 -13 -2 109 c0 59 1 108 4 108
7 0 10 87 9 220 0 110 -3 149 -11 157 -4 3 -7 13 -7 22 0 9 -13 42 -29 73 -29
59 -28 67 11 81 15 5 16 11 6 39 -6 18 -15 39 -21 46 -5 6 -7 12 -3 12 3 0 1
11 -4 25 -5 14 -12 36 -14 48 -3 12 -7 31 -10 42 -5 17 -14 58 -41 175 -3 15
-12 39 -36 95 -6 17 -13 35 -14 41 -4 18 -70 116 -97 146 -20 21 -26 37 -26
80 -1 48 -4 72 -14 118 -7 32 -31 80 -40 80 -5 0 -26 13 -46 30 -21 16 -61 36
-90 42 -57 14 -65 29 -36 73 14 21 14 32 4 77 -32 143 -65 198 -119 198 l-24
0 22 24 22 24 -27 6 c-41 11 -141 72 -169 103 -13 16 -27 40 -30 56 -4 15 -12
28 -18 28 -29 3 -54 7 -85 12 -24 4 -35 1 -45 -14 -17 -23 -30 -13 -16 13 5
10 7 22 4 27 -3 5 9 14 25 20 17 5 30 16 30 22 0 14 -167 179 -180 179 -5 0
-15 6 -22 13 -23 22 -91 62 -180 108 -56 28 -88 50 -88 60 0 29 -41 69 -98 95
-31 14 -75 41 -97 59 -22 17 -51 35 -65 39 -14 4 -45 17 -70 28 -47 22 -130
33 -130 17 0 -5 -7 -9 -16 -9 -14 0 -14 2 -3 16 12 14 9 20 -16 40 -16 12 -31
22 -34 21 -9 -2 -143 69 -219 115 -38 24 -67 19 -110 -17 -38 -32 -50 -32 -44
2 l5 27 -29 -18 c-35 -24 -61 -52 -81 -90 -13 -25 -19 -27 -46 -22 -18 4 -39
13 -47 22 -13 14 -13 16 5 26 24 14 127 120 121 125 -9 9 -42 10 -68 2 -16 -5
-42 -13 -59 -19 -26 -8 -34 -6 -54 14 -43 43 -106 40 -121 -6 l-7 -23 -8 24
c-5 12 -6 27 -3 33 8 12 -56 8 -73 -5 -6 -5 -9 -15 -6 -23 3 -9 -4 -24 -16
-36 -12 -11 -26 -31 -31 -44 -7 -18 -16 -23 -35 -22 -28 3 -28 5 -4 65 21 52
3 49 -50 -7 -48 -52 -52 -53 -98 -50 -87 5 -276 4 -363 -3 -123 -10 -193 -18
-201 -23 -4 -2 -10 -1 -13 4 -2 4 3 8 13 9 10 1 36 9 57 19 21 9 42 18 45 18
4 1 22 16 40 34 19 19 47 41 63 49 72 37 145 129 185 230 22 57 19 64 -20 53z
m-399 -414 c0 -2 -9 -6 -20 -9 -11 -3 -20 -1 -20 4 0 5 9 9 20 9 11 0 20 -2
20 -4z m-73 -12 c-2 -2 -14 -7 -26 -9 -13 -2 -30 -6 -39 -9 -9 -3 -33 -7 -54
-10 -20 -3 -56 -12 -80 -20 -23 -8 -61 -19 -83 -25 -36 -9 -38 -9 -20 5 28 21
129 50 200 59 33 3 61 7 62 9 1 1 12 2 24 3 12 1 19 0 16 -3z m-410 -107 c-2
-6 -34 -21 -72 -34 l-69 -23 44 47 c25 26 50 51 55 55 11 9 47 -30 42 -45z
m-501 -252 c-11 -8 -23 -15 -27 -15 -11 0 -103 -62 -107 -72 -2 -4 -8 -8 -14
-8 -13 0 -160 -111 -246 -186 -81 -71 -262 -254 -262 -266 0 -4 -7 -8 -15 -8
-8 0 -15 -4 -15 -9 0 -5 -6 -16 -13 -23 -7 -7 -41 -48 -75 -91 -34 -43 -62
-72 -62 -65 0 8 4 18 8 24 5 5 17 35 26 67 10 31 22 57 27 57 5 0 9 -5 9 -11
0 -5 5 -7 10 -4 6 4 8 10 5 15 -7 12 49 69 102 104 76 50 87 88 54 184 -20 58
-14 63 37 32 39 -24 52 -25 52 -5 0 8 11 30 24 50 14 20 22 43 19 51 -3 8 0
14 7 14 6 0 14 -9 17 -20 8 -32 29 -7 49 58 18 60 30 82 45 82 5 0 9 -7 9 -15
0 -16 38 -14 90 4 37 14 84 25 94 22 4 -1 14 4 22 10 8 7 17 10 19 7 3 -3 29
3 58 13 63 22 78 23 53 4z m-1086 -1157 c0 -6 -6 -5 -15 2 -8 7 -15 14 -15 16
0 2 7 1 15 -2 8 -4 15 -11 15 -16z m-263 -1590 c-3 -8 -6 -5 -6 6 -1 11 2 17
5 13 3 -3 4 -12 1 -19z m48 -238 c3 -5 2 -10 -4 -10 -5 0 -13 5 -16 10 -3 6
-2 10 4 10 5 0 13 -4 16 -10z m85 -312 c0 -12 -28 -10 -35 2 -4 6 -4 19 0 28
6 16 8 15 21 -2 8 -11 14 -23 14 -28z m245 -536 c-8 -9 -25 20 -18 31 3 5 10
2 15 -7 6 -10 7 -20 3 -24z m266 -343 c16 -20 26 -39 22 -43 -3 -3 -26 -6 -50
-6 -32 0 -46 5 -55 20 -7 11 -18 20 -25 20 -7 0 -13 5 -13 10 0 6 -6 10 -14
10 -17 0 -41 28 -32 37 4 4 11 1 15 -6 9 -14 31 -7 31 9 0 5 5 21 11 37 l11
28 35 -40 c19 -22 48 -56 64 -76z"/>
</g>
</svg>
