<svg width="60" height="43" viewBox="0 0 60 43" fill="none" xmlns="http://www.w3.org/2000/svg">
<rect x="0.25" y="0.25" width="59.5" height="42.5" rx="1.75" fill="white" stroke="#F5F5F5" stroke-width="0.5"/>
<mask id="mask0_6535_5011" style="mask-type:alpha" maskUnits="userSpaceOnUse" x="0" y="0" width="60" height="43">
<rect x="0.25" y="0.25" width="59.5" height="42.5" rx="1.75" fill="white" stroke="white" stroke-width="0.5"/>
</mask>
<g mask="url(#mask0_6535_5011)">
<path fill-rule="evenodd" clip-rule="evenodd" d="M2 0C0.895431 0 0 0.895431 0 2V17.2H17.1429V0H2ZM25.7143 0V17.2H60V2C60 0.895431 59.1046 0 58 0H25.7143ZM60 25.8H25.7143V43H58C59.1046 43 60 42.1046 60 41V25.8ZM17.1429 43V25.8H0V41C0 42.1046 0.895432 43 2 43H17.1429Z" fill="#EF264D"/>
</g>
</svg>
