<svg width="60" height="43" viewBox="0 0 60 43" fill="none" xmlns="http://www.w3.org/2000/svg">
<rect width="60" height="43" rx="4" fill="white"/>
<mask id="mask0_5351_5041" style="mask-type:alpha" maskUnits="userSpaceOnUse" x="0" y="0" width="60" height="43">
<rect width="60" height="43" rx="4" fill="white"/>
</mask>
<g mask="url(#mask0_5351_5041)">
<rect width="60" height="43" fill="#FFBF19"/>
<path fill-rule="evenodd" clip-rule="evenodd" d="M22.8574 2.8667H55.8098C56.5462 2.8667 57.1431 3.46365 57.1431 4.20003V38.8C57.1431 39.5364 56.5462 40.1334 55.8098 40.1334H22.8574V2.8667Z" fill="#A52531"/>
<path d="M2.85742 4.20003C2.85742 3.46365 3.45438 2.8667 4.19076 2.8667H11.4289V40.1334H4.19075C3.45437 40.1334 2.85742 39.5364 2.85742 38.8V4.20003Z" fill="#03664F"/>
<rect x="11.4287" y="2.8667" width="8.57143" height="37.2667" rx="0.666667" fill="#FF6816"/>
<path fill-rule="evenodd" clip-rule="evenodd" d="M28.571 7.16661C28.571 7.95822 27.9314 8.59994 27.1424 8.59994C26.3535 8.59994 25.7139 7.95822 25.7139 7.16661V5.73328H27.1424C27.9314 5.73328 28.571 6.375 28.571 7.16661ZM51.4282 7.16661C51.4282 7.95822 52.0677 8.59994 52.8567 8.59994C53.6457 8.59994 54.2853 7.95822 54.2853 7.16661V5.73328H52.8567C52.0677 5.73328 51.4282 6.375 51.4282 7.16661ZM52.8567 34.3999C52.0677 34.3999 51.4282 35.0417 51.4282 35.8333C51.4282 36.6249 52.0677 37.2666 52.8567 37.2666H54.2853V35.8333C54.2853 35.0417 53.6457 34.3999 52.8567 34.3999ZM28.571 35.8333C28.571 35.0417 27.9314 34.3999 27.1424 34.3999C26.3535 34.3999 25.7139 35.0417 25.7139 35.8333V37.2666H27.1424C27.9314 37.2666 28.571 36.6249 28.571 35.8333Z" fill="#FFBF18"/>
<path fill-rule="evenodd" clip-rule="evenodd" d="M34.286 26.4666C34.286 26.0984 33.9875 25.8 33.6193 25.8H32.9659C32.8941 25.8 32.8232 25.7886 32.7554 25.7647C32.1056 25.5364 28.5717 24.2349 28.5717 22.9333C28.5717 21.9216 29.2834 20.91 29.7021 20.4023C29.8751 20.1926 29.9312 19.9043 29.8308 19.6517C29.4053 18.5816 28.3421 15.7155 28.5717 14.3333C28.745 13.2902 29.7599 12.4575 30.5313 11.9639C30.9381 11.7037 31.4288 12.0113 31.4288 12.4942V19.6552C31.4288 19.9074 31.5711 20.138 31.7966 20.2511L33.8551 21.2838C34.1123 21.4128 34.4232 21.3623 34.6263 21.1586L35.0637 20.7197C35.3843 20.398 35.2964 19.8569 34.8904 19.6532L32.8574 18.6333V17.2H32.8989C33.6019 17.2 33.8262 16.2526 33.1978 15.9374L32.8574 15.7666V14.3333H35.4378C35.615 14.3333 35.7849 14.2628 35.9099 14.1373L36.9477 13.096C37.0728 12.9705 37.2427 12.9 37.4199 12.9H39.5876C39.8405 12.9 40.0715 13.043 40.1843 13.2693L41.3061 15.5203C41.3847 15.6781 41.3976 15.8605 41.3421 16.0278L40.2916 19.1898C40.1482 19.6213 40.4695 20.0666 40.9242 20.0666H46.8663C47.0435 20.0666 47.2134 19.9961 47.3385 19.8706L47.9208 19.2864C48.2414 18.9647 48.1535 18.4235 47.7476 18.2199L45.8556 17.2707C45.7629 17.2242 45.6605 17.2 45.5567 17.2H43.5241C43.1559 17.2 42.8574 16.9015 42.8574 16.5333V14.6088C42.8574 14.4324 42.9273 14.2631 43.0519 14.1382L44.286 12.9V15.1C44.286 15.4682 44.5845 15.7666 44.9526 15.7666H45.7146H48.1591C48.4119 15.7666 48.643 15.9097 48.7557 16.136L49.9471 18.5266C49.9823 18.5972 50.0046 18.673 50.0123 18.7514C50.0654 19.2968 50.2658 21.601 50.0003 22.9333C49.7655 24.1111 49.0356 25.1863 48.7198 25.6096C48.6264 25.7348 48.5717 25.8855 48.5717 26.0417V30.8666C48.5717 31.2348 48.2732 31.5333 47.905 31.5333H46.7916C46.2964 31.5333 45.9741 31.0125 46.195 30.5693L46.9949 28.964C47.0883 28.7767 47.0883 28.5565 46.9949 28.3693L46.926 28.231C46.6249 27.6268 45.7146 27.8411 45.7146 28.5162V28.5162C45.7146 28.6151 45.6916 28.7127 45.6474 28.8013L44.47 31.164C44.3573 31.3903 44.1262 31.5333 43.8733 31.5333H42.5059C42.0107 31.5333 41.6884 31.0125 41.9092 30.5693L42.7874 28.8071C42.8335 28.7147 42.8574 28.6129 42.8574 28.5097L42.8574 26.4666C42.8574 26.0984 42.5589 25.8 42.1907 25.8H37.8098C37.4416 25.8 37.1431 26.0984 37.1431 26.4666V28.5097C37.1431 28.6129 37.1192 28.7147 37.0731 28.8071L35.8986 31.164C35.7858 31.3903 35.5547 31.5333 35.3019 31.5333H33.9345C33.4393 31.5333 33.1169 31.0125 33.3378 30.5693L34.216 28.8071C34.262 28.7147 34.286 28.6129 34.286 28.5097V26.4666Z" fill="#FFBF18"/>
</g>
</svg>
