<svg width="60" height="43" viewBox="0 0 60 43" fill="none" xmlns="http://www.w3.org/2000/svg">
<rect width="60" height="43" rx="4" fill="white"/>
<mask id="mask0_5351_4996" style="mask-type:alpha" maskUnits="userSpaceOnUse" x="0" y="0" width="60" height="43">
<rect width="60" height="43" rx="4" fill="white"/>
</mask>
<g mask="url(#mask0_5351_4996)">
<rect width="60" height="43" fill="#E6BE53"/>
<path fill-rule="evenodd" clip-rule="evenodd" d="M2.85742 39.1334C2.85742 39.6857 3.30514 40.1334 3.85742 40.1334H56.1431C56.6954 40.1334 57.1431 39.6857 57.1431 39.1334V3.8667C57.1431 3.31441 56.6954 2.8667 56.1431 2.8667H3.85742C3.30514 2.8667 2.85742 3.31441 2.85742 3.8667V39.1334Z" fill="#E01826"/>
<path fill-rule="evenodd" clip-rule="evenodd" d="M26.7338 8.25892C26.2646 8.41586 26.1238 9.01132 26.4731 9.36179L28.3756 11.2707C28.5007 11.3962 28.6706 11.4667 28.8478 11.4667H31.1514C31.3286 11.4667 31.4985 11.3962 31.6236 11.2707L33.5261 9.36179C33.8754 9.01132 33.7346 8.41586 33.2653 8.25892L30.211 7.23743C30.0738 7.19153 29.9254 7.19153 29.7881 7.23743L26.7338 8.25892ZM30.4718 15.2929C30.2112 15.5543 29.7879 15.5543 29.5274 15.2929L28.571 14.3334L26.0541 11.8081C25.8511 11.6044 25.5402 11.5538 25.283 11.6828L23.6809 12.4866C23.2749 12.6903 23.187 13.2314 23.5076 13.5531L24.2853 14.3334L26.8043 16.8608C27.0064 17.0635 27.0565 17.3726 26.9288 17.6287L25.7839 19.9263C25.7378 20.0186 25.7139 20.1204 25.7139 20.2236V20.4197C25.7139 20.9157 25.1916 21.238 24.7483 21.0156L23.6809 20.4802C23.2749 20.2765 23.187 19.7353 23.5076 19.4136L23.8162 19.104C24.0755 18.8438 24.0755 18.4229 23.8162 18.1628L22.933 17.2766C22.8825 17.2259 22.8404 17.1674 22.8085 17.1033L21.4607 14.3987C21.4391 14.3553 21.4222 14.3096 21.4105 14.2625L20.3393 9.96331C20.2034 9.41789 19.4949 9.27513 19.1584 9.72534L15.8466 14.1559C15.7604 14.2711 15.7139 14.4111 15.7139 14.555V19.9098C15.7139 20.013 15.7378 20.1148 15.7839 20.2071L17.0942 22.8366C17.1262 22.9007 17.1682 22.9592 17.2187 23.0099L19.9231 25.7233C19.9738 25.7741 20.0323 25.8164 20.0964 25.8486L22.7212 27.1654C22.8103 27.2101 22.9087 27.2334 23.0084 27.2334C23.6839 27.2334 23.8994 28.1436 23.2956 28.4465L22.9535 28.6181C22.8894 28.6503 22.8309 28.6926 22.7803 28.7434L21.9003 29.6263C21.6398 29.8877 21.2165 29.8877 20.956 29.6263L20.4718 29.1405C20.2112 28.8791 19.7879 28.8791 19.5274 29.1405L18.9091 29.7608C18.7071 29.9635 18.657 30.2726 18.7847 30.5287L19.8155 32.5974C19.9283 32.8237 20.1594 32.9667 20.4122 32.9667H22.6989C22.8027 32.9667 22.905 32.9425 22.9978 32.8959L25.5152 31.633C25.6442 31.5683 25.7486 31.4636 25.813 31.3345L26.7286 29.4972C26.9319 29.0892 27.4756 29.001 27.7975 29.3239L28.1865 29.7142C28.4102 29.9387 28.445 30.2898 28.2695 30.5538L26.0817 33.8465C25.8784 34.1525 25.9609 34.5653 26.2663 34.7696L29.6289 37.0188C29.8533 37.1688 30.1459 37.1688 30.3702 37.0188L33.7329 34.7696C34.0382 34.5653 34.1208 34.1525 33.9175 33.8465L31.7296 30.5538C31.5542 30.2898 31.5889 29.9387 31.8127 29.7142L32.2017 29.3239C32.5235 29.001 33.0672 29.0892 33.2706 29.4972L34.1862 31.3345C34.2505 31.4636 34.355 31.5683 34.4839 31.633L37.0013 32.8959C37.0941 32.9425 37.1965 32.9667 37.3003 32.9667H39.5869C39.8398 32.9667 40.0709 32.8237 40.1836 32.5974L41.2145 30.5287C41.3422 30.2726 41.2921 29.9635 41.09 29.7608L40.4718 29.1405C40.2112 28.8791 39.7879 28.8791 39.5274 29.1405L39.0432 29.6263C38.7827 29.8877 38.3594 29.8877 38.0988 29.6263L37.2189 28.7434C37.1683 28.6926 37.1098 28.6503 37.0456 28.6181L36.7035 28.4465C36.0998 28.1436 36.3153 27.2334 36.9908 27.2334C37.0905 27.2334 37.1889 27.2101 37.278 27.1654L39.9028 25.8486C39.9669 25.8164 40.0254 25.7741 40.076 25.7233L42.7804 23.0099C42.831 22.9592 42.873 22.9007 42.9049 22.8366L44.2153 20.2071C44.2613 20.1148 44.2853 20.013 44.2853 19.9098V14.555C44.2853 14.4111 44.2387 14.2711 44.1526 14.1559L40.8408 9.72534C40.5042 9.27513 39.7958 9.41789 39.6599 9.96331L38.5887 14.2625C38.5769 14.3096 38.5601 14.3553 38.5385 14.3987L37.1906 17.1033C37.1587 17.1674 37.1167 17.2259 37.0661 17.2766L36.1829 18.1628C35.9236 18.4229 35.9236 18.8438 36.1829 19.104L36.4915 19.4136C36.8122 19.7353 36.7243 20.2765 36.3183 20.4802L35.2509 21.0156C34.8076 21.238 34.2853 20.9157 34.2853 20.4197V20.2236C34.2853 20.1204 34.2613 20.0186 34.2153 19.9263L33.0704 17.6287C32.9427 17.3726 32.9928 17.0635 33.1949 16.8608L35.7139 14.3334L36.4915 13.5531C36.8122 13.2314 36.7243 12.6903 36.3183 12.4866L34.7161 11.6828C34.459 11.5538 34.1481 11.6044 33.945 11.8081L31.4282 14.3334L30.4718 15.2929Z" fill="#E6BE53"/>
<path fill-rule="evenodd" clip-rule="evenodd" d="M27.1426 24.3667C27.1426 24.893 28.0295 25.0677 28.2854 24.6078C28.7834 23.7127 29.3915 22.9333 29.9997 22.9333C30.6079 22.9333 31.2161 23.7127 31.714 24.6078C31.9699 25.0677 32.8569 24.893 32.8569 24.3667V24.3667C32.8569 21.9918 31.5777 20.0667 29.9997 20.0667C28.4218 20.0667 27.1426 21.9918 27.1426 24.3667V24.3667Z" fill="#215F90"/>
</g>
</svg>
