<svg width="60" height="43" viewBox="0 0 60 43" fill="none" xmlns="http://www.w3.org/2000/svg">
<rect x="0.25" y="0.25" width="59.5" height="42.5" rx="3.75" fill="white" stroke="#F5F5F5" stroke-width="0.5"/>
<mask id="mask0_5351_4763" style="mask-type:alpha" maskUnits="userSpaceOnUse" x="0" y="0" width="60" height="43">
<rect x="0.25" y="0.25" width="59.5" height="42.5" rx="3.75" fill="white" stroke="white" stroke-width="0.5"/>
</mask>
<g mask="url(#mask0_5351_4763)">
<rect x="40" width="20" height="43" fill="#E3283E"/>
<path fill-rule="evenodd" clip-rule="evenodd" d="M0 43H20V0H0V43Z" fill="#128A60"/>
<path d="M24.9528 20.0667C24.9528 19.6985 24.6543 19.4 24.2861 19.4C23.9179 19.4 23.6195 19.6985 23.6195 20.0667H24.9528ZM26.8013 25.6053C27.1195 25.7905 27.5276 25.6828 27.7129 25.3646C27.8981 25.0464 27.7903 24.6383 27.4721 24.453L26.8013 25.6053ZM32.7151 24.339C32.4052 24.5379 32.3152 24.9503 32.514 25.2602C32.7129 25.5701 33.1253 25.6601 33.4351 25.4612L32.7151 24.339ZM36.3814 20.0667C36.3814 19.6985 36.0829 19.4 35.7147 19.4C35.3465 19.4 35.048 19.6985 35.048 20.0667H36.3814ZM23.6195 20.0667C23.6195 22.4323 24.8996 24.4982 26.8013 25.6053L27.4721 24.453C25.9651 23.5756 24.9528 21.9399 24.9528 20.0667H23.6195ZM33.4351 25.4612C35.206 24.3248 36.3814 22.3332 36.3814 20.0667H35.048C35.048 21.8616 34.1188 23.4383 32.7151 24.339L33.4351 25.4612Z" fill="#8C9157"/>
<path fill-rule="evenodd" clip-rule="evenodd" d="M29.9997 22.9333C31.5777 22.9333 32.8569 21.0081 32.8569 18.6333C32.8569 16.2585 31.5777 14.3333 29.9997 14.3333C28.4218 14.3333 27.1426 16.2585 27.1426 18.6333C27.1426 21.0081 28.4218 22.9333 29.9997 22.9333Z" fill="#C59262"/>
</g>
</svg>
