<svg width="60" height="43" viewBox="0 0 60 43" fill="none" xmlns="http://www.w3.org/2000/svg">
<rect x="0.25" y="0.25" width="59.5" height="42.5" rx="1.75" fill="white" stroke="#F5F5F5" stroke-width="0.5"/>
<mask id="mask0_6535_4791" style="mask-type:alpha" maskUnits="userSpaceOnUse" x="0" y="0" width="60" height="43">
<rect x="0.25" y="0.25" width="59.5" height="42.5" rx="1.75" fill="white" stroke="white" stroke-width="0.5"/>
</mask>
<g mask="url(#mask0_6535_4791)">
<path fill-rule="evenodd" clip-rule="evenodd" d="M0 28.6667H60V14.3333H0V28.6667Z" fill="#17508F"/>
<path fill-rule="evenodd" clip-rule="evenodd" d="M0 14.3333H60V0H0V14.3333Z" fill="#E1444D"/>
<path fill-rule="evenodd" clip-rule="evenodd" d="M12.8574 21.5C12.8574 19.929 13.8024 16.1727 14.1552 14.8251C14.2314 14.5343 14.4945 14.3333 14.7951 14.3333H22.3495C22.6495 14.3333 22.9124 14.5337 22.9889 14.8238C23.3423 16.1637 24.286 19.8926 24.286 21.5C24.286 23.1829 23.1024 27.7397 22.8899 28.5444C22.8683 28.6262 22.8327 28.6998 22.7801 28.7661C22.3785 29.2716 20.4751 31.5333 18.5717 31.5333C16.6676 31.5333 14.7634 29.2698 14.3628 28.7655C14.3105 28.6996 14.2751 28.6264 14.2534 28.5452C14.0407 27.7463 12.8574 23.2247 12.8574 21.5Z" fill="white"/>
<mask id="mask1_6535_4791" style="mask-type:alpha" maskUnits="userSpaceOnUse" x="12" y="14" width="13" height="18">
<path fill-rule="evenodd" clip-rule="evenodd" d="M12.8574 21.5C12.8574 19.929 13.8024 16.1727 14.1552 14.8251C14.2314 14.5343 14.4945 14.3333 14.7951 14.3333H22.3495C22.6495 14.3333 22.9124 14.5337 22.9889 14.8238C23.3423 16.1637 24.286 19.8926 24.286 21.5C24.286 23.1829 23.1024 27.7397 22.8899 28.5444C22.8683 28.6262 22.8327 28.6998 22.7801 28.7661C22.3785 29.2716 20.4751 31.5333 18.5717 31.5333C16.6676 31.5333 14.7634 29.2698 14.3628 28.7655C14.3105 28.6996 14.2751 28.6264 14.2534 28.5452C14.0407 27.7463 12.8574 23.2247 12.8574 21.5Z" fill="white"/>
</mask>
<g mask="url(#mask1_6535_4791)">
<path d="M24.2859 15.7667L12.8573 30.1" stroke="#E1444D" stroke-width="1.33333" stroke-linecap="square"/>
<path d="M12.8577 15.7667L24.2863 30.1" stroke="#E1444D" stroke-width="1.33333" stroke-linecap="square"/>
</g>
</g>
</svg>
