<svg width="60" height="43" viewBox="0 0 60 43" fill="none" xmlns="http://www.w3.org/2000/svg">
<rect width="60" height="43" rx="4" fill="white"/>
<mask id="mask0_5351_4890" style="mask-type:alpha" maskUnits="userSpaceOnUse" x="0" y="0" width="60" height="43">
<rect width="60" height="43" rx="4" fill="white"/>
</mask>
<g mask="url(#mask0_5351_4890)">
<rect width="60" height="43" fill="#E92434"/>
<path fill-rule="evenodd" clip-rule="evenodd" d="M42.8569 21.5C42.8569 28.6245 37.1005 34.4 29.9997 34.4C22.8989 34.4 17.1426 28.6245 17.1426 21.5C17.1426 14.3755 22.8989 8.59998 29.9997 8.59998C37.1005 8.59998 42.8569 14.3755 42.8569 21.5ZM25.714 21.5C25.714 16.7345 29.28 12.8047 33.8807 12.2503C32.6874 11.7456 31.376 11.4666 29.9997 11.4666C24.4769 11.4666 19.9997 15.9587 19.9997 21.5C19.9997 27.0412 24.4769 31.5333 29.9997 31.5333C31.376 31.5333 32.6874 31.2543 33.8807 30.7497C29.28 30.1953 25.714 26.2654 25.714 21.5ZM32.4198 27.2084L35.0444 24.0157L38.9085 25.464L36.6931 21.9729L39.26 18.7333L35.2663 19.7684L32.9887 16.3179L32.7357 20.4487L28.7612 21.5558L32.5986 23.0737L32.4198 27.2084Z" fill="white"/>
</g>
</svg>
