<svg width="17" height="17" viewBox="0 0 17 17" fill="none" xmlns="http://www.w3.org/2000/svg">
<path d="M8.61043 5.7892L8.25156 5.42309L7.7032 4.86369L7.70188 4.86234L7.70189 4.86234C7.40584 4.55805 7.05181 4.31618 6.66071 4.15103C6.26961 3.98587 5.84938 3.90078 5.42484 3.90078C5.0003 3.90078 4.58006 3.98587 4.18896 4.15103C3.79803 4.31611 3.44413 4.55785 3.14816 4.86196C2.54003 5.49007 2.20001 6.33007 2.20001 7.20435C2.20001 8.07834 2.5398 8.91807 3.14755 9.54611C3.14789 9.54646 3.14823 9.54682 3.14857 9.54717L8.60845 15.1172L14.0631 9.54717C14.0635 9.54684 14.0638 9.54651 14.0641 9.54618C14.6719 8.91814 15.0117 8.07837 15.0117 7.20435C15.0117 6.33005 14.6717 5.49003 14.0635 4.86192C13.7676 4.55774 13.4137 4.31594 13.0227 4.15079C12.6317 3.98559 12.2115 3.90045 11.7869 3.90039L8.61043 5.7892ZM8.61043 5.7892L8.96745 5.42128M8.61043 5.7892L8.96745 5.42128M8.96745 5.42128L9.50988 4.86229C9.51 4.86216 9.51013 4.86204 9.51025 4.86191C9.51026 4.8619 9.51027 4.86189 9.51028 4.86187C9.80622 4.55772 10.1601 4.31593 10.551 4.15079C10.9421 3.98559 11.3623 3.90045 11.7868 3.90039L8.96745 5.42128Z" stroke="#53536E"/>
<path d="M8.61043 5.7892L8.25156 5.42309L7.7032 4.86369L7.70188 4.86234L7.70189 4.86234C7.40584 4.55805 7.05181 4.31618 6.66071 4.15103C6.26961 3.98587 5.84938 3.90078 5.42484 3.90078C5.0003 3.90078 4.58006 3.98587 4.18896 4.15103C3.79803 4.31611 3.44413 4.55785 3.14816 4.86196C2.54003 5.49007 2.20001 6.33007 2.20001 7.20435C2.20001 8.07834 2.5398 8.91807 3.14755 9.54611C3.14789 9.54646 3.14823 9.54682 3.14857 9.54717L8.60845 15.1172L14.0631 9.54717C14.0635 9.54684 14.0638 9.54651 14.0641 9.54618C14.6719 8.91814 15.0117 8.07837 15.0117 7.20435C15.0117 6.33005 14.6717 5.49003 14.0635 4.86192C13.7676 4.55774 13.4137 4.31594 13.0227 4.15079C12.6317 3.98559 12.2115 3.90045 11.7869 3.90039L8.61043 5.7892ZM8.61043 5.7892L8.96745 5.42128M8.61043 5.7892L8.96745 5.42128M8.96745 5.42128L9.50988 4.86229C9.51 4.86216 9.51013 4.86204 9.51025 4.86191C9.51026 4.8619 9.51027 4.86189 9.51028 4.86187C9.80622 4.55772 10.1601 4.31593 10.551 4.15079C10.9421 3.98559 11.3623 3.90045 11.7868 3.90039L8.96745 5.42128Z" stroke="url(#paint0_linear_4515_5649)"/>
<defs>
<linearGradient id="paint0_linear_4515_5649" x1="1.87266" y1="-8.04425" x2="21.4749" y2="-4.24069" gradientUnits="userSpaceOnUse">
<stop offset="0.240837" stop-color="#FF9400"/>
<stop offset="1" stop-color="#FF1821"/>
</linearGradient>
</defs>
</svg>
