<svg width="15" height="14" viewBox="0 0 15 14" fill="none" xmlns="http://www.w3.org/2000/svg">
<path d="M5.16667 2.33317V9.33317C5.16667 9.64259 5.28958 9.93934 5.50838 10.1581C5.72717 10.3769 6.02391 10.4998 6.33333 10.4998H11C11.3094 10.4998 11.6062 10.3769 11.825 10.1581C12.0437 9.93934 12.1667 9.64259 12.1667 9.33317V4.22434C12.1666 4.06891 12.1356 3.91506 12.0753 3.77181C12.015 3.62857 11.9266 3.49881 11.8155 3.39017L9.88175 1.499C9.66379 1.28589 9.37108 1.16654 9.06625 1.1665H6.33333C6.02391 1.1665 5.72717 1.28942 5.50838 1.50821C5.28958 1.72701 5.16667 2.02375 5.16667 2.33317V2.33317Z" stroke="#F8F9FA" stroke-linecap="round" stroke-linejoin="round"/>
<path d="M9.83333 10.4997V11.6663C9.83333 11.9758 9.71042 12.2725 9.49162 12.4913C9.27283 12.7101 8.97609 12.833 8.66667 12.833H4C3.69058 12.833 3.39383 12.7101 3.17504 12.4913C2.95625 12.2725 2.83333 11.9758 2.83333 11.6663V5.24967C2.83333 4.94026 2.95625 4.64351 3.17504 4.42472C3.39383 4.20592 3.69058 4.08301 4 4.08301H5.16667" stroke="#F8F9FA" stroke-linecap="round" stroke-linejoin="round"/>
</svg>
