<svg width="60" height="43" viewBox="0 0 60 43" fill="none" xmlns="http://www.w3.org/2000/svg">
<mask id="mask0_5351_4386" style="mask-type:alpha" maskUnits="userSpaceOnUse" x="0" y="0" width="60" height="43">
<rect width="60" height="43" rx="4" fill="white"/>
</mask>
<g mask="url(#mask0_5351_4386)">
<rect width="60" height="43" fill="#EE343C"/>
<path fill-rule="evenodd" clip-rule="evenodd" d="M26.1009 8.98834C25.876 8.76269 25.5229 8.7277 25.2581 8.90483L22.3799 10.83C21.9551 11.1142 21.9948 11.7509 22.4516 11.9801L26.7747 14.1488C27.0001 14.2619 27.1424 14.4925 27.1424 14.7447V16.5333C27.1424 16.9015 26.844 17.2 26.4758 17.2H24.4431C24.3393 17.2 24.237 17.1757 24.1442 17.1292L19.0019 14.5495C18.7447 14.4205 18.4338 14.471 18.2307 14.6747L16.3648 16.5469C16.0441 16.8686 16.132 17.4098 16.538 17.6134L20.4047 19.5532C20.8615 19.7824 20.9012 20.4191 20.4764 20.7032L18.4761 22.0412C17.983 22.3711 18.134 23.1323 18.7156 23.249L22.8278 24.0742C23.3921 24.1874 23.5573 24.9144 23.0975 25.2605L20.1648 27.4673C19.6533 27.8522 19.9256 28.6666 20.5657 28.6666H21.3458C21.4005 28.6666 21.455 28.6599 21.508 28.6466L25.4717 27.6524C26.0625 27.5042 26.5263 28.1606 26.1892 28.668L24.9734 30.4977C24.679 30.9408 24.9967 31.5333 25.5287 31.5333H28.09C28.3772 31.5333 28.6321 31.7172 28.7227 31.9898L29.3669 33.929C29.5691 34.5376 30.43 34.5376 30.6322 33.929L31.2765 31.9898C31.367 31.7172 31.622 31.5333 31.9092 31.5333H34.4705C35.0025 31.5333 35.3202 30.9408 35.0257 30.4977L33.81 28.668C33.4729 28.1606 33.9366 27.5042 34.5274 27.6524L38.4911 28.6466C38.5442 28.6599 38.5987 28.6666 38.6533 28.6666H39.4335C40.0736 28.6666 40.3458 27.8522 39.8343 27.4673L36.9017 25.2605C36.4418 24.9144 36.6071 24.1874 37.1714 24.0742L41.2836 23.249C41.8652 23.1323 42.0161 22.371 41.523 22.0412L39.5227 20.7032C39.098 20.4191 39.1377 19.7824 39.5944 19.5532L43.4611 17.6134C43.8671 17.4098 43.955 16.8686 43.6344 16.5469L41.7684 14.6747C41.5653 14.471 41.2544 14.4205 40.9973 14.5495L35.855 17.1292C35.7622 17.1757 35.6598 17.2 35.556 17.2H33.5234C33.1552 17.2 32.8567 16.9015 32.8567 16.5333V14.7447C32.8567 14.4925 32.9988 14.262 33.2242 14.149C34.5192 13.4993 36.3979 12.5568 37.549 11.9794C38.0058 11.7502 38.0441 11.1142 37.6193 10.83L34.7411 8.90483C34.4762 8.7277 34.1231 8.76269 33.8982 8.98834L30.4718 12.4262C30.2112 12.6876 29.7879 12.6876 29.5274 12.4262L26.1009 8.98834Z" fill="#262626"/>
</g>
</svg>
