<svg width="60" height="43" viewBox="0 0 60 43" fill="none" xmlns="http://www.w3.org/2000/svg">
<rect width="60" height="43" rx="4" fill="white"/>
<mask id="mask0_5351_4666" style="mask-type:alpha" maskUnits="userSpaceOnUse" x="0" y="0" width="60" height="43">
<rect width="60" height="43" rx="4" fill="white"/>
</mask>
<g mask="url(#mask0_5351_4666)">
<rect width="60" height="43" fill="#F1361D"/>
<path fill-rule="evenodd" clip-rule="evenodd" d="M21.584 6.66662L23.6592 7.0216L25.2157 8.44382L25.5695 6.36166L26.9869 4.80003L24.9117 4.44506L23.3553 3.02284L23.0015 5.105L21.584 6.66662ZM27.1426 13.9493L28.9409 12.8512L31.0455 12.9L29.9511 11.0957L29.9998 8.98406L28.2014 10.0822L26.0968 10.0333L27.1913 11.8376L27.1426 13.9493ZM24.7031 25.7374L22.9441 26.8978L22.9193 24.7857L21.7628 23.0208L23.8678 22.996L25.6268 21.8355L25.6516 23.9476L26.8082 25.7125L24.7031 25.7374ZM26.2307 20.2776L28.3231 20.0449L30.21 20.9816L29.978 18.8822L30.9116 16.9891L28.8192 17.2218L26.9324 16.2851L27.1643 18.3844L26.2307 20.2776Z" fill="#FFDC42"/>
<path fill-rule="evenodd" clip-rule="evenodd" d="M14.2853 17.6873L9.24714 21.2909L11.106 15.3698L6.13338 11.6758L12.3204 11.6199L14.2853 5.73334L16.2502 11.6199L22.4372 11.6758L17.4645 15.3698L19.3235 21.2909L14.2853 17.6873Z" fill="#FFDC42"/>
</g>
</svg>
