<svg width="60" height="43" viewBox="0 0 60 43" fill="none" xmlns="http://www.w3.org/2000/svg">
<rect x="0.25" y="0.25" width="59.5" height="42.5" rx="3.75" fill="white" stroke="#F5F5F5" stroke-width="0.5"/>
<mask id="mask0_5351_4648" style="mask-type:alpha" maskUnits="userSpaceOnUse" x="0" y="0" width="60" height="43">
<rect x="0.25" y="0.25" width="59.5" height="42.5" rx="3.75" fill="white" stroke="white" stroke-width="0.5"/>
</mask>
<g mask="url(#mask0_5351_4648)">
<path fill-rule="evenodd" clip-rule="evenodd" d="M43.4709 6.85854C44.0819 6.55203 44.7034 7.25403 44.3251 7.82338L42.9305 9.92228C42.8818 9.99559 42.8191 10.0585 42.7459 10.1075L38.6259 12.8633C38.5894 12.8877 38.5554 12.9157 38.5244 12.9468L37.6115 13.8627C37.3522 14.1229 37.3522 14.5438 37.6115 14.804L39.5305 16.7294C39.7898 16.9896 39.7898 17.4105 39.5305 17.6706L37.4827 19.7253C37.2796 19.929 36.9687 19.9795 36.7116 19.8505L34.8828 18.9331C34.5531 18.7677 34.1517 18.9014 33.9872 19.2316L32.9799 21.2527C32.9011 21.4111 32.7625 21.5315 32.5947 21.5876L28.6739 22.8989C28.6058 22.9217 28.5344 22.9333 28.4625 22.9333H26.1265C25.8737 22.9333 25.6426 23.0764 25.5298 23.3027L24.5834 25.2017C24.4189 25.5319 24.0175 25.6657 23.6878 25.5003L18.6678 22.9819C18.6037 22.9497 18.5452 22.9074 18.4946 22.8566L15.9083 20.2618C15.7838 20.1368 15.7139 19.9676 15.7139 19.7912V17.8667C15.7139 17.4985 16.0123 17.2 16.3805 17.2H16.8656C17.0428 17.2 17.2127 17.1295 17.3378 17.004L19.8042 14.5294C19.9293 14.4039 20.0992 14.3333 20.2764 14.3333H22.3757C22.6629 14.3333 22.9178 14.1494 23.0084 13.8769L24.0994 10.5928C24.2056 10.2733 24.5332 10.0831 24.8633 10.1493L31.2807 11.4371C31.3778 11.4566 31.478 11.4542 31.574 11.4301L37.0713 10.0512C37.1186 10.0393 37.1644 10.0223 37.208 10.0004L39.9996 8.6L42.8567 7.16667L43.4709 6.85854Z" fill="#E7832C"/>
<path fill-rule="evenodd" clip-rule="evenodd" d="M29.9999 34.4C30.7888 34.4 31.4284 33.7583 31.4284 32.9667C31.4284 32.1751 30.7888 31.5333 29.9999 31.5333C29.2109 31.5333 28.5713 32.1751 28.5713 32.9667C28.5713 33.7583 29.2109 34.4 29.9999 34.4Z" fill="#445128"/>
<path opacity="0.75" d="M34.2861 31.5333C34.2861 31.5333 38.5718 30.1 40.0004 27.2333" stroke="#445128" stroke-width="1.33333" stroke-linecap="round"/>
<path opacity="0.75" d="M25.7139 31.5333C25.7139 31.5333 21.4282 30.1 19.9996 27.2333" stroke="#445128" stroke-width="1.33333" stroke-linecap="round"/>
</g>
</svg>
