<svg width="60" height="43" viewBox="0 0 60 43" fill="none" xmlns="http://www.w3.org/2000/svg">
<rect x="0.25" y="0.25" width="59.5" height="42.5" rx="3.75" fill="white" stroke="#F5F5F5" stroke-width="0.5"/>
<mask id="mask0_5351_4531" style="mask-type:alpha" maskUnits="userSpaceOnUse" x="0" y="0" width="60" height="43">
<rect x="0.25" y="0.25" width="59.5" height="42.5" rx="3.75" fill="white" stroke="white" stroke-width="0.5"/>
</mask>
<g mask="url(#mask0_5351_4531)">
<path fill-rule="evenodd" clip-rule="evenodd" d="M0 14.3333H60V0H0V14.3333Z" fill="#E41D33"/>
<path fill-rule="evenodd" clip-rule="evenodd" d="M0 43H60V28.6667H0V43Z" fill="#262626"/>
<path d="M27.1292 20.7861L26.8448 20.2154L25.5082 17.5333H23.5241C23.34 17.5333 23.1908 17.6826 23.1908 17.8667V24.552C23.1908 24.8185 23.4879 24.9772 23.7094 24.8291L26.9578 22.6563L27.0419 22.6H27.1431H28.5717H28.905V22.9333V25.1333C28.905 25.3174 29.0543 25.4667 29.2384 25.4667H30.7622C30.9463 25.4667 31.0955 25.3174 31.0955 25.1333V22.9333V22.6H31.4289H32.8574H32.9586L33.0427 22.6563L36.2911 24.8291C36.5126 24.9772 36.8098 24.8185 36.8098 24.552V17.8667C36.8098 17.6826 36.6606 17.5333 36.4765 17.5333H34.4923L33.1558 20.2154L32.8574 20.814L32.5591 20.2155L32.5591 20.2154L32.5591 20.2154L32.5591 20.2153L32.5585 20.2142L32.5559 20.209L32.5447 20.1871C32.5346 20.1675 32.5193 20.1381 32.4992 20.1005C32.459 20.0252 32.3996 19.9168 32.3237 19.7863C32.1716 19.5247 31.9555 19.1779 31.6976 18.8329C31.4382 18.486 31.145 18.1521 30.8407 17.9079C30.5318 17.6599 30.2477 17.5333 30.0003 17.5333C29.7951 17.5333 29.531 17.6527 29.2218 17.9058C28.9212 18.152 28.6219 18.4883 28.3527 18.8371C28.085 19.1838 27.855 19.5322 27.6915 19.7949C27.6099 19.9259 27.5454 20.0349 27.5015 20.1107C27.4795 20.1485 27.4628 20.1781 27.4516 20.1979L27.4392 20.2202L27.4362 20.2255L27.4356 20.2266L27.4355 20.2268L27.1292 20.7861ZM27.1292 20.7861L27.4355 20.2268L27.1292 20.7861Z" fill="#F4B32E" fill-opacity="0.25" stroke="#C6A846" stroke-width="0.666667"/>
</g>
</svg>
