<svg width="60" height="43" viewBox="0 0 60 43" fill="none" xmlns="http://www.w3.org/2000/svg">
<rect width="60" height="43" rx="2" fill="white"/>
<mask id="mask0_6535_4814" style="mask-type:alpha" maskUnits="userSpaceOnUse" x="0" y="0" width="60" height="43">
<rect width="60" height="43" rx="2" fill="white"/>
</mask>
<g mask="url(#mask0_6535_4814)">
<rect width="60" height="43" fill="#E81B26"/>
<path fill-rule="evenodd" clip-rule="evenodd" d="M30.0003 28.6667C33.9452 28.6667 37.1431 25.458 37.1431 21.5C37.1431 17.542 33.9452 14.3333 30.0003 14.3333C26.0554 14.3333 22.8574 17.542 22.8574 21.5C22.8574 25.458 26.0554 28.6667 30.0003 28.6667Z" fill="#FFE94F"/>
<path fill-rule="evenodd" clip-rule="evenodd" d="M21.8741 15.6504C22.3055 15.0483 22.8017 14.496 23.3525 14.004L4.20319 -7.59088L-1.53222 -1.19984L21.8741 15.6504ZM23.3525 28.996C22.8017 28.504 22.3055 27.9517 21.8741 27.3496L-1.53223 44.1998L4.20318 50.5909L23.3525 28.996ZM38.1252 27.3496C37.6938 27.9517 37.1976 28.504 36.6468 28.996L55.7961 50.5909L61.5315 44.1998L38.1252 27.3496ZM28.0381 31.3404L25.7139 43H34.2854L31.9612 31.3404C31.3269 31.4669 30.671 31.5333 29.9996 31.5333C29.3283 31.5333 28.6724 31.4669 28.0381 31.3404ZM20.0989 22.9191C20.0335 22.4555 19.9996 21.9817 19.9996 21.5C19.9996 21.0183 20.0335 20.5445 20.0989 20.0809L-0.000366449 17.2V25.8L20.0989 22.9191ZM28.0381 11.6596L25.7139 -5.72205e-06H34.2854L31.9612 11.6596C31.3269 11.533 30.671 11.4667 29.9996 11.4667C29.3283 11.4667 28.6724 11.533 28.0381 11.6596ZM39.9004 22.9191L59.9996 25.8V17.2L39.9004 20.0809C39.9658 20.5445 39.9996 21.0183 39.9996 21.5C39.9996 21.9817 39.9658 22.4555 39.9004 22.9191ZM38.1252 15.6504L61.5315 -1.19984L55.7961 -7.59088L36.6468 14.004C37.1976 14.496 37.6938 15.0483 38.1252 15.6504Z" fill="#FFE94F"/>
</g>
</svg>
