<svg width="60" height="43" viewBox="0 0 60 43" fill="none" xmlns="http://www.w3.org/2000/svg">
<rect width="60" height="43" rx="2" fill="white"/>
<mask id="mask0_6535_4916" style="mask-type:alpha" maskUnits="userSpaceOnUse" x="0" y="0" width="60" height="43">
<rect width="60" height="43" rx="2" fill="white"/>
</mask>
<g mask="url(#mask0_6535_4916)">
<path fill-rule="evenodd" clip-rule="evenodd" d="M60 0H28.5714V2.86667H60V0ZM60 5.73333H28.5714V8.6H60V5.73333ZM28.5714 11.4667H60V14.3333H28.5714V11.4667ZM60 17.2H28.5714V20.0667H60V17.2ZM0 22.9333H60V25.8H0V22.9333ZM60 28.6667H0V31.5333H60V28.6667ZM0 34.4H60V37.2667H0V34.4ZM60 40.1333H0V43H60V40.1333Z" fill="#E1244A"/>
<rect width="34.2857" height="22.9333" fill="#0C3F8E"/>
<path fill-rule="evenodd" clip-rule="evenodd" d="M14.2853 20.0667C16.3105 20.0667 18.1717 19.3619 19.6385 18.1836C18.8615 18.4744 18.0205 18.6333 17.1424 18.6333C13.1975 18.6333 9.99958 15.4247 9.99958 11.4667C9.99958 7.50863 13.1975 4.3 17.1424 4.3C18.0205 4.3 18.8615 4.45896 19.6385 4.74976C18.1717 3.57139 16.3105 2.86667 14.2853 2.86667C9.55143 2.86667 5.71387 6.71702 5.71387 11.4667C5.71387 16.2163 9.55143 20.0667 14.2853 20.0667ZM20.3774 16.6322L22.8567 13.8173L25.3361 16.6322L24.6884 12.9323L28.4277 12.7425L25.1408 10.9436L27.3243 7.89199L23.8733 9.34879L22.8567 5.73334L21.8402 9.34879L18.3891 7.89199L20.5726 10.9436L17.2857 12.7425L21.025 12.9323L20.3774 16.6322Z" fill="#FFD34F"/>
</g>
</svg>
