<svg width="60" height="43" viewBox="0 0 60 43" fill="none" xmlns="http://www.w3.org/2000/svg">
<rect x="0.25" y="0.25" width="59.5" height="42.5" rx="3.75" fill="white" stroke="#F5F5F5" stroke-width="0.5"/>
<mask id="mask0_5351_4734" style="mask-type:alpha" maskUnits="userSpaceOnUse" x="0" y="0" width="60" height="43">
<rect x="0.25" y="0.25" width="59.5" height="42.5" rx="3.75" fill="white" stroke="white" stroke-width="0.5"/>
</mask>
<g mask="url(#mask0_5351_4734)">
<path fill-rule="evenodd" clip-rule="evenodd" d="M31.4287 43H60.0001V0H31.4287V43Z" fill="#DE233C"/>
<mask id="path-4-outside-1_5351_4734" maskUnits="userSpaceOnUse" x="4.71387" y="4.73334" width="11" height="11" fill="black">
<rect fill="white" x="4.71387" y="4.73334" width="11" height="11"/>
<path fill-rule="evenodd" clip-rule="evenodd" d="M11.4282 5.73334H8.57101V8.6H5.71387V11.4667H8.57101V14.3333H11.4282V11.4667H14.2853V8.6H11.4282V5.73334Z"/>
</mask>
<path fill-rule="evenodd" clip-rule="evenodd" d="M11.4282 5.73334H8.57101V8.6H5.71387V11.4667H8.57101V14.3333H11.4282V11.4667H14.2853V8.6H11.4282V5.73334Z" fill="#CCCCCD"/>
<path d="M8.57101 5.73334V5.06667H7.90434V5.73334H8.57101ZM11.4282 5.73334H12.0948V5.06667H11.4282V5.73334ZM8.57101 8.6V9.26667H9.23768V8.6H8.57101ZM5.71387 8.6V7.93334H5.0472V8.6H5.71387ZM5.71387 11.4667H5.0472V12.1333H5.71387V11.4667ZM8.57101 11.4667H9.23768V10.8H8.57101V11.4667ZM8.57101 14.3333H7.90434V15H8.57101V14.3333ZM11.4282 14.3333V15H12.0948V14.3333H11.4282ZM11.4282 11.4667V10.8H10.7615V11.4667H11.4282ZM14.2853 11.4667V12.1333H14.952V11.4667H14.2853ZM14.2853 8.6H14.952V7.93334H14.2853V8.6ZM11.4282 8.6H10.7615V9.26667H11.4282V8.6ZM8.57101 6.4H11.4282V5.06667H8.57101V6.4ZM9.23768 8.6V5.73334H7.90434V8.6H9.23768ZM5.71387 9.26667H8.57101V7.93334H5.71387V9.26667ZM6.38053 11.4667V8.6H5.0472V11.4667H6.38053ZM8.57101 10.8H5.71387V12.1333H8.57101V10.8ZM9.23768 14.3333V11.4667H7.90434V14.3333H9.23768ZM11.4282 13.6667H8.57101V15H11.4282V13.6667ZM10.7615 11.4667V14.3333H12.0948V11.4667H10.7615ZM14.2853 10.8H11.4282V12.1333H14.2853V10.8ZM13.6186 8.6V11.4667H14.952V8.6H13.6186ZM11.4282 9.26667H14.2853V7.93334H11.4282V9.26667ZM10.7615 5.73334V8.6H12.0948V5.73334H10.7615Z" fill="#7B716A" fill-opacity="0.66" mask="url(#path-4-outside-1_5351_4734)"/>
<path fill-rule="evenodd" clip-rule="evenodd" d="M9.99986 11.4667C10.7888 11.4667 11.4284 10.8249 11.4284 10.0333C11.4284 9.24173 10.7888 8.60001 9.99986 8.60001C9.21088 8.60001 8.57129 9.24173 8.57129 10.0333C8.57129 10.8249 9.21088 11.4667 9.99986 11.4667Z" fill="#7B716A"/>
</g>
</svg>
