<svg width="60" height="43" viewBox="0 0 60 43" fill="none" xmlns="http://www.w3.org/2000/svg">
<rect width="60" height="43" rx="2" fill="white"/>
<mask id="mask0_6535_4875" style="mask-type:alpha" maskUnits="userSpaceOnUse" x="0" y="0" width="60" height="43">
<rect width="60" height="43" rx="2" fill="white"/>
</mask>
<g mask="url(#mask0_6535_4875)">
<rect width="60" height="43" fill="#0A17A7"/>
<path d="M0 -0.333333H-0.898814L-0.217346 0.252728L9.66667 8.75298V11.2955L-0.194173 18.3624L-0.333333 18.4621V18.6333V20.0667V20.6691L0.177089 20.3491L11.5244 13.2333H14.1786L24.0045 20.2752C24.1177 20.3564 24.2535 20.4 24.3928 20.4H24.8155C25.4339 20.4 25.719 19.6311 25.2502 19.2279L16.0476 11.3137V8.77121L25.7693 1.804C25.944 1.6788 26.0476 1.47706 26.0476 1.26213V0V-0.602479L25.5372 -0.282401L14.1898 6.83333H11.5357L1.62274 -0.270939L1.53568 -0.333333H1.42857H0Z" fill="#FF2E3B" stroke="white" stroke-width="0.666667"/>
<path fill-rule="evenodd" clip-rule="evenodd" d="M0 7.16667V12.9H10V20.8333C10 21.2015 10.2985 21.5 10.6667 21.5H15.0476C15.4158 21.5 15.7143 21.2015 15.7143 20.8333V12.9H26.4762C26.8444 12.9 27.1429 12.6015 27.1429 12.2333V7.83333C27.1429 7.46514 26.8444 7.16667 26.4762 7.16667H15.7143V0H10V7.16667H0Z" fill="white"/>
<path fill-rule="evenodd" clip-rule="evenodd" d="M0 8.6H11.4286V7.16667V0H14.2857V7.16667V8.6H25.7143V11.4667H14.2857V12.9V20.0667H11.4286V12.9V11.4667H0V8.6Z" fill="#FF2E3B"/>
<path fill-rule="evenodd" clip-rule="evenodd" d="M42.8571 37.2667L40.8368 37.8604L41.4286 35.8333L40.8368 33.8063L42.8571 34.4L44.8774 33.8063L44.2857 35.8333L44.8774 37.8604L42.8571 37.2667Z" fill="#CA1931"/>
<path fill-rule="evenodd" clip-rule="evenodd" d="M42.8571 10.0333L40.8368 10.627L41.4286 8.6L40.8368 6.57296L42.8571 7.16667L44.8774 6.57296L44.2857 8.6L44.8774 10.627L42.8571 10.0333Z" fill="#CA1931"/>
<path fill-rule="evenodd" clip-rule="evenodd" d="M51.4284 18.6333L49.4081 19.227L49.9999 17.2L49.4081 15.173L51.4284 15.7667L53.4487 15.173L52.857 17.2L53.4487 19.227L51.4284 18.6333Z" fill="#CA1931"/>
<path fill-rule="evenodd" clip-rule="evenodd" d="M34.2859 21.5L32.2655 22.0937L32.8573 20.0667L32.2655 18.0396L34.2859 18.6333L36.3062 18.0396L35.7144 20.0667L36.3062 22.0937L34.2859 21.5Z" fill="#CA1931"/>
</g>
</svg>
