<svg width="60" height="43" viewBox="0 0 60 43" fill="none" xmlns="http://www.w3.org/2000/svg">
<rect x="0.25" y="0.25" width="59.5" height="42.5" rx="1.75" fill="white" stroke="#F5F5F5" stroke-width="0.5"/>
<mask id="mask0_6535_4842" style="mask-type:alpha" maskUnits="userSpaceOnUse" x="0" y="0" width="60" height="43">
<rect x="0.25" y="0.25" width="59.5" height="42.5" rx="1.75" fill="white" stroke="white" stroke-width="0.5"/>
</mask>
<g mask="url(#mask0_6535_4842)">
<path fill-rule="evenodd" clip-rule="evenodd" d="M0 43H60V28.6667H0V43Z" fill="#138E16"/>
<path fill-rule="evenodd" clip-rule="evenodd" d="M0 43H20V28.6667H60V14.3333H20V0H0V43Z" fill="#ED2B35"/>
<path fill-rule="evenodd" clip-rule="evenodd" d="M10.0004 10.1303L7.52108 13.7656L8.80797 9.55411L4.4294 9.87579L8.51346 8.25948L5.53281 5.02533L9.33866 7.22127L10.0004 2.86667L10.6622 7.22127L14.468 5.02533L11.4874 8.25948L15.5714 9.87579L11.1929 9.55411L12.4798 13.7656L10.0004 10.1303Z" fill="white"/>
</g>
</svg>
