<svg width="60" height="43" viewBox="0 0 60 43" fill="none" xmlns="http://www.w3.org/2000/svg">
<rect x="0.25" y="0.25" width="59.5" height="42.5" rx="1.75" fill="white" stroke="#F5F5F5" stroke-width="0.5"/>
<mask id="mask0_6535_4712" style="mask-type:alpha" maskUnits="userSpaceOnUse" x="0" y="0" width="60" height="43">
<rect x="0.25" y="0.25" width="59.5" height="42.5" rx="1.75" fill="white" stroke="white" stroke-width="0.5"/>
</mask>
<g mask="url(#mask0_6535_4712)">
<path fill-rule="evenodd" clip-rule="evenodd" d="M0 43L60 43V20.0667H26.6667L28.5714 21.5L0 43Z" fill="#DD1C34"/>
<path fill-rule="evenodd" clip-rule="evenodd" d="M60 20.0667H26.6667L0 0H60V20.0667Z" fill="#0D4BC3"/>
<path fill-rule="evenodd" clip-rule="evenodd" d="M4.28599 8.6C5.07497 8.6 5.71456 7.95828 5.71456 7.16667C5.71456 6.37506 5.07497 5.73334 4.28599 5.73334C3.49702 5.73334 2.85742 6.37506 2.85742 7.16667C2.85742 7.95828 3.49702 8.6 4.28599 8.6ZM21.4289 22.9333C22.2178 22.9333 22.8574 22.2916 22.8574 21.5C22.8574 20.7084 22.2178 20.0667 21.4289 20.0667C20.6399 20.0667 20.0003 20.7084 20.0003 21.5C20.0003 22.2916 20.6399 22.9333 21.4289 22.9333ZM5.71456 35.8333C5.71456 36.6249 5.07497 37.2667 4.28599 37.2667C3.49702 37.2667 2.85742 36.6249 2.85742 35.8333C2.85742 35.0417 3.49702 34.4 4.28599 34.4C5.07497 34.4 5.71456 35.0417 5.71456 35.8333ZM9.71187 24.3522L7.26683 28.1211L8.19411 23.7213C8.04489 23.599 7.90822 23.4619 7.78635 23.3122L3.40114 24.2426L7.15751 21.7894C7.14801 21.6942 7.14314 21.5977 7.14314 21.5C7.14314 21.4023 7.14801 21.3058 7.15751 21.2106L3.40114 18.7574L7.78634 19.6878C7.90822 19.5381 8.04489 19.401 8.19411 19.2787L7.26683 14.8789L9.71187 18.6478C9.80671 18.6382 9.90293 18.6333 10.0003 18.6333C10.0976 18.6333 10.1938 18.6382 10.2887 18.6478L12.7337 14.8789L11.8065 19.2787C11.9557 19.401 12.0923 19.5381 12.2142 19.6878L16.5994 18.7574L12.843 21.2106C12.8526 21.3058 12.8574 21.4023 12.8574 21.5C12.8574 21.5977 12.8526 21.6942 12.843 21.7894L16.5994 24.2426L12.2142 23.3122C12.0923 23.4619 11.9557 23.599 11.8065 23.7213L12.7337 28.1211L10.2887 24.3522C10.1938 24.3618 10.0976 24.3667 10.0003 24.3667C9.90293 24.3667 9.80671 24.3618 9.71187 24.3522Z" fill="#FDD64D"/>
</g>
</svg>
