<svg width="60" height="43" viewBox="0 0 60 43" fill="none" xmlns="http://www.w3.org/2000/svg">
<rect x="0.25" y="0.25" width="59.5" height="42.5" rx="3.75" fill="white" stroke="#F5F5F5" stroke-width="0.5"/>
<mask id="mask0_5351_4820" style="mask-type:alpha" maskUnits="userSpaceOnUse" x="0" y="0" width="60" height="43">
<rect x="0.25" y="0.25" width="59.5" height="42.5" rx="3.75" fill="white" stroke="white" stroke-width="0.5"/>
</mask>
<g mask="url(#mask0_5351_4820)">
<path fill-rule="evenodd" clip-rule="evenodd" d="M0 22.9333H60V0H0V22.9333Z" fill="#E12237"/>
<path fill-rule="evenodd" clip-rule="evenodd" d="M14.2853 20.0666C16.3105 20.0666 18.1717 19.3619 19.6385 18.1835C18.8615 18.4743 18.0205 18.6333 17.1424 18.6333C13.1975 18.6333 9.99958 15.4247 9.99958 11.4666C9.99958 7.5086 13.1975 4.29997 17.1424 4.29997C18.0205 4.29997 18.8615 4.45893 19.6385 4.74973C18.1717 3.57136 16.3105 2.86664 14.2853 2.86664C9.55143 2.86664 5.71387 6.71699 5.71387 11.4666C5.71387 16.2163 9.55143 20.0666 14.2853 20.0666ZM17.1424 10.0333C17.1424 10.8249 16.5028 11.4666 15.7139 11.4666C14.9249 11.4666 14.2853 10.8249 14.2853 10.0333C14.2853 9.2417 14.9249 8.59997 15.7139 8.59997C16.5028 8.59997 17.1424 9.2417 17.1424 10.0333ZM18.571 17.2C19.36 17.2 19.9996 16.5582 19.9996 15.7666C19.9996 14.975 19.36 14.3333 18.571 14.3333C17.782 14.3333 17.1424 14.975 17.1424 15.7666C17.1424 16.5582 17.782 17.2 18.571 17.2ZM25.7139 15.7666C25.7139 16.5582 25.0743 17.2 24.2853 17.2C23.4963 17.2 22.8567 16.5582 22.8567 15.7666C22.8567 14.975 23.4963 14.3333 24.2853 14.3333C25.0743 14.3333 25.7139 14.975 25.7139 15.7666ZM27.1424 11.4666C27.9314 11.4666 28.571 10.8249 28.571 10.0333C28.571 9.2417 27.9314 8.59997 27.1424 8.59997C26.3535 8.59997 25.7139 9.2417 25.7139 10.0333C25.7139 10.8249 26.3535 11.4666 27.1424 11.4666ZM22.8567 5.7333C22.8567 6.52491 22.2171 7.16664 21.4282 7.16664C20.6392 7.16664 19.9996 6.52491 19.9996 5.7333C19.9996 4.9417 20.6392 4.29997 21.4282 4.29997C22.2171 4.29997 22.8567 4.9417 22.8567 5.7333Z" fill="white"/>
</g>
</svg>
