<svg width="60" height="43" viewBox="0 0 60 43" fill="none" xmlns="http://www.w3.org/2000/svg">
<rect x="0.25" y="0.25" width="59.5" height="42.5" rx="1.75" fill="white" stroke="#F5F5F5" stroke-width="0.5"/>
<mask id="mask0_6535_4747" style="mask-type:alpha" maskUnits="userSpaceOnUse" x="0" y="0" width="60" height="43">
<rect x="0.25" y="0.25" width="59.5" height="42.5" rx="1.75" fill="white" stroke="white" stroke-width="0.5"/>
</mask>
<g mask="url(#mask0_6535_4747)">
<path fill-rule="evenodd" clip-rule="evenodd" d="M0 28.6667H60V14.3333H19.8085V11.4667C19.8085 11.4667 17.7936 10.0333 15.7143 10.0333C13.635 10.0333 11.4286 11.4667 11.4286 11.4667V14.3333H0V28.6667ZM18.5714 17.2C18.5714 18.7832 17.2922 20.0667 15.7143 20.0667C14.1363 20.0667 12.8571 18.7832 12.8571 17.2C12.8571 15.6168 14.1363 14.3333 15.7143 14.3333C17.2922 14.3333 18.5714 15.6168 18.5714 17.2Z" fill="#0C47B7"/>
<g filter="url(#filter0_d_6535_4747)">
<path fill-rule="evenodd" clip-rule="evenodd" d="M0 43H60V28.6667H0V43Z" fill="#E53B35"/>
</g>
</g>
<defs>
<filter id="filter0_d_6535_4747" x="0" y="28.6667" width="60" height="14.3333" filterUnits="userSpaceOnUse" color-interpolation-filters="sRGB">
<feFlood flood-opacity="0" result="BackgroundImageFix"/>
<feColorMatrix in="SourceAlpha" type="matrix" values="0 0 0 0 0 0 0 0 0 0 0 0 0 0 0 0 0 0 127 0" result="hardAlpha"/>
<feOffset/>
<feColorMatrix type="matrix" values="0 0 0 0 0 0 0 0 0 0 0 0 0 0 0 0 0 0 0.06 0"/>
<feBlend mode="normal" in2="BackgroundImageFix" result="effect1_dropShadow_6535_4747"/>
<feBlend mode="normal" in="SourceGraphic" in2="effect1_dropShadow_6535_4747" result="shape"/>
</filter>
</defs>
</svg>
