<svg width="60" height="43" viewBox="0 0 60 43" fill="none" xmlns="http://www.w3.org/2000/svg">
<rect x="0.25" y="0.25" width="59.5" height="42.5" rx="1.75" fill="white" stroke="#F5F5F5" stroke-width="0.5"/>
<mask id="mask0_6535_4768" style="mask-type:alpha" maskUnits="userSpaceOnUse" x="0" y="0" width="60" height="43">
<rect x="0.25" y="0.25" width="59.5" height="42.5" rx="1.75" fill="white" stroke="white" stroke-width="0.5"/>
</mask>
<g mask="url(#mask0_6535_4768)">
<path fill-rule="evenodd" clip-rule="evenodd" d="M0 28.6667H60V14.3333H0V28.6667Z" fill="#0C47B7"/>
<path fill-rule="evenodd" clip-rule="evenodd" d="M0 43H60V28.6667H0V43Z" fill="#E53B35"/>
<path d="M29.4315 7.93334H13.4264C12.3517 7.93334 11.4691 8.78275 11.4279 9.85673L10.7874 26.5652C10.7641 27.1742 11.0197 27.7607 11.4819 28.1581L19.6902 35.2173C20.6899 36.0771 22.168 36.0771 23.1677 35.2173L31.376 28.1581C31.8382 27.7607 32.0938 27.1742 32.0705 26.5652L31.43 9.85673C31.3888 8.78276 30.5062 7.93334 29.4315 7.93334Z" fill="#F73744" stroke="white" stroke-width="1.33333"/>
<mask id="mask1_6535_4768" style="mask-type:alpha" maskUnits="userSpaceOnUse" x="10" y="7" width="23" height="30">
<path d="M29.4315 7.93334H13.4264C12.3517 7.93334 11.4691 8.78275 11.4279 9.85673L10.7874 26.5652C10.7641 27.1742 11.0197 27.7607 11.4819 28.1581L19.6902 35.2173C20.6899 36.0771 22.168 36.0771 23.1677 35.2173L31.376 28.1581C31.8382 27.7607 32.0938 27.1742 32.0705 26.5652L31.43 9.85673C31.3888 8.78276 30.5062 7.93334 29.4315 7.93334Z" fill="white" stroke="white" stroke-width="1.33333"/>
</mask>
<g mask="url(#mask1_6535_4768)">
<path fill-rule="evenodd" clip-rule="evenodd" d="M20.0006 23.2667C20.0006 23.0826 19.8513 22.9333 19.6672 22.9333H16.0482C15.8641 22.9333 15.7148 22.7841 15.7148 22.6V20.4C15.7148 20.2159 15.8641 20.0667 16.0482 20.0667H19.6672C19.8513 20.0667 20.0006 19.9174 20.0006 19.7333V17.5333C20.0006 17.3492 19.8513 17.2 19.6672 17.2H17.4767C17.2927 17.2 17.1434 17.0508 17.1434 16.8667V14.6667C17.1434 14.4826 17.2927 14.3333 17.4767 14.3333H19.6672C19.8513 14.3333 20.0006 14.1841 20.0006 14V11.8C20.0006 11.6159 20.1498 11.4667 20.3339 11.4667H22.5244C22.7085 11.4667 22.8577 11.6159 22.8577 11.8V14C22.8577 14.1841 23.0069 14.3333 23.191 14.3333H25.3815C25.5656 14.3333 25.7148 14.4826 25.7148 14.6667V16.8667C25.7148 17.0508 25.5656 17.2 25.3815 17.2H23.191C23.0069 17.2 22.8577 17.3492 22.8577 17.5333V19.7333C22.8577 19.9174 23.0069 20.0667 23.191 20.0667H26.8101C26.9942 20.0667 27.1434 20.2159 27.1434 20.4V22.6C27.1434 22.7841 26.9942 22.9333 26.8101 22.9333H23.191C23.0069 22.9333 22.8577 23.0826 22.8577 23.2667V28.3333C22.8577 28.5174 22.7085 28.6667 22.5244 28.6667H20.3339C20.1498 28.6667 20.0006 28.5174 20.0006 28.3333V23.2667Z" fill="white"/>
<path fill-rule="evenodd" clip-rule="evenodd" d="M18.8498 28.8647C15.3762 29.4138 12.8574 31.0427 12.8574 32.9667C12.8574 35.3415 16.695 37.2667 21.4289 37.2667C26.1627 37.2667 30.0003 35.3415 30.0003 32.9667C30.0003 31.0427 27.4815 29.4138 24.0079 28.8647C23.5479 27.8998 22.566 27.2333 21.4289 27.2333C20.2917 27.2333 19.3098 27.8998 18.8498 28.8647Z" fill="#1251A1"/>
</g>
</g>
</svg>
