<svg width="17" height="22" viewBox="0 0 11 15" fill="none" xmlns="http://www.w3.org/2000/svg">
<path d="M5.50008 7.14567C5.03043 7.14567 4.58001 6.9591 4.24791 6.62701C3.91582 6.29491 3.72925 5.84449 3.72925 5.37484C3.72925 4.90518 3.91582 4.45476 4.24791 4.12267C4.58001 3.79057 5.03043 3.604 5.50008 3.604C5.96974 3.604 6.42015 3.79057 6.75225 4.12267C7.08435 4.45476 7.27092 4.90518 7.27092 5.37484C7.27092 5.60739 7.22511 5.83766 7.13612 6.05251C7.04713 6.26735 6.91669 6.46257 6.75225 6.62701C6.58781 6.79144 6.3926 6.92188 6.17775 7.01087C5.9629 7.09987 5.73263 7.14567 5.50008 7.14567ZM5.50008 0.416504C4.18505 0.416504 2.92388 0.938898 1.99401 1.86877C1.06414 2.79863 0.541748 4.05981 0.541748 5.37484C0.541748 9.09359 5.50008 14.5832 5.50008 14.5832C5.50008 14.5832 10.4584 9.09359 10.4584 5.37484C10.4584 4.05981 9.93602 2.79863 9.00615 1.86877C8.07629 0.938898 6.81511 0.416504 5.50008 0.416504Z" fill="#0080ff"/>
</svg>
