<svg width="16" height="18" viewBox="0 0 16 18" fill="none" xmlns="http://www.w3.org/2000/svg">
<path d="M3.56311 11.5926L2.85941 13.2963C2.83513 13.4073 2.83596 13.5223 2.86184 13.633C2.88772 13.7437 2.93799 13.8471 3.00899 13.9359C3.07998 14.0246 3.1699 14.0964 3.27218 14.1459C3.37445 14.1955 3.48651 14.2215 3.60015 14.2222C3.6531 14.2276 3.70646 14.2276 3.75941 14.2222L5.48163 13.5185L11.3483 7.67406L9.40755 5.74072L3.56311 11.5926Z" fill="#53536E"/>
<path d="M13.1926 4.74837L12.3407 3.89652C12.1971 3.75358 12.0026 3.67334 11.8 3.67334C11.5973 3.67334 11.4029 3.75358 11.2592 3.89652L10.0444 5.11134L11.9815 7.04837L13.1963 5.83356C13.2674 5.7621 13.3237 5.67734 13.362 5.5841C13.4003 5.49086 13.4198 5.39099 13.4195 5.2902C13.4191 5.1894 13.3989 5.08967 13.36 4.99669C13.321 4.90372 13.2642 4.81934 13.1926 4.74837Z" fill="#53536E"/>
</svg>
