<svg width="14" height="18" viewBox="0 0 14 18" fill="none" xmlns="http://www.w3.org/2000/svg">
<path d="M11.25 12.75H13.5L10.5 15.75L7.5 12.75H9.75V2.25H11.25V12.75ZM3.75 9.75H2.25C1.425 9.75 0.75 10.425 0.75 11.25V12C0.75 12.3978 0.908035 12.7794 1.18934 13.0607C1.47064 13.342 1.85218 13.5 2.25 13.5H3.75V14.25H0.75V15.75H3.75C4.5825 15.75 5.25 15.0825 5.25 14.25V11.25C5.25 10.8522 5.09196 10.4706 4.81066 10.1893C4.52936 9.90804 4.14782 9.75 3.75 9.75ZM3.75 12H2.25V11.25H3.75V12ZM3.75 2.25H2.25C1.425 2.25 0.75 2.925 0.75 3.75V6.75C0.75 7.14782 0.908035 7.52936 1.18934 7.81066C1.47064 8.09196 1.85218 8.25 2.25 8.25H3.75C4.5825 8.25 5.25 7.5825 5.25 6.75V3.75C5.25 3.35218 5.09196 2.97064 4.81066 2.68934C4.52936 2.40804 4.14782 2.25 3.75 2.25ZM3.75 6.75H2.25V3.75H3.75V6.75Z" fill="#53536E"/>
</svg>
