<svg width="14" height="18" viewBox="0 0 14 18" fill="none" xmlns="http://www.w3.org/2000/svg">
<path d="M11.25 12.75H13.5L10.5 15.75L7.5 12.75H9.75V2.25H11.25V12.75ZM3.75 2.26516H2.25C1.425 2.26516 0.75 2.94016 0.75 3.76516V4.51516C0.75 4.91298 0.908035 5.29451 1.18934 5.57582C1.47064 5.85712 1.85218 6.01516 2.25 6.01516H3.75V6.76516H0.75V8.26516H3.75C4.5825 8.26516 5.25 7.59766 5.25 6.76516V3.76516C5.25 3.36734 5.09196 2.9858 4.81066 2.7045C4.52936 2.4232 4.14782 2.26516 3.75 2.26516ZM3.75 4.51516H2.25V3.76516H3.75V4.51516ZM3.75 9.70736H2.25C1.425 9.70736 0.75 10.3824 0.75 11.2074V14.2074C0.75 14.6052 0.908035 14.9867 1.18934 15.268C1.47064 15.5493 1.85218 15.7074 2.25 15.7074H3.75C4.5825 15.7074 5.25 15.0399 5.25 14.2074V11.2074C5.25 10.8095 5.09196 10.428 4.81066 10.1467C4.52936 9.8654 4.14782 9.70736 3.75 9.70736ZM3.75 14.2074H2.25V11.2074H3.75V14.2074Z" fill="#53536E"/>
</svg>
