<svg width="14" height="4" viewBox="0 0 14 4" fill="none" xmlns="http://www.w3.org/2000/svg">
<g clip-path="url(#clip0_4746_3869)">
<path d="M3.93492 0C5.17567 0 6.33243 0.420839 7.38418 1.24004L7.59417 1.40801C8.38605 2.08161 9.19805 2.40156 10.0599 2.40156C10.8081 2.40156 11.5868 1.89118 12.3918 0.75918C12.6543 0.38878 13.1968 0.283223 13.6019 0.524023C14.007 0.764023 14.1217 1.25997 13.8592 1.63037C12.7628 3.17277 11.4984 4.00078 10.0599 4.00078C8.81742 4.00078 7.6598 3.57523 6.61417 2.75283L6.4068 2.5832C5.6123 1.9168 4.79855 1.59922 3.93492 1.59922C3.18592 1.59922 2.4098 2.10716 1.6083 3.23516C1.3458 3.60556 0.8033 3.71041 0.398175 3.47041C-0.00694995 3.22961 -0.121574 2.73436 0.140926 2.36396C1.23468 0.825565 2.4973 0 3.93492 0Z" fill="#53536E"/>
</g>
<defs>
<clipPath id="clip0_4746_3869">
<rect width="14" height="4" fill="white"/>
</clipPath>
</defs>
</svg>
