<svg width="14" height="13" viewBox="0 0 14 13" fill="none" xmlns="http://www.w3.org/2000/svg">
<g clip-path="url(#clip0_4586_3733)">
<path d="M3.93493 8.66667C5.17568 8.66667 6.33243 9.12253 7.38418 10.0091L7.59418 10.1911C8.38605 10.9209 9.19805 11.2675 10.0599 11.2675C10.8081 11.2675 11.5868 10.7155 12.3918 9.48827C12.6543 9.087 13.1968 8.97347 13.6019 9.23433C14.007 9.49433 14.1217 10.0317 13.8592 10.4321C12.7628 12.103 11.4976 13 10.0599 13C8.81743 13 7.6598 12.5389 6.61417 11.648L6.4068 11.4651C5.6123 10.7432 4.79855 10.3991 3.93493 10.3991C3.18593 10.3991 2.4098 10.9486 1.6083 12.1706C1.3458 12.5719 0.803302 12.6854 0.398177 12.4245C-0.0069476 12.1645 -0.121575 11.6272 0.140925 11.2268C1.23468 9.56107 2.4973 8.66667 3.93493 8.66667ZM3.93493 4.33333C5.17568 4.33333 6.33243 4.7892 7.38418 5.6758L7.59418 5.8578C8.38605 6.58753 9.19805 6.9342 10.0599 6.9342C10.8081 6.9342 11.5868 6.38213 12.3918 5.15493C12.6543 4.75367 13.1968 4.64013 13.6019 4.901C14.007 5.161 14.1217 5.69833 13.8592 6.09873C12.7628 7.76967 11.4976 8.66667 10.0599 8.66667C8.81743 8.66667 7.6598 8.2056 6.61417 7.31467L6.4068 7.1318C5.6123 6.40987 4.79855 6.0658 3.93493 6.0658C3.18593 6.0658 2.4098 6.61527 1.6083 7.83727C1.3458 8.23853 0.803302 8.35207 0.398177 8.0912C-0.0069476 7.8312 -0.121575 7.29387 0.140925 6.89347C1.23468 5.22773 2.4973 4.33333 3.93493 4.33333ZM3.93493 0C5.17568 0 6.33243 0.455866 7.38418 1.34247L7.59418 1.52447C8.38605 2.2542 9.19805 2.60087 10.0599 2.60087C10.8081 2.60087 11.5868 2.0488 12.3918 0.821602C12.6543 0.420335 13.1968 0.306799 13.6019 0.567666C14.007 0.827666 14.1217 1.365 13.8592 1.7654C12.7628 3.43633 11.4976 4.33333 10.0599 4.33333C8.81743 4.33333 7.6598 3.87227 6.61417 2.98133L6.4068 2.79847C5.6123 2.07653 4.79855 1.73247 3.93493 1.73247C3.18593 1.73247 2.4098 2.28193 1.6083 3.50393C1.3458 3.9052 0.803302 4.01873 0.398177 3.75787C-0.0069476 3.49787 -0.121575 2.96053 0.140925 2.56013C1.23468 0.894399 2.4973 0 3.93493 0Z" fill="#53536E"/>
</g>
<defs>
<clipPath id="clip0_4586_3733">
<rect width="14" height="13" fill="white"/>
</clipPath>
</defs>
</svg>
