<svg width="14" height="14" viewBox="0 0 14 14" fill="none" xmlns="http://www.w3.org/2000/svg">
<g clip-path="url(#clip0_4586_3731)">
<path fill-rule="evenodd" clip-rule="evenodd" d="M11.7364 2.4012C12.2194 2.4012 12.6114 2.7932 12.6114 3.2762L12.6123 8.83157C13.426 9.18157 13.9965 9.99007 13.9965 10.9324C13.9965 11.0593 13.986 11.1862 13.965 11.3122L13.6351 13.2704C13.5642 13.6913 13.1994 14.0002 12.7724 14.0002H10.6487C10.2217 14.0002 9.85687 13.6913 9.786 13.2704L9.457 11.3122C9.27762 10.2499 9.86212 9.2367 10.8097 8.83157V3.27532C10.8097 2.7932 11.2017 2.40032 11.6847 2.40032H11.7373L11.7364 2.4012ZM8.13312 4.1862C8.61612 4.1862 9.00812 4.57732 9.00812 5.0612V5.09532C9.00812 5.57832 8.61612 5.97032 8.13312 5.97032L8.01675 5.96945L7.28612 13.2127C7.24062 13.6598 6.86438 14.0002 6.4155 14.0002H2.59263C2.14375 14.0002 1.7675 13.6598 1.722 13.2127L0.9905 5.96945H0.875C0.392 5.96945 0 5.57832 0 5.09445V5.06032C0 4.57732 0.392 4.18532 0.875 4.18532H8.13312V4.1862ZM5.40487 0.166447C6.82412 1.04145 6.0235 0.971448 6.92475 1.64695C7.525 2.09757 7.91962 2.6462 8.10775 3.2937H0.901249C1.77537 2.5272 2.2995 1.96282 2.4745 1.5997C2.94787 0.616197 4.47038 -0.409303 5.40575 0.166447H5.40487Z" fill="#53536E"/>
</g>
<defs>
<clipPath id="clip0_4586_3731">
<rect width="14" height="14" fill="white"/>
</clipPath>
</defs>
</svg>
