<svg width="14" height="14" viewBox="0 0 14 14" fill="none" xmlns="http://www.w3.org/2000/svg">
<path fill-rule="evenodd" clip-rule="evenodd" d="M6.51412 11.6951C6.91106 11.6951 7.33765 11.583 7.33765 12.2013C7.33765 12.8196 7.16471 13 6.76941 13C6.37247 13 5.69223 13.1235 5.69223 12.5044C5.69223 11.8869 6.11882 11.6951 6.51576 11.6951H6.51412ZM0 10.0628C0 8.83187 1.74588 8.93994 2.88235 8.93994C4.01882 8.93994 4.94118 9.53956 4.94118 10.7705C4.94118 12.0014 4.01882 13 2.88235 13C1.74588 13 0 11.2937 0 10.0628ZM12.2475 11.375C12.6445 11.375 13.4622 11.5659 13.1765 12.0307C12.8907 12.4946 12.8907 12.7351 12.4938 12.7351C12.0976 12.7351 11.5294 13.1137 11.5294 12.4946C11.5294 11.8771 11.8506 11.375 12.2475 11.375ZM9.66165 10.7217C10.0586 10.7217 10.2529 10.6056 10.2529 11.2247C10.2529 11.843 10.3122 12.0266 9.91529 12.0266C9.51918 12.0266 8.83812 12.1501 8.83812 11.5318C8.83812 10.9135 9.26553 10.7217 9.66165 10.7217ZM11.8094 6.5C12.8042 6.5 13.1765 7.55463 13.1765 8.62469C13.1765 9.69475 12.3702 10.5625 11.3754 10.5625C10.3814 10.5625 9.05882 9.30719 9.05882 8.23713C9.05882 7.16706 10.8154 6.5 11.8094 6.5ZM7.30635 8.9375C7.7033 8.9375 8.23529 8.97406 8.23529 9.59319C8.23529 10.2107 8.06235 10.5519 7.66541 10.5519C7.26929 10.5519 6.58824 10.6762 6.58824 10.0571C6.58824 9.43962 6.90941 8.9375 7.30635 8.9375ZM1.64706 5.94994C1.64706 4.75719 3.19035 4.87825 4.18435 4.87825C4.32847 4.87825 5.76471 5.36169 5.76471 6.38219C5.76471 7.57494 4.71882 8.125 3.724 8.125C2.72918 8.125 1.64706 7.1435 1.64706 5.94994ZM7.67035 6.07588C8.06729 6.07588 8.49388 5.88088 8.49388 6.5C8.49388 7.11831 8.32094 7.45956 7.924 7.45956C7.52706 7.45956 6.84682 7.58306 6.84682 6.96394C6.84682 6.34644 7.27341 6.07588 7.67035 6.07588ZM11.424 4.0625C12.0433 4.08687 12.3529 4.30625 12.3529 4.71819C12.3529 5.33569 12.4493 5.67694 11.7831 5.67694C11.1176 5.67694 10.7059 5.80125 10.7059 5.18212C10.7059 4.77019 10.9447 4.39644 11.424 4.0625ZM6.48282 3.25C6.87977 3.25 7.41176 3.28656 7.41176 3.90569C7.41176 4.52319 7.23882 4.86444 6.84188 4.86444C6.44576 4.86444 5.76471 4.98875 5.76471 4.36962C5.76471 3.75212 6.08588 3.25 6.48282 3.25ZM9.41541 2.74706C9.81235 2.74706 10.0067 2.63169 10.0067 3.25C10.0067 3.86831 10.066 4.05275 9.66906 4.05275C9.27294 4.05275 8.59188 4.17625 8.59188 3.55712C8.59188 2.93962 9.01929 2.74706 9.41541 2.74706ZM2.33388 0C2.98118 0 3.58729 0.405439 4.11765 0.883189C4.51953 1.24556 4.94118 1.65263 4.94118 1.93944C4.94118 2.60569 4.43635 3.25 3.29988 3.25C2.16259 3.25 0.823529 2.60488 0.823529 1.93944C0.823529 1.27319 1.19741 0 2.33388 0ZM11.8992 0.8125C12.2961 0.8125 13.1765 0.645937 13.1765 1.26425C13.1765 1.88256 13.0035 2.42775 12.6066 2.42775C12.2105 2.42775 11.5294 2.55125 11.5294 1.93212C11.5294 1.31462 11.5022 0.8125 11.8992 0.8125ZM7.30635 0C7.7033 0 8.23529 0.0365618 8.23529 0.655687C8.23529 1.27319 8.06235 1.61444 7.66541 1.61444C7.26929 1.61444 6.58824 1.73875 6.58824 1.11962C6.58824 0.502124 6.90941 0 7.30635 0Z" fill="#53536E"/>
</svg>
