<svg width="14" height="8" viewBox="0 0 14 8" fill="none" xmlns="http://www.w3.org/2000/svg">
<g clip-path="url(#clip0_4586_3698)">
<path d="M3.93493 3.9992C5.17568 3.9992 6.33243 4.42 7.38418 5.2384L7.59418 5.4072C8.38605 6.08 9.19805 6.4008 10.0599 6.4008C10.8081 6.4008 11.5868 5.8904 12.3918 4.7576C12.6543 4.3872 13.1968 4.2824 13.6019 4.5224C14.007 4.7632 14.1217 5.2584 13.8592 5.6288C12.7628 7.1728 11.4976 8 10.0599 8C8.81743 8 7.6598 7.5744 6.61417 6.752L6.4068 6.5824C5.6123 5.916 4.79855 5.5984 3.93493 5.5984C3.18593 5.5984 2.4098 6.1064 1.6083 7.2336C1.3458 7.604 0.803302 7.7096 0.398177 7.4688C-0.0069476 7.2288 -0.121575 6.7328 0.140925 6.3624C1.23468 4.8248 2.4973 4 3.93493 4V3.9992ZM3.93493 0C5.17568 0 6.33243 0.420799 7.38418 1.24L7.59418 1.408C8.38605 2.0816 9.19805 2.4016 10.0599 2.4016C10.8081 2.4016 11.5868 1.8912 12.3918 0.759201C12.6543 0.388801 13.1968 0.283199 13.6019 0.523999C14.007 0.763999 14.1217 1.26 13.8592 1.6304C12.7628 3.1728 11.4976 4 10.0599 4C8.81743 4 7.6598 3.5744 6.61417 2.752L6.4068 2.5824C5.6123 1.916 4.79855 1.5984 3.93493 1.5984C3.18593 1.5984 2.4098 2.1064 1.6083 3.2344C1.3458 3.6048 0.803302 3.7096 0.398177 3.4696C-0.0069476 3.2288 -0.121575 2.7336 0.140925 2.3632C1.23468 0.825599 2.4973 0 3.93493 0Z" fill="#53536E"/>
</g>
<defs>
<clipPath id="clip0_4586_3698">
<rect width="14" height="8" fill="white"/>
</clipPath>
</defs>
</svg>
