<svg width="20" height="19" viewBox="0 0 20 19" fill="none" xmlns="http://www.w3.org/2000/svg">
<path d="M12.4136 14.9403C12.414 14.7613 12.4849 14.5897 12.6107 14.4632C12.7365 14.3366 12.907 14.2653 13.0849 14.2648H15.7814C15.9593 14.2653 16.1298 14.3366 16.2556 14.4632C16.3814 14.5897 16.4522 14.7613 16.4527 14.9403C16.4522 15.1193 16.3814 15.2909 16.2556 15.4174C16.1298 15.544 15.9593 15.6153 15.7814 15.6158H13.0849C12.907 15.6153 12.7365 15.544 12.6107 15.4174C12.4849 15.2909 12.414 15.1193 12.4136 14.9403ZM7.04488 14.9403C7.04442 15.1193 6.97355 15.2909 6.84775 15.4174C6.72196 15.544 6.55148 15.6153 6.37358 15.6158H3.67706C3.49916 15.6153 3.32867 15.544 3.20288 15.4174C3.07709 15.2909 3.00621 15.1193 3.00575 14.9403C3.00621 14.7613 3.07709 14.5897 3.20288 14.4632C3.32867 14.3366 3.49916 14.2653 3.67706 14.2648H6.37358C6.55148 14.2653 6.72196 14.3366 6.84775 14.4632C6.97355 14.5897 7.04442 14.7613 7.04488 14.9403ZM3.79184 1.96905H15.7284C16.1623 1.96905 16.5136 2.32255 16.5136 2.75918L16.1118 11.8146C16.1118 12.0241 16.0291 12.226 15.8819 12.3741C15.7346 12.5223 15.5349 12.6056 15.3266 12.6056H4.19619C3.98793 12.6056 3.78821 12.5223 3.64095 12.3741C3.4937 12.226 3.41097 12.025 3.41097 11.8154L3.00923 2.75918C3.00923 2.32255 3.3614 1.96905 3.79532 1.96905H3.79184ZM19.1701 4.67005H17.8388V0.91993C17.8383 0.67702 17.7423 0.444177 17.5717 0.272332C17.4011 0.100486 17.1698 0.00362328 16.9284 0.00292969H2.59793C2.35683 0.00385292 2.12588 0.100697 1.95547 0.272329C1.78507 0.443961 1.68905 0.676447 1.68836 0.919055V4.66918H0.406622C0.300145 4.66941 0.198094 4.71208 0.122803 4.78784C0.0475123 4.8636 0.00511254 4.96629 0.00488281 5.07343V8.42118C0.00488281 8.6443 0.184883 8.82455 0.406622 8.82543H1.68836V18.9986H5.03184V17.2372H14.4797V18.9986H17.824V16.5144C17.8371 16.4567 17.8449 16.3902 17.8458 16.3219V8.82193H19.1771C19.2835 8.8217 19.3856 8.77903 19.4609 8.70327C19.5362 8.62751 19.5786 8.52482 19.5788 8.41768V5.06993C19.5786 4.96279 19.5362 4.8601 19.4609 4.78434C19.3856 4.70858 19.2835 4.66591 19.1771 4.66568L19.1701 4.67005Z" fill="#53536E"/>
</svg>
