<svg width="28" height="28" viewBox="0 0 28 28" fill="none" xmlns="http://www.w3.org/2000/svg"><path d="M15.75 26.25h-3.5a1.75 1.75 0 0 1-1.75-1.75v-6.125a1.75 1.75 0 0 1-1.75-1.75v-5.25a2.625 2.625 0 0 1 2.625-2.625h5.25a2.625 2.625 0 0 1 2.625 2.625v5.25a1.75 1.75 0 0 1-1.75 1.75V24.5a1.75 1.75 0 0 1-1.75 1.75ZM11.375 10.5a.824.824 0 0 0-.875.875v5.25h1.75V24.5h3.5v-7.875h1.75v-5.25a.824.824 0 0 0-.875-.875h-5.25ZM14 7.875a3.5 3.5 0 1 1 0-7 3.5 3.5 0 0 1 0 7Zm0-5.25a1.75 1.75 0 1 0 0 3.5 1.75 1.75 0 0 0 0-3.5Z" fill="#53536E"/></svg>