<svg width="20" height="20" viewBox="0 0 20 20" fill="none" xmlns="http://www.w3.org/2000/svg">
<path d="M9.99992 14.5833C10.9724 14.5833 11.905 14.197 12.5926 13.5094C13.2803 12.8218 13.6666 11.8891 13.6666 10.9167H6.33325C6.33325 11.8891 6.71956 12.8218 7.40719 13.5094C8.09483 14.197 9.02746 14.5833 9.99992 14.5833ZM8.16659 8.16667C8.16659 8.40978 8.07001 8.64294 7.8981 8.81485C7.72619 8.98676 7.49303 9.08333 7.24992 9.08333C7.0068 9.08333 6.77365 8.98676 6.60174 8.81485C6.42983 8.64294 6.33325 8.40978 6.33325 8.16667C6.33325 7.92355 6.42983 7.69039 6.60174 7.51849C6.77365 7.34658 7.0068 7.25 7.24992 7.25C7.49303 7.25 7.72619 7.34658 7.8981 7.51849C8.07001 7.69039 8.16659 7.92355 8.16659 8.16667V8.16667ZM12.7499 9.08333C12.993 9.08333 13.2262 8.98676 13.3981 8.81485C13.57 8.64294 13.6666 8.40978 13.6666 8.16667C13.6666 7.92355 13.57 7.69039 13.3981 7.51849C13.2262 7.34658 12.993 7.25 12.7499 7.25C12.5068 7.25 12.2736 7.34658 12.1017 7.51849C11.9298 7.69039 11.8333 7.92355 11.8333 8.16667C11.8333 8.40978 11.9298 8.64294 12.1017 8.81485C12.2736 8.98676 12.5068 9.08333 12.7499 9.08333V9.08333Z" fill="#53536E"/>
<path fill-rule="evenodd" clip-rule="evenodd" d="M19.1666 10C19.1666 15.0628 15.0627 19.1667 9.99992 19.1667C4.93717 19.1667 0.833252 15.0628 0.833252 10C0.833252 4.93729 4.93717 0.833374 9.99992 0.833374C15.0627 0.833374 19.1666 4.93729 19.1666 10ZM17.3333 10C17.3333 11.945 16.5606 13.8102 15.1854 15.1855C13.8101 16.5608 11.9448 17.3334 9.99992 17.3334C8.055 17.3334 6.18974 16.5608 4.81447 15.1855C3.4392 13.8102 2.66659 11.945 2.66659 10C2.66659 8.05512 3.4392 6.18986 4.81447 4.81459C6.18974 3.43932 8.055 2.66671 9.99992 2.66671C11.9448 2.66671 13.8101 3.43932 15.1854 4.81459C16.5606 6.18986 17.3333 8.05512 17.3333 10V10Z" fill="#53536E"/>
</svg>
