<svg width="28" height="28" viewBox="0 0 28 28" fill="none" xmlns="http://www.w3.org/2000/svg">
<path d="M22.522 7.31589H17.6767V6.11589C17.6758 5.55449 17.4399 5.01632 17.0208 4.61927C16.6017 4.22222 16.0335 3.99866 15.4406 3.99756H12.4601C11.8672 3.99844 11.2989 4.22179 10.8796 4.61868C10.4603 5.01558 10.2243 5.55366 10.2231 6.11506V7.31506H5.37781C4.74664 7.31528 4.1414 7.55287 3.69518 7.97558C3.24896 8.3983 2.99829 8.97153 2.99829 9.56923V20.6192C2.99818 20.9148 3.05958 21.2076 3.17898 21.4807C3.29839 21.7538 3.47347 22.002 3.69421 22.211C3.91494 22.4201 4.17701 22.5859 4.46544 22.6989C4.75387 22.812 5.063 22.8702 5.37517 22.8701H6.07565C6.06332 23.0258 6.0851 23.1822 6.13963 23.3296C6.19415 23.4769 6.28025 23.612 6.39251 23.7264C6.50478 23.8408 6.64079 23.932 6.79201 23.9942C6.94324 24.0564 7.10641 24.0884 7.27131 24.0881C7.4362 24.0879 7.59925 24.0553 7.75023 23.9925C7.90121 23.9298 8.03687 23.8381 8.14869 23.7234C8.2605 23.6086 8.34607 23.4732 8.40002 23.3256C8.45398 23.1781 8.47515 23.0216 8.46221 22.8659V22.8701H19.4235C19.4235 23.1698 19.5492 23.4572 19.773 23.6691C19.9968 23.881 20.3003 24.0001 20.6168 24.0001C20.9332 24.0001 21.2368 23.881 21.4605 23.6691C21.6843 23.4572 21.8101 23.1698 21.8101 22.8701H22.5105C22.8227 22.8702 23.1318 22.812 23.4203 22.6989C23.7087 22.5859 23.9708 22.4201 24.1915 22.211C24.4122 22.002 24.5873 21.7538 24.7067 21.4807C24.8261 21.2076 24.8875 20.9148 24.8874 20.6192V9.55089C24.8874 8.95791 24.6387 8.38922 24.1959 7.96992C23.7531 7.55062 23.1526 7.31506 22.5264 7.31506H22.5202L22.522 7.31589ZM11.8872 6.11589C11.8872 5.81589 12.1441 5.57256 12.4609 5.57256H15.4406C15.7574 5.57256 16.0144 5.81589 16.0144 6.11589V7.31589H11.8933V6.11589H11.8872ZM7.90341 20.4659C7.52033 20.4659 7.14498 20.3583 6.82646 20.1568C6.50794 19.9552 6.25969 19.6688 6.11309 19.3336C5.96649 18.9985 5.92813 18.6297 6.00287 18.2739C6.0776 17.9181 6.26207 17.5913 6.53295 17.3348C6.80383 17.0783 7.14895 16.9036 7.52467 16.8328C7.90038 16.762 8.28982 16.7984 8.64374 16.9372C8.99766 17.076 9.30016 17.3111 9.51299 17.6127C9.72582 17.9143 9.83941 18.269 9.83941 18.6317C9.83941 19.6442 8.97261 20.4651 7.90341 20.4659ZM11.0529 13.0659L12.3201 9.84339L15.7231 11.0434L14.4559 14.2667L11.0529 13.0659ZM16.5441 20.0126L15.7029 17.2584L22.0996 15.5109L22.9409 18.2651L16.5441 20.0126Z" fill="#53536E"/>
</svg>
