<svg width="26" height="26" viewBox="0 0 26 26" fill="none" xmlns="http://www.w3.org/2000/svg">
<path d="M13 4.85327C12.1815 4.85327 11.3814 5.09598 10.7008 5.55071C10.0203 6.00543 9.48987 6.65175 9.17665 7.40793C8.86343 8.16411 8.78147 8.9962 8.94115 9.79895C9.10083 10.6017 9.49497 11.3391 10.0737 11.9178C10.6525 12.4966 11.3899 12.8907 12.1926 13.0504C12.9954 13.2101 13.8275 13.1281 14.5836 12.8149C15.3398 12.5017 15.9861 11.9713 16.4409 11.2907C16.8956 10.6102 17.1383 9.81009 17.1383 8.9916C17.1383 7.89405 16.7023 6.84145 15.9262 6.06536C15.1501 5.28927 14.0975 4.85327 13 4.85327ZM13 11.6855C12.4672 11.6855 11.9463 11.5275 11.5033 11.2315C11.0603 10.9355 10.715 10.5148 10.5111 10.0225C10.3072 9.53027 10.2539 8.98862 10.3578 8.46605C10.4618 7.94349 10.7184 7.46348 11.0951 7.08674C11.4718 6.70999 11.9519 6.45342 12.4744 6.34948C12.997 6.24553 13.5386 6.29888 14.0309 6.50278C14.5231 6.70667 14.9438 7.05195 15.2399 7.49496C15.5359 7.93797 15.6939 8.4588 15.6939 8.9916C15.6919 9.70482 15.4073 10.3882 14.9023 10.8918C14.3973 11.3954 13.7132 11.6783 13 11.6783V11.6855Z" fill="#F8F9FA"/>
<path d="M13 1.44434C10.7504 1.44621 8.59302 2.33822 6.99894 3.92553C5.40487 5.51283 4.5037 7.66645 4.49225 9.916C4.49225 13.2888 6.38447 16.1127 7.77114 18.171L8.02391 18.5466C9.40356 20.5461 10.8836 22.4745 12.4584 24.3243L13.0072 24.9671L13.5561 24.3243C15.1307 22.4744 16.6107 20.546 17.9906 18.5466L18.2434 18.1638C19.6228 16.1054 21.515 13.2888 21.515 9.916C21.5036 7.6652 20.6014 5.51049 19.0058 3.92298C17.4101 2.33547 15.2509 1.44431 13 1.44434ZM17.0372 17.3332L16.7772 17.716C15.535 19.5793 13.8884 21.6666 13 22.6993C12.1478 21.6666 10.465 19.5793 9.2228 17.716L8.97003 17.3332C7.69169 15.4266 5.93669 12.8193 5.93669 9.88711C5.93669 8.95954 6.11939 8.04106 6.47436 7.18409C6.82932 6.32713 7.3496 5.54847 8.0055 4.89258C8.66139 4.23669 9.44004 3.71641 10.297 3.36144C11.154 3.00648 12.0725 2.82378 13 2.82378C13.9276 2.82378 14.8461 3.00648 15.703 3.36144C16.56 3.71641 17.3387 4.23669 17.9946 4.89258C18.6504 5.54847 19.1707 6.32713 19.5257 7.18409C19.8807 8.04106 20.0634 8.95954 20.0634 9.88711C20.0634 12.8482 18.3156 15.4554 17.0372 17.3332Z" fill="#F8F9FA"/>
</svg>
